# Blender v2.74 (sub 0) OBJ File: ''
# www.blender.org
mtllib Brotherhood.mtl
o Model001_7_mat0_0_0_0
v -0.019486 0.041210 -0.094823
v -0.019486 0.031210 -0.094823
v -0.019249 0.041210 -0.231377
v -0.019249 0.031210 -0.231377
v -0.019024 0.041210 -0.360904
v -0.019024 0.031210 -0.360904
v -0.018811 0.041210 -0.483335
v -0.018811 0.031210 -0.483335
v 0.085254 0.036210 0.107210
v 0.041313 0.036210 0.097055
v 0.101047 0.036210 0.129310
v 0.038870 0.036210 0.120543
v 0.060364 0.036210 0.155429
v 0.037920 0.036210 0.138143
v 0.079693 0.036210 0.175974
v 0.092627 0.036210 0.175358
v -0.009637 -0.007090 -0.272170
v -0.019486 0.036210 -0.094752
v -0.017976 0.036210 -0.272185
v -0.009637 0.036210 -0.272170
v -0.009637 0.079510 -0.272170
v -0.083571 0.036210 0.710269
v -0.053864 0.036210 0.737433
v -0.094131 0.041110 0.686900
v -0.112151 0.036210 0.645207
v -0.058018 0.036210 0.890943
v -0.016417 0.047910 0.946446
v -0.010230 0.036210 1.005862
v 0.017341 0.036210 0.593833
v -0.031013 0.036210 0.886660
v -0.067711 0.036210 0.571329
v -0.020666 0.056310 0.584825
v -0.020097 0.059810 0.257279
v 0.023490 0.036210 0.267788
v -0.077470 0.036210 0.249444
v -0.014907 0.047110 0.157853
v -0.038989 0.036210 0.148017
v -0.038953 0.036210 0.127222
v 0.014051 0.036210 0.168266
v -0.094131 0.031310 0.686900
v -0.020097 0.012610 0.257279
v -0.014907 0.025310 0.157853
v -0.016417 0.024510 0.946446
v -0.020666 0.016110 0.584825
v -0.077470 0.036210 0.249444
v -0.099922 0.036210 0.236558
v -0.038989 0.036210 0.148017
v -0.073607 0.036210 0.140931
v 0.000212 -0.050390 -0.449589
v -0.016396 0.036210 -0.449618
v 0.000212 0.122810 -0.449589
v 0.013241 0.040110 0.228096
v -0.000138 0.047810 0.240280
v 0.035995 0.059710 0.229555
v 0.014348 0.039810 0.241512
v -0.008855 0.046010 0.091574
v -0.008855 0.026410 0.091574
v -0.011324 0.046010 -0.073942
v -0.011324 0.026410 -0.073942
v -0.038953 0.021510 0.127222
v -0.014907 0.025310 0.157853
v -0.038953 0.050910 0.127222
v -0.014907 0.047110 0.157853
v 0.014348 0.039810 0.241512
v 0.001661 0.048010 0.262498
v 0.035995 0.059710 0.229555
v 0.014960 0.040210 0.255211
v 0.000919 0.050910 0.119981
v 0.022615 0.036210 0.120231
v 0.000919 0.021510 0.119981
v 0.022668 0.030810 0.130452
v 0.038870 0.036210 0.120543
v 0.037920 0.036210 0.138143
v 0.022668 0.041610 0.130452
v 0.024124 0.036210 0.146778
v 0.019310 0.042610 0.151312
v 0.041605 0.047910 0.173424
v 0.039230 0.059610 0.197977
v 0.065306 0.036210 0.199229
v 0.035995 0.059710 0.229555
v 0.058054 0.036210 0.224128
v 0.047864 0.036210 0.231918
v 0.035995 0.012710 0.229555
v 0.039230 0.012810 0.197977
v 0.007675 0.030110 0.218008
v 0.007710 0.031210 0.197993
v 0.009791 0.033310 0.179401
v 0.019310 0.029810 0.151312
v 0.005011 0.032810 0.164985
v -0.014907 0.025310 0.157853
v 0.041605 0.024510 0.173424
v -0.038953 0.021510 0.127222
v -0.008855 0.026410 0.091574
v -0.031117 0.026410 0.091535
v -0.031117 0.046010 0.091535
v -0.038953 0.050910 0.127222
v -0.008855 0.046010 0.091574
v 0.000919 0.050910 0.119981
v 0.000919 0.050910 0.119981
v -0.014907 0.047110 0.157853
v -0.038953 0.050910 0.127222
v -0.008855 0.046010 0.091574
v -0.031117 0.046010 0.091535
v 0.005011 0.039610 0.164985
v 0.009791 0.039110 0.179401
v 0.007710 0.041210 0.197993
v 0.007675 0.042310 0.218008
v 0.013241 0.040110 0.228096
v -0.008855 0.026410 0.091574
v -0.031117 0.026410 0.091535
v -0.011324 0.026410 -0.073942
v -0.027932 0.026410 -0.073971
v -0.027932 0.046010 -0.073971
v -0.011324 0.046010 -0.073942
v -0.027932 0.026410 -0.073971
v -0.011324 0.026410 -0.073942
v 0.023179 0.036210 0.283828
v 0.039428 0.051310 0.246949
v 0.004915 0.045810 0.301682
v 0.035995 0.059710 0.229555
v -0.008855 0.046010 0.091574
v -0.011324 0.046010 -0.073942
v -0.031117 0.046010 0.091535
v -0.027932 0.046010 -0.073971
v -0.031117 0.026410 0.091535
v -0.027932 0.026410 -0.073971
v 0.014960 0.032210 0.255211
v 0.035995 0.012710 0.229555
v 0.004915 0.026610 0.301682
v 0.039428 0.021110 0.246949
v 0.013241 0.032310 0.228096
v 0.035995 0.012710 0.229555
v -0.000138 0.024610 0.240280
v 0.014348 0.032610 0.241512
v 0.014348 0.032610 0.241512
v 0.035995 0.012710 0.229555
v 0.001661 0.024410 0.262498
v 0.014960 0.032210 0.255211
v 0.004915 0.026610 0.301682
v 0.023179 0.036210 0.283828
v 0.014960 0.032210 0.255211
v 0.014960 0.040210 0.255211
v 0.001661 0.024410 0.262498
v 0.014960 0.032210 0.255211
v 0.014348 0.032610 0.241512
v 0.014348 0.039810 0.241512
v 0.014960 0.040210 0.255211
v -0.000138 0.024610 0.240280
v 0.014348 0.032610 0.241512
v 0.013241 0.032310 0.228096
v 0.013241 0.040110 0.228096
v 0.014348 0.039810 0.241512
v 0.007675 0.030110 0.218008
v 0.013241 0.032310 0.228096
v 0.007675 0.042310 0.218008
v 0.013241 0.040110 0.228096
v 0.007710 0.031210 0.197993
v 0.007675 0.030110 0.218008
v 0.007710 0.041210 0.197993
v 0.007675 0.042310 0.218008
v 0.009791 0.033310 0.179401
v 0.007710 0.031210 0.197993
v 0.009791 0.039110 0.179401
v 0.007710 0.041210 0.197993
v 0.005011 0.032810 0.164985
v 0.009791 0.033310 0.179401
v 0.005011 0.039610 0.164985
v 0.009791 0.039110 0.179401
v -0.014907 0.025310 0.157853
v 0.005011 0.032810 0.164985
v -0.014907 0.047110 0.157853
v 0.005011 0.039610 0.164985
v 0.079693 0.036210 0.175974
v 0.060364 0.036210 0.155429
v 0.040347 0.036210 0.165047
v 0.039428 0.051310 0.246949
v 0.047906 0.036210 0.248313
v 0.035995 0.059710 0.229555
v 0.047864 0.036210 0.231918
v 0.035995 0.012710 0.229555
v 0.039428 0.021110 0.246949
v 0.022628 0.036210 0.316546
v 0.023179 0.036210 0.283828
v 0.014960 0.040210 0.255211
v 0.013241 0.032310 0.228096
v 0.004915 0.045810 0.301682
v 0.014960 0.040210 0.255211
v 0.014960 0.040210 0.255211
v 0.001661 0.048010 0.262498
v 0.014348 0.039810 0.241512
v 0.014348 0.039810 0.241512
v -0.000138 0.047810 0.240280
v 0.013241 0.040110 0.228096
v -0.034452 0.036210 -0.104146
v -0.004487 0.036210 -0.104094
v -0.034505 0.036210 -0.073982
v -0.004539 0.036210 -0.073930
vt 0.365967 0.990234
vt 0.365967 0.943359
vt 0.459229 0.990234
vt 0.459229 0.943359
vt 0.547119 0.990234
vt 0.547119 0.943359
vt 0.630371 0.990234
vt 0.630371 0.943359
vt 0.013672 0.859375
vt 0.009766 0.566406
vt 0.043213 0.983398
vt 0.041992 0.553711
vt 0.090088 0.713867
vt 0.065918 0.557617
vt 0.112305 0.875977
vt 0.111328 0.953125
vt 0.564209 0.665039
vt 0.425293 0.764648
vt 0.564209 0.764648
vt 0.564209 0.864258
vt 0.357178 0.486328
vt 0.361572 0.375977
vt 0.378906 0.586914
vt 0.415771 0.741211
vt 0.147461 0.289063
vt 0.094482 0.070313
vt 0.039795 0.012695
vt 0.495850 0.015625
vt 0.204834 0.219727
vt 0.512939 0.446289
vt 0.500732 0.176758
vt 0.854004 0.223633
vt 0.844727 0.041016
vt 0.862793 0.554688
vt 0.985107 0.233398
vt 0.993164 0.376953
vt 0.998291 0.333008
vt 0.973145 0.103516
vt 0.879639 0.661133
vt 0.993164 0.618164
vt 0.705811 0.565430
vt 0.705811 0.764648
vt 0.705811 0.963867
vt 0.237305 0.708984
vt 0.286865 0.589844
vt 0.202637 0.612305
vt 0.236816 0.492188
vt 0.994385 0.977539
vt 0.994385 0.953125
vt 0.721191 0.968750
vt 0.721191 0.913086
vt 0.114258 0.325195
vt 0.147949 0.389648
vt 0.120361 0.272461
vt 0.153076 0.359375
vt 0.389160 0.907227
vt 0.431396 0.907227
vt 0.371582 0.813477
vt 0.404053 0.776367
vt 0.040527 0.338867
vt 0.046143 0.472656
vt 0.048340 0.337891
vt 0.058105 0.478516
vt 0.079834 0.495117
vt 0.089355 0.469727
vt 0.121582 0.608398
vt 0.157471 0.586914
vt 0.140869 0.758789
vt 0.193115 0.571289
vt 0.167725 0.759766
vt 0.181641 0.750000
vt 0.184814 0.408203
vt 0.159424 0.408203
vt 0.130859 0.407227
vt 0.109375 0.360352
vt 0.107178 0.234375
vt 0.060059 0.111328
vt 0.004639 0.299805
vt 0.004639 0.153320
vt 0.004639 0.062500
vt 0.057861 0.083008
vt 0.004639 0.365234
vt 0.042480 0.394531
vt 0.194336 0.446289
vt 0.994385 0.726563
vt 0.721191 0.740234
vt 0.715332 0.564453
vt 0.763672 0.564453
vt 0.715332 0.670898
vt 0.763672 0.670898
vt 0.533691 0.508789
vt 0.460938 0.461914
vt 0.575684 0.626953
vt 0.390869 0.498047
vt 0.994385 0.697266
vt 0.721191 0.697266
vt 0.456543 0.682617
vt 0.835693 0.580078
vt 0.835693 0.623047
vt 0.862793 0.623047
vt 0.862793 0.669922
vt 0.835693 0.669922
vt 0.105225 0.575195
vt 0.228027 0.917969
vt 0.225830 0.759766
vt 0.208252 0.989258
vt 0.153320 0.824219
vt 0.292969 0.708008
vt 0.294189 0.839844
vt 0.305664 0.684570
vt 0.305664 0.913086
vt 0.364258 0.684570
vt 0.364258 0.913086
vn 1.000000 0.000000 0.001700
vn -0.000000 1.000000 0.000000
vn -0.000300 -1.000000 0.000200
vn -0.000000 -1.000000 0.000000
vn -0.998400 0.000000 -0.055700
vn -0.000000 -1.000000 0.000100
vn -0.998500 0.000000 -0.055500
vn -0.999900 0.000000 -0.016900
vn -0.998500 0.000000 -0.055400
vn -0.000000 1.000000 -0.001200
vn 0.983300 0.000000 -0.182100
vn 0.999800 -0.001100 0.020100
vn 0.037200 0.999200 -0.013100
vn 0.058700 0.000000 -0.998300
vn -0.957000 -0.000000 0.290000
vn 0.100600 0.994900 -0.012000
vn 0.734700 0.000000 0.678400
vn 0.999200 -0.000000 0.040400
vn 0.670000 -0.000000 -0.742400
vn -0.997100 -0.000000 0.075900
vn 0.020700 0.999800 0.008300
vn 0.054600 0.998300 -0.019100
vn 0.999200 -0.000000 -0.038800
vn -0.972500 -0.000000 -0.232700
vn -0.101700 0.993500 -0.050400
vn -0.984200 -0.000000 -0.177000
vn -1.000000 0.000000 -0.001700
vn 0.986500 0.000000 -0.163600
vn 0.037200 -0.999200 -0.013100
vn 0.054600 -0.998300 -0.019100
vn -0.101700 -0.993500 -0.050400
vn 0.100600 -0.994900 -0.012000
vn 0.020700 -0.999800 0.008300
vn -0.089200 0.987900 -0.126600
vn -0.000000 1.000000 0.000100
vn 0.000000 1.000000 0.000200
vn -0.982100 0.185700 -0.031800
vn 0.000000 1.000000 -0.001300
vn -0.981700 0.166700 0.092100
vn -0.840000 0.472300 0.267000
vn 0.134300 0.981400 0.137200
vn -0.958700 -0.258200 0.119500
vn 0.553300 0.815300 -0.170800
vn 0.565400 -0.817500 -0.110100
vn 0.498000 0.703500 -0.506900
vn 0.315900 -0.892700 -0.321500
vn -0.544900 -0.838500 0.010800
vn -0.314300 -0.796700 0.516200
vn -0.509100 0.842200 0.177500
vn -0.225400 0.788000 0.572900
vn -0.958700 -0.258200 0.119400
vn -0.909100 0.129000 0.396100
vn 0.134300 0.981400 0.137100
vn -0.899300 -0.340100 0.274900
vn 0.245300 0.944600 -0.218200
vn 0.338900 0.000000 -0.940800
vn 0.358900 -0.899000 -0.251100
vn 0.230500 -0.972100 -0.042900
vn 0.582600 0.000000 -0.812800
vn 0.850700 -0.000000 0.525600
vn 0.230500 0.972100 -0.042900
vn 0.926700 -0.000000 -0.375900
vn 0.119800 0.992500 -0.025200
vn 0.206300 0.940300 -0.270700
vn -0.039100 0.995800 -0.082600
vn 0.997500 0.000000 0.070800
vn 0.793700 0.000100 0.608300
vn 0.887000 -0.000000 0.461700
vn 0.134300 -0.981400 0.137100
vn -0.039100 -0.995800 -0.082600
vn -0.737000 -0.660600 0.143100
vn -0.818100 -0.569000 -0.083400
vn -0.685200 -0.724800 0.072400
vn 0.119700 -0.992500 -0.025200
vn -0.385800 -0.673600 0.630400
vn 0.206300 -0.940300 -0.270700
vn -0.544800 -0.838500 0.010900
vn 0.565300 -0.817500 -0.110100
vn -0.573300 -0.816600 -0.067400
vn -0.568400 0.815900 -0.106100
vn -0.225400 0.788100 0.572900
vn -0.509200 0.842200 0.177400
vn -0.568400 0.815900 -0.106000
vn -0.545300 0.684700 0.483500
vn -0.691300 0.722600 -0.004300
vn -0.820000 0.569300 -0.058700
vn -0.714700 0.660700 0.229600
vn -0.573400 -0.816500 -0.067400
vn 0.316000 -0.892600 -0.321500
vn -0.373700 -0.530700 -0.760700
vn -0.750800 0.531700 -0.392000
vn 0.498100 0.703500 -0.506900
vn -0.767100 -0.000000 0.641600
vn 0.348300 0.917700 0.191100
vn -0.041900 0.958400 0.282500
vn 0.498000 0.703600 -0.506900
vn -0.750700 0.531700 -0.392000
vn -0.573300 -0.816500 -0.067400
vn -0.373700 -0.530800 -0.760700
vn -0.939200 0.262000 0.222000
vn 0.134300 -0.981400 0.137200
vn -0.041900 -0.958400 0.282500
vn 0.348300 -0.917700 0.191100
vn -0.966600 -0.169100 0.192500
vn -0.840000 -0.472300 0.267000
vn -0.957700 0.258000 0.127700
vn -0.957600 0.258100 0.127700
vn -0.909100 -0.129000 0.396100
vn -0.939100 0.262200 0.222200
vn -0.041900 -0.958300 0.282500
vn -0.939200 0.262000 0.222100
vn -0.899300 -0.340200 0.274900
vn -0.909200 -0.129000 0.396000
vn -0.939100 0.262100 0.222100
vn -0.840100 -0.472200 0.267000
vn -0.966600 -0.169200 0.192500
vn -0.966600 -0.169200 0.192600
vn -0.714700 0.660600 0.229600
vn -0.545300 0.684800 0.483500
vn -0.691300 0.722600 -0.004400
vn -0.314400 -0.796700 0.516200
vn 0.981300 -0.000100 -0.192300
vn -0.102200 0.000000 -0.994800
vn 0.268300 0.000000 -0.963300
vn 0.348300 0.917700 0.191000
vn 0.989900 -0.000000 0.141700
vn 0.348300 -0.917700 0.191000
vn 0.543700 0.000000 0.839300
vn -0.767000 0.000100 0.641600
vn -0.041900 0.958300 0.282500
vn -0.899300 -0.340200 0.275000
vn -0.909200 0.129000 0.396000
vn -0.840100 0.472200 0.267000
vn -0.981700 0.166700 0.092200
usemtl Model001_Material001
s 1
f 1/1/1 2/2/1 3/3/1
f 3/3/1 2/2/1 4/4/1
f 3/3/1 4/4/1 5/5/1
f 5/5/1 4/4/1 6/6/1
f 5/5/1 6/6/1 7/7/1
f 7/7/1 6/6/1 8/8/1
f 9/9/2 10/10/2 11/11/3
f 11/11/3 10/10/2 12/12/2
f 13/13/4 12/12/2 14/14/2
f 12/12/2 11/11/4 13/13/4
f 11/11/4 15/15/4 13/13/4
f 16/16/4 15/15/4 11/11/4
f 17/17/5 18/18/4 19/19/2
f 18/18/6 20/19/7 21/20/8
f 17/17/5 18/18/4 20/19/9
f 18/18/4 19/19/10 21/20/8
f 22/21/11 23/22/12 24/23/13
f 24/23/13 23/22/12 25/24/14
f 25/24/14 26/25/15 24/23/13
f 24/23/13 26/25/15 27/26/16
f 26/25/15 28/27/17 27/26/16
f 27/26/16 28/27/17 29/28/18
f 30/29/19 27/26/16 31/30/20
f 31/30/20 27/26/16 32/31/21
f 27/26/16 29/28/18 32/31/21
f 32/31/21 29/28/18 33/32/22
f 29/28/18 34/33/23 33/32/22
f 32/31/21 33/32/22 31/30/20
f 31/30/20 33/32/22 35/34/24
f 33/32/22 36/35/25 35/34/24
f 35/34/24 36/35/25 37/36/26
f 36/35/25 38/37/27 37/36/26
f 36/35/25 33/32/22 39/38/28
f 39/38/28 33/32/22 34/33/23
f 22/21/11 40/23/29 23/22/12
f 23/22/12 40/23/29 25/24/14
f 40/23/29 26/25/15 25/24/14
f 39/38/28 41/32/30 42/35/31
f 42/35/31 41/32/30 35/34/24
f 41/32/30 31/30/20 35/34/24
f 35/34/24 37/36/26 42/35/31
f 42/35/31 37/36/26 38/37/27
f 39/38/28 34/33/23 41/32/30
f 41/32/30 34/33/23 29/28/18
f 22/21/11 43/26/32 40/23/29
f 40/23/29 43/26/32 26/25/15
f 43/26/32 28/27/17 26/25/15
f 28/27/17 43/26/32 29/28/18
f 29/28/18 43/26/32 44/31/33
f 43/26/32 31/30/20 44/31/33
f 44/31/33 31/30/20 41/32/30
f 41/32/30 29/28/18 44/31/33
f 31/30/20 43/26/32 30/29/19
f 27/26/16 22/21/11 24/23/13
f 43/26/32 22/21/11 30/29/19
f 22/21/11 27/26/16 30/29/19
f 45/34/4 46/39/4 47/36/4
f 47/36/4 46/39/4 48/40/4
f 49/41/34 50/42/35 19/19/36
f 21/20/8 51/43/37 20/19/9
f 17/17/5 49/41/34 19/19/36
f 17/17/5 20/19/9 49/41/34
f 51/43/37 49/41/34 20/19/9
f 51/43/37 19/19/38 21/20/8
f 19/19/38 51/43/37 50/42/2
f 52/44/39 53/45/40 54/46/41
f 54/46/41 53/45/40 55/47/42
f 56/48/43 57/49/44 58/50/45
f 58/50/45 57/49/44 59/51/46
f 60/52/47 61/53/48 62/54/49
f 62/54/49 61/53/48 63/55/50
f 64/56/51 65/57/52 66/58/53
f 66/58/53 65/57/52 67/59/54
f 68/60/55 69/61/56 70/62/57
f 70/62/57 69/61/56 71/63/58
f 69/61/56 72/12/59 71/63/58
f 71/63/58 72/12/59 73/14/60
f 72/12/59 74/63/61 73/14/60
f 73/14/60 74/63/61 75/64/62
f 74/63/61 76/65/63 75/64/62
f 75/64/62 76/65/63 77/66/64
f 76/65/63 78/67/65 77/66/64
f 77/66/64 78/67/65 79/68/66
f 78/67/65 80/69/53 79/68/66
f 79/68/66 80/69/53 81/70/67
f 80/69/53 82/71/68 81/70/67
f 81/70/67 82/71/68 83/69/69
f 81/70/67 83/69/69 79/68/66
f 79/68/66 83/69/69 84/67/70
f 83/69/69 85/72/71 84/67/70
f 84/67/70 85/72/71 86/73/72
f 86/73/72 87/74/73 84/67/70
f 84/67/70 87/74/73 88/65/74
f 87/74/73 89/75/75 88/65/74
f 88/65/74 89/75/75 90/76/48
f 73/14/60 75/64/62 71/63/58
f 71/63/58 75/64/62 88/65/74
f 75/64/62 91/66/76 88/65/74
f 88/65/74 91/66/76 84/67/70
f 91/66/76 79/68/66 84/67/70
f 71/63/58 88/65/74 70/62/57
f 70/62/57 88/65/74 90/76/48
f 90/76/48 92/77/77 70/62/57
f 70/62/57 92/77/77 93/78/78
f 92/77/77 94/79/79 93/78/78
f 94/79/79 92/77/77 95/80/80
f 95/80/80 92/77/77 96/81/49
f 93/78/78 97/82/43 70/62/57
f 70/62/57 97/82/43 98/83/55
f 72/12/59 69/61/56 74/63/61
f 74/63/61 69/61/56 99/62/55
f 74/63/61 99/62/55 76/65/63
f 76/65/63 99/62/55 100/76/81
f 99/62/55 101/77/82 100/76/81
f 99/62/55 102/78/43 101/77/82
f 101/77/82 102/78/43 103/79/83
f 100/76/81 104/75/84 76/65/63
f 76/65/63 104/75/84 105/74/85
f 76/65/63 105/74/85 78/67/65
f 78/67/65 105/74/85 106/73/86
f 106/73/86 107/72/87 78/67/65
f 78/67/65 107/72/87 80/69/53
f 107/72/87 108/84/39 80/69/53
f 109/85/44 110/49/88 111/86/89
f 111/86/89 110/49/88 112/51/90
f 113/87/91 114/88/92 115/89/90
f 115/89/90 114/88/92 116/90/89
f 117/91/93 118/92/94 119/93/95
f 119/93/95 118/92/94 120/94/41
f 121/49/43 122/51/96 123/85/80
f 123/85/80 122/51/96 124/86/97
f 123/85/80 124/86/97 125/95/98
f 125/95/98 124/86/97 126/96/99
f 127/97/100 128/94/101 129/93/102
f 129/93/102 128/94/101 130/92/103
f 131/44/104 132/46/101 133/45/105
f 133/45/105 132/46/101 134/47/106
f 135/56/107 136/58/69 137/57/108
f 137/57/108 136/58/69 138/59/109
f 139/98/110 140/99/93 141/100/111
f 141/100/111 140/99/93 142/101/112
f 143/98/113 144/99/114 145/100/107
f 145/100/107 144/99/114 146/101/51
f 144/99/114 147/102/112 146/101/51
f 148/98/115 149/99/107 150/100/116
f 150/100/116 149/99/107 151/101/39
f 149/99/107 152/102/51 151/101/39
f 153/100/71 154/99/117 155/101/87
f 155/101/87 154/99/117 156/102/39
f 157/100/72 158/99/71 159/101/86
f 159/101/86 158/99/71 160/102/118
f 161/100/73 162/99/72 163/101/85
f 163/101/85 162/99/72 164/102/86
f 165/100/75 166/99/73 167/101/119
f 167/101/119 166/99/73 168/102/120
f 169/100/121 170/99/75 171/101/50
f 171/101/50 170/99/75 172/102/119
f 79/68/66 91/66/76 173/15/122
f 173/15/122 91/66/76 174/13/123
f 91/66/76 175/103/124 174/13/123
f 174/13/123 175/103/124 77/66/64
f 175/103/124 75/64/62 77/66/64
f 174/13/123 77/66/64 173/15/122
f 173/15/122 77/66/64 79/68/66
f 176/104/125 177/105/126 178/106/41
f 178/106/41 177/105/126 179/107/68
f 177/105/126 180/106/101 179/107/68
f 180/106/101 177/105/126 181/104/127
f 181/104/127 177/105/126 182/108/128
f 177/105/126 176/104/125 182/108/128
f 182/108/128 176/104/125 183/109/129
f 182/108/128 183/109/129 181/104/127
f 91/66/76 75/64/62 175/103/124
f 129/93/102 130/92/103 117/91/93
f 120/94/41 184/97/112 119/93/95
f 85/72/71 83/69/69 185/84/117
f 140/99/93 186/98/130 187/100/131
f 188/99/112 189/98/132 190/100/51
f 191/99/51 192/98/133 193/100/134
f 194/110/4 195/111/4 196/112/4
f 196/112/4 195/111/4 197/113/4
