# Blender v2.74 (sub 0) OBJ File: ''
# www.blender.org
mtllib Caladbolg.mtl
o Model001_7_mat0_0_0_0
v 0.007612 -0.008436 0.214746
v 0.011558 -0.017636 0.226812
v 0.011558 0.000764 0.226812
v -0.008369 0.002164 0.229737
v -0.008369 -0.019036 0.229737
v -0.009362 -0.008436 0.212819
v -0.079349 0.002164 0.295727
v -0.101953 -0.000136 0.231128
v -0.079349 -0.019036 0.295727
v -0.101953 -0.016736 0.231128
v -0.143640 -0.008436 0.192478
v -0.056344 -0.019036 0.226018
v -0.101953 -0.016736 0.231128
v -0.090494 -0.008436 0.206130
v -0.143640 -0.008436 0.192478
v -0.101953 -0.000136 0.231128
v -0.056344 0.002164 0.226018
v -0.056344 -0.019036 0.226018
v -0.126490 -0.016736 0.325475
v -0.151947 -0.008436 0.234543
v -0.126490 -0.000136 0.325475
v -0.085337 0.002164 0.400093
v -0.085337 -0.019036 0.400093
v -0.029730 -0.019036 0.226041
v -0.004242 -0.019036 0.282036
v -0.056344 -0.019036 0.226018
v -0.079349 -0.019036 0.295727
v 0.005811 -0.019036 0.302566
v -0.081266 -0.019036 0.350080
v -0.010063 -0.019036 0.360659
v -0.085337 -0.019036 0.400093
v 0.001011 -0.019036 0.364346
v -0.014809 -0.019036 0.443034
v 0.022319 -0.008436 0.345461
v -0.001568 -0.008436 0.435984
v 0.003282 -0.008436 0.653851
v -0.023215 0.002164 0.768644
v -0.010842 -0.008436 0.767478
v -0.015538 0.002164 0.791599
v -0.080593 0.002164 0.825819
v -0.025349 0.002164 0.909422
v -0.055277 0.002164 0.915207
v -0.031426 0.002163 1.034162
v -0.043739 0.002163 1.050039
v -0.043803 -0.008437 1.124400
v -0.071474 -0.008437 1.014342
v 0.001011 0.002164 0.364346
v -0.014809 0.002164 0.443034
v -0.085337 0.002164 0.400093
v -0.010063 0.002164 0.360659
v -0.081266 0.002164 0.350080
v 0.005811 0.002164 0.302566
v -0.079349 0.002164 0.295727
v -0.004242 0.002164 0.282036
v -0.056344 0.002164 0.226018
v -0.029730 0.002164 0.226041
v -0.043739 -0.019037 1.050039
v -0.031426 -0.019037 1.034162
v -0.055277 -0.019036 0.915207
v -0.025349 -0.019036 0.909422
v -0.080593 -0.019036 0.825819
v -0.015538 -0.019036 0.791599
v -0.023215 -0.019036 0.768644
v -0.012184 0.002164 0.654059
v -0.065305 0.002164 0.612824
v -0.078371 0.002164 0.751680
v -0.075735 -0.008436 0.612594
v -0.090959 -0.008436 0.751596
v -0.018349 -0.008437 1.052046
v -0.012046 -0.008436 0.914361
v 0.031249 -0.008436 0.754715
v 0.001723 -0.019036 0.794262
v -0.012184 -0.019036 0.654059
v -0.065305 -0.019036 0.612824
v -0.078371 -0.019036 0.751680
v 0.035063 -0.008436 0.246323
v 0.027385 -0.008436 0.224766
v 0.019525 0.000064 0.246751
v 0.011558 0.000764 0.226812
v 0.049917 -0.008436 0.203234
v 0.007612 -0.008436 0.214746
v 0.019525 -0.016936 0.246751
v 0.011558 -0.017636 0.226812
v -0.008369 -0.019036 0.229737
v -0.126490 -0.000136 0.325475
v -0.086049 0.002164 0.476072
v -0.008369 0.002164 0.229737
v 0.010141 -0.008436 0.286535
v -0.060969 -0.008437 1.009938
v -0.067726 -0.008436 0.920933
v -0.092467 -0.008436 0.832576
v -0.086049 -0.019036 0.476072
v -0.126490 -0.016736 0.325475
v 0.003543 -0.008436 0.346843
v 0.010822 -0.008436 0.331403
v -0.086049 -0.019036 0.476072
v -0.098643 -0.008436 0.482975
v 0.002677 -0.008436 0.772859
v 0.001723 0.002164 0.794262
v -0.086049 0.002164 0.476072
v -0.029730 0.002164 0.226041
v -0.008369 0.002164 0.229737
v -0.100419 0.002164 0.288206
v 0.015162 -0.008436 0.303089
v -0.014809 -0.019036 0.443034
v -0.151947 -0.008436 0.234543
v -0.149564 -0.008436 0.307068
v -0.009362 -0.008436 0.212819
v -0.101953 -0.000136 0.231128
v -0.029730 -0.019036 0.226041
v -0.086049 0.002164 0.476072
v -0.014809 0.002164 0.443034
v -0.029730 -0.019036 0.226041
v -0.008369 -0.019036 0.229737
v -0.100419 -0.019036 0.288206
v -0.101953 -0.016736 0.231128
v -0.086049 -0.019036 0.476072
v -0.069553 -0.008436 0.026827
v -0.060562 -0.001036 0.026688
v -0.060562 -0.015836 0.026688
v -0.042843 -0.008436 -0.000732
v -0.025172 -0.001036 0.026718
v -0.025172 -0.015836 0.026718
v -0.016181 -0.008436 0.026873
v -0.056344 -0.019036 0.226018
v -0.056344 0.002164 0.226018
v -0.051593 -0.018736 0.052953
v -0.051593 0.001864 0.052953
v -0.029730 0.002164 0.226041
v -0.034186 0.001864 0.052968
v -0.034186 -0.018736 0.052968
v -0.051593 -0.018736 0.052953
v -0.051593 0.001864 0.052953
v -0.034186 0.001864 0.052968
v -0.060562 -0.015836 0.026688
v -0.051593 -0.018736 0.052953
v -0.034186 -0.018736 0.052968
v -0.025172 -0.015836 0.026718
v -0.034186 -0.018736 0.052968
v -0.029730 -0.019036 0.226041
v -0.051593 -0.018736 0.052953
v -0.056344 -0.019036 0.226018
v -0.034186 -0.018736 0.052968
v -0.029730 -0.019036 0.226041
v -0.117090 -0.008436 0.268039
v -0.093940 -0.008436 0.366913
v -0.111839 -0.008436 0.353438
v -0.095591 -0.008436 0.277913
v -0.101953 -0.008436 0.231128
v -0.095591 -0.008436 0.277913
v -0.090741 -0.008436 0.073735
v -0.177370 -0.008436 0.017762
v -0.056344 -0.008436 0.226018
vt 0.807861 0.351563
vt 0.795410 0.381836
vt 0.795410 0.324219
vt 0.774658 0.324219
vt 0.774658 0.381836
vt 0.757568 0.351563
vt 0.588867 0.618164
vt 0.531006 0.618164
vt 0.588867 0.576172
vt 0.531006 0.576172
vt 0.483887 0.602539
vt 0.059326 0.641602
vt 0.062988 0.831055
vt 0.088379 0.765625
vt 0.113525 0.985352
vt 0.062988 0.621094
vt 0.604248 0.110352
vt 0.434326 0.062500
vt 0.604248 0.014648
vt 0.757324 0.014648
vt 0.757324 0.110352
vt 0.978271 0.374023
vt 0.915771 0.269531
vt 0.979248 0.487305
vt 0.901611 0.593750
vt 0.892578 0.214844
vt 0.843018 0.608398
vt 0.832275 0.287109
vt 0.786621 0.623047
vt 0.825195 0.241211
vt 0.741699 0.308594
vt 0.843750 0.148438
vt 0.747559 0.256836
vt 0.511963 0.235352
vt 0.388672 0.374023
vt 0.390381 0.312500
vt 0.363770 0.339844
vt 0.328125 0.613281
vt 0.236572 0.377930
vt 0.230469 0.511719
vt 0.101807 0.418945
vt 0.085205 0.469727
vt 0.001953 0.469727
vt 0.122803 0.603516
vt 0.512451 0.312500
vt 0.555908 0.534180
vt 0.407471 0.616211
vt 0.559082 0.603516
vt 0.407471 0.686523
vt 0.081787 0.354492
vt 0.230713 0.320313
vt 0.402832 0.126953
vt 0.360596 0.263672
vt 0.950684 0.078125
vt 0.975098 0.103516
vt 0.951904 0.152344
vt 0.973389 0.181641
vt 0.997803 0.007813
vt 0.993896 0.181641
vt 0.974365 0.279297
vt 0.861816 0.805664
vt 0.710938 0.613281
vt 0.909424 0.194336
vt 0.127930 0.556641
vt 0.224121 0.583984
vt 0.319580 0.690430
vt 0.844727 0.230469
vt 0.861084 0.201172
vt 0.711182 0.613281
vt 0.701660 0.689453
vt 0.385254 0.257813
vt 0.978271 0.373047
vt 0.974121 0.279297
vt 0.910645 0.693359
vt 0.890381 0.175781
vt 0.741455 0.308594
vt 0.968018 0.925781
vt 0.890381 0.910156
vt 0.994629 0.283203
vt 0.977539 0.708008
vt 0.991943 0.374023
vt 0.710938 0.614258
vt 0.096436 0.135742
vt 0.083008 0.135742
vt 0.090820 0.084961
vt 0.054688 0.007813
vt 0.029297 0.135742
vt 0.018555 0.084961
vt 0.012939 0.135742
vt 0.416504 0.975586
vt 0.416504 0.918945
vt 0.658203 0.975586
vt 0.658203 0.901367
vt 0.416504 0.764648
vt 0.658203 0.781250
vt 0.658203 0.703125
vt 0.089111 0.323242
vt 0.070557 0.288086
vt 0.041748 0.288086
vt 0.020996 0.329102
vt 0.416504 0.703125
vt 0.935059 0.768555
vt 0.832031 0.675781
vt 0.844971 0.756836
vt 0.926270 0.670898
vt 0.970703 0.687500
vt 0.926514 0.669922
vt 0.230713 0.649414
vt 0.310059 0.985352
vt 0.064453 0.627930
vn -0.891200 -0.000100 -0.453600
vn -0.071100 -0.957700 -0.278700
vn -0.051600 0.989900 -0.132200
vn 0.172900 0.835500 -0.521600
vn 0.221200 -0.913400 -0.341700
vn 0.320800 -0.000100 -0.947100
vn -0.135600 0.990600 -0.015700
vn -0.527700 0.827700 0.191000
vn -0.231500 -0.972600 0.020800
vn -0.373400 -0.917800 0.135200
vn -0.869100 -0.000000 0.494600
vn -0.086300 -0.981500 -0.170700
vn -0.373400 -0.917700 0.135200
vn 0.140100 0.821900 -0.552100
vn -0.869100 0.000100 0.494600
vn -0.869100 -0.000100 0.494600
vn -0.527600 0.827700 0.191000
vn 0.140200 0.821900 -0.552100
vn -0.223400 0.959500 -0.171500
vn -0.086200 -0.981500 -0.170700
vn 0.445500 -0.858200 -0.254900
vn 0.861600 -0.000000 -0.507600
vn 0.287200 0.943800 -0.163800
vn 0.140300 0.980300 -0.139400
vn 0.050200 -0.994900 -0.087400
vn 0.076800 -0.978700 -0.190500
vn 0.095200 -0.995500 -0.002400
vn 0.254500 -0.966800 -0.024600
vn -0.117900 -0.993000 0.009600
vn 0.173000 -0.984900 0.010900
vn 0.074400 -0.991100 -0.110500
vn 0.155400 -0.987600 0.024100
vn 0.980400 -0.000000 -0.197000
vn 0.996000 0.000000 0.089500
vn 0.997300 0.000000 0.072900
vn 0.159000 0.987300 -0.007200
vn 0.943800 -0.000000 -0.330600
vn 0.083000 0.991400 -0.100900
vn -0.166600 0.986000 0.012100
vn 0.138500 0.990000 0.025300
vn -0.211000 0.976700 0.038900
vn 0.183000 0.982400 0.036300
vn -0.118900 0.992800 0.012000
vn 0.331700 -0.000000 0.943400
vn -0.988600 0.000000 -0.150700
vn 0.074400 0.991100 -0.110500
vn 0.155400 0.987600 0.024100
vn 0.140200 0.980200 -0.139500
vn 0.173000 0.984900 0.010900
vn -0.117900 0.993000 0.009600
vn 0.254500 0.966800 -0.024500
vn -0.135600 0.990600 -0.015600
vn 0.095200 0.995500 -0.002400
vn 0.215600 0.957800 -0.190200
vn -0.118900 -0.992800 0.012000
vn 0.183000 -0.982400 0.036300
vn -0.211000 -0.976700 0.039000
vn 0.138500 -0.990000 0.025300
vn -0.166600 -0.986000 0.012100
vn 0.083000 -0.991400 -0.100900
vn 0.159000 -0.987300 -0.007200
vn 0.208400 0.978000 0.003700
vn -0.181600 0.983300 0.014500
vn -0.250300 0.967900 -0.020900
vn -1.000000 0.000000 -0.005000
vn -0.998500 -0.000000 -0.054700
vn 0.983300 0.000000 0.182200
vn 0.992300 0.000000 0.124200
vn 0.975500 0.000000 -0.220200
vn 0.035800 -0.992700 -0.115100
vn 0.208400 -0.978000 0.003700
vn -0.181600 -0.983300 0.014500
vn -0.250300 -0.967900 -0.020900
vn 0.990500 -0.000000 0.137500
vn 0.989100 -0.000000 0.147400
vn 0.234100 0.971700 0.031800
vn -0.051600 0.989900 -0.132300
vn 0.992900 -0.000000 -0.119300
vn -0.891200 -0.000000 -0.453600
vn 0.234100 -0.971700 0.031800
vn -0.071100 -0.957700 -0.278800
vn 0.221200 -0.913400 -0.341800
vn 0.287200 0.943800 -0.163700
vn -0.160300 0.986400 0.036200
vn 0.172900 0.835500 -0.521700
vn 1.000000 0.000000 0.006700
vn -0.997000 0.000000 -0.077900
vn -0.983900 0.000000 0.178900
vn -0.984200 0.000000 0.177200
vn -0.160300 -0.986400 0.036200
vn 0.445600 -0.858200 -0.254900
vn 0.855800 0.000000 -0.517400
vn 0.952000 -0.000000 0.306000
vn -0.978300 0.000000 0.207000
vn -0.051000 -0.000000 -0.998700
vn 0.035800 0.992700 -0.115100
vn -0.081600 0.988000 -0.131300
vn 0.997000 -0.000000 -0.077900
vn -0.976900 -0.000000 0.213500
vn 0.320800 -0.000000 -0.947200
vn -0.976900 0.000000 0.213600
vn -0.081600 -0.988000 -0.131300
vn -0.160200 -0.986400 0.036200
vn -0.993200 0.000000 -0.116000
vn -0.233700 0.918900 -0.317800
vn -0.233700 -0.918900 -0.317700
vn 0.000900 0.000000 -1.000000
vn 0.300200 0.871200 -0.388500
vn 0.300200 -0.871200 -0.388500
vn 0.993400 0.000000 -0.114300
vn -0.525100 -0.846600 0.087200
vn -0.395900 0.912800 0.099900
vn 0.396600 0.914000 0.085800
vn 0.525800 -0.847200 0.076400
vn -0.525100 -0.846600 0.087100
vn -0.395900 0.912900 0.099900
vn 0.525800 -0.847200 0.076300
vn -0.607400 -0.000000 -0.794400
vn -0.998400 0.000000 -0.056300
vn 0.584200 0.000000 -0.811600
vn -0.063800 0.000100 -0.998000
vn -0.990000 -0.000000 0.140800
vn -0.063800 0.000000 -0.998000
vn -0.000000 1.000000 0.000000
vn 0.000000 -1.000000 -0.000000
usemtl Model001_Material001
s 1
f 1/1/1 2/2/2 3/3/3
f 3/3/3 2/2/2 4/4/4
f 2/2/2 5/5/5 4/4/4
f 4/4/4 5/5/5 6/6/6
f 7/7/7 8/8/8 9/9/9
f 9/9/9 8/8/8 10/10/10
f 8/8/8 11/11/11 10/10/10
f 12/12/12 13/13/13 14/14/14
f 14/14/14 13/13/13 15/15/15
f 15/15/16 16/13/17 14/14/18
f 14/14/18 16/13/17 17/12/19
f 18/16/20 14/14/18 17/12/19
f 19/17/21 20/18/22 21/19/23
f 22/20/24 19/17/21 21/19/23
f 19/17/21 22/20/24 23/21/25
f 24/22/26 25/23/27 26/24/12
f 26/24/12 25/23/27 27/25/9
f 25/23/27 28/26/28 27/25/9
f 27/25/9 28/26/28 29/27/29
f 28/26/28 30/28/30 29/27/29
f 29/27/29 30/28/30 31/29/25
f 30/28/30 32/30/31 31/29/25
f 31/29/25 32/30/31 33/31/32
f 32/30/31 34/32/33 33/31/32
f 33/31/32 34/32/33 35/33/34
f 36/34/35 37/35/36 38/36/37
f 38/36/37 37/35/36 39/37/38
f 37/35/36 40/38/39 39/37/38
f 39/37/38 40/38/39 41/39/40
f 40/38/39 42/40/41 41/39/40
f 41/39/40 42/40/41 43/41/42
f 42/40/41 44/42/43 43/41/42
f 43/41/42 44/42/43 45/43/44
f 44/42/43 46/44/45 45/43/44
f 34/32/33 47/30/46 48/31/47
f 48/31/47 47/30/46 49/29/48
f 47/30/46 50/28/49 49/29/48
f 49/29/48 50/28/49 51/27/50
f 50/28/49 52/26/51 51/27/50
f 51/27/50 52/26/51 53/25/52
f 52/26/51 54/23/53 53/25/52
f 53/25/52 54/23/53 55/24/19
f 54/23/53 56/22/54 55/24/19
f 46/44/45 57/42/55 45/43/44
f 45/43/44 57/42/55 58/41/56
f 57/42/55 59/40/57 58/41/56
f 58/41/56 59/40/57 60/39/58
f 59/40/57 61/38/59 60/39/58
f 60/39/58 61/38/59 62/37/60
f 61/38/59 63/35/61 62/37/60
f 62/37/60 63/35/61 38/36/37
f 63/35/61 36/34/35 38/36/37
f 35/33/34 64/45/62 36/34/35
f 36/34/35 64/45/62 37/35/36
f 64/45/62 65/46/63 37/35/36
f 37/35/36 65/46/63 66/47/64
f 65/46/63 67/48/65 66/47/64
f 66/47/64 67/48/65 68/49/66
f 45/43/44 58/41/56 69/50/67
f 69/50/67 58/41/56 70/51/68
f 58/41/56 60/39/58 70/51/68
f 70/51/68 60/39/58 71/52/69
f 60/39/58 72/53/70 71/52/69
f 36/34/35 63/35/61 73/45/71
f 73/45/71 63/35/61 74/46/72
f 63/35/61 75/47/73 74/46/72
f 74/46/72 75/47/73 67/48/65
f 75/47/73 68/49/66 67/48/65
f 76/54/74 77/55/75 78/56/76
f 78/56/76 77/55/75 79/57/77
f 77/55/75 80/58/78 79/57/77
f 80/58/78 81/59/79 79/57/77
f 76/54/74 82/56/80 77/55/75
f 77/55/75 82/56/80 83/57/81
f 82/56/80 25/23/27 83/57/81
f 83/57/81 25/23/27 84/60/82
f 85/61/83 86/62/84 49/29/48
f 49/29/48 86/62/84 48/31/47
f 86/62/84 65/46/63 48/31/47
f 87/60/85 54/23/53 79/57/77
f 79/57/77 54/23/53 78/56/76
f 54/23/53 88/63/86 78/56/76
f 89/64/87 42/40/41 90/65/88
f 90/65/88 42/40/41 91/66/89
f 42/40/41 40/38/39 91/66/89
f 74/46/72 92/62/90 33/31/32
f 33/31/32 92/62/90 31/29/25
f 92/62/90 93/61/91 31/29/25
f 61/38/59 59/40/57 91/66/89
f 91/66/89 59/40/57 90/65/88
f 59/40/57 89/64/87 90/65/88
f 69/50/67 70/51/68 43/41/42
f 43/41/42 70/51/68 41/39/40
f 70/51/68 71/52/69 41/39/40
f 34/32/33 94/67/92 47/30/46
f 47/30/46 94/67/92 50/28/49
f 34/32/33 32/30/31 94/67/92
f 94/67/92 32/30/31 30/28/30
f 28/26/28 95/68/93 30/28/30
f 30/28/30 95/68/93 94/67/92
f 96/69/90 74/46/72 97/70/94
f 97/70/94 74/46/72 67/48/65
f 98/71/95 39/37/38 99/53/96
f 99/53/96 39/37/38 41/39/40
f 67/48/65 65/46/63 97/70/94
f 97/70/94 65/46/63 100/69/84
f 46/44/45 44/42/43 89/64/87
f 89/64/87 44/42/43 42/40/41
f 59/40/57 57/42/55 89/64/87
f 89/64/87 57/42/55 46/44/45
f 76/54/74 88/63/86 82/56/80
f 82/56/80 88/63/86 25/23/27
f 77/55/75 83/57/81 80/58/78
f 83/57/81 81/59/79 80/58/78
f 98/71/95 72/53/70 62/37/60
f 62/37/60 72/53/70 60/39/58
f 50/28/49 95/68/93 52/26/51
f 34/32/33 48/31/47 35/33/34
f 101/72/54 54/23/53 102/73/4
f 43/41/42 45/43/44 69/50/67
f 51/27/50 53/25/52 103/74/97
f 98/71/95 99/53/96 71/52/69
f 52/26/51 95/68/93 104/75/98
f 52/26/51 88/63/86 54/23/53
f 62/37/60 38/36/37 98/71/95
f 35/33/34 73/45/71 105/76/32
f 85/61/83 106/77/22 107/78/99
f 74/46/72 33/31/32 73/45/71
f 48/31/47 65/46/63 64/45/62
f 66/47/64 68/49/66 40/38/39
f 40/38/39 68/49/66 91/66/89
f 88/63/86 52/26/51 104/75/98
f 101/72/54 102/73/4 108/79/100
f 55/24/19 109/80/8 53/25/52
f 56/22/54 108/79/6 110/81/26
f 41/39/40 71/52/69 99/53/96
f 88/63/86 28/26/28 25/23/27
f 111/82/84 107/78/101 97/70/94
f 75/47/73 63/35/61 61/38/59
f 38/36/37 39/37/38 98/71/95
f 78/56/76 88/63/86 76/54/74
f 37/35/36 66/47/64 40/38/39
f 64/45/62 35/33/34 112/76/47
f 107/78/99 86/62/84 85/61/83
f 25/23/27 113/72/26 114/73/5
f 27/25/9 29/27/29 115/74/102
f 72/53/70 98/71/95 71/52/69
f 95/68/93 28/26/28 104/75/98
f 28/26/28 88/63/86 104/75/98
f 116/80/10 26/24/12 27/25/9
f 68/49/66 75/47/73 61/38/59
f 68/49/66 61/38/59 91/66/89
f 114/73/5 113/72/26 108/79/100
f 73/45/71 35/33/34 36/34/35
f 92/62/90 107/78/99 93/61/91
f 107/78/101 117/82/103 97/70/94
f 106/77/22 93/61/91 107/78/99
f 95/68/93 50/28/49 94/67/92
f 118/83/104 119/84/105 120/85/106
f 120/85/106 119/84/105 121/86/107
f 119/84/105 122/87/108 121/86/107
f 121/86/107 122/87/108 123/88/109
f 122/87/108 124/89/110 123/88/109
f 125/90/12 126/91/19 127/92/111
f 127/92/111 126/91/19 128/93/112
f 126/91/19 129/94/54 128/93/112
f 128/93/112 129/94/54 130/95/113
f 129/94/54 131/96/114 130/95/113
f 132/97/115 133/98/116 118/83/104
f 118/83/104 133/98/116 119/84/105
f 133/98/116 134/99/113 119/84/105
f 119/84/105 134/99/113 122/87/108
f 134/99/113 124/89/110 122/87/108
f 118/83/104 135/84/106 136/98/115
f 136/98/115 135/84/106 137/99/117
f 135/84/106 138/87/109 137/99/117
f 137/99/117 138/87/109 124/89/110
f 139/95/117 140/94/26 141/93/115
f 141/93/115 140/94/26 142/91/12
f 143/100/117 124/89/110 134/99/113
f 138/87/109 135/84/106 121/86/107
f 131/96/114 129/94/54 144/101/26
f 145/102/118 146/103/119 103/74/97
f 103/74/97 146/103/119 51/27/50
f 146/103/119 49/29/48 51/27/50
f 147/104/120 146/103/119 31/29/25
f 31/29/25 146/103/119 29/27/29
f 146/103/119 115/74/102 29/27/29
f 115/74/102 146/103/119 145/102/118
f 103/74/97 53/25/52 148/105/121
f 147/104/120 49/29/48 146/103/119
f 148/105/121 53/25/52 149/106/122
f 145/102/118 103/74/97 150/107/123
f 27/25/9 148/105/121 149/106/122
f 115/74/102 145/102/118 150/107/123
f 27/25/9 115/74/102 148/105/121
f 14/14/18 151/108/124 15/15/11
f 151/108/124 15/15/11 152/109/125
f 151/108/124 14/14/18 153/110/124
