# Blender v2.74 (sub 0) OBJ File: ''
# www.blender.org
mtllib card.mtl
o plastik_c0
v -0.068614 1.198044 -0.418061
v -0.068692 1.197850 -0.427214
v -0.068751 1.195655 -0.435809
v -0.068790 1.191676 -0.443585
v -0.068807 1.186128 -0.450282
v -0.068802 1.179228 -0.455639
v -0.068775 1.171192 -0.459395
v -0.068725 1.162236 -0.461290
v -0.061630 0.095256 -0.561505
v -0.061560 0.086103 -0.561311
v -0.061476 0.077508 -0.559116
v -0.061383 0.069732 -0.555138
v -0.061285 0.063036 -0.549591
v -0.061184 0.057679 -0.542692
v -0.061086 0.053923 -0.534656
v -0.060993 0.052029 -0.525699
v -0.054012 -0.017208 0.211953
v -0.053934 -0.017013 0.221106
v -0.053875 -0.014818 0.229701
v -0.053836 -0.010839 0.237477
v -0.053819 -0.005292 0.244174
v -0.053824 0.001608 0.249531
v -0.053851 0.009644 0.253287
v -0.053901 0.018601 0.255182
v -0.060996 1.085581 0.355397
v -0.061066 1.094734 0.355203
v -0.061150 1.103328 0.353009
v -0.061242 1.111104 0.349030
v -0.061341 1.117801 0.343483
v -0.061442 1.123157 0.336584
v -0.061540 1.126913 0.328548
v -0.061633 1.128808 0.319592
v -0.069936 1.198034 -0.418050
v -0.070015 1.197840 -0.427203
v -0.070074 1.195645 -0.435797
v -0.070113 1.191666 -0.443573
v -0.070130 1.186119 -0.450270
v -0.070125 1.179218 -0.455627
v -0.070098 1.171183 -0.459383
v -0.070048 1.162226 -0.461278
v -0.062953 0.095246 -0.561493
v -0.062883 0.086093 -0.561299
v -0.062799 0.077498 -0.559105
v -0.062706 0.069722 -0.555126
v -0.062608 0.063026 -0.549580
v -0.062507 0.057669 -0.542680
v -0.062409 0.053914 -0.534644
v -0.062316 0.052019 -0.525688
v -0.055335 -0.017218 0.211965
v -0.055256 -0.017023 0.221118
v -0.055198 -0.014828 0.229713
v -0.055159 -0.010849 0.237489
v -0.055142 -0.005302 0.244185
v -0.055147 0.001598 0.249542
v -0.055174 0.009634 0.253299
v -0.055224 0.018591 0.255194
v -0.062319 1.085571 0.355409
v -0.062389 1.094724 0.355214
v -0.062473 1.103318 0.353020
v -0.062565 1.111094 0.349042
v -0.062664 1.117791 0.343495
v -0.062765 1.123147 0.336596
v -0.062863 1.126903 0.328560
v -0.062956 1.128797 0.319603
v -0.070048 1.162226 -0.461278
v -0.068725 1.162236 -0.461290
v -0.068725 1.162236 -0.461290
v -0.055224 0.018591 0.255194
v -0.053901 0.018601 0.255182
v -0.053901 0.018601 0.255182
v -0.053824 0.001608 0.249531
v -0.053819 -0.005292 0.244174
v -0.053836 -0.010839 0.237477
v -0.053824 0.001608 0.249531
v -0.053836 -0.010839 0.237477
v -0.053875 -0.014818 0.229701
v -0.053824 0.001608 0.249531
v -0.053875 -0.014818 0.229701
v -0.053934 -0.017013 0.221106
v -0.053851 0.009644 0.253287
v -0.053824 0.001608 0.249531
v -0.053934 -0.017013 0.221106
v -0.053851 0.009644 0.253287
v -0.053934 -0.017013 0.221106
v -0.054012 -0.017208 0.211953
v -0.053901 0.018601 0.255182
v -0.053851 0.009644 0.253287
v -0.054012 -0.017208 0.211953
v -0.053901 0.018601 0.255182
v -0.054012 -0.017208 0.211953
v -0.060993 0.052029 -0.525699
v -0.053901 0.018601 0.255182
v -0.060993 0.052029 -0.525699
v -0.061086 0.053923 -0.534656
v -0.053901 0.018601 0.255182
v -0.061086 0.053923 -0.534656
v -0.061184 0.057679 -0.542692
v -0.053901 0.018601 0.255182
v -0.061184 0.057679 -0.542692
v -0.061285 0.063036 -0.549591
v -0.053901 0.018601 0.255182
v -0.061285 0.063036 -0.549591
v -0.061383 0.069732 -0.555138
v -0.053901 0.018601 0.255182
v -0.061383 0.069732 -0.555138
v -0.061476 0.077508 -0.559116
v -0.053901 0.018601 0.255182
v -0.061476 0.077508 -0.559116
v -0.061560 0.086103 -0.561311
v -0.053901 0.018601 0.255182
v -0.061560 0.086103 -0.561311
v -0.061630 0.095256 -0.561505
v -0.053901 0.018601 0.255182
v -0.061630 0.095256 -0.561505
v -0.053901 0.018601 0.255182
v -0.053901 0.018601 0.255182
v -0.053901 0.018601 0.255182
v -0.053901 0.018601 0.255182
v -0.053901 0.018601 0.255182
v -0.053901 0.018601 0.255182
v -0.053901 0.018601 0.255182
v -0.053901 0.018601 0.255182
v -0.053901 0.018601 0.255182
v -0.062765 1.123147 0.336596
v -0.062863 1.126903 0.328560
v -0.062956 1.128797 0.319603
v -0.070048 1.162226 -0.461278
v -0.070098 1.171183 -0.459383
v -0.070048 1.162226 -0.461278
v -0.070125 1.179218 -0.455627
v -0.070098 1.171183 -0.459383
v -0.070130 1.186119 -0.450270
v -0.070125 1.179218 -0.455627
v -0.070113 1.191666 -0.443573
v -0.070130 1.186119 -0.450270
v -0.070074 1.195645 -0.435797
v -0.070113 1.191666 -0.443573
v -0.070015 1.197840 -0.427203
v -0.070074 1.195645 -0.435797
v -0.069936 1.198034 -0.418050
v -0.070015 1.197840 -0.427203
v -0.062956 1.128797 0.319603
v -0.069936 1.198034 -0.418050
v -0.062956 1.128797 0.319603
v -0.062319 1.085571 0.355409
v -0.062956 1.128797 0.319603
v -0.062319 1.085571 0.355409
v -0.062389 1.094724 0.355214
v -0.062956 1.128797 0.319603
v -0.062389 1.094724 0.355214
v -0.062473 1.103318 0.353020
v -0.062956 1.128797 0.319603
v -0.062473 1.103318 0.353020
v -0.062565 1.111094 0.349042
v -0.062956 1.128797 0.319603
v -0.062565 1.111094 0.349042
v -0.062664 1.117791 0.343495
v -0.062765 1.123147 0.336596
v -0.062956 1.128797 0.319603
v -0.062664 1.117791 0.343495
vt 0.922873 0.962323
vt 0.933555 0.961676
vt 0.922869 0.962385
vt 0.933559 0.961615
vt 0.943409 0.959416
vt 0.952145 0.955792
vt 0.952150 0.955731
vt 0.959479 0.950992
vt 0.959484 0.950930
vt 0.965125 0.945200
vt 0.965129 0.945139
vt 0.968797 0.938605
vt 0.968801 0.938544
vt 0.970210 0.931394
vt 0.970214 0.931333
vt 0.008289 0.079929
vt 0.029790 0.931394
vt 0.029786 0.931333
vt 0.009337 0.072689
vt 0.009333 0.072628
vt 0.012674 0.066012
vt 0.018024 0.060092
vt 0.018020 0.060031
vt 0.025111 0.055122
vt 0.033660 0.051296
vt 0.033655 0.051235
vt 0.043394 0.048807
vt 0.043389 0.048746
vt 0.054038 0.047849
vt 0.922873 0.037677
vt 0.922869 0.037615
vt 0.933559 0.038385
vt 0.933555 0.038324
vt 0.943413 0.040645
vt 0.952150 0.044269
vt 0.952145 0.044208
vt 0.959484 0.049070
vt 0.959479 0.049008
vt 0.965129 0.054861
vt 0.965125 0.054800
vt 0.968801 0.061456
vt 0.968797 0.061395
vt 0.970214 0.068667
vt 0.970210 0.068606
vt 0.008285 0.920132
vt 0.029786 0.068667
vt 0.029790 0.068606
vt 0.009333 0.927372
vt 0.009337 0.927311
vt 0.012670 0.934049
vt 0.018020 0.939969
vt 0.018024 0.939908
vt 0.025107 0.944939
vt 0.033655 0.948765
vt 0.033660 0.948704
vt 0.043389 0.951254
vt 0.043394 0.951193
vt 0.054033 0.952213
vt 0.034875 0.054800
vt 0.040521 0.049008
vt 0.047855 0.044208
vt 0.056591 0.040584
vt 0.066445 0.038324
vt 0.031203 0.061395
vt 0.077131 0.037615
vt 0.945967 0.047787
vt 0.956611 0.048746
vt 0.966345 0.051235
vt 0.974893 0.055061
vt 0.981980 0.060031
vt 0.987330 0.065951
vt 0.990667 0.072628
vt 0.991715 0.079868
vt 0.966345 0.948765
vt 0.956611 0.951254
vt 0.945967 0.952213
vt 0.031203 0.938605
vt 0.034875 0.945200
vt 0.040521 0.950992
vt 0.047855 0.955792
vt 0.056591 0.959416
vt 0.066445 0.961676
vt 0.077131 0.962385
vt 0.991715 0.920132
vt 0.990667 0.927372
vt 0.987330 0.934049
vt 0.981980 0.939969
vt 0.974893 0.944939
vn -0.007600 0.999700 -0.021200
vn -0.007800 0.999700 -0.021200
vn -0.009500 0.968900 -0.247400
vn -0.009300 0.968900 -0.247400
vn -0.010600 0.890200 -0.455500
vn -0.010500 0.890200 -0.455500
vn -0.011200 0.770100 -0.637900
vn -0.011300 0.770100 -0.637800
vn -0.011400 0.613200 -0.789900
vn -0.011600 0.613200 -0.789900
vn -0.011200 0.423400 -0.905900
vn -0.011100 0.423400 -0.905900
vn -0.010100 0.206900 -0.978300
vn -0.009400 0.093400 -0.995600
vn -0.008600 -0.021300 -0.999700
vn -0.008700 -0.021300 -0.999700
vn -0.006500 -0.247400 -0.968900
vn -0.006700 -0.247400 -0.968900
vn -0.004400 -0.455500 -0.890200
vn -0.001900 -0.637900 -0.770100
vn -0.002000 -0.637900 -0.770100
vn 0.000500 -0.789900 -0.613300
vn 0.003100 -0.905900 -0.423400
vn 0.003000 -0.905900 -0.423500
vn 0.005400 -0.978300 -0.207000
vn 0.005500 -0.978300 -0.207000
vn 0.006600 -0.995600 -0.093500
vn 0.007700 -0.999700 0.021200
vn 0.009500 -0.968900 0.247400
vn 0.009400 -0.968900 0.247400
vn 0.010700 -0.890200 0.455500
vn 0.010600 -0.890200 0.455500
vn 0.011300 -0.770100 0.637900
vn 0.011400 -0.770100 0.637900
vn 0.011500 -0.613200 0.789800
vn 0.011100 -0.423400 0.905900
vn 0.010200 -0.206900 0.978300
vn 0.010100 -0.206900 0.978300
vn 0.009500 -0.093400 0.995600
vn 0.008600 0.021300 0.999700
vn 0.006600 0.247400 0.968900
vn 0.004400 0.455500 0.890200
vn 0.004300 0.455500 0.890200
vn 0.001900 0.637900 0.770100
vn 0.002000 0.637900 0.770100
vn -0.000400 0.789900 0.613300
vn -0.000500 0.789900 0.613200
vn -0.003000 0.905900 0.423500
vn -0.005400 0.978300 0.207000
vn -0.005900 0.978300 0.207000
vn -0.007100 0.995600 0.093500
vn -0.006500 0.995600 0.093500
vn 0.999900 0.007500 -0.008800
vn 0.999900 0.007500 -0.008700
vn -0.999900 -0.007500 0.008800
usemtl plastik_card1
s off
f 1/1/1 34/2/1 33/3/1
f 1/1/2 2/4/2 34/2/2
f 35/5/3 34/2/3 2/4/3
f 2/4/4 3/5/4 35/5/4
f 36/6/5 35/5/5 3/5/5
f 3/5/6 4/7/6 36/6/6
f 37/8/7 36/6/7 4/7/7
f 4/7/8 5/9/8 37/8/8
f 38/10/9 37/8/9 5/9/9
f 5/9/10 6/11/10 38/10/10
f 39/12/11 38/10/11 6/11/11
f 6/11/12 7/13/12 39/12/12
f 40/14/13 39/12/13 7/13/13
f 7/13/13 8/15/13 40/14/13
f 41/16/14 65/17/14 66/18/14
f 67/18/14 9/16/14 41/16/14
f 42/19/15 41/16/15 9/16/15
f 9/16/16 10/20/16 42/19/16
f 43/21/17 42/19/17 10/20/17
f 10/20/18 11/21/18 43/21/18
f 44/22/19 43/21/19 11/21/19
f 11/21/19 12/23/19 44/22/19
f 45/24/20 44/22/20 12/23/20
f 12/23/21 13/24/21 45/24/21
f 46/25/22 45/24/22 13/24/22
f 13/24/22 14/26/22 46/25/22
f 47/27/23 46/25/23 14/26/23
f 14/26/24 15/28/24 47/27/24
f 48/29/25 47/27/25 15/28/25
f 15/28/26 16/29/26 48/29/26
f 49/30/27 48/29/27 16/29/27
f 16/29/27 17/31/27 49/30/27
f 50/32/28 49/30/28 17/31/28
f 17/31/28 18/33/28 50/32/28
f 51/34/29 50/32/29 18/33/29
f 18/33/30 19/34/30 51/34/30
f 52/35/31 51/34/31 19/34/31
f 19/34/32 20/36/32 52/35/32
f 53/37/33 52/35/33 20/36/33
f 20/36/34 21/38/34 53/37/34
f 54/39/35 53/37/35 21/38/35
f 21/38/35 22/40/35 54/39/35
f 55/41/36 54/39/36 22/40/36
f 22/40/36 23/42/36 55/41/36
f 56/43/37 55/41/37 23/42/37
f 23/42/38 24/44/38 56/43/38
f 57/45/39 68/46/39 69/47/39
f 70/47/39 25/45/39 57/45/39
f 58/48/40 57/45/40 25/45/40
f 25/45/40 26/49/40 58/48/40
f 59/50/41 58/48/41 26/49/41
f 26/49/41 27/50/41 59/50/41
f 60/51/42 59/50/42 27/50/42
f 27/50/43 28/52/43 60/51/43
f 61/53/44 60/51/44 28/52/44
f 28/52/45 29/53/45 61/53/45
f 62/54/46 61/53/46 29/53/46
f 29/53/47 30/55/47 62/54/47
f 63/56/48 62/54/48 30/55/48
f 30/55/48 31/57/48 63/56/48
f 64/58/49 63/56/49 31/57/49
f 31/57/50 32/58/50 64/58/50
f 33/3/51 64/58/51 32/58/51
f 32/58/52 1/1/52 33/3/52
f 71/59/53 72/60/53 73/61/53
f 74/59/54 75/61/54 76/62/54
f 77/59/53 78/62/53 79/63/53
f 80/64/53 81/59/53 82/63/53
f 83/64/53 84/63/53 85/65/53
f 86/47/53 87/64/53 88/65/53
f 89/47/53 90/65/53 91/66/53
f 92/47/53 93/66/53 94/67/53
f 95/47/53 96/67/53 97/68/53
f 98/47/53 99/68/53 100/69/53
f 101/47/53 102/69/53 103/70/53
f 104/47/53 105/70/53 106/71/53
f 107/47/53 108/71/53 109/72/53
f 110/47/53 111/72/53 112/73/53
f 113/47/53 114/73/53 8/15/53
f 115/47/53 8/15/53 7/13/53
f 116/47/53 7/13/53 6/11/53
f 117/47/53 6/11/53 5/9/53
f 118/47/53 5/9/53 4/7/53
f 119/47/53 4/7/53 3/5/53
f 120/47/53 3/5/53 2/4/53
f 1/1/53 121/47/53 2/4/53
f 122/47/53 1/1/53 32/58/53
f 25/45/53 123/47/53 32/58/53
f 26/49/53 25/45/53 32/58/53
f 27/50/53 26/49/53 32/58/53
f 28/52/53 27/50/53 32/58/53
f 29/53/53 28/52/53 32/58/53
f 30/55/53 29/53/53 32/58/53
f 30/55/53 32/58/53 31/57/53
usemtl plastik_card2
f 124/74/55 125/75/55 126/76/55
f 52/35/55 53/37/55 54/39/55
f 51/34/55 52/35/55 54/39/55
f 50/32/55 51/34/55 54/39/55
f 50/32/55 54/39/55 55/41/55
f 49/30/55 50/32/55 55/41/55
f 49/30/55 55/41/55 56/43/55
f 48/29/55 49/30/55 56/43/55
f 47/27/55 48/29/55 56/43/55
f 46/25/55 47/27/55 56/43/55
f 45/24/55 46/25/55 56/43/55
f 44/22/55 45/24/55 56/43/55
f 43/21/55 44/22/55 56/43/55
f 42/19/55 43/21/55 56/43/55
f 41/16/55 42/19/55 56/43/55
f 127/17/55 41/16/55 56/43/55
f 128/77/55 129/17/55 56/43/55
f 130/78/55 131/77/55 56/43/55
f 132/79/55 133/78/55 56/43/55
f 134/80/55 135/79/55 56/43/55
f 136/81/55 137/80/55 56/43/55
f 138/82/55 139/81/55 56/43/55
f 140/83/55 141/82/55 56/43/55
f 142/76/55 143/83/55 56/43/55
f 144/76/55 56/43/55 145/84/55
f 146/76/55 147/84/55 148/85/55
f 149/76/55 150/85/55 151/86/55
f 152/76/55 153/86/55 154/87/55
f 155/76/55 156/87/55 157/88/55
f 158/74/55 159/76/55 160/88/55
