# Blender v2.74 (sub 0) OBJ File: ''
# www.blender.org
mtllib catergun.mtl
o Model001_7_0_00
v -0.085333 -0.527626 0.827292
v -0.118659 -0.486776 0.868142
v -0.118659 -0.514010 0.840908
v -0.085333 0.069553 0.230113
v -0.052007 0.083169 0.243729
v -0.085333 -0.527626 0.827292
v -0.052007 -0.486776 0.868142
v -0.052007 -0.514010 0.840908
v -0.118659 0.083169 0.243729
v -0.118659 -0.514010 0.840908
v -0.052007 -0.486776 0.868142
v -0.052007 -0.514010 0.840908
v -0.085333 0.124020 0.284580
v -0.118659 -0.486776 0.868142
v -0.085333 -0.473159 0.881759
v -0.118659 0.110404 0.270963
v -0.052007 0.110404 0.270963
v -0.085333 -0.473159 0.881759
v -0.044347 -0.027644 -0.151980
v -0.063360 0.106367 -0.127595
v -0.043034 0.050649 -0.008862
v -0.061651 0.123264 0.016019
v -0.044865 0.007920 0.143750
v -0.061620 -0.487229 0.743173
v -0.085333 -0.118559 0.253052
v -0.050817 0.178574 0.252513
v -0.050817 0.135263 0.295823
v -0.038853 0.137766 0.203461
v -0.118201 0.166360 0.113064
v -0.127632 0.050649 -0.008862
v -0.127693 0.136816 0.145584
v -0.038853 0.137766 0.203461
v -0.038853 -0.413124 0.754351
v -0.131813 0.137766 0.203461
v -0.085333 -0.014307 -0.060180
v -0.125801 0.007920 0.143750
v -0.044865 0.007920 0.143750
v -0.038853 0.137766 0.203461
v -0.109046 -0.487229 0.743173
v -0.085333 -0.118559 0.253052
v -0.061620 -0.487229 0.743173
v -0.109046 -0.487229 0.743173
v -0.131813 -0.413124 0.754351
v -0.125801 0.007920 0.143750
v -0.127693 0.136816 0.145584
v -0.131813 0.137766 0.203461
v -0.042973 0.136816 0.145584
v -0.050817 0.178574 0.252513
v -0.119849 0.178574 0.252513
v -0.050817 0.135263 0.295823
v -0.119849 0.135263 0.295823
v -0.038853 0.090334 0.250893
v -0.038853 -0.413124 0.754351
v -0.131813 0.090334 0.250893
v -0.131813 -0.413124 0.754351
v -0.085333 -0.345449 0.749821
v -0.091925 -0.467829 0.867624
v -0.092017 -0.336062 0.761452
v -0.052465 0.166360 0.113064
v -0.052465 0.166360 0.113064
v -0.118201 0.166360 0.113064
v -0.109015 0.123264 0.016019
v -0.118201 0.166360 0.113064
v -0.085333 0.164202 0.068566
v -0.085333 -0.058610 -0.169135
v -0.061315 0.043614 -0.220215
v -0.044347 -0.027644 -0.151980
v -0.085333 -0.077578 -0.119610
v -0.044865 0.007920 0.143750
v -0.125801 0.007920 0.143750
v -0.085333 -0.014307 -0.060180
v -0.061315 0.043614 -0.220215
v -0.107306 0.106367 -0.127595
v -0.063360 0.106367 -0.127595
v -0.061651 0.123264 0.016019
v -0.067297 0.187918 0.209460
v -0.103369 0.125250 0.156245
v -0.103369 0.187918 0.209460
v -0.098731 -0.111416 0.027047
v -0.071935 -0.111416 0.027047
v -0.098731 -0.102525 0.099900
v -0.103369 0.148254 0.249124
v -0.067297 0.148254 0.249124
v -0.125801 0.007920 0.143750
v -0.107306 0.106367 -0.127595
v -0.126319 -0.027644 -0.151980
v -0.042973 0.136816 0.145584
v -0.126319 -0.027644 -0.151980
v -0.109351 0.043614 -0.220215
v -0.071935 -0.102525 0.099900
v -0.098731 -0.147994 0.194872
v -0.061315 0.043614 -0.220215
v -0.098731 -0.078248 0.076312
v -0.071935 -0.078248 0.076312
v -0.098731 -0.111416 0.027047
v -0.131813 0.137766 0.203461
v -0.119849 0.135263 0.295823
v -0.119849 0.178574 0.252513
v -0.052465 0.166360 0.113064
v -0.131813 0.137766 0.203461
v -0.103369 0.164979 0.189975
v -0.103369 0.175294 0.198736
v -0.103369 0.224864 0.160777
v -0.103369 0.187918 0.209460
v -0.103369 0.125250 0.156245
v -0.103369 0.148254 0.249124
v -0.038853 0.137766 0.203461
v -0.061620 -0.487229 0.743173
v -0.038853 -0.413124 0.754351
v -0.109046 -0.487229 0.743173
v -0.131813 -0.413124 0.754351
v -0.085333 -0.077578 -0.119610
v -0.038853 0.090334 0.250893
v -0.131813 0.090334 0.250893
v -0.109351 0.043614 -0.220215
v -0.073980 0.038887 0.398888
v -0.073980 0.019380 0.379380
v -0.073980 0.140032 0.333782
v -0.096686 0.038887 0.398888
v -0.073980 0.140032 0.333782
v -0.096686 0.140032 0.333782
v -0.096686 0.102505 0.296255
v -0.096686 0.140032 0.333782
v -0.096686 0.019380 0.379380
v -0.096686 0.038887 0.398888
v -0.096686 0.019380 0.379380
v -0.073980 0.019380 0.379380
v -0.109351 0.043614 -0.220215
v -0.073980 0.038887 0.398888
v -0.096686 0.102505 0.296255
v -0.073980 0.102505 0.296255
v -0.073980 0.102505 0.296255
v -0.109351 0.043614 -0.220215
v -0.109015 0.123264 0.016019
v -0.078741 -0.467829 0.867624
v -0.078649 -0.336062 0.761452
v -0.078649 -0.427108 0.872565
v -0.071935 -0.147994 0.194872
v -0.071935 -0.102525 0.099900
v -0.085333 -0.118278 0.179098
v -0.076635 -0.095317 0.523081
v -0.085333 -0.107986 0.510413
v -0.076635 0.133602 0.294162
v -0.067297 0.125250 0.156245
v -0.067297 0.224864 0.160777
v -0.067297 0.175294 0.198736
v -0.067297 0.164979 0.189975
v -0.085333 -0.082995 0.222366
v -0.098731 -0.066810 0.208295
v -0.098731 -0.147994 0.194872
v -0.085333 -0.086404 0.084902
v -0.071935 -0.078248 0.076312
v -0.085333 -0.022054 0.102986
v -0.071935 0.000433 0.075148
v -0.071935 0.007920 0.143750
v -0.071935 -0.017113 0.082636
v -0.071935 -0.111416 0.027047
v -0.071935 -0.066810 0.208295
v -0.098731 -0.017113 0.082636
v -0.071935 0.000433 0.075148
v -0.071935 -0.017113 0.082636
v -0.098731 -0.066810 0.208295
v -0.078741 -0.467829 0.867624
v -0.078649 -0.427108 0.872565
v -0.091925 -0.467829 0.867624
v -0.098731 0.007920 0.143750
v -0.098731 -0.017113 0.082636
v -0.098731 0.007920 0.143750
v -0.071935 -0.111416 0.027047
v -0.071935 -0.147994 0.194872
v -0.071935 -0.147994 0.194872
v -0.098731 -0.147994 0.194872
v -0.098731 -0.078248 0.076312
v -0.082190 -0.392731 0.856230
v -0.085333 -0.405571 0.846152
v -0.088476 -0.392731 0.856230
v -0.098731 -0.102525 0.099900
v -0.098731 0.000433 0.075148
v -0.098731 -0.111416 0.027047
v -0.088476 -0.392731 0.856230
v -0.085333 -0.427108 0.872565
v -0.082190 -0.392731 0.856230
v -0.094031 0.133602 0.294162
v -0.092017 -0.427108 0.872565
v -0.092017 -0.336062 0.761452
v -0.082190 -0.392731 0.856230
v -0.085333 -0.427108 0.872565
v -0.085333 -0.405571 0.846152
v -0.092017 -0.427108 0.872565
v -0.078649 -0.336062 0.761452
v -0.085333 -0.345449 0.749821
v -0.094031 -0.095317 0.523081
v -0.085333 0.120934 0.281493
v -0.094031 0.133602 0.294162
v -0.085333 -0.107986 0.510413
v -0.076635 -0.095317 0.523081
v -0.094031 -0.095317 0.523081
v -0.088476 -0.392731 0.856230
v -0.094031 -0.095317 0.523081
v -0.103369 0.175294 0.198736
v -0.103369 0.164979 0.189975
v -0.067297 0.164979 0.189975
v -0.103369 0.224864 0.160777
v -0.131813 0.090334 0.250893
v -0.038853 0.090334 0.250893
v -0.067297 0.125250 0.156245
v -0.098731 0.000433 0.075148
v -0.085333 0.001059 0.149706
v -0.085333 -0.033168 0.132614
v -0.085333 -0.016012 0.164445
v -0.085333 -0.046374 0.108100
v -0.085333 -0.094476 0.111143
vt 0.531785 0.504105
vt 0.385205 0.421552
vt 0.483352 0.421552
vt 0.992248 0.007141
vt 0.992248 0.073946
vt 0.004181 0.007141
vt 0.483108 0.421552
vt 0.004181 0.073946
vt 0.004181 0.134495
vt 0.992248 0.197485
vt 0.004181 0.197485
vt 0.992248 0.134495
vt 0.336161 0.504105
vt 0.880856 0.210120
vt 0.994659 0.316691
vt 0.898984 0.390332
vt 0.955260 0.438124
vt 0.937071 0.717277
vt 0.005554 0.806879
vt 0.739616 0.674001
vt 0.996643 0.993713
vt 0.916349 0.993713
vt 0.996643 0.878536
vt 0.959105 0.546342
vt 0.919980 0.567125
vt 0.996857 0.878536
vt 0.059084 0.878536
vt 0.898984 0.622333
vt 0.853389 0.308267
vt 0.799951 0.516465
vt 0.005646 0.643727
vt 0.743217 0.669668
vt 0.005646 0.701071
vt 0.104373 0.252998
vt 0.104373 0.323527
vt 0.009766 0.252724
vt 0.009766 0.383068
vt 0.104373 0.383068
vt 0.009766 0.464675
vt 0.104373 0.464156
vt 0.009827 0.551927
vt 0.061190 0.883236
vt 0.907590 0.993744
vt 0.061190 0.993744
vt 0.222694 0.565081
vt 0.022919 0.565081
vt 0.222694 0.584490
vt 0.009766 0.212928
vt 0.104373 0.212928
vt 0.420637 0.569659
vt 0.345164 0.569659
vt 0.375103 0.549760
vt 0.130955 0.767571
vt 0.008728 0.741417
vt 0.112888 0.709983
vt 0.178411 0.736290
vt 0.798975 0.516465
vt 0.715567 0.516465
vt 0.757317 0.308267
vt 0.597736 0.529893
vt 0.519974 0.569659
vt 0.519974 0.529893
vt 0.420637 0.529893
vt 0.681509 0.532395
vt 0.793268 0.579180
vt 0.681509 0.579180
vt 0.377880 0.203528
vt 0.409925 0.203375
vt 0.377880 0.286691
vt 0.613819 0.579180
vt 0.613819 0.532395
vt 0.936949 0.624287
vt 0.409925 0.286538
vt 0.377880 0.389569
vt 0.971954 0.210120
vt 0.364452 0.270730
vt 0.323130 0.270791
vt 0.364452 0.204779
vt 0.345164 0.529893
vt 0.241646 0.395367
vt 0.259560 0.395367
vt 0.259529 0.314249
vt 0.681509 0.422742
vt 0.009766 0.323527
vt 0.612598 0.512040
vt 0.641041 0.414960
vt 0.553240 0.512040
vt 0.524766 0.414960
vt 0.821192 0.210120
vt 0.916349 0.878536
vt 0.008728 0.792749
vt 0.453352 0.358654
vt 0.453719 0.298959
vt 0.710959 0.416028
vt 0.430952 0.643727
vt 0.692984 0.594745
vt 0.692801 0.643727
vt 0.794153 0.643727
vt 0.375683 0.643727
vt 0.375683 0.594745
vt 0.597736 0.569659
vt 0.430952 0.594745
vt 0.710959 0.298959
vt 0.794305 0.594745
vt 0.052797 0.601245
vt 0.143010 0.455306
vt 0.280190 0.455306
vt 0.184942 0.485946
vt 0.426893 0.252205
vt 0.426893 0.207801
vt 0.800073 0.252235
vt 0.128025 0.556322
vt 0.177679 0.556322
vt 0.302591 0.469131
vt 0.322306 0.470901
vt 0.299661 0.559832
vt 0.338176 0.594440
vt 0.249550 0.594440
vt 0.330638 0.569140
vt 0.358409 0.402722
vt 0.364452 0.364727
vt 0.323130 0.389569
vt 0.323130 0.364818
vt 0.210395 0.556322
vt 0.003937 0.614948
vt 0.056276 0.614948
vt 0.003998 0.635701
vt 0.238594 0.565539
vt 0.323130 0.204779
vt 0.409925 0.389569
vt 0.142979 0.455153
vt 0.109439 0.455153
vt 0.148686 0.410779
vt 0.229743 0.425916
vt 0.148686 0.442244
vt 0.113498 0.396863
vt 0.130528 0.212836
vt 0.144383 0.396863
vt 0.800073 0.285592
vt 0.056276 0.635701
vt 0.222694 0.635701
vt 0.148686 0.396863
vt 0.229743 0.212836
vt 0.229743 0.396863
vt 0.222694 0.614948
vt 0.245033 0.625233
vt 0.426893 0.285592
vt 0.800073 0.207801
vt 0.958464 0.566698
vt 0.979705 0.610401
vt 0.937193 0.610401
vt 0.309091 0.395367
vt 0.309122 0.227729
vt 0.259560 0.227699
vt 0.309091 0.314280
vt 0.104556 0.551927
vt 0.907590 0.883236
vt 0.793268 0.532395
vt 0.364452 0.389569
vt 0.993408 0.630024
vt 0.949431 0.694082
vt 0.949431 0.630024
vt 0.993408 0.741295
vt 0.993408 0.824610
vn 0.000000 -0.997400 0.071700
vn -0.750100 -0.047300 0.659600
vn -0.750100 -0.659600 0.047400
vn 0.000000 -0.707100 -0.707100
vn 0.866100 -0.353400 -0.353400
vn 0.000300 -0.997400 0.071700
vn 0.750100 -0.047300 0.659600
vn 0.750100 -0.659600 0.047400
vn -0.866100 -0.353400 -0.353400
vn 0.750100 -0.047400 0.659600
vn 0.750200 -0.659500 0.047400
vn 0.000000 0.707100 0.707100
vn -0.750100 -0.047500 0.659600
vn -0.000200 -0.071700 0.997400
vn -0.866100 0.353400 0.353400
vn 0.866100 0.353400 0.353400
vn -0.000000 -0.071700 0.997400
vn 0.920900 -0.385600 -0.057300
vn 0.638200 0.737400 -0.221000
vn 0.999000 -0.021600 -0.040000
vn 0.567300 0.752800 -0.334000
vn 0.790500 -0.551400 -0.266600
vn 0.640400 -0.758000 -0.124100
vn -0.000000 -0.753700 -0.657200
vn 0.302700 0.949600 0.082000
vn 0.757000 0.100800 0.645500
vn 0.917900 0.385900 -0.092600
vn -0.529200 0.839000 0.126400
vn -0.999000 -0.021600 -0.040000
vn -0.680100 0.714400 0.164500
vn 0.510600 0.215800 0.832300
vn -0.776400 0.603700 -0.181100
vn 0.000000 -0.942800 0.333400
vn -0.790500 -0.551400 -0.266600
vn -0.593800 -0.760100 0.264000
vn -0.593800 -0.760100 0.263900
vn -0.792300 0.107700 0.600500
vn -0.680100 0.714500 0.164500
vn -0.776400 0.603600 -0.181100
vn 0.443600 0.859000 0.255500
vn -0.518900 0.848400 0.104800
vn 0.757100 0.100800 0.645500
vn -0.535300 0.071200 0.841700
vn 0.389300 -0.228300 0.892300
vn 0.510700 0.215900 0.832200
vn -0.378600 0.322700 0.867500
vn -0.792300 0.107600 0.600500
vn 0.000000 0.205400 -0.978700
vn -0.739900 -0.193200 0.644400
vn -0.674900 0.729200 0.113000
vn 0.617200 0.786400 -0.027300
vn 0.617200 0.786400 -0.027200
vn -0.529200 0.839000 0.126300
vn -0.473700 0.827200 -0.302300
vn 0.000000 0.917900 -0.396800
vn 0.000000 -0.717400 -0.696700
vn 0.485700 0.273200 -0.830300
vn -0.000000 -0.990900 0.134400
vn 0.790500 -0.551400 -0.266500
vn -0.790500 -0.551400 -0.266500
vn 0.000000 -0.942800 0.333500
vn 0.485700 0.273300 -0.830300
vn -0.638200 0.701300 -0.317600
vn 0.638300 0.737400 -0.221000
vn 0.567300 0.752700 -0.334000
vn 0.419800 0.840300 -0.343200
vn -0.447200 0.579000 -0.681800
vn -0.419800 0.865400 0.273700
vn -0.848600 0.370900 -0.377300
vn 0.774100 -0.632800 0.018000
vn -0.903200 -0.419100 0.092700
vn -0.707100 0.499700 0.500300
vn 0.447200 0.632400 0.632400
vn -0.638200 0.701400 -0.317500
vn -0.920900 -0.385600 -0.057300
vn -0.592500 0.026900 -0.805100
vn 0.912900 -0.386700 -0.131000
vn -0.813600 -0.567600 0.125800
vn 0.485800 0.273300 -0.830300
vn -0.929300 0.061200 -0.364200
vn 0.911900 0.374200 -0.168800
vn -0.000000 -0.753800 -0.657200
vn -0.535300 0.071300 0.841600
vn 0.617100 0.786400 -0.027200
vn -0.447200 -0.392000 -0.804000
vn -0.447200 0.543800 0.710200
vn -0.980700 0.166400 -0.102900
vn -0.419800 0.865400 0.273600
vn -0.707100 0.500000 0.500000
vn 0.917900 0.385900 -0.092500
vn 0.640400 -0.758000 -0.124200
vn 0.510700 0.215800 0.832200
vn -0.792300 0.107600 0.600600
vn -0.000000 -0.990900 0.134300
vn 0.389400 -0.228400 0.892300
vn -0.378500 0.322700 0.867500
vn 0.540400 -0.089700 0.836600
vn 0.707100 -0.499700 0.500200
vn 0.623000 0.777800 0.083400
vn -0.305800 -0.101500 0.946700
vn 0.623000 0.777800 0.083100
vn -0.847000 0.528600 0.056700
vn -0.447200 0.632500 -0.632400
vn -0.846900 0.528700 0.056700
vn -0.894400 -0.316200 0.316300
vn -0.305800 -0.101400 0.946700
vn 0.707100 -0.500000 0.500000
vn 0.540400 -0.089800 0.836600
vn 0.707100 0.500000 -0.500000
vn 0.707100 0.500300 -0.499800
vn 0.927200 -0.183700 0.326400
vn 0.820900 0.555000 -0.134500
vn 0.274500 0.358000 0.892500
vn 0.906200 -0.297700 0.300200
vn 0.912800 -0.386700 -0.131000
vn 0.000000 0.956500 -0.291700
vn 0.436200 0.193100 0.878900
vn 0.000200 -0.965000 -0.262400
vn 0.997500 0.049400 0.049700
vn 0.707100 0.457700 -0.539000
vn 0.928800 0.315200 -0.194900
vn 0.707100 0.429900 0.561400
vn 0.707100 -0.309900 -0.635600
vn -0.000000 -0.265200 0.964200
vn -0.867600 0.258300 -0.424900
vn -0.000000 0.346000 0.938200
vn 0.911900 0.374000 -0.169000
vn 0.000000 -0.585700 0.810600
vn 0.447200 -0.351000 -0.822700
vn 0.697000 -0.618600 0.362500
vn 0.740200 -0.272000 -0.614900
vn 0.774200 -0.632700 0.018100
vn 0.867600 0.258300 -0.424900
vn -0.714300 -0.403000 -0.572100
vn 0.447200 -0.351200 -0.822600
vn -0.000000 0.205500 -0.978700
vn -0.697000 -0.618700 0.362500
vn -0.714300 -0.403100 -0.572100
vn -0.697000 -0.618700 0.362600
vn 0.906200 -0.297600 0.300300
vn 0.906200 -0.297700 0.300300
vn -0.929300 0.060900 -0.364400
vn 0.737200 0.675700 -0.002200
vn 0.000000 0.301400 -0.953500
vn -0.737200 0.675700 -0.002200
vn -0.903200 -0.419000 0.092800
vn -0.707100 -0.277500 -0.650400
vn -0.848600 0.370900 -0.377200
vn -0.737200 0.675600 -0.002200
vn 0.000000 0.200700 0.979700
vn 0.737200 0.675600 -0.002200
vn -0.847600 0.375200 0.375300
vn -0.496100 0.322900 0.806000
vn -0.000100 0.200700 0.979700
vn -0.496100 0.323000 0.806000
vn 0.820900 0.554900 -0.134600
vn -0.000100 0.205400 -0.978700
vn -0.616900 -0.211900 0.758000
vn -0.847600 0.375200 0.375200
vn 0.000100 -0.965000 -0.262400
vn 0.436100 0.193200 0.878900
vn -0.616800 -0.211800 0.758100
vn -0.616900 -0.211800 0.758000
vn -0.447200 0.543800 0.710100
vn 0.707100 -0.310200 -0.635500
vn -0.980700 0.166400 -0.102800
vn 0.389400 -0.228300 0.892300
vn 0.707100 0.457900 -0.538900
vn -0.707100 -0.277300 -0.650500
vn 0.000000 -0.296200 0.955100
vn 1.000000 0.000000 -0.000000
vn -1.000000 0.000000 0.000000
vn -0.000000 -0.296100 0.955200
usemtl Model001_Material001
s 1
f 1/1/1 2/2/2 3/3/3
f 4/4/4 5/5/5 6/6/6
f 7/2/7 1/1/1 8/7/8
f 9/5/9 6/6/6 10/8/3
f 5/5/5 11/9/10 12/8/11
f 13/10/12 14/9/13 15/11/14
f 9/5/9 14/9/13 16/12/15
f 17/12/16 13/10/12 11/9/10
f 2/2/2 1/1/1 18/13/17
f 18/13/17 1/1/1 7/2/7
f 19/14/18 20/15/19 21/16/20
f 22/17/21 21/16/20 20/15/19
f 23/18/22 24/19/23 25/20/24
f 26/21/25 27/22/26 28/23/27
f 29/24/28 30/16/29 31/25/30
f 32/26/27 33/27/31 23/18/22
f 30/16/29 34/28/32 31/25/30
f 35/29/33 19/14/18 21/16/20
f 34/28/32 30/16/29 36/30/34
f 35/29/33 36/30/34 30/16/29
f 37/30/22 21/16/20 38/28/27
f 39/31/35 40/32/24 41/33/23
f 42/19/36 43/27/37 44/18/34
f 45/34/38 46/35/39 47/36/40
f 48/37/25 46/35/39 49/38/41
f 50/39/42 48/37/25 51/40/43
f 51/40/43 52/41/44 50/39/42
f 53/42/45 54/43/46 55/44/47
f 56/45/48 57/46/49 58/47/50
f 22/17/21 59/24/51 21/16/20
f 60/48/52 61/49/53 47/36/40
f 62/50/54 63/51/53 64/52/55
f 65/53/56 66/54/57 67/55/18
f 68/56/58 65/53/56 67/55/18
f 69/57/59 70/58/60 71/59/61
f 72/60/62 73/61/63 74/62/64
f 75/63/65 62/50/54 64/52/55
f 45/34/38 47/36/40 61/49/53
f 76/64/66 77/65/67 78/66/68
f 49/38/41 51/40/43 48/37/25
f 79/67/69 80/68/70 81/69/71
f 82/70/72 83/71/73 78/66/68
f 21/16/20 37/30/22 35/29/33
f 25/20/24 84/72/34 23/18/22
f 30/16/29 85/15/74 86/14/75
f 74/62/64 62/50/54 75/63/65
f 87/25/40 38/28/27 21/16/20
f 88/55/75 65/53/56 68/56/58
f 88/55/75 89/54/76 65/53/56
f 81/69/71 90/73/77 91/74/78
f 92/75/79 20/15/19 19/14/18
f 30/16/29 86/14/75 35/29/33
f 93/76/80 94/77/81 95/78/69
f 25/20/82 42/19/36 44/18/34
f 96/23/32 97/22/83 98/21/41
f 99/79/84 64/52/55 63/51/53
f 44/18/34 43/27/37 100/26/39
f 101/80/85 102/81/86 103/82/87
f 24/19/23 23/18/22 33/27/31
f 104/64/88 105/83/67 106/71/89
f 107/84/90 46/35/39 48/37/25
f 107/84/90 47/36/40 46/35/39
f 108/85/91 109/86/92 110/87/35
f 111/88/93 110/87/35 109/86/92
f 112/89/94 19/14/18 35/29/33
f 112/89/94 35/29/33 86/14/75
f 113/90/95 28/23/27 27/22/26
f 114/90/96 97/22/83 96/23/32
f 66/54/57 65/53/56 115/91/76
f 87/25/40 21/16/20 59/24/51
f 116/92/97 117/93/98 118/94/99
f 119/95/100 120/96/101 121/97/102
f 121/97/102 120/96/101 122/98/103
f 123/94/104 124/93/105 125/92/106
f 126/99/105 127/100/107 119/95/100
f 73/61/63 62/50/54 74/62/64
f 128/101/76 73/61/63 72/60/62
f 129/102/108 120/96/101 119/95/100
f 129/102/108 119/95/100 127/100/107
f 130/103/103 124/93/105 123/94/104
f 131/103/109 118/94/99 117/93/98
f 132/104/110 122/98/103 120/96/101
f 86/14/75 85/15/74 133/75/76
f 64/52/55 99/79/84 75/63/65
f 30/16/29 29/24/28 134/17/54
f 30/16/29 134/17/54 85/15/74
f 135/46/111 136/47/112 137/105/113
f 138/106/114 139/107/115 140/108/116
f 141/109/117 142/110/118 143/111/119
f 83/71/73 144/83/120 76/64/66
f 145/82/121 146/81/122 147/80/123
f 148/112/124 149/113/125 150/106/78
f 140/108/116 139/107/115 151/114/126
f 151/114/126 152/115/127 153/116/128
f 154/117/129 155/118/130 156/119/131
f 157/120/132 151/114/126 139/107/115
f 152/115/127 151/114/126 157/120/132
f 138/106/114 158/113/133 148/112/124
f 159/121/134 160/122/135 161/123/131
f 56/45/136 136/47/112 135/46/111
f 162/124/125 158/113/133 140/108/116
f 163/125/111 164/126/113 165/127/49
f 153/116/128 166/118/137 167/119/138
f 153/116/128 155/118/130 168/128/139
f 93/76/80 161/123/131 94/77/81
f 95/78/69 94/77/81 169/129/70
f 81/69/71 80/68/70 90/73/77
f 91/74/78 90/73/77 170/130/140
f 171/131/141 148/112/124 172/132/78
f 140/108/116 150/106/78 149/113/125
f 167/119/138 173/115/142 153/116/128
f 174/133/143 175/134/144 176/135/145
f 140/108/116 158/113/133 138/106/114
f 151/114/126 177/107/146 140/108/116
f 153/116/128 173/115/142 151/114/126
f 167/119/138 166/118/137 178/117/147
f 177/107/146 151/114/126 179/120/148
f 179/120/148 151/114/126 173/115/142
f 78/66/68 83/71/73 76/64/66
f 180/136/149 181/137/150 182/138/151
f 143/111/119 183/139/152 141/109/117
f 184/140/153 164/126/113 185/141/50
f 186/142/143 187/143/154 188/144/144
f 150/106/78 140/108/116 177/107/146
f 156/119/131 153/116/128 152/115/127
f 184/140/153 165/127/49 164/126/113
f 189/105/155 58/47/50 57/46/49
f 190/145/156 191/146/157 185/141/50
f 185/141/50 164/126/113 190/145/156
f 192/147/158 141/109/117 183/139/152
f 193/148/4 142/110/118 194/111/159
f 193/148/4 143/111/119 142/110/118
f 195/149/160 196/150/161 197/151/162
f 198/142/145 188/144/144 187/143/154
f 153/116/128 156/119/131 155/118/130
f 194/111/159 142/110/118 199/109/163
f 145/82/121 200/152/164 146/81/122
f 201/153/85 145/82/121 202/154/165
f 203/155/166 145/82/121 201/153/85
f 203/155/166 200/152/164 145/82/121
f 17/12/16 11/9/10 5/5/5
f 12/8/11 6/6/6 5/5/5
f 4/4/4 6/6/6 9/5/9
f 10/8/3 14/9/13 9/5/9
f 16/12/15 14/9/13 13/10/12
f 15/11/14 11/9/10 13/10/12
f 204/156/96 52/41/44 51/40/43
f 205/157/167 54/43/46 53/42/45
f 206/158/168 77/65/67 76/64/66
f 207/159/169 160/122/135 159/121/134
f 159/121/134 161/123/131 93/76/80
f 208/160/170 209/161/171 210/162/172
f 208/160/173 209/161/171 211/163/171
f 211/163/171 209/161/171 212/164/171
