# Blender v2.74 (sub 0) OBJ File: ''
# www.blender.org
mtllib cinquesmace.mtl
o cinqmace
v 0.004596 -0.117090 0.876402
v -0.071395 -0.096703 0.876402
v 0.004596 -0.117090 0.866880
v -0.127030 -0.041068 0.876402
v -0.071395 -0.096703 0.866880
v -0.127030 -0.041068 0.876402
v -0.147417 0.034923 0.876402
v -0.127030 -0.041068 0.866880
v -0.127030 0.110914 0.876402
v -0.147417 0.034923 0.866880
v -0.127030 0.110914 0.876402
v -0.071395 0.166549 0.876402
v -0.127030 0.110914 0.866880
v 0.004596 0.186936 0.876402
v -0.071395 0.166549 0.866880
v -0.079269 0.180191 0.955659
v 0.004596 0.202653 0.955659
v -0.079269 0.180191 0.944306
v -0.068771 0.108290 0.848142
v -0.099167 0.034923 0.848142
v -0.127030 0.110914 0.866880
v 0.004596 0.202653 0.955659
v -0.079269 0.180191 0.955659
v 0.004596 0.096235 0.984132
v -0.140672 0.118788 0.944306
v -0.140672 0.118788 0.944306
v -0.163134 0.034923 0.944306
v -0.140672 0.118788 0.955659
v 0.004596 -0.117090 0.866880
v -0.071395 -0.096703 0.866880
v 0.004596 -0.068840 0.848142
v -0.048506 0.065564 0.984132
v -0.163134 0.034923 0.955659
v -0.048506 0.004282 0.984132
v -0.068771 0.108290 0.743585
v 0.004596 0.138686 0.848142
v 0.004596 0.138686 0.743585
v -0.088852 0.128371 0.944306
v -0.127549 0.034923 0.876402
v -0.127549 0.034923 0.944306
v -0.140672 -0.048942 0.944306
v -0.163134 0.034923 0.955659
v -0.068771 0.108290 0.848142
v -0.071395 0.166549 0.866880
v 0.004596 0.138686 0.848142
v -0.140672 -0.048942 0.944306
v -0.079269 -0.110345 0.944306
v -0.140672 -0.048942 0.955659
v 0.004596 -0.132807 0.944306
v -0.079269 -0.110345 0.955659
v -0.127030 -0.041068 0.866880
v -0.127030 0.110914 0.866880
v 0.004596 0.186936 0.866880
v -0.099167 0.034923 0.848142
v -0.068771 0.108290 0.848142
v -0.099167 0.034923 0.743585
v 0.004596 0.202653 0.944306
v -0.140672 0.118788 0.955659
v 0.004596 0.167068 0.944306
v -0.088852 0.128371 0.876402
v -0.140672 -0.048942 0.955659
v -0.068771 -0.038444 0.848142
v -0.068771 -0.038444 0.743585
v -0.088852 -0.058525 0.944306
v -0.088852 -0.058525 0.876402
v -0.071395 0.166549 0.876402
v 0.004596 -0.117090 0.876402
v 0.004596 0.186936 0.876402
v -0.127030 0.110914 0.866880
v -0.071395 0.166549 0.866880
v 0.004596 0.186936 0.866880
v -0.147417 0.034923 0.866880
v -0.127030 -0.041068 0.866880
v -0.068771 -0.038444 0.848142
v -0.068771 -0.038444 0.848142
v -0.071395 -0.096703 0.866880
v -0.140672 -0.048942 0.955659
v -0.079269 -0.110345 0.955659
v 0.004596 -0.026389 0.984132
v -0.055037 0.069348 0.670402
v 0.004596 0.103803 0.723077
v 0.004596 0.103803 0.670402
v 0.080587 -0.096703 0.876402
v 0.004596 -0.117090 0.876402
v 0.080587 -0.096703 0.866880
v 0.004596 0.015147 0.619253
v -0.027265 0.034923 0.583699
v 0.004596 0.003062 0.583699
v 0.004596 0.054699 0.619253
v -0.015180 0.034923 0.619253
v -0.016523 0.034923 0.670402
v 0.004596 -0.000631 0.619253
v 0.004596 0.013804 0.670402
v -0.071395 -0.096703 0.876402
v -0.127030 0.110914 0.876402
v -0.127030 -0.041068 0.876402
v 0.004596 0.070477 0.619253
v -0.030958 0.034923 0.619253
v -0.147417 0.034923 0.876402
v 0.004596 -0.033957 0.670402
v -0.055037 0.069348 0.670402
v 0.004596 0.103803 0.670402
v -0.055037 0.000498 0.723077
v 0.004596 -0.033957 0.670402
v 0.004596 -0.033957 0.723077
v -0.055037 0.069348 0.723077
v -0.068771 0.108290 0.743585
v 0.004596 0.103803 0.723077
v -0.055037 0.000498 0.670402
v -0.055037 0.069348 0.723077
v -0.055037 0.069348 0.670402
v -0.068771 -0.038444 0.743585
v -0.099167 0.034923 0.743585
v -0.055037 0.000498 0.723077
v 0.004596 -0.132807 0.955659
v -0.068771 -0.038444 0.743585
v 0.004596 -0.033957 0.723077
v 0.004596 -0.068840 0.743585
v 0.004596 -0.068840 0.743585
v 0.004596 -0.068840 0.848142
v 0.004596 0.050732 0.561420
v 0.004596 0.066784 0.583699
v -0.055037 0.069348 0.723077
v 0.004596 -0.132807 0.944306
v -0.079269 0.180191 0.944306
v 0.004596 0.202653 0.944306
v 0.004596 -0.132807 0.955659
v -0.140672 0.118788 0.955659
v -0.048506 0.065564 0.984132
v 0.004596 -0.026389 0.984132
v 0.004596 0.096235 0.984132
v 0.004596 0.050732 0.248087
v -0.011213 0.034923 0.561420
v 0.004596 0.050732 0.561420
v -0.048506 0.004282 0.984132
v -0.140672 -0.048942 0.944306
v -0.140672 0.118788 0.944306
v -0.079269 -0.110345 0.944306
v 0.136222 0.110914 0.876402
v 0.080587 0.166549 0.876402
v 0.080587 -0.096703 0.876402
v -0.055037 0.069348 0.723077
v -0.055037 0.000498 0.723077
v 0.004596 -0.097222 0.876402
v 0.004596 -0.097222 0.944306
v 0.088461 0.180191 0.944306
v 0.088461 -0.110345 0.944306
v 0.004596 0.019114 0.561420
v -0.011213 0.034923 0.561420
v -0.163134 0.034923 0.944306
v 0.064229 0.000498 0.723077
v 0.064229 0.000498 0.670402
v -0.068771 0.108290 0.743585
v -0.030958 0.034923 0.619253
v 0.004596 0.070477 0.619253
v 0.004596 -0.000631 0.619253
v 0.004596 0.056042 0.670402
v 0.004596 0.068830 1.002871
v -0.019392 0.034923 0.984132
v -0.029310 0.034923 1.002871
v 0.004596 0.001017 1.002871
v 0.004596 0.010935 0.984132
v -0.018018 0.034923 0.248087
v 0.004596 0.012309 -0.187199
v 0.004596 0.012309 0.248087
v 0.004596 0.019114 0.248087
v 0.004596 0.019114 0.561420
v 0.004596 0.057537 -0.187199
v 0.004596 0.012309 -0.187199
v -0.019331 0.034923 -0.187199
v 0.004596 0.057537 -0.187199
v 0.004596 0.057537 0.248087
v 0.004596 0.034923 1.105657
v 0.004596 0.058911 0.984132
v -0.011213 0.034923 0.248087
v -0.055037 0.000498 0.670402
v -0.019331 0.034923 -0.187199
v -0.018018 0.034923 0.248087
v 0.004596 0.012309 0.248087
v 0.004596 0.057537 0.248087
v 0.004596 0.138686 0.743585
v 0.004596 -0.117090 0.866880
v 0.136222 -0.041068 0.866880
v 0.136222 -0.041068 0.866880
v 0.156609 0.034923 0.866880
v 0.136222 -0.041068 0.876402
v 0.136222 0.110914 0.866880
v 0.156609 0.034923 0.876402
v 0.136222 0.110914 0.866880
v 0.080587 0.166549 0.866880
v 0.136222 0.110914 0.876402
v 0.004596 0.186936 0.876402
v 0.080587 0.166549 0.876402
v 0.004596 0.186936 0.866880
v 0.004596 0.202653 0.955659
v 0.088461 0.180191 0.955659
v 0.004596 0.202653 0.944306
v 0.136222 0.110914 0.866880
v 0.108359 0.034923 0.848142
v 0.077963 0.108290 0.848142
v 0.088461 0.180191 0.955659
v 0.149864 0.118788 0.955659
v 0.088461 0.180191 0.944306
v 0.172326 0.034923 0.955659
v 0.149864 0.118788 0.944306
v 0.149864 0.118788 0.955659
v 0.080587 -0.096703 0.866880
v 0.057698 0.004282 0.984132
v 0.172326 0.034923 0.955659
v 0.057698 0.065564 0.984132
v 0.077963 0.108290 0.848142
v 0.136741 0.034923 0.876402
v 0.098044 0.128371 0.876402
v 0.136741 0.034923 0.944306
v 0.149864 -0.048942 0.955659
v 0.172326 0.034923 0.944306
v 0.080587 0.166549 0.866880
v 0.088461 -0.110345 0.955659
v 0.149864 -0.048942 0.944306
v 0.149864 -0.048942 0.955659
v 0.004596 -0.132807 0.955659
v 0.088461 -0.110345 0.944306
v 0.136222 0.110914 0.876402
v 0.077963 0.108290 0.743585
v 0.098044 0.128371 0.944306
v 0.004596 0.167068 0.876402
v 0.149864 0.118788 0.944306
v 0.149864 -0.048942 0.944306
v 0.004596 -0.132807 0.944306
v 0.077963 -0.038444 0.848142
v 0.108359 0.034923 0.743585
v 0.108359 0.034923 0.848142
v 0.077963 0.108290 0.743585
v 0.098044 -0.058525 0.944306
v 0.098044 -0.058525 0.876402
v 0.077963 0.108290 0.848142
v 0.080587 0.166549 0.866880
v 0.136222 0.110914 0.866880
v 0.136222 -0.041068 0.866880
v 0.156609 0.034923 0.866880
v 0.077963 -0.038444 0.848142
v 0.080587 -0.096703 0.866880
v 0.149864 -0.048942 0.955659
v 0.088461 -0.110345 0.955659
v 0.064229 0.069348 0.723077
v 0.036457 0.034923 0.583699
v 0.024372 0.034923 0.619253
v 0.025715 0.034923 0.670402
v 0.136222 -0.041068 0.876402
v 0.040150 0.034923 0.619253
v 0.156609 0.034923 0.876402
v 0.064229 0.069348 0.670402
v 0.064229 0.069348 0.723077
v 0.064229 0.069348 0.723077
v 0.064229 0.069348 0.670402
v 0.064229 0.000498 0.723077
v 0.108359 0.034923 0.743585
v 0.077963 -0.038444 0.743585
v 0.077963 -0.038444 0.743585
v 0.077963 -0.038444 0.743585
v 0.064229 0.069348 0.723077
v 0.149864 0.118788 0.955659
v 0.057698 0.065564 0.984132
v 0.020405 0.034923 0.561420
v 0.057698 0.004282 0.984132
v 0.149864 0.118788 0.944306
v 0.149864 -0.048942 0.944306
v 0.064229 0.069348 0.670402
v 0.064229 0.000498 0.723077
v 0.020405 0.034923 0.561420
v 0.172326 0.034923 0.944306
v 0.077963 0.108290 0.743585
v 0.040150 0.034923 0.619253
v 0.038502 0.034923 1.002871
v 0.028584 0.034923 0.984132
v 0.027210 0.034923 0.248087
v 0.136222 -0.041068 0.876402
v 0.028523 0.034923 -0.187199
v 0.020405 0.034923 0.248087
v 0.064229 0.000498 0.670402
v 0.028523 0.034923 -0.187199
v 0.027210 0.034923 0.248087
vt 0.239662 -0.017670
vt 0.128208 -0.017670
vt 0.239662 -0.053011
vt 0.016968 -0.017670
vt 0.128208 -0.053011
vt 0.618366 -0.232551
vt 0.618366 -0.438704
vt 0.679006 -0.146702
vt 0.905026 -0.018036
vt 0.905026 -0.307718
vt 0.751091 -0.200201
vt 0.016968 -0.053011
vt 0.679006 -0.438704
vt 0.751091 -0.410474
vt 0.143681 -0.481765
vt 0.008423 -0.178381
vt 0.008423 -0.481765
vt 0.175390 -0.519333
vt 0.367168 -0.730003
vt 0.367168 -0.519333
vt 0.618366 -0.644856
vt 0.679006 -0.730735
vt 0.305795 -0.178381
vt 0.143681 -0.178381
vt 0.305795 -0.481765
vt 0.008393 -0.519333
vt 0.175390 -0.730003
vt 0.729545 -0.429670
vt 0.695364 -0.687521
vt 0.695364 -0.392773
vt 0.679098 -0.644642
vt 0.599994 -0.447157
vt 0.516587 -0.157994
vt 0.599994 -0.157994
vt 0.882077 -0.730247
vt 0.829066 -0.601886
vt 0.829066 -0.762017
vt 0.882077 -0.637471
vt 0.939360 -0.015534
vt 0.991455 -0.216468
vt 0.973693 -0.015534
vt 0.729576 -0.648640
vt 0.763756 -0.466567
vt 0.763756 -0.609729
vt 0.921293 -0.216468
vt 0.763756 -0.538163
vt 0.366588 -0.139927
vt 0.272378 -0.031983
vt 0.231117 -0.139927
vt 0.516587 -0.447157
vt 0.624531 -0.016877
vt 0.640492 -0.108737
vt 0.494278 -0.016877
vt 0.516587 -0.733146
vt 0.599994 -0.733146
vt 0.475387 -0.477523
vt 0.475387 -0.275277
vt 0.423261 -0.418592
vt 0.494278 -0.108737
vt 0.789239 -0.720573
vt 0.423261 -0.131962
vt 0.670217 -0.017060
vt 0.799280 -0.077548
vt 0.819941 -0.017060
vt 0.905026 -0.597400
vt 0.671560 -0.766472
vt 0.008606 -0.841914
vt 0.008606 -0.766472
vt 0.711936 -0.138066
vt 0.778619 -0.138066
vt 0.691092 -0.077548
vt 0.008393 -0.730003
vt 0.789239 -0.651540
vt 0.745262 -0.138066
vt 0.475387 -0.073031
vt 0.750450 -0.715842
vt 0.702078 -0.715842
vt 0.750450 -0.826014
vt 0.989929 -0.844569
vt 0.922056 -0.984588
vt 0.907437 -0.844569
vt 0.975219 -0.984588
vt 0.008606 -0.875576
vt 0.828303 -0.983612
vt 0.008606 -0.983612
vt 0.384136 -0.132511
vt 0.441084 -0.017426
vt 0.384136 -0.017426
vt 0.949187 -0.251930
vt 0.671560 -0.841914
vt 0.330668 -0.031983
vt 0.828303 -0.875576
vt 0.687948 -0.842555
vt 0.687979 -0.751823
vt 0.733787 -0.842586
vn 0.052300 -0.585800 0.808700
vn -0.293200 -0.631400 0.717900
vn -0.063600 -0.888000 -0.455400
vn -0.674100 -0.474000 0.566500
vn -0.448300 -0.684300 -0.575100
vn -0.941900 -0.084200 0.325100
vn -0.737100 -0.355800 -0.574600
vn -0.631400 0.293200 0.717900
vn -0.888000 0.063600 -0.455400
vn -0.631500 0.293200 0.717900
vn -0.400500 0.569400 0.717900
vn -0.684300 0.448300 -0.575100
vn -0.073400 0.820800 0.566500
vn -0.355700 0.737100 -0.574600
vn -0.439200 0.649800 0.620400
vn -0.065800 0.868900 0.490600
vn -0.293000 0.631500 -0.717900
vn -0.622400 0.507700 -0.595700
vn -0.735500 -0.068800 -0.674100
vn -0.684300 0.448300 -0.575000
vn -0.439100 0.649800 0.620400
vn -0.000000 0.157000 0.987600
vn -0.569600 0.400300 -0.717900
vn -0.942000 0.084200 -0.325000
vn -0.785400 0.377400 0.490600
vn -0.448300 -0.684300 -0.575000
vn 0.068800 -0.735500 -0.674100
vn -0.136000 0.078500 0.987600
vn -0.782300 -0.055300 0.620400
vn -0.163000 -0.094100 0.982100
vn -0.536800 0.672100 -0.510100
vn -0.068900 0.735500 -0.674000
vn 0.092300 0.908600 -0.407400
vn -0.797200 0.603700 -0.000000
vn -0.990600 0.136700 -0.000000
vn -0.990600 -0.136700 0.000000
vn -0.747500 -0.346800 -0.566500
vn -0.355800 0.737000 -0.574600
vn -0.068800 0.735500 -0.674100
vn -0.400300 -0.569600 -0.717900
vn -0.719600 -0.491400 0.490600
vn -0.052300 -0.585900 -0.808700
vn -0.343100 -0.705200 0.620400
vn -0.684300 0.448400 -0.575000
vn 0.063500 0.888000 -0.455400
vn -0.735500 -0.068700 -0.674000
vn -0.622500 0.507600 -0.595700
vn -0.860700 0.076700 -0.503300
vn 0.073300 0.820800 -0.566500
vn -0.785400 0.377300 0.490700
vn -0.136700 0.990600 0.000100
vn -0.603700 0.797200 -0.000000
vn -0.507700 -0.622400 -0.595700
vn -0.647300 -0.565000 -0.511600
vn -0.603700 -0.797200 0.000100
vn -0.797200 -0.603700 -0.000200
vn -0.400400 0.569500 0.717900
vn 0.052300 -0.585900 0.808700
vn -0.355800 0.737100 -0.574600
vn -0.622400 0.507600 -0.595700
vn 0.063600 0.888000 -0.455400
vn -0.737000 -0.355800 -0.574600
vn 0.000000 -0.117800 0.993000
vn -0.603100 0.522100 -0.603000
vn -0.089800 0.779900 -0.619400
vn 0.150800 0.783300 -0.603000
vn 0.400400 -0.569500 0.717900
vn 0.052400 -0.585900 0.808700
vn 0.355800 -0.737000 -0.574600
vn -0.000000 -0.946800 0.321800
vn -0.986300 0.000000 -0.164900
vn 0.000000 -0.986300 -0.164800
vn 0.000000 0.946800 0.321800
vn -0.946800 -0.000000 0.321800
vn -0.962400 -0.000000 0.271600
vn 0.000000 -0.915700 -0.401800
vn -0.000000 -0.962400 0.271600
vn -0.293200 -0.631500 0.717900
vn -0.674100 -0.473900 0.566500
vn -0.000000 0.915700 -0.401800
vn -0.915700 0.000000 -0.401800
vn -0.942000 -0.084300 0.325000
vn -0.104400 -0.541700 -0.834100
vn -0.603200 0.522100 -0.603000
vn 0.150900 0.783300 -0.603100
vn -0.673800 -0.495400 -0.548200
vn -0.103600 -0.541700 -0.834200
vn 0.089700 -0.779900 -0.619500
vn -0.777100 0.311900 -0.546700
vn -0.536700 0.672100 -0.510100
vn -0.089200 0.779800 -0.619600
vn -0.883900 -0.306200 -0.353600
vn -0.603200 0.522000 -0.603000
vn -0.673900 -0.495300 -0.548200
vn 0.065800 -0.868900 0.490600
vn 0.089200 -0.779800 -0.619600
vn -0.092400 -0.908600 -0.407300
vn -0.092300 -0.908600 -0.407400
vn 0.068800 -0.735500 -0.674000
vn 0.000000 0.908000 -0.419000
vn -0.000000 0.986300 -0.164800
vn -0.785400 0.377300 0.490600
vn -0.000000 1.000000 0.000000
vn -0.976200 -0.000100 -0.216800
vn -0.000400 0.908000 -0.419100
vn -0.747500 -0.346900 -0.566500
vn -0.569600 0.400200 -0.717900
vn -0.400200 -0.569600 -0.717900
vn 0.569500 0.400400 0.717900
vn 0.293200 0.631500 0.717900
vn -0.136700 -0.990600 0.000000
vn 0.136700 -0.990600 0.000000
vn 0.400200 0.569600 -0.717900
vn 0.293000 -0.631500 -0.717900
vn -0.000000 -0.908000 -0.419000
vn -0.976200 0.000000 -0.216800
vn -0.942000 0.084000 -0.325000
vn 0.777100 -0.311800 -0.546700
vn 0.707300 -0.612100 -0.353600
vn -0.915700 -0.000100 -0.401800
vn 0.000100 0.915700 -0.401800
vn -0.000100 -0.915700 -0.401800
vn -0.000000 0.962400 0.271600
vn 0.000000 0.973400 -0.229100
vn -0.883800 -0.000000 -0.467800
vn -0.995900 -0.000000 -0.090900
vn 0.000000 -0.973400 -0.229100
vn 0.000000 -0.883800 -0.467800
vn -0.940800 -0.000000 0.338800
vn -0.000000 -0.820800 -0.571200
vn 0.000400 -0.577400 0.816500
vn -0.000000 -1.000000 -0.000000
vn 0.000200 -0.908000 -0.419100
vn 0.000100 0.820800 -0.571200
vn -0.000100 -0.820800 -0.571200
vn -0.809700 0.000100 -0.586900
vn -0.000000 0.820800 -0.571200
vn -0.000000 0.577400 0.816500
vn 0.000000 -0.000000 1.000000
vn 0.000000 0.883800 -0.467800
vn -1.000000 -0.000000 -0.000000
vn -0.883900 -0.306100 -0.353500
vn -0.809600 -0.000000 -0.586900
vn -0.940800 -0.000100 0.338800
vn 0.000000 -0.577400 0.816500
vn 0.092400 0.908600 -0.407300
vn -0.063500 -0.888000 -0.455400
vn 0.684300 -0.448300 -0.575100
vn 0.684300 -0.448400 -0.575000
vn 0.888000 -0.063600 -0.455400
vn 0.747400 -0.347100 0.566500
vn 0.737100 0.355800 -0.574600
vn 0.941900 0.084200 0.325100
vn 0.448200 0.684400 -0.575100
vn 0.293100 0.631500 0.717900
vn 0.343100 0.705200 0.620400
vn 0.737000 0.355800 -0.574600
vn 0.735500 0.068800 -0.674100
vn 0.507700 0.622400 -0.595700
vn 0.719600 0.491400 0.490600
vn 0.400400 0.569500 -0.717900
vn 0.782300 0.055200 0.620400
vn 0.631500 0.293000 -0.717900
vn 0.163000 -0.094100 0.982100
vn 0.782300 0.055300 0.620400
vn 0.136000 0.078500 0.987600
vn 0.507600 0.622500 -0.595700
vn 0.990600 -0.136700 0.000100
vn 0.797200 0.603700 0.000200
vn 0.990600 0.136700 0.000100
vn 0.785400 -0.377400 0.490600
vn 0.942000 -0.084100 -0.325000
vn 0.448300 0.684300 -0.575000
vn 0.439000 -0.649900 0.620400
vn 0.674200 -0.473900 -0.566500
vn 0.785400 -0.377300 0.490700
vn 0.293100 -0.631400 -0.717900
vn 0.647300 0.565000 -0.511600
vn 0.603700 0.797200 0.000000
vn 0.136700 0.990600 -0.000000
vn 0.622500 -0.507600 -0.595700
vn 0.860700 -0.076700 -0.503300
vn 0.735500 0.069000 -0.674000
vn 0.647400 0.565000 -0.511600
vn 0.797200 -0.603700 -0.000000
vn 0.603700 -0.797200 -0.000200
vn 0.507600 0.622400 -0.595700
vn 0.448300 0.684300 -0.575100
vn 0.684300 -0.448300 -0.575000
vn 0.622400 -0.507700 -0.595700
vn 0.355800 -0.737100 -0.574600
vn 0.785400 -0.377300 0.490600
vn 0.439100 -0.649800 0.620400
vn 0.673900 0.495200 -0.548200
vn 0.986300 0.000000 -0.164900
vn 0.946800 -0.000000 0.321800
vn 0.962400 0.000000 0.271600
vn 0.915700 0.000000 -0.401800
vn 0.942000 0.084300 0.325000
vn 0.753800 0.261000 -0.603000
vn 0.673900 0.495300 -0.548200
vn 0.673900 0.495200 -0.548300
vn 0.777100 -0.311900 -0.546700
vn 0.536700 -0.672100 -0.510100
vn 0.536800 -0.672100 -0.510100
vn 0.976200 0.000200 -0.216800
vn 0.753900 0.261000 -0.603000
vn 0.777000 -0.312100 -0.546700
vn 0.976200 0.000000 -0.216700
vn 0.942000 -0.084000 -0.325000
vn 0.915700 -0.000100 -0.401800
vn 0.995900 -0.000000 -0.090900
vn 0.883800 -0.000000 -0.467800
vn 0.940800 0.000000 0.338800
vn 0.747400 -0.347000 0.566500
vn 0.809700 -0.000100 -0.586900
vn 1.000000 -0.000000 -0.000000
vn 0.707300 -0.612200 -0.353500
vn 0.809600 0.000000 -0.586900
vn 0.940800 0.000100 0.338800
usemtl Model001_Material001.001
s 1
f 1/1/1 2/2/2 3/3/3
f 2/2/2 4/4/4 5/5/5
f 6/1/4 7/2/6 8/3/7
f 7/2/6 9/4/8 10/5/9
f 11/1/10 12/2/11 13/3/12
f 12/2/11 14/4/13 15/5/14
f 16/2/15 17/4/16 18/5/17
f 19/6/18 20/7/19 21/8/20
f 22/9/16 23/10/21 24/11/22
f 18/5/17 25/3/23 16/2/15
f 26/12/23 27/5/24 28/4/25
f 29/13/3 30/8/26 31/7/27
f 32/14/28 33/10/29 34/11/30
f 35/15/31 36/16/32 37/17/33
f 38/18/34 39/19/35 40/20/36
f 27/5/24 41/3/37 42/2/29
f 43/21/18 44/22/38 45/7/39
f 46/12/37 47/5/40 48/4/41
f 47/5/40 49/3/42 50/2/43
f 51/12/7 5/5/5 4/4/4
f 10/5/9 8/3/7 7/2/6
f 52/12/44 10/5/9 9/4/8
f 15/5/14 13/3/12 12/2/11
f 53/12/45 15/5/14 14/4/13
f 50/2/43 48/4/41 47/5/40
f 54/23/46 55/24/47 56/25/48
f 57/12/49 18/5/17 17/4/16
f 58/1/50 16/2/15 25/3/23
f 59/26/51 60/27/52 38/18/34
f 42/2/29 28/4/25 27/5/24
f 61/1/41 42/2/29 41/3/37
f 5/5/5 3/3/3 2/2/2
f 62/24/53 54/23/46 63/15/54
f 35/15/31 56/25/48 55/24/47
f 64/18/55 40/20/36 65/27/56
f 60/27/52 39/19/35 38/18/34
f 66/28/57 67/29/58 68/30/13
f 69/22/12 70/31/59 43/21/60
f 71/13/61 45/7/39 44/22/38
f 72/13/9 20/7/19 73/22/62
f 74/6/53 31/7/27 30/8/26
f 73/22/62 75/21/53 76/31/5
f 72/13/9 21/8/20 20/7/19
f 73/22/62 20/7/19 75/21/53
f 77/9/41 34/11/30 33/10/29
f 77/9/41 78/10/43 34/11/30
f 34/11/30 78/10/43 79/14/63
f 32/14/28 24/11/22 23/10/21
f 80/32/64 81/33/65 82/34/66
f 83/2/67 84/4/68 85/5/69
f 86/35/70 87/36/71 88/37/72
f 89/35/73 87/36/71 90/38/74
f 91/39/75 92/40/76 93/41/77
f 94/42/78 95/43/10 96/44/79
f 91/39/75 97/40/80 98/45/81
f 99/46/82 96/44/79 95/43/10
f 100/47/83 101/48/84 102/49/85
f 103/50/86 104/34/87 105/33/88
f 106/51/89 107/52/90 108/53/91
f 109/32/92 110/54/89 111/55/93
f 112/56/54 113/57/48 114/58/94
f 115/1/95 50/2/43 49/3/42
f 116/52/54 117/53/96 118/59/97
f 63/15/54 54/23/46 56/25/48
f 67/29/58 66/28/57 94/42/78
f 62/24/53 119/17/98 120/16/99
f 121/60/100 87/36/71 122/37/101
f 114/58/94 113/57/48 123/61/89
f 124/62/42 125/63/17 126/64/49
f 79/14/63 78/10/43 127/65/95
f 128/65/102 33/10/29 32/14/28
f 129/44/28 130/30/63 131/29/22
f 132/66/103 133/67/104 134/68/105
f 119/17/98 62/24/53 63/15/54
f 130/30/63 129/44/28 135/43/30
f 136/69/106 137/70/107 138/71/108
f 109/32/92 104/34/87 103/50/86
f 139/43/109 140/28/110 141/42/67
f 142/50/89 81/33/65 80/32/64
f 143/51/94 117/53/96 116/52/54
f 137/70/107 125/63/17 138/71/108
f 128/65/102 32/14/28 23/10/21
f 64/18/55 144/72/111 145/26/112
f 65/27/56 40/20/36 39/19/35
f 124/62/42 146/63/113 147/71/114
f 55/24/47 36/16/32 35/15/31
f 148/60/115 87/36/71 149/73/116
f 150/74/117 137/70/107 136/69/106
f 151/50/118 105/33/88 152/32/119
f 123/61/89 113/57/48 153/75/90
f 88/37/72 87/36/71 148/60/115
f 154/76/120 155/77/121 156/78/122
f 87/36/71 121/60/100 149/73/116
f 122/37/101 87/36/71 89/35/73
f 87/36/71 86/35/70 90/38/74
f 97/40/80 91/39/75 157/41/123
f 98/45/81 92/40/76 91/39/75
f 158/79/124 159/80/125 160/81/126
f 161/79/127 159/80/125 162/82/128
f 163/83/129 164/84/130 165/85/131
f 65/27/56 144/72/111 64/18/55
f 133/67/104 166/66/132 167/68/133
f 168/86/134 169/87/135 170/88/136
f 171/84/137 163/83/129 172/85/138
f 160/81/126 159/80/125 161/79/127
f 160/81/126 161/79/127 173/89/139
f 159/80/125 158/79/124 174/82/140
f 175/90/141 133/67/104 132/66/103
f 101/48/84 100/47/83 176/91/142
f 177/92/143 163/83/129 171/84/137
f 166/66/132 133/67/104 175/90/141
f 158/79/124 160/81/126 173/89/139
f 164/84/130 163/83/129 177/92/143
f 178/93/144 179/94/145 180/95/138
f 181/59/146 108/53/91 107/52/90
f 85/5/69 84/4/68 182/12/147
f 85/5/69 183/3/148 83/2/67
f 184/12/149 185/5/150 186/4/151
f 185/5/150 187/3/152 188/2/153
f 189/12/152 190/5/154 191/4/109
f 192/1/13 193/2/155 194/3/61
f 195/1/16 196/2/156 197/3/49
f 198/8/157 199/7/158 200/6/159
f 24/11/22 201/10/156 22/9/16
f 196/2/156 202/4/160 203/5/161
f 204/2/162 205/3/163 206/1/160
f 31/7/27 207/22/69 29/13/3
f 208/11/164 209/10/165 210/14/166
f 36/16/32 211/24/167 37/17/33
f 212/19/168 213/27/169 214/20/170
f 215/4/171 216/5/172 204/2/162
f 45/7/39 217/8/173 200/6/159
f 218/2/174 219/3/175 220/1/176
f 221/4/95 222/5/177 218/2/174
f 188/2/153 186/4/151 185/5/150
f 223/1/109 188/2/153 187/3/152
f 193/2/155 191/4/109 190/5/154
f 190/5/154 194/3/61 193/2/155
f 203/5/161 197/3/49 196/2/156
f 224/52/178 108/53/91 181/59/146
f 59/26/51 225/18/179 226/72/180
f 227/12/163 203/5/161 202/4/160
f 216/5/172 205/3/163 204/2/162
f 226/72/180 225/18/179 213/27/169
f 228/12/175 216/5/172 215/4/171
f 222/5/177 219/3/175 218/2/174
f 229/12/42 222/5/177 221/4/95
f 230/24/181 231/25/182 232/23/183
f 232/23/183 233/15/184 211/24/167
f 214/20/170 234/18/185 212/19/168
f 235/27/186 212/19/168 234/18/185
f 67/29/58 140/28/110 68/30/13
f 236/21/187 237/31/188 238/22/152
f 217/8/173 45/7/39 71/13/61
f 239/22/189 199/7/158 240/13/150
f 207/22/69 31/7/27 241/21/190
f 242/31/191 241/21/190 239/22/189
f 199/7/158 198/8/157 240/13/150
f 241/21/190 199/7/158 239/22/189
f 209/10/165 208/11/164 243/9/192
f 208/11/164 244/10/193 243/9/192
f 79/14/63 244/10/193 208/11/164
f 201/10/156 24/11/22 210/14/166
f 81/33/65 245/50/194 82/34/66
f 226/72/180 60/27/52 59/26/51
f 88/37/72 246/36/195 86/35/70
f 247/38/196 246/36/195 89/35/73
f 93/41/77 92/40/76 248/39/197
f 249/44/151 139/43/109 141/42/67
f 250/45/198 97/40/80 248/39/197
f 139/43/109 249/44/151 251/46/199
f 102/49/85 252/48/200 100/47/83
f 104/34/87 152/32/119 105/33/88
f 108/53/91 224/52/178 253/51/201
f 254/54/202 151/50/118 255/55/200
f 256/58/203 257/57/182 258/56/204
f 230/24/181 120/16/99 259/15/205
f 118/59/97 117/53/96 260/52/204
f 152/32/119 255/55/200 151/50/118
f 140/28/110 67/29/58 141/42/67
f 119/17/98 259/15/205 120/16/99
f 122/37/101 246/36/195 121/60/100
f 261/61/201 257/57/182 256/58/203
f 126/64/49 146/63/113 124/62/42
f 127/65/95 244/10/193 79/14/63
f 210/14/166 209/10/165 262/65/160
f 131/29/22 130/30/63 263/44/166
f 134/68/105 264/67/206 132/66/103
f 259/15/205 231/25/182 230/24/181
f 265/43/164 263/44/166 130/30/63
f 147/71/114 266/70/163 267/69/175
f 268/32/207 82/34/66 245/50/194
f 124/62/42 138/71/108 125/63/17
f 233/15/184 37/17/33 211/24/167
f 260/52/204 117/53/96 269/51/208
f 266/70/163 147/71/114 146/63/113
f 201/10/156 210/14/166 262/65/160
f 235/27/186 145/26/112 144/72/111
f 234/18/185 145/26/112 235/27/186
f 103/50/86 110/54/89 109/32/92
f 231/25/182 233/15/184 232/23/183
f 270/73/209 246/36/195 148/60/115
f 267/69/175 266/70/163 271/74/210
f 225/18/179 214/20/170 213/27/169
f 272/75/178 257/57/182 261/61/201
f 148/60/115 246/36/195 88/37/72
f 156/78/122 155/77/121 273/76/211
f 270/73/209 121/60/100 246/36/195
f 89/35/73 246/36/195 122/37/101
f 247/38/196 86/35/70 246/36/195
f 157/41/123 248/39/197 97/40/80
f 248/39/197 92/40/76 250/45/198
f 274/81/212 275/80/213 158/79/124
f 162/82/128 275/80/213 161/79/127
f 165/85/131 164/84/130 276/83/214
f 277/1/215 83/2/67 183/3/148
f 167/68/133 166/66/132 264/67/206
f 278/88/216 169/87/135 168/86/134
f 172/85/138 276/83/214 171/84/137
f 161/79/127 275/80/213 274/81/212
f 173/89/139 161/79/127 274/81/212
f 174/82/140 158/79/124 275/80/213
f 132/66/103 264/67/206 279/90/217
f 280/91/218 100/47/83 252/48/200
f 171/84/137 276/83/214 281/92/219
f 279/90/217 264/67/206 166/66/132
f 173/89/139 274/81/212 158/79/124
f 281/92/219 276/83/214 164/84/130
f 180/95/138 179/94/145 282/93/220
f 95/43/10 94/42/78 66/28/57
