# Blender v2.74 (sub 0) OBJ File: ''
# www.blender.org
mtllib cloudcompletetsurugi.mtl
o cloudcomplete
v -0.006850 0.035864 -0.194437
v -0.011645 0.041720 0.127494
v 0.005285 0.059231 0.127427
v 0.010078 0.053375 -0.194504
v 0.027586 0.036451 -0.193936
v 0.010078 0.053375 -0.194504
v 0.005285 0.059231 0.127427
v 0.005285 0.059231 0.127427
v 0.022793 0.042308 0.127995
v 0.010657 0.018940 -0.193869
v 0.005864 0.024797 0.128062
v -0.011645 0.041720 0.127494
v -0.011645 0.041720 0.127494
v -0.006850 0.035864 -0.194437
v 0.010825 0.009969 -0.193703
v 0.036576 0.036605 -0.193805
v 0.009945 0.062347 -0.194669
v -0.015805 0.035710 -0.194569
v 0.011192 0.009522 -0.218303
v -0.015439 0.035262 -0.219169
v 0.010311 0.061900 -0.219269
v 0.036942 0.036158 -0.218405
v 0.011192 0.009522 -0.218303
v 0.036942 0.036158 -0.218405
v 0.036576 0.036605 -0.193805
v 0.036576 0.036605 -0.193805
v 0.010825 0.009969 -0.193703
v 0.011192 0.009522 -0.218303
v 0.011192 0.009522 -0.218303
v 0.010825 0.009969 -0.193703
v -0.015805 0.035710 -0.194569
v -0.015805 0.035710 -0.194569
v -0.015439 0.035262 -0.219169
v 0.011192 0.009522 -0.218303
v 0.036942 0.036158 -0.218405
v 0.010311 0.061900 -0.219269
v 0.009945 0.062347 -0.194669
v 0.009945 0.062347 -0.194669
v 0.036576 0.036605 -0.193805
v 0.036942 0.036158 -0.218405
v -0.015439 0.035262 -0.219169
v -0.015805 0.035710 -0.194569
v 0.009945 0.062347 -0.194669
v 0.009945 0.062347 -0.194669
v 0.010311 0.061900 -0.219269
v -0.015439 0.035262 -0.219169
v 0.042407 -0.076151 0.131092
v 0.041088 -0.074539 0.219610
v -0.028599 -0.075732 0.218594
v -0.027282 -0.077341 0.130078
v -0.031279 0.160201 0.125698
v 0.038410 0.161391 0.126713
v 0.042407 -0.076151 0.131092
v 0.042407 -0.076151 0.131092
v -0.027282 -0.077341 0.130078
v -0.027282 -0.077341 0.130078
v -0.028599 -0.075732 0.218594
v -0.032596 0.161811 0.214213
v -0.027282 -0.077341 0.130078
v -0.028599 -0.075732 0.218594
v 0.041088 -0.074539 0.219610
v 0.041088 -0.074539 0.219610
v 0.037093 0.163001 0.215228
v -0.031279 0.160201 0.125698
v -0.032596 0.161811 0.214213
v 0.037093 0.163001 0.215228
v 0.037093 0.163001 0.215228
v 0.038410 0.161391 0.126713
v -0.031279 0.160201 0.125698
v 0.038410 0.161391 0.126713
v 0.037093 0.163001 0.215228
v 0.041088 -0.074539 0.219610
v 0.041088 -0.074539 0.219610
v 0.042407 -0.076151 0.131092
v 0.038410 0.161391 0.126713
v -0.013306 0.075356 0.650159
v 0.008073 0.075722 0.650472
v -0.002656 0.085546 1.193868
v -0.018744 0.085289 1.193632
v -0.011495 0.117926 1.209448
v -0.002845 0.120431 0.613363
v 0.008073 0.075722 0.650472
v -0.002656 0.085546 1.193868
v 0.008073 0.075722 0.650472
v -0.011801 0.067380 0.216241
v 0.019486 0.067915 0.216696
v 0.010477 0.075764 0.650508
v -0.015714 0.075316 0.650125
v -0.002897 0.130719 0.604887
v 0.002594 0.129071 0.230057
v 0.019486 0.067915 0.216696
v 0.010477 0.075764 0.650508
v 0.019486 0.067915 0.216696
v -0.017937 0.037262 1.194518
v -0.001850 0.037555 1.194752
v 0.008879 0.027697 0.651355
v 0.008879 0.027697 0.651355
v -0.012497 0.027333 0.651046
v -0.017937 0.037262 1.194518
v -0.000506 -0.018690 0.615930
v -0.009602 0.005490 1.211520
v -0.017937 0.037262 1.194518
v -0.017937 0.037262 1.194518
v -0.012497 0.027333 0.651046
v -0.000506 -0.018690 0.615930
v -0.001850 0.037555 1.194752
v -0.009602 0.005490 1.211520
v -0.000506 -0.018690 0.615930
v -0.000506 -0.018690 0.615930
v 0.008879 0.027697 0.651355
v -0.001850 0.037555 1.194752
v -0.014904 0.027291 0.651010
v 0.011286 0.027739 0.651391
v 0.020293 0.019892 0.217583
v 0.020293 0.019892 0.217583
v -0.010992 0.019354 0.217127
v -0.014904 0.027291 0.651010
v 0.005460 -0.041264 0.233197
v -0.000206 -0.029280 0.607837
v -0.014904 0.027291 0.651010
v -0.014904 0.027291 0.651010
v -0.010992 0.019354 0.217127
v 0.005460 -0.041264 0.233197
v 0.011286 0.027739 0.651391
v -0.000206 -0.029280 0.607837
v 0.005460 -0.041264 0.233197
v 0.005460 -0.041264 0.233197
v 0.020293 0.019892 0.217583
v 0.011286 0.027739 0.651391
v 0.002498 0.022252 0.361852
v 0.001691 0.070277 0.360969
v -0.002619 0.075541 0.650315
v -0.001809 0.027515 0.651201
v -0.010708 0.085425 1.193750
v -0.009901 0.037398 1.194635
v -0.020101 0.021884 0.361524
v 0.025751 0.022684 0.362192
v 0.024944 0.070672 0.361307
v -0.020925 0.069890 0.360637
v -0.017948 0.019256 0.217024
v 0.027903 0.020057 0.217692
v 0.025751 0.022684 0.362192
v 0.025751 0.022684 0.362192
v -0.020101 0.021884 0.361524
v -0.017948 0.019256 0.217024
v -0.018773 0.067261 0.216140
v -0.017948 0.019256 0.217024
v 0.027903 0.020057 0.217692
v 0.027096 0.068044 0.216807
v 0.024944 0.070672 0.361307
v 0.024944 0.070672 0.361307
v 0.025751 0.022684 0.362192
v 0.027903 0.020057 0.217692
v -0.018773 0.067261 0.216140
v 0.024944 0.070672 0.361307
v 0.024944 0.070672 0.361307
v 0.027096 0.068044 0.216807
v -0.018773 0.067261 0.216140
v -0.011997 0.087000 1.280339
v -0.002656 0.085546 1.193868
v -0.011997 0.087000 1.280339
v 0.002594 0.129071 0.230057
v 0.019486 0.067915 0.216696
v -0.011801 0.067380 0.216241
v -0.002897 0.130719 0.604887
v -0.009602 0.005490 1.211520
v -0.001850 0.037555 1.194752
v -0.011190 0.038974 1.281224
v -0.017937 0.037262 1.194518
v -0.009602 0.005490 1.211520
v -0.011190 0.038974 1.281224
v -0.001850 0.037555 1.194752
v -0.017937 0.037262 1.194518
v -0.011190 0.038974 1.281224
v 0.005460 -0.041264 0.233197
v -0.010992 0.019354 0.217127
v 0.020293 0.019892 0.217583
v 0.011286 0.027739 0.651391
v -0.014904 0.027291 0.651010
v -0.000206 -0.029280 0.607837
v 0.010311 0.061900 -0.219269
v -0.015439 0.035262 -0.219169
v -0.015805 0.035710 -0.194569
v -0.015805 0.035710 -0.194569
v 0.009945 0.062347 -0.194669
v 0.010311 0.061900 -0.219269
v 0.036942 0.036158 -0.218405
v 0.036576 0.036605 -0.193805
v 0.010825 0.009969 -0.193703
v 0.010825 0.009969 -0.193703
v 0.011192 0.009522 -0.218303
v 0.036942 0.036158 -0.218405
v 0.036942 0.036158 -0.218405
v 0.010311 0.061900 -0.219269
v 0.009945 0.062347 -0.194669
v 0.009945 0.062347 -0.194669
v 0.036576 0.036605 -0.193805
v 0.036942 0.036158 -0.218405
v 0.036942 0.036158 -0.218405
v 0.011192 0.009522 -0.218303
v -0.015439 0.035262 -0.219169
v -0.015439 0.035262 -0.219169
v 0.010311 0.061900 -0.219269
v 0.036942 0.036158 -0.218405
v -0.007421 -0.051036 1.230211
v -0.022030 -0.006519 1.229232
v -0.020541 -0.020501 0.447622
v 0.003076 -0.064846 0.448707
v 0.002890 0.123298 0.215368
v -0.019462 0.090383 0.215632
v -0.022477 0.094415 0.445603
v 0.000347 0.126700 0.408923
v -0.013701 0.169532 1.419383
v -0.000544 0.152280 0.444879
v -0.025505 0.110359 1.343765
v 0.011192 0.009522 -0.218303
v 0.010825 0.009969 -0.193703
v -0.015805 0.035710 -0.194569
v -0.015805 0.035710 -0.194569
v -0.015439 0.035262 -0.219169
v 0.011192 0.009522 -0.218303
v -0.027282 -0.077341 0.130078
v -0.028599 -0.075732 0.218594
v -0.032596 0.161811 0.214213
v -0.032596 0.161811 0.214213
v -0.031279 0.160201 0.125698
v -0.027282 -0.077341 0.130078
v 0.038410 0.161391 0.126713
v -0.031279 0.160201 0.125698
v -0.032596 0.161811 0.214213
v -0.032596 0.161811 0.214213
v 0.037093 0.163001 0.215228
v 0.038410 0.161391 0.126713
v -0.015805 0.035710 -0.194569
v 0.010825 0.009969 -0.193703
v 0.036576 0.036605 -0.193805
v 0.036576 0.036605 -0.193805
v 0.009945 0.062347 -0.194669
v -0.015805 0.035710 -0.194569
v 0.042407 -0.076151 0.131092
v 0.041088 -0.074539 0.219610
v 0.042407 -0.076151 0.131092
v 0.042407 -0.076151 0.131092
v 0.038410 0.161391 0.126713
v 0.037093 0.163001 0.215228
v 0.037093 0.163001 0.215228
v 0.041088 -0.074539 0.219610
v 0.042407 -0.076151 0.131092
v 0.042407 -0.076151 0.131092
v -0.027282 -0.077341 0.130078
v -0.031279 0.160201 0.125698
v -0.031279 0.160201 0.125698
v 0.038410 0.161391 0.126713
v 0.042407 -0.076151 0.131092
v 0.041088 -0.074539 0.219610
v 0.037093 0.163001 0.215228
v -0.032596 0.161811 0.214213
v -0.032596 0.161811 0.214213
v -0.028599 -0.075732 0.218594
v 0.041088 -0.074539 0.219610
v 0.025257 -0.019720 0.448216
v 0.025257 -0.019720 0.448216
v 0.005683 -0.006049 1.229587
v 0.002245 0.110833 1.344121
v 0.023323 0.095193 0.446171
v 0.002245 0.110833 1.344121
v 0.023323 0.095193 0.446171
v 0.023323 0.095193 0.446171
v 0.026337 0.091165 0.216226
v 0.028272 -0.023785 0.218270
v 0.026337 0.091165 0.216226
v 0.023323 0.095193 0.446171
v 0.023323 0.095193 0.446171
v 0.025257 -0.019720 0.448216
v 0.005285 0.059231 0.127427
v 0.010078 0.053375 -0.194504
v 0.005285 0.059231 0.127427
v 0.005864 0.024797 0.128062
v 0.010657 0.018940 -0.193869
v 0.010657 0.018940 -0.193869
v -0.011645 0.041720 0.127494
v 0.005285 0.059231 0.127427
v 0.010078 0.053375 -0.194504
v 0.010078 0.053375 -0.194504
v -0.006850 0.035864 -0.194437
v -0.011645 0.041720 0.127494
v 0.005864 0.024797 0.128062
v -0.011645 0.041720 0.127494
v -0.006850 0.035864 -0.194437
v -0.006850 0.035864 -0.194437
v 0.010657 0.018940 -0.193869
v 0.005864 0.024797 0.128062
v -0.017526 -0.024568 0.217679
v -0.017526 -0.024568 0.217679
v -0.017526 -0.024568 0.217679
v 0.004571 -0.066708 0.338612
v -0.017526 -0.024568 0.217679
v 0.025257 -0.019720 0.448216
v 0.025257 -0.019720 0.448216
v 0.005683 -0.006049 1.229587
v 0.025257 -0.019720 0.448216
v 0.023323 0.095193 0.446171
v 0.023323 0.095193 0.446171
v 0.002245 0.110833 1.344121
v 0.005683 -0.006049 1.229587
v 0.028663 -0.048012 0.218691
v 0.027580 -0.022883 0.270775
v -0.018204 -0.023645 0.270208
v -0.017100 -0.048792 0.218101
v 0.002245 0.110833 1.344121
v -0.007421 -0.051036 1.230211
v 0.005683 -0.006049 1.229587
v -0.025505 0.110359 1.343765
v -0.022030 -0.006519 1.229232
v -0.007421 -0.051036 1.230211
v -0.025505 0.110359 1.343765
v -0.007421 -0.051036 1.230211
v -0.013701 0.169532 1.419383
v -0.007421 -0.051036 1.230211
v 0.002245 0.110833 1.344121
v -0.013701 0.169532 1.419383
v -0.017526 -0.024568 0.217679
v 0.028272 -0.023785 0.218270
v 0.004571 -0.066708 0.338612
v 0.023323 0.095193 0.446171
v -0.018204 -0.023645 0.270208
v -0.017526 -0.024568 0.217679
v -0.017100 -0.048792 0.218101
v 0.027580 -0.022883 0.270775
v 0.028663 -0.048012 0.218691
vt 2.716720 0.046558
vt 2.998220 0.046558
vt 2.998220 0.003825
vt 2.716720 0.003825
vt 2.716860 0.046862
vt 2.716860 0.089837
vt 2.998080 0.089837
vt 2.998080 0.046862
vt 2.716860 0.003886
vt 2.998080 0.003886
vt 2.735560 0.229927
vt 2.700400 0.229927
vt 2.700400 0.300230
vt 2.735560 0.300230
vt 2.746800 0.230033
vt 2.746800 0.312061
vt 2.787820 0.312061
vt 2.787820 0.230033
vt 2.790650 0.113895
vt 2.790650 0.164672
vt 2.775010 0.164672
vt 2.775010 0.113895
vt 2.790650 0.211556
vt 2.775010 0.211556
vt 2.805600 0.184290
vt 2.805600 0.312776
vt 2.851590 0.312776
vt 2.851590 0.184290
vt 2.998080 0.183575
vt 2.998080 0.097639
vt 2.851590 0.097639
vt 2.851590 0.183575
vt 2.851590 0.312517
vt 2.998080 0.312517
vt 2.851590 0.385649
vt 2.998080 0.385649
vt 2.668030 0.285144
vt 2.668030 0.238275
vt 2.091820 0.238275
vt 2.091820 0.285144
vt 2.076180 0.386714
vt 2.707070 0.386714
vt 2.539100 0.082021
vt 2.539100 0.007794
vt 2.078150 0.007794
vt 2.078150 0.082021
vt 2.125010 0.230459
vt 2.521540 0.230459
vt 2.884790 0.394515
vt 2.884790 0.496084
vt 2.578140 0.496084
vt 2.578140 0.394515
vt 2.001980 0.496084
vt 2.001980 0.394515
vt 2.703190 0.207025
vt 2.752020 0.207025
vt 2.752020 0.105455
vt 2.703190 0.105455
vt 2.550800 0.105455
vt 2.550800 0.007794
vt 2.703190 0.007794
vt 2.550800 0.207025
vt 2.000010 0.289053
vt 2.000010 0.261710
vt 2.925980 0.435605
vt 2.997400 0.459997
vt 2.997400 0.409722
vt 2.001980 0.039045
vt 2.790610 0.113682
vt 2.790610 0.164414
vt 2.775010 0.164414
vt 2.775010 0.113682
vt 2.191440 0.593745
vt 2.191440 0.687498
vt 2.781280 0.687498
vt 2.781280 0.593745
vt 2.994200 0.972649
vt 2.994200 0.894529
vt 2.781280 0.894529
vt 2.816440 0.972649
vt 2.005910 0.996099
vt 2.781280 0.996099
vt 2.082080 0.894529
vt 2.805600 0.309020
vt 2.851590 0.309020
vt 2.998080 0.308761
vt 2.851590 0.308761
vt 2.851590 0.382805
vt 2.998080 0.382805
vt 2.994200 0.687498
vt 2.884790 0.593745
vt 2.160170 0.511048
vt 2.109420 0.511048
vt 2.109420 0.591783
vt 2.160170 0.591783
vt 2.178550 0.727052
vt 2.355070 0.712286
vt 2.336880 0.709199
vt 2.178640 0.810646
vt 2.336920 0.792808
vt 2.077550 0.768431
vt 2.997630 0.564334
vt 2.997630 0.517344
vt 2.903760 0.544154
vt 2.945370 0.687498
vt 2.994200 0.640614
vn -0.953700 0.300000 -0.019600
vn -0.943100 -0.332300 -0.008000
vn -0.016900 0.999700 -0.018500
vn -0.016900 0.999700 -0.018400
vn 0.943100 0.332400 0.008000
vn -0.016800 0.999700 -0.018400
vn 0.953800 -0.299900 0.019600
vn 0.943100 0.332300 0.008000
vn 0.016800 -0.999700 0.018000
vn 0.016800 -0.999700 0.018400
vn -0.943100 -0.332400 -0.008000
vn -0.953800 0.299900 -0.019600
vn 0.953800 -0.299800 0.019900
vn -0.002300 -0.562300 0.826900
vn 0.864600 -0.266400 0.426100
vn -0.022400 0.826700 0.562100
vn -0.867000 -0.296000 0.400900
vn 0.022400 -0.826700 -0.562100
vn -0.864600 0.266400 -0.426100
vn 0.002300 0.562300 -0.826900
vn 0.867000 0.296000 -0.400900
vn 0.022300 -0.826700 -0.562200
vn 0.867100 0.295900 -0.400800
vn -0.002400 -0.562300 0.826900
vn 0.022400 -0.826700 -0.562200
vn -0.002500 -0.562300 0.826900
vn -0.867000 -0.296000 0.400800
vn -0.867100 -0.295900 0.400800
vn 0.867000 0.295900 -0.400900
vn 0.002500 0.562300 -0.826900
vn -0.022300 0.826700 0.562200
vn 0.864600 -0.266400 0.426000
vn -0.867000 -0.295900 0.400900
vn -0.022400 0.826700 0.562200
vn 0.002400 0.562300 -0.826900
vn 0.354400 -0.672900 -0.649300
vn 0.662100 -0.309700 0.682400
vn -0.400500 -0.815800 0.417200
vn -0.803400 -0.429400 -0.412500
vn -0.334600 0.648600 -0.683700
vn 0.815500 0.414600 -0.403700
vn -0.803400 -0.429500 -0.412500
vn -0.334500 0.648600 -0.683700
vn -0.803300 -0.429500 -0.412600
vn -0.682000 0.333900 0.650600
vn -0.682100 0.334000 0.650600
vn -0.334500 0.648700 -0.683600
vn -0.803300 -0.429500 -0.412500
vn -0.682000 0.334000 0.650600
vn -0.400600 -0.815800 0.417200
vn 0.662200 -0.309700 0.682400
vn 0.662200 -0.309600 0.682400
vn 0.388300 0.830600 0.399100
vn -0.334500 0.648600 -0.683600
vn -0.682000 0.334000 0.650700
vn 0.388400 0.830600 0.399100
vn 0.815500 0.414700 -0.403700
vn -0.334600 0.648700 -0.683600
vn 0.388400 0.830600 0.399000
vn 0.354300 -0.673000 -0.649300
vn -0.775800 -0.631000 0.004000
vn 0.969200 -0.245300 0.023700
vn 0.617100 -0.785100 0.053300
vn -0.769500 -0.637500 0.038400
vn -0.019000 0.991300 0.130100
vn -0.017200 0.999800 0.004000
vn 0.969200 -0.245300 0.023800
vn 0.617100 -0.785100 0.053200
vn -0.755800 -0.530500 -0.383800
vn 0.896600 -0.124100 -0.425000
vn 0.577000 -0.656800 0.485400
vn -0.778400 -0.118000 0.616600
vn -0.021700 0.899600 0.436100
vn 0.001800 0.587400 -0.809300
vn 0.896600 -0.124100 -0.425100
vn -0.021800 0.899600 0.436100
vn 0.577100 -0.656800 0.485300
vn -0.792100 0.610400 0.004000
vn 0.901800 0.430600 0.037000
vn 0.466800 0.884300 -0.006800
vn 0.466700 0.884400 -0.006800
vn -0.795100 0.606100 -0.019000
vn -0.792200 0.610300 0.004100
vn 0.016500 -0.999100 0.039800
vn 0.013000 -0.972600 0.232300
vn -0.792200 0.610300 0.004000
vn 0.016400 -0.999100 0.039800
vn 0.901800 0.430500 0.037000
vn 0.013100 -0.972600 0.232200
vn 0.016300 -0.999100 0.039800
vn 0.466800 0.884400 -0.006800
vn -0.862100 0.386800 0.327300
vn 0.919800 -0.024000 0.391600
vn 0.468300 0.742300 -0.479200
vn -0.657900 0.331400 -0.676200
vn -0.862200 0.386700 0.327200
vn 0.022400 -0.790500 -0.612100
vn 0.004800 -0.796600 0.604500
vn -0.862200 0.386700 0.327300
vn 0.022400 -0.790500 -0.612000
vn 0.919800 -0.023900 0.391600
vn 0.004800 -0.796500 0.604700
vn 0.468300 0.742300 -0.479300
vn 0.997000 -0.005600 0.077400
vn -0.989000 -0.145400 0.027700
vn -0.827300 -0.180200 -0.532100
vn -0.565200 -0.006600 0.824900
vn 0.879500 0.019400 -0.475500
vn -0.999900 0.006200 -0.013900
vn -0.464000 -0.029600 0.885300
vn -0.981200 -0.127700 -0.144900
vn -0.413300 -0.400400 0.817800
vn 0.416000 -0.801700 0.429200
vn 0.558900 0.597500 0.575000
vn -0.829300 0.401400 0.388800
vn -0.694700 -0.719300 0.002800
vn 0.901800 -0.431600 0.021300
vn 0.416100 -0.801700 0.429200
vn -0.413400 -0.400400 0.817800
vn -0.694700 -0.719300 0.002700
vn -0.829300 0.401400 0.388700
vn -0.462200 0.886500 -0.023000
vn 0.901800 -0.431700 0.021300
vn 0.695000 0.719000 -0.002800
vn 0.559000 0.597400 0.575000
vn 0.558900 0.597500 0.575100
vn 0.901800 -0.431700 0.021200
vn -0.462200 0.886500 -0.023100
vn 0.010000 -0.952300 0.305000
vn 0.001700 0.587400 -0.809300
vn 0.013000 -0.972600 0.232200
vn -0.022200 0.962700 0.269700
vn -0.022200 0.962700 0.269800
vn -0.792100 0.610300 0.004100
vn -0.657900 0.331500 -0.676300
vn 0.468300 0.742400 -0.479200
vn -0.297100 0.853400 -0.428300
vn -0.565000 -0.024700 -0.824700
vn -0.824900 -0.003400 0.565300
vn 0.268000 0.878100 0.396400
vn -0.297100 0.853400 -0.428200
vn 0.824900 0.003400 -0.565300
vn 0.565000 0.024700 0.824700
vn 0.297100 -0.853400 0.428300
vn -0.268000 -0.878100 -0.396400
vn 0.824900 0.003500 -0.565300
vn 0.268000 0.878100 0.396300
vn 0.824900 0.003400 -0.565200
vn -0.565000 -0.024800 -0.824700
vn -0.565100 -0.024700 -0.824700
vn 0.824900 0.003500 -0.565200
vn 0.007900 -0.881300 0.472400
vn -0.983800 -0.165300 0.069400
vn -0.964700 -0.263200 -0.003600
vn -0.347800 -0.937500 0.011700
vn -0.016800 0.999700 -0.017800
vn -0.958200 0.285500 -0.017600
vn -0.973900 0.223300 -0.041600
vn -0.013100 0.962300 -0.271700
vn -0.731800 0.030200 0.680900
vn 0.472100 0.845800 -0.248500
vn -0.973500 -0.135500 0.184300
vn -0.824900 -0.003500 0.565300
vn -0.595500 0.577800 0.558200
vn -0.402800 0.386300 -0.829800
vn 0.400500 0.815800 -0.417200
vn -0.402800 0.386300 -0.829700
vn 0.803300 0.429600 0.412400
vn -0.824900 -0.003400 0.565200
vn 0.297100 -0.853400 0.428200
vn 0.565100 0.024700 0.824700
vn -0.824900 -0.003500 0.565200
vn 0.595500 -0.577800 -0.558100
vn 0.402800 -0.386300 0.829700
vn -0.400500 -0.815800 0.417300
vn 0.595600 -0.577800 -0.558100
vn 0.595500 -0.577800 -0.558200
vn 0.803300 0.429500 0.412500
vn 0.402800 -0.386300 0.829800
vn -0.402900 0.386300 -0.829700
vn 0.400500 0.815800 -0.417300
vn 0.402900 -0.386300 0.829700
vn 0.803400 0.429500 0.412500
vn -0.595500 0.577800 0.558100
vn -0.595600 0.577800 0.558100
vn 0.963400 -0.267200 0.021400
vn 0.986700 -0.132000 0.095000
vn 0.985100 0.001700 0.171800
vn 0.965700 0.258800 -0.019700
vn 0.472200 0.845800 -0.248400
vn 0.985100 0.001600 0.171700
vn 0.965700 0.258900 -0.019700
vn 0.948000 0.318100 0.006800
vn -0.016800 0.999700 -0.017700
vn 0.944600 -0.321500 -0.066100
vn 0.948000 0.318200 0.006800
vn 0.965700 0.258900 -0.019800
vn 0.944600 -0.321600 -0.066100
vn 0.300200 0.953800 -0.013000
vn -0.332100 0.943000 -0.022200
vn 0.300200 0.953800 -0.012800
vn 0.953800 -0.299900 0.019400
vn -0.300200 -0.953800 0.012800
vn 0.332200 -0.942900 0.022100
vn 0.332200 -0.943000 0.022000
vn 0.300200 0.953800 -0.012900
vn -0.332200 0.943000 -0.022100
vn -0.300200 -0.953800 0.012900
vn -0.953800 0.299900 -0.019700
vn -0.943100 -0.332400 -0.008100
vn 0.332100 -0.943000 0.022100
vn -0.923200 -0.377300 -0.073400
vn -0.923200 -0.377300 -0.073500
vn -0.923100 -0.377400 -0.073400
vn 0.374000 -0.919800 -0.118900
vn 0.374100 -0.919800 -0.118900
vn 0.963400 -0.267200 0.021300
vn 0.455700 -0.797900 0.394500
vn 0.713600 -0.625100 0.316200
vn -0.438300 -0.813100 0.383100
vn -0.699700 -0.649000 0.298700
vn 0.985100 0.001600 0.171800
vn 0.007900 -0.881300 0.472500
vn -0.973500 -0.135500 0.184200
vn 0.007900 -0.881400 0.472400
vn -0.731800 0.030300 0.680800
vn 0.008000 -0.881300 0.472400
vn -0.731800 0.030200 0.680800
vn -0.923100 -0.377400 -0.073500
vn 0.944600 -0.321500 -0.066200
vn -0.438300 -0.813100 0.383000
vn -0.699700 -0.649100 0.298500
vn 0.713600 -0.625000 0.316400
usemtl Model001_Material001
s 1
f 1/1/1 2/2/2 3/3/3
f 3/3/3 4/4/4 1/1/1
f 5/5/5 6/6/6 7/7/3
f 8/7/6 9/8/7 5/5/8
f 10/9/9 11/10/10 12/8/11
f 13/8/2 14/5/12 10/9/10
f 10/9/9 5/5/8 9/8/13
f 9/8/13 11/10/10 10/9/9
f 15/11/14 16/12/15 17/13/16
f 17/13/16 18/14/17 15/11/14
f 19/15/18 20/16/19 21/17/20
f 21/17/20 22/18/21 19/15/18
f 23/19/22 24/20/23 25/21/15
f 26/21/15 27/22/24 28/19/25
f 29/19/25 30/22/26 31/21/27
f 32/21/28 33/20/19 34/19/25
f 35/20/29 36/23/30 37/24/31
f 38/24/31 39/21/32 40/20/29
f 41/20/19 42/21/33 43/24/34
f 44/24/34 45/23/35 46/20/19
f 47/25/36 48/26/37 49/27/38
f 49/27/38 50/28/39 47/25/36
f 51/29/40 52/30/41 53/31/36
f 54/31/36 55/32/42 51/29/43
f 56/32/44 57/33/38 58/34/45
f 58/34/46 51/29/47 59/32/48
f 58/34/49 60/33/50 61/35/51
f 62/35/52 63/36/53 58/34/49
f 64/28/54 65/27/55 66/26/56
f 67/26/56 68/25/57 69/28/58
f 70/29/57 71/34/59 72/33/51
f 73/33/51 74/32/60 75/29/57
f 76/37/61 77/38/62 78/39/63
f 78/39/63 79/40/64 76/37/61
f 76/37/61 79/40/64 80/41/65
f 80/41/65 81/42/66 76/37/61
f 82/37/67 81/42/66 80/41/65
f 80/41/65 83/40/68 84/37/67
f 85/43/69 86/44/70 87/45/71
f 87/45/71 88/46/72 85/43/69
f 85/43/69 88/46/72 89/47/73
f 89/47/73 90/48/74 85/43/69
f 91/43/75 90/48/74 89/47/73
f 89/47/76 92/46/77 93/43/75
f 94/40/78 95/39/79 96/38/80
f 97/38/81 98/37/82 99/40/83
f 100/42/84 101/41/85 102/40/83
f 103/40/86 104/37/82 105/42/87
f 106/40/88 107/41/89 108/42/84
f 109/42/90 110/37/91 111/40/88
f 112/45/92 113/46/93 114/43/94
f 115/43/94 116/44/95 117/45/96
f 118/48/97 119/47/98 120/46/96
f 121/46/99 122/43/95 123/48/100
f 124/46/101 125/47/102 126/48/97
f 127/48/100 128/43/103 129/46/101
f 130/49/104 131/50/105 132/51/106
f 132/51/106 133/52/107 130/49/104
f 134/53/108 135/54/109 133/52/110
f 133/52/110 132/51/111 134/53/108
f 133/52/107 132/51/106 131/50/105
f 131/50/105 130/49/104 133/52/107
f 132/51/111 133/52/110 135/54/109
f 135/54/109 134/53/108 132/51/111
f 136/55/112 137/56/113 138/57/114
f 138/57/114 139/58/115 136/55/112
f 140/59/116 141/60/117 142/61/118
f 143/61/118 144/58/119 140/59/120
f 145/62/116 136/55/112 139/58/115
f 139/58/121 146/59/122 147/62/116
f 148/62/123 149/59/124 150/58/125
f 151/58/126 152/55/118 153/62/127
f 154/59/122 139/58/115 155/61/114
f 156/61/114 157/60/124 158/59/128
f 80/41/65 159/63/129 160/40/68
f 79/40/64 159/63/129 80/41/65
f 78/39/63 161/64/129 79/40/64
f 162/65/130 163/66/75 164/67/69
f 87/45/71 165/68/76 88/46/72
f 166/41/131 167/40/88 168/63/132
f 169/40/83 170/41/131 171/63/133
f 172/39/88 173/40/134 174/64/132
f 175/65/100 176/66/135 177/67/136
f 178/46/93 179/45/96 180/68/98
f 181/69/137 182/70/138 183/71/139
f 184/71/139 185/72/140 186/69/141
f 187/20/142 188/21/143 189/22/144
f 190/22/144 191/19/145 192/20/142
f 193/20/146 194/23/137 195/24/147
f 196/24/140 197/21/143 198/20/146
f 199/18/148 200/15/145 201/16/149
f 202/16/150 203/17/137 204/18/151
f 205/73/152 206/74/153 207/75/154
f 207/75/154 208/76/155 205/73/152
f 209/77/156 210/78/157 211/79/158
f 211/79/158 212/80/159 209/77/156
f 213/81/160 214/82/161 211/79/158
f 211/79/158 215/83/162 213/81/160
f 216/19/145 217/22/144 218/21/163
f 219/21/163 220/20/138 221/19/145
f 222/32/44 223/33/38 224/34/164
f 225/34/164 226/29/165 227/32/48
f 228/84/166 229/85/167 230/28/164
f 231/28/164 232/25/168 233/84/166
f 234/18/169 235/15/170 236/16/171
f 237/16/171 238/17/140 239/18/172
f 240/25/173 241/26/174 49/27/38
f 49/27/175 50/28/39 242/25/176
f 243/32/177 244/29/166 245/86/178
f 246/86/178 247/87/179 248/32/177
f 249/31/173 250/32/42 251/29/180
f 252/29/165 253/30/181 254/31/173
f 255/88/182 256/89/183 257/86/184
f 258/86/185 259/87/50 260/88/182
f 205/73/152 208/76/155 261/75/186
f 262/75/186 263/74/187 205/73/152
f 264/83/188 265/79/189 214/82/190
f 214/82/161 213/81/160 266/83/191
f 209/77/156 212/80/159 267/79/192
f 268/79/192 269/78/193 209/77/194
f 270/90/195 271/78/196 272/79/197
f 273/79/189 274/75/186 270/90/198
f 275/7/199 9/8/7 5/5/8
f 5/5/5 276/6/200 277/7/201
f 9/8/202 278/10/203 279/9/204
f 280/9/205 5/5/8 9/8/7
f 281/8/1 282/7/206 283/6/200
f 284/6/207 285/5/11 286/8/1
f 287/10/208 288/8/209 289/5/210
f 290/5/11 291/9/211 292/10/203
f 293/90/212 207/75/154 211/79/158
f 211/79/158 210/78/157 294/90/213
f 295/90/214 296/91/215 208/76/155
f 208/76/155 207/75/154 297/90/212
f 296/91/216 270/90/195 298/75/186
f 299/75/217 208/76/155 296/91/215
f 206/74/153 215/83/162 211/79/158
f 211/79/158 207/75/154 206/74/153
f 300/74/187 301/75/217 302/79/192
f 303/79/192 304/83/191 305/74/187
f 306/92/218 307/93/219 308/94/220
f 308/94/220 309/95/221 306/92/218
f 310/96/222 311/97/223 312/98/187
f 313/99/224 314/100/153 315/97/223
f 316/99/224 317/97/225 318/101/226
f 319/97/227 320/96/191 321/101/228
f 322/102/229 323/103/230 324/104/215
f 211/79/158 214/82/161 212/80/159
f 214/82/161 325/79/189 212/80/159
f 326/105/231 327/90/213 328/106/232
f 270/90/195 329/105/233 330/106/218
