# Blender v2.74 (sub 0) OBJ File: ''
# www.blender.org
mtllib cloudhk2complete.mtl
o cloudhk2c
v -0.044435 0.017735 -0.098761
v -0.040890 0.016961 0.223239
v -0.022701 0.033159 0.223077
v -0.026247 0.033934 -0.098922
v -0.010050 0.015745 -0.099145
v -0.026247 0.033934 -0.098922
v -0.022701 0.033159 0.223077
v -0.022701 0.033159 0.223077
v -0.006503 0.014970 0.222855
v -0.028238 -0.000453 -0.098983
v -0.024691 -0.001228 0.223017
v -0.040890 0.016961 0.223239
v -0.040890 0.016961 0.223239
v -0.044435 0.017735 -0.098761
v -0.028739 -0.009414 -0.098999
v -0.001073 0.015226 -0.099245
v -0.025711 0.042893 -0.098906
v -0.053377 0.018252 -0.098662
v -0.029010 -0.009354 -0.123604
v -0.053648 0.018311 -0.123268
v -0.025982 0.042953 -0.123512
v -0.001344 0.015285 -0.123851
v -0.029010 -0.009354 -0.123604
v -0.001344 0.015285 -0.123851
v -0.001073 0.015226 -0.099245
v -0.001073 0.015226 -0.099245
v -0.028739 -0.009414 -0.098999
v -0.029010 -0.009354 -0.123604
v -0.029010 -0.009354 -0.123604
v -0.028739 -0.009414 -0.098999
v -0.053377 0.018252 -0.098662
v -0.053377 0.018252 -0.098662
v -0.053648 0.018311 -0.123268
v -0.029010 -0.009354 -0.123604
v -0.001344 0.015285 -0.123851
v -0.025982 0.042953 -0.123512
v -0.025711 0.042893 -0.098906
v -0.025711 0.042893 -0.098906
v -0.001073 0.015226 -0.099245
v -0.001344 0.015285 -0.123851
v -0.053648 0.018311 -0.123268
v -0.053377 0.018252 -0.098662
v -0.025711 0.042893 -0.098906
v -0.025711 0.042893 -0.098906
v -0.025982 0.042953 -0.123512
v -0.053648 0.018311 -0.123268
v 0.004239 -0.104659 0.223099
v 0.005214 -0.104870 0.311635
v -0.064371 -0.100846 0.312411
v -0.065346 -0.100632 0.223876
v -0.051618 0.136587 0.224296
v 0.017967 0.132560 0.223520
v 0.004239 -0.104659 0.223099
v 0.004239 -0.104659 0.223099
v -0.065346 -0.100632 0.223876
v -0.065346 -0.100632 0.223876
v -0.064371 -0.100846 0.312411
v -0.050642 0.136374 0.312830
v -0.065346 -0.100632 0.223876
v -0.064371 -0.100846 0.312411
v 0.005214 -0.104870 0.311635
v 0.005214 -0.104870 0.311635
v 0.018943 0.132347 0.312054
v -0.051618 0.136587 0.224296
v -0.050642 0.136374 0.312830
v 0.018943 0.132347 0.312054
v 0.018943 0.132347 0.312054
v 0.017967 0.132560 0.223520
v -0.051618 0.136587 0.224296
v 0.017967 0.132560 0.223520
v 0.018943 0.132347 0.312054
v 0.005214 -0.104870 0.311635
v 0.005214 -0.104870 0.311635
v 0.004239 -0.104659 0.223099
v 0.017967 0.132560 0.223520
v -0.027220 0.039303 0.746333
v -0.005873 0.038068 0.746096
v -0.002521 0.036897 1.289675
v -0.018583 0.037844 1.289853
v -0.008521 0.069501 1.306116
v -0.014312 0.084259 0.710175
v -0.005873 0.038068 0.746096
v -0.002521 0.036897 1.289675
v -0.005873 0.038068 0.746096
v -0.036947 0.040634 0.312450
v -0.005706 0.038827 0.312100
v -0.003472 0.037930 0.746070
v -0.029624 0.039443 0.746361
v -0.013799 0.094704 0.701908
v -0.017630 0.100768 0.327102
v -0.005706 0.038827 0.312100
v -0.003472 0.037930 0.746070
v -0.005706 0.038827 0.312100
v -0.021360 -0.010117 1.289768
v -0.005295 -0.011028 1.289589
v -0.008650 -0.009891 0.746008
v -0.008650 -0.009891 0.746008
v -0.029994 -0.008655 0.746249
v -0.021360 -0.010117 1.289768
v -0.022353 -0.054672 0.709930
v -0.015018 -0.042783 1.305917
v -0.021360 -0.010117 1.289768
v -0.021360 -0.010117 1.289768
v -0.029994 -0.008655 0.746249
v -0.022353 -0.054672 0.709930
v -0.005295 -0.011028 1.289589
v -0.015018 -0.042783 1.305917
v -0.022353 -0.054672 0.709930
v -0.022353 -0.054672 0.709930
v -0.008650 -0.009891 0.746008
v -0.005295 -0.011028 1.289589
v -0.032398 -0.008517 0.746275
v -0.006246 -0.010029 0.745982
v -0.008482 -0.009131 0.312016
v -0.008482 -0.009131 0.312016
v -0.039721 -0.007327 0.312365
v -0.032398 -0.008517 0.746275
v -0.027474 -0.069336 0.326800
v -0.023046 -0.065077 0.701625
v -0.032398 -0.008517 0.746275
v -0.032398 -0.008517 0.746275
v -0.039721 -0.007327 0.312365
v -0.027474 -0.069336 0.326800
v -0.006246 -0.010029 0.745982
v -0.023046 -0.065077 0.701625
v -0.027474 -0.069336 0.326800
v -0.027474 -0.069336 0.326800
v -0.008482 -0.009131 0.312016
v -0.006246 -0.010029 0.745982
v -0.022510 -0.008576 0.456719
v -0.019734 0.039383 0.456806
v -0.016548 0.038687 0.746214
v -0.019322 -0.009273 0.746129
v -0.010560 0.037378 1.289764
v -0.013336 -0.010583 1.289679
v -0.045075 -0.007253 0.456973
v 0.000710 -0.009885 0.456461
v 0.003484 0.038038 0.456546
v -0.042317 0.040690 0.457056
v -0.046666 -0.006904 0.312442
v -0.000881 -0.009536 0.311931
v 0.000710 -0.009885 0.456461
v 0.000710 -0.009885 0.456461
v -0.045075 -0.007253 0.456973
v -0.046666 -0.006904 0.312442
v -0.043909 0.041037 0.312528
v -0.046666 -0.006904 0.312442
v -0.000881 -0.009536 0.311931
v 0.001893 0.038386 0.312016
v 0.003484 0.038038 0.456546
v 0.003484 0.038038 0.456546
v 0.000710 -0.009885 0.456461
v -0.000881 -0.009536 0.311931
v -0.043909 0.041037 0.312528
v 0.003484 0.038038 0.456546
v 0.003484 0.038038 0.456546
v 0.001893 0.038386 0.312016
v -0.043909 0.041037 0.312528
v -0.009605 0.037170 1.376372
v -0.002521 0.036897 1.289675
v -0.009605 0.037170 1.376372
v -0.017630 0.100768 0.327102
v -0.005706 0.038827 0.312100
v -0.036947 0.040634 0.312450
v -0.013799 0.094704 0.701908
v -0.015018 -0.042783 1.305917
v -0.005295 -0.011028 1.289589
v -0.012382 -0.010791 1.376287
v -0.021360 -0.010117 1.289768
v -0.015018 -0.042783 1.305917
v -0.012382 -0.010791 1.376287
v -0.005295 -0.011028 1.289589
v -0.021360 -0.010117 1.289768
v -0.012382 -0.010791 1.376287
v -0.027474 -0.069336 0.326800
v -0.039721 -0.007327 0.312365
v -0.008482 -0.009131 0.312016
v -0.006246 -0.010029 0.745982
v -0.032398 -0.008517 0.746275
v -0.023046 -0.065077 0.701625
v -0.025982 0.042953 -0.123512
v -0.053648 0.018311 -0.123268
v -0.053377 0.018252 -0.098662
v -0.053377 0.018252 -0.098662
v -0.025711 0.042893 -0.098906
v -0.025982 0.042953 -0.123512
v -0.001344 0.015285 -0.123851
v -0.001073 0.015226 -0.099245
v -0.028739 -0.009414 -0.098999
v -0.028739 -0.009414 -0.098999
v -0.029010 -0.009354 -0.123604
v -0.001344 0.015285 -0.123851
v -0.001344 0.015285 -0.123851
v -0.025982 0.042953 -0.123512
v -0.025711 0.042893 -0.098906
v -0.025711 0.042893 -0.098906
v -0.001073 0.015226 -0.099245
v -0.001344 0.015285 -0.123851
v -0.001344 0.015285 -0.123851
v -0.029010 -0.009354 -0.123604
v -0.053648 0.018311 -0.123268
v -0.053648 0.018311 -0.123268
v -0.025982 0.042953 -0.123512
v -0.001344 0.015285 -0.123851
v -0.016626 -0.099706 1.323424
v -0.027874 -0.054214 1.323705
v -0.046584 -0.051341 0.542199
v -0.026341 -0.097336 0.541791
v -0.018128 0.095308 0.312299
v -0.042873 0.064152 0.312496
v -0.039944 0.063416 0.542502
v -0.015667 0.094698 0.505884
v -0.001707 0.116569 1.517017
v -0.013756 0.119489 0.542350
v -0.019765 0.060092 1.440577
v -0.029010 -0.009354 -0.123604
v -0.028739 -0.009414 -0.098999
v -0.053377 0.018252 -0.098662
v -0.053377 0.018252 -0.098662
v -0.053648 0.018311 -0.123268
v -0.029010 -0.009354 -0.123604
v -0.065346 -0.100632 0.223876
v -0.064371 -0.100846 0.312411
v -0.050642 0.136374 0.312830
v -0.050642 0.136374 0.312830
v -0.051618 0.136587 0.224296
v -0.065346 -0.100632 0.223876
v 0.017967 0.132560 0.223520
v -0.051618 0.136587 0.224296
v -0.050642 0.136374 0.312830
v -0.050642 0.136374 0.312830
v 0.018943 0.132347 0.312054
v 0.017967 0.132560 0.223520
v -0.053377 0.018252 -0.098662
v -0.028739 -0.009414 -0.098999
v -0.001073 0.015226 -0.099245
v -0.001073 0.015226 -0.099245
v -0.025711 0.042893 -0.098906
v -0.053377 0.018252 -0.098662
v 0.004239 -0.104659 0.223099
v 0.005214 -0.104870 0.311635
v 0.004239 -0.104659 0.223099
v 0.004239 -0.104659 0.223099
v 0.017967 0.132560 0.223520
v 0.018943 0.132347 0.312054
v 0.018943 0.132347 0.312054
v 0.005214 -0.104870 0.311635
v 0.004239 -0.104659 0.223099
v 0.004239 -0.104659 0.223099
v -0.065346 -0.100632 0.223876
v -0.051618 0.136587 0.224296
v -0.051618 0.136587 0.224296
v 0.017967 0.132560 0.223520
v 0.004239 -0.104659 0.223099
v 0.005214 -0.104870 0.311635
v 0.018943 0.132347 0.312054
v -0.050642 0.136374 0.312830
v -0.050642 0.136374 0.312830
v -0.064371 -0.100846 0.312411
v 0.005214 -0.104870 0.311635
v -0.000856 -0.053987 0.541615
v -0.000856 -0.053987 0.541615
v -0.000204 -0.055817 1.323348
v 0.007943 0.058489 1.440219
v 0.005786 0.060769 0.541891
v 0.007943 0.058489 1.440219
v 0.005786 0.060769 0.541891
v 0.005786 0.060769 0.541891
v 0.002856 0.061506 0.311912
v -0.003788 -0.053286 0.311632
v 0.002856 0.061506 0.311912
v 0.005786 0.060769 0.541891
v 0.005786 0.060769 0.541891
v -0.000856 -0.053987 0.541615
v -0.022701 0.033159 0.223077
v -0.026247 0.033934 -0.098922
v -0.022701 0.033159 0.223077
v -0.024691 -0.001228 0.223017
v -0.028238 -0.000453 -0.098983
v -0.028238 -0.000453 -0.098983
v -0.040890 0.016961 0.223239
v -0.022701 0.033159 0.223077
v -0.026247 0.033934 -0.098922
v -0.026247 0.033934 -0.098922
v -0.044435 0.017735 -0.098761
v -0.040890 0.016961 0.223239
v -0.024691 -0.001228 0.223017
v -0.040890 0.016961 0.223239
v -0.044435 0.017735 -0.098761
v -0.044435 0.017735 -0.098761
v -0.028238 -0.000453 -0.098983
v -0.024691 -0.001228 0.223017
v -0.049516 -0.050642 0.312219
v -0.049516 -0.050642 0.312219
v -0.049516 -0.050642 0.312219
v -0.027687 -0.096919 0.431680
v -0.049516 -0.050642 0.312219
v -0.000856 -0.053987 0.541615
v -0.000856 -0.053987 0.541615
v -0.000204 -0.055817 1.323348
v -0.000856 -0.053987 0.541615
v 0.005786 0.060769 0.541891
v 0.005786 0.060769 0.541891
v 0.007943 0.058489 1.440219
v -0.000204 -0.055817 1.323348
v -0.005205 -0.077478 0.311565
v -0.003124 -0.053472 0.364146
v -0.048837 -0.050809 0.364756
v -0.050898 -0.074834 0.312151
v 0.007943 0.058489 1.440219
v -0.016626 -0.099706 1.323424
v -0.000204 -0.055817 1.323348
v -0.019765 0.060092 1.440577
v -0.027874 -0.054214 1.323705
v -0.016626 -0.099706 1.323424
v -0.019765 0.060092 1.440577
v -0.016626 -0.099706 1.323424
v -0.001707 0.116569 1.517017
v -0.016626 -0.099706 1.323424
v 0.007943 0.058489 1.440219
v -0.001707 0.116569 1.517017
v -0.049516 -0.050642 0.312219
v -0.003788 -0.053286 0.311632
v -0.027687 -0.096919 0.431680
v 0.005786 0.060769 0.541891
v -0.048837 -0.050809 0.364756
v -0.049516 -0.050642 0.312219
v -0.050898 -0.074834 0.312151
v -0.003124 -0.053472 0.364146
v -0.005205 -0.077478 0.311565
vt 2.716720 0.046558
vt 2.998220 0.046558
vt 2.998220 0.003825
vt 2.716720 0.003825
vt 2.716860 0.046862
vt 2.716860 0.089837
vt 2.998080 0.089837
vt 2.998080 0.046862
vt 2.716860 0.003886
vt 2.998080 0.003886
vt 2.735560 0.229927
vt 2.700400 0.229927
vt 2.700400 0.300230
vt 2.735560 0.300230
vt 2.746800 0.230033
vt 2.746800 0.312061
vt 2.787820 0.312061
vt 2.787820 0.230033
vt 2.790650 0.113895
vt 2.790650 0.164672
vt 2.775010 0.164672
vt 2.775010 0.113895
vt 2.790650 0.211556
vt 2.775010 0.211556
vt 2.805600 0.184290
vt 2.805600 0.312776
vt 2.851590 0.312776
vt 2.851590 0.184290
vt 2.998080 0.183575
vt 2.998080 0.097639
vt 2.851590 0.097639
vt 2.851590 0.183575
vt 2.851590 0.312517
vt 2.998080 0.312517
vt 2.851590 0.385649
vt 2.998080 0.385649
vt 2.668030 0.285144
vt 2.668030 0.238275
vt 2.091820 0.238275
vt 2.091820 0.285144
vt 2.076180 0.386714
vt 2.707070 0.386714
vt 2.539100 0.082021
vt 2.539100 0.007794
vt 2.078150 0.007794
vt 2.078150 0.082021
vt 2.125010 0.230459
vt 2.521540 0.230459
vt 2.884790 0.394515
vt 2.884790 0.496084
vt 2.578140 0.496084
vt 2.578140 0.394515
vt 2.001980 0.496084
vt 2.001980 0.394515
vt 2.703190 0.207025
vt 2.752020 0.207025
vt 2.752020 0.105455
vt 2.703190 0.105455
vt 2.550800 0.105455
vt 2.550800 0.007794
vt 2.703190 0.007794
vt 2.550800 0.207025
vt 2.000010 0.289053
vt 2.000010 0.261710
vt 2.925980 0.435605
vt 2.997400 0.459997
vt 2.997400 0.409722
vt 2.001980 0.039045
vt 2.790610 0.113682
vt 2.790610 0.164414
vt 2.775010 0.164414
vt 2.775010 0.113682
vt 2.191440 0.593745
vt 2.191440 0.687498
vt 2.781280 0.687498
vt 2.781280 0.593745
vt 2.994200 0.972649
vt 2.994200 0.894529
vt 2.781280 0.894529
vt 2.816440 0.972649
vt 2.005910 0.996099
vt 2.781280 0.996099
vt 2.082080 0.894529
vt 2.805600 0.309020
vt 2.851590 0.309020
vt 2.998080 0.308761
vt 2.851590 0.308761
vt 2.851590 0.382805
vt 2.998080 0.382805
vt 2.994200 0.687498
vt 2.884790 0.593745
vt 2.160170 0.511048
vt 2.109420 0.511048
vt 2.109420 0.591783
vt 2.160170 0.591783
vt 2.178550 0.727052
vt 2.355070 0.712286
vt 2.336880 0.709199
vt 2.178640 0.810646
vt 2.336920 0.792808
vt 2.077550 0.768431
vt 2.997630 0.564334
vt 2.997630 0.517344
vt 2.903760 0.544154
vt 2.945370 0.687498
vt 2.994200 0.640614
vn -0.928800 0.370500 0.011100
vn -0.965300 -0.260900 0.010000
vn 0.057700 0.998300 0.001700
vn 0.057700 0.998300 0.002100
vn 0.965300 0.261000 -0.010000
vn 0.057800 0.998300 0.001800
vn 0.057800 0.998300 0.002000
vn 0.928800 -0.370500 -0.011200
vn 0.965300 0.260900 -0.010000
vn -0.057800 -0.998300 -0.002100
vn -0.057800 -0.998300 -0.001800
vn -0.965300 -0.261000 0.010000
vn -0.928800 0.370500 0.011200
vn 0.928800 -0.370400 -0.011100
vn -0.024300 -0.578400 0.815400
vn 0.852300 -0.339200 0.398100
vn 0.053500 0.813800 0.578700
vn -0.876700 -0.239100 0.417400
vn -0.053500 -0.813700 -0.578800
vn -0.852300 0.339200 -0.398100
vn 0.024200 0.578300 -0.815400
vn 0.876700 0.239200 -0.417400
vn -0.053500 -0.813800 -0.578700
vn 0.876700 0.239100 -0.417300
vn -0.024400 -0.578300 0.815400
vn -0.876700 -0.239200 0.417300
vn -0.876700 -0.239100 0.417300
vn 0.876700 0.239100 -0.417400
vn 0.024400 0.578400 -0.815400
vn 0.053600 0.813700 0.578800
vn 0.852300 -0.339300 0.398000
vn 0.053500 0.813700 0.578800
vn 0.024300 0.578400 -0.815400
vn 0.286900 -0.683300 -0.671400
vn 0.653500 -0.372900 0.658700
vn -0.450300 -0.792500 0.411300
vn -0.843200 -0.359400 -0.399800
vn -0.301600 0.686400 -0.661800
vn 0.834200 0.361400 -0.416600
vn 0.286900 -0.683200 -0.671500
vn -0.843200 -0.359400 -0.399900
vn -0.843100 -0.359400 -0.399900
vn -0.450200 -0.792600 0.411300
vn -0.638900 0.369700 0.674700
vn -0.638900 0.369700 0.674600
vn -0.301600 0.686500 -0.661700
vn 0.653600 -0.372800 0.658600
vn 0.459200 0.790600 0.405200
vn -0.301600 0.686400 -0.661700
vn 0.459200 0.790500 0.405200
vn 0.834200 0.361400 -0.416500
vn 0.459200 0.790600 0.405100
vn 0.653600 -0.372900 0.658600
vn 0.286800 -0.683300 -0.671500
vn -0.820600 -0.571400 0.011700
vn 0.948300 -0.317300 -0.006400
vn 0.557600 -0.829800 0.021700
vn -0.814000 -0.579000 0.045800
vn 0.058600 0.986900 0.150100
vn 0.058000 0.998000 0.024200
vn 0.948300 -0.317300 -0.006300
vn 0.058700 0.986900 0.150100
vn 0.557600 -0.829800 0.021600
vn -0.802600 -0.464300 -0.374400
vn 0.874100 -0.181300 -0.450600
vn 0.537900 -0.708300 0.457100
vn -0.769700 -0.073000 0.634200
vn 0.056500 0.889100 0.454200
vn 0.026000 0.603000 -0.797300
vn 0.874100 -0.181300 -0.450700
vn -0.743700 0.667500 0.036700
vn 0.932200 0.361300 0.022000
vn 0.531500 0.847100 -0.001500
vn -0.747600 0.664000 0.013700
vn -0.743800 0.667400 0.036800
vn -0.057600 -0.998100 0.019600
vn -0.054300 -0.975600 0.212600
vn -0.743800 0.667400 0.036700
vn 0.932200 0.361200 0.022000
vn -0.054200 -0.975700 0.212500
vn -0.057600 -0.998100 0.019700
vn -0.057700 -0.998100 0.019700
vn -0.822500 0.442700 0.357200
vn 0.924800 -0.100900 0.366900
vn 0.510800 0.715600 -0.476500
vn -0.647600 0.394100 -0.652200
vn -0.822500 0.442700 0.357100
vn -0.052000 -0.776500 -0.627900
vn -0.040200 -0.807600 0.588400
vn -0.822400 0.442700 0.357300
vn -0.051900 -0.776600 -0.627900
vn 0.924700 -0.100900 0.367000
vn -0.040100 -0.807600 0.588400
vn -0.051900 -0.776500 -0.627900
vn 0.510800 0.715500 -0.476500
vn 0.924700 -0.100800 0.367000
vn 0.995600 -0.079500 -0.049200
vn -0.993800 -0.100100 0.049400
vn -0.826600 -0.105300 -0.552900
vn -0.494200 0.010600 0.869300
vn 0.865500 -0.039600 -0.499400
vn -0.991600 -0.128700 0.009400
vn -0.221500 -0.034200 0.974600
vn -0.953200 -0.060000 -0.296200
vn -0.422000 -0.386100 0.820300
vn 0.365100 -0.839600 0.402200
vn 0.616100 0.541600 0.571900
vn -0.787100 0.453500 0.418200
vn -0.746400 -0.665400 0.006700
vn 0.867100 -0.498000 -0.010700
vn 0.365100 -0.839600 0.402300
vn -0.422100 -0.386100 0.820200
vn -0.746400 -0.665400 0.006600
vn -0.746500 -0.665400 0.006700
vn -0.787100 0.453600 0.418100
vn -0.394800 0.918700 0.006600
vn 0.867100 -0.498100 -0.010600
vn 0.746700 0.665100 -0.006700
vn 0.616100 0.541500 0.571900
vn 0.616000 0.541600 0.572000
vn 0.365200 -0.839500 0.402300
vn 0.867100 -0.498100 -0.010800
vn -0.394900 0.918700 0.006600
vn 0.616100 0.541600 0.572000
vn 0.746700 0.665100 -0.006600
vn -0.394800 0.918700 0.006500
vn -0.054000 -0.956800 0.285700
vn -0.054000 -0.956800 0.285800
vn -0.802700 -0.464300 -0.374400
vn 0.056700 0.955600 0.289200
vn -0.054300 -0.975600 0.212500
vn -0.052000 -0.776600 -0.627900
vn -0.647500 0.394100 -0.652200
vn -0.040200 -0.807600 0.588300
vn -0.242600 0.882200 -0.403500
vn -0.585300 0.035400 -0.810000
vn -0.808700 0.045800 0.586400
vn 0.342700 0.846900 0.406500
vn -0.242600 0.882300 -0.403400
vn 0.808700 -0.045800 -0.586400
vn 0.585300 -0.035300 0.810000
vn 0.242700 -0.882200 0.403500
vn 0.242600 -0.882200 0.403500
vn -0.342700 -0.846900 -0.406500
vn 0.808700 -0.045900 -0.586400
vn 0.808700 -0.045700 -0.586400
vn 0.342700 0.846900 0.406600
vn 0.808800 -0.045800 -0.586400
vn -0.585300 0.035200 -0.810000
vn -0.585400 0.035300 -0.810000
vn -0.242700 0.882300 -0.403400
vn 0.808700 -0.046000 -0.586400
vn -0.046600 -0.889500 0.454600
vn -0.991400 -0.093000 0.091700
vn -0.981600 -0.190400 0.016300
vn -0.416700 -0.909000 0.002200
vn 0.057800 0.998300 0.002300
vn -0.934200 0.356400 0.013000
vn -0.955100 0.296000 -0.011800
vn 0.052500 0.966200 -0.252200
vn -0.710500 0.069900 0.700200
vn 0.528000 0.813400 -0.243900
vn -0.976100 -0.066600 0.206900
vn 0.242600 -0.882200 0.403600
vn -0.808700 0.045700 0.586400
vn -0.585300 0.035300 -0.810100
vn -0.536700 0.608300 0.584800
vn -0.536600 0.608300 0.584800
vn -0.392900 0.433100 -0.811200
vn 0.450300 0.792600 -0.411200
vn 0.843200 0.359500 0.399800
vn -0.808800 0.045800 0.586400
vn 0.242700 -0.882300 0.403400
vn 0.585400 -0.035300 0.810000
vn 0.585400 -0.035400 0.810000
vn 0.342800 0.846900 0.406500
vn -0.808800 0.045700 0.586400
vn 0.536600 -0.608400 -0.584700
vn 0.392900 -0.433100 0.811200
vn -0.450200 -0.792500 0.411300
vn -0.450200 -0.792500 0.411400
vn 0.536700 -0.608300 -0.584700
vn 0.536600 -0.608300 -0.584800
vn 0.450200 0.792500 -0.411300
vn 0.843200 0.359400 0.399900
vn 0.536700 -0.608400 -0.584700
vn -0.393000 0.433100 -0.811200
vn -0.392900 0.433200 -0.811200
vn 0.450200 0.792600 -0.411300
vn 0.393000 -0.433100 0.811200
vn 0.843200 0.359400 0.399800
vn -0.536600 0.608400 0.584700
vn -0.536700 0.608300 0.584700
vn 0.940900 -0.338700 -0.009000
vn 0.940900 -0.338600 -0.009000
vn 0.976000 -0.207100 0.066600
vn -0.046600 -0.889500 0.454500
vn 0.986400 -0.075500 0.146100
vn 0.981700 0.186500 -0.039700
vn 0.528000 0.813500 -0.243800
vn 0.986400 -0.075500 0.146000
vn 0.981600 0.186600 -0.039800
vn 0.969100 0.246400 -0.011700
vn 0.057800 0.998300 0.002500
vn 0.915900 -0.389500 -0.097000
vn 0.969100 0.246500 -0.011600
vn 0.981600 0.186500 -0.039700
vn 0.370500 0.928800 -0.001800
vn -0.260800 0.965400 0.005100
vn 0.928800 -0.370500 -0.011400
vn -0.370500 -0.928800 0.001800
vn 0.260900 -0.965300 -0.005200
vn 0.260900 -0.965300 -0.005300
vn 0.370500 0.928800 -0.001900
vn -0.260900 0.965400 0.005100
vn -0.260900 0.965400 0.005200
vn -0.370500 -0.928800 0.001900
vn -0.965300 -0.260900 0.009900
vn 0.260800 -0.965400 -0.005200
vn -0.950400 -0.305800 -0.056700
vn -0.950400 -0.305800 -0.056800
vn -0.950400 -0.305900 -0.056800
vn 0.301000 -0.942300 -0.146700
vn 0.301000 -0.942300 -0.146800
vn 0.976100 -0.207100 0.066600
vn 0.404100 -0.838000 0.366700
vn 0.672300 -0.683200 0.285100
vn -0.488500 -0.786300 0.378200
vn -0.738900 -0.601500 0.303700
vn -0.976100 -0.066500 0.206800
vn -0.710600 0.069900 0.700100
vn -0.046500 -0.889500 0.454600
vn -0.710600 0.069800 0.700100
vn -0.950400 -0.305900 -0.056900
vn 0.915900 -0.389500 -0.097100
vn 0.300900 -0.942300 -0.146700
vn 0.672200 -0.683200 0.285300
usemtl Model001_Material001.002
s 1
f 1/1/1 2/2/2 3/3/3
f 3/3/3 4/4/4 1/1/1
f 5/5/5 6/6/6 7/7/3
f 8/7/7 9/8/8 5/5/9
f 10/9/10 11/10/11 12/8/12
f 13/8/2 14/5/13 10/9/11
f 10/9/10 5/5/9 9/8/14
f 9/8/14 11/10/11 10/9/10
f 15/11/15 16/12/16 17/13/17
f 17/13/17 18/14/18 15/11/15
f 19/15/19 20/16/20 21/17/21
f 21/17/21 22/18/22 19/15/19
f 23/19/23 24/20/24 25/21/16
f 26/21/16 27/22/15 28/19/19
f 29/19/19 30/22/25 31/21/26
f 32/21/27 33/20/20 34/19/19
f 35/20/28 36/23/29 37/24/30
f 38/24/30 39/21/31 40/20/28
f 41/20/20 42/21/18 43/24/32
f 44/24/32 45/23/33 46/20/20
f 47/25/34 48/26/35 49/27/36
f 49/27/36 50/28/37 47/25/34
f 51/29/38 52/30/39 53/31/40
f 54/31/40 55/32/41 51/29/38
f 56/32/42 57/33/43 58/34/44
f 58/34/45 51/29/46 59/32/41
f 58/34/45 60/33/36 61/35/47
f 62/35/47 63/36/48 58/34/45
f 64/28/49 65/27/44 66/26/50
f 67/26/50 68/25/39 69/28/49
f 70/29/51 71/34/52 72/33/53
f 73/33/47 74/32/54 75/29/51
f 76/37/55 77/38/56 78/39/57
f 78/39/57 79/40/58 76/37/55
f 76/37/55 79/40/58 80/41/59
f 80/41/59 81/42/60 76/37/55
f 82/37/61 81/42/60 80/41/59
f 80/41/62 83/40/63 84/37/61
f 85/43/64 86/44/65 87/45/66
f 87/45/66 88/46/67 85/43/64
f 85/43/64 88/46/67 89/47/68
f 89/47/68 90/48/69 85/43/64
f 91/43/70 90/48/69 89/47/68
f 89/47/68 92/46/66 93/43/65
f 94/40/71 95/39/72 96/38/73
f 97/38/73 98/37/74 99/40/75
f 100/42/76 101/41/77 102/40/75
f 103/40/78 104/37/74 105/42/76
f 106/40/79 107/41/80 108/42/81
f 109/42/82 110/37/73 111/40/79
f 112/45/83 113/46/84 114/43/85
f 115/43/85 116/44/86 117/45/87
f 118/48/88 119/47/89 120/46/90
f 121/46/83 122/43/86 123/48/91
f 124/46/92 125/47/93 126/48/94
f 127/48/91 128/43/95 129/46/96
f 130/49/97 131/50/98 132/51/99
f 132/51/99 133/52/100 130/49/97
f 134/53/101 135/54/102 133/52/103
f 133/52/103 132/51/104 134/53/101
f 133/52/100 132/51/99 131/50/98
f 131/50/98 130/49/97 133/52/100
f 132/51/104 133/52/103 135/54/102
f 135/54/102 134/53/101 132/51/104
f 136/55/105 137/56/106 138/57/107
f 138/57/107 139/58/108 136/55/105
f 140/59/109 141/60/110 142/61/111
f 143/61/111 144/58/112 140/59/113
f 145/62/114 136/55/105 139/58/108
f 139/58/115 146/59/116 147/62/109
f 148/62/117 149/59/118 150/58/119
f 151/58/120 152/55/121 153/62/122
f 154/59/123 139/58/108 155/61/124
f 156/61/124 157/60/125 158/59/126
f 80/41/59 159/63/127 160/40/63
f 79/40/58 159/63/127 80/41/59
f 78/39/57 161/64/128 79/40/58
f 162/65/69 163/66/70 164/67/129
f 87/45/66 165/68/68 88/46/67
f 166/41/77 167/40/79 168/63/130
f 169/40/75 170/41/131 171/63/130
f 172/39/79 173/40/75 174/64/130
f 175/65/132 176/66/133 177/67/85
f 178/46/92 179/45/87 180/68/134
f 181/69/135 182/70/136 183/71/137
f 184/71/137 185/72/138 186/69/139
f 187/20/140 188/21/141 189/22/142
f 190/22/143 191/19/144 192/20/145
f 193/20/146 194/23/139 195/24/138
f 196/24/147 197/21/141 198/20/146
f 199/18/148 200/15/144 201/16/149
f 202/16/150 203/17/151 204/18/152
f 205/73/153 206/74/154 207/75/155
f 207/75/155 208/76/156 205/73/153
f 209/77/157 210/78/158 211/79/159
f 211/79/159 212/80/160 209/77/157
f 213/81/161 214/82/162 211/79/159
f 211/79/159 215/83/163 213/81/161
f 216/19/144 217/22/164 218/21/137
f 219/21/165 220/20/166 221/19/144
f 222/32/42 223/33/43 224/34/167
f 225/34/168 226/29/169 227/32/41
f 228/84/170 229/85/169 230/28/168
f 231/28/168 232/25/171 233/84/170
f 234/18/172 235/15/173 236/16/174
f 237/16/175 238/17/176 239/18/177
f 240/25/178 241/26/179 49/27/180
f 49/27/181 50/28/37 242/25/182
f 243/32/183 244/29/184 245/86/171
f 246/86/185 247/87/179 248/32/183
f 249/31/186 250/32/41 251/29/187
f 252/29/188 253/30/189 254/31/182
f 255/88/190 256/89/191 257/86/192
f 258/86/193 259/87/36 260/88/179
f 205/73/153 208/76/156 261/75/194
f 262/75/195 263/74/196 205/73/197
f 264/83/198 265/79/199 214/82/200
f 214/82/162 213/81/161 266/83/201
f 209/77/157 212/80/160 267/79/202
f 268/79/202 269/78/203 209/77/204
f 270/90/205 271/78/206 272/79/202
f 273/79/207 274/75/194 270/90/205
f 275/7/208 9/8/8 5/5/9
f 5/5/5 276/6/209 277/7/208
f 9/8/210 278/10/211 279/9/212
f 280/9/213 5/5/9 9/8/8
f 281/8/1 282/7/214 283/6/215
f 284/6/216 285/5/12 286/8/13
f 287/10/217 288/8/1 289/5/218
f 290/5/2 291/9/219 292/10/211
f 293/90/220 207/75/155 211/79/159
f 211/79/159 210/78/158 294/90/221
f 295/90/222 296/91/223 208/76/156
f 208/76/156 207/75/155 297/90/221
f 296/91/224 270/90/205 298/75/195
f 299/75/195 208/76/156 296/91/223
f 206/74/154 215/83/163 211/79/159
f 211/79/159 207/75/155 206/74/154
f 300/74/225 301/75/195 302/79/202
f 303/79/202 304/83/201 305/74/225
f 306/92/226 307/93/227 308/94/228
f 308/94/228 309/95/229 306/92/226
f 310/96/201 311/97/153 312/98/196
f 313/99/230 314/100/154 315/97/153
f 316/99/230 317/97/197 318/101/231
f 319/97/232 320/96/201 321/101/233
f 322/102/234 323/103/235 324/104/236
f 211/79/159 214/82/162 212/80/160
f 214/82/162 325/79/199 212/80/160
f 326/105/228 327/90/221 328/106/229
f 270/90/205 329/105/237 330/106/226
