# Blender v2.74 (sub 0) OBJ File: ''
# www.blender.org
mtllib cloudhk1buster.mtl
o Model001_10_mat003_1_0_0
v 0.036471 0.047507 -0.322092
v 0.036443 0.002443 -0.322092
v 0.016946 0.024961 -0.322092
v 0.036471 0.047507 0.191615
v 0.055999 0.024958 -0.322092
v 0.036471 0.047507 -0.322092
v 0.055999 0.024958 -0.322092
v 0.006443 -0.021952 0.269404
v 0.005474 -0.019604 1.492753
v 0.005454 0.184158 1.492385
v 0.065232 0.184155 1.492417
v 0.065252 -0.019601 1.492797
v 0.066213 -0.021963 0.269433
v 0.066213 0.202801 0.269023
v 0.066260 0.202652 0.191388
v 0.006516 0.202621 0.191317
v 0.005474 -0.019604 1.492753
v 0.035062 0.184875 1.893373
v 0.005454 0.184158 1.492385
v 0.036322 -0.124855 0.269603
v 0.035364 -0.122512 1.492967
v 0.066280 -0.150889 0.191997
v 0.066260 0.202652 0.191388
v 0.066213 0.202801 0.269023
v 0.055999 0.024958 0.191615
v 0.035364 -0.122512 1.492967
v 0.006446 0.202792 0.268994
v 0.006513 -0.150881 0.191954
v 0.006455 -0.150738 0.269645
v 0.065252 -0.019601 1.492797
v 0.065232 0.184155 1.492417
v 0.036443 0.002443 0.191615
v 0.016946 0.024961 -0.322092
v 0.016946 0.024961 0.191615
v 0.006516 0.202621 0.191317
v 0.066280 -0.150889 0.191997
v 0.036443 0.002443 -0.322092
v 0.066213 -0.150760 0.269673
v 0.065232 0.184155 1.492417
v 0.006443 0.181785 0.269023
v 0.005454 0.184158 1.492385
v 0.006446 0.202792 0.268994
v 0.035062 0.184875 1.893373
v 0.005454 0.184158 1.492385
v 0.006455 -0.150738 0.269645
v 0.066280 -0.150889 0.191997
v 0.066213 -0.150760 0.269673
v 0.066213 -0.150760 0.269673
v 0.066210 0.181776 0.269065
v 0.006443 0.181785 0.269023
v 0.066210 0.181776 0.269065
v 0.066213 0.202801 0.269023
v 0.066260 0.202652 0.191388
v 0.006513 -0.150881 0.191954
vt 2.048050 1.029570
vt 2.002800 1.223092
vt 2.002800 1.029570
vt 2.996190 1.992215
vt 2.462820 1.882835
vt 2.462820 1.992215
vt 2.048050 1.223092
vt 2.996190 1.609372
vt 2.349700 1.609372
vt 2.351230 1.136903
vt 2.210980 1.804695
vt 2.211470 1.616684
vt 2.264280 1.616575
vt 2.351600 1.609372
vt 2.138720 1.140614
vt 2.351600 1.140614
vt 2.996190 1.867202
vt 2.351600 1.867202
vt 2.002010 1.804695
vt 2.996190 1.882835
vt 2.349700 1.867202
vt 2.002010 1.617203
vt 2.002010 1.992215
vt 2.002010 1.429683
vt 2.351230 1.135293
vt 2.996190 1.007825
vt 2.349700 1.007825
vt 2.263550 1.804313
vt 2.140680 1.070304
vt 2.351600 1.007825
vt 2.996190 1.140614
vt 2.996370 1.139304
vt 2.210980 1.429683
vt 2.210980 1.992215
vn -0.000000 0.000000 -1.000000
vn -0.000000 1.000000 0.000000
vn 1.000000 -0.000000 -0.000000
vn -1.000000 0.000000 -0.003600
vn -1.000000 0.000000 -0.003400
vn -1.000000 -0.000000 -0.005400
vn 1.000000 0.000000 0.005400
vn 1.000000 0.000000 0.007500
vn 1.000000 0.000000 0.007400
vn 0.000000 0.999900 -0.014700
vn -0.000000 0.999900 -0.013600
vn -0.000000 0.999900 -0.014400
vn -0.816500 0.000100 0.577300
vn 0.000000 -0.816500 0.577400
vn -0.887000 -0.000000 0.461800
vn 0.000000 -0.999900 0.013500
vn -0.000000 -0.816400 0.577400
vn 1.000000 -0.000000 0.006100
vn 1.000000 0.000000 0.004500
vn 1.000000 -0.000000 0.004900
vn 1.000000 -0.000200 -0.000000
vn -0.816500 -0.000000 0.577400
vn -0.816500 -0.000000 -0.577300
vn -0.816500 0.000000 0.577300
vn 0.816500 -0.000100 0.577400
vn 0.751200 0.473300 0.460000
vn -0.000200 -1.000000 -0.000000
vn -1.000000 0.000000 0.000000
vn 0.007700 -0.017900 -0.999800
vn -0.000100 -1.000000 -0.000000
vn -0.004700 0.018200 0.999800
vn -0.000000 0.999900 -0.013500
vn -0.000000 0.999900 -0.015500
vn 0.000000 0.999900 -0.012100
vn 0.751300 0.473300 0.460000
vn -0.000000 0.999900 -0.012800
vn -0.000000 -0.999900 0.012300
vn -0.000000 -0.999900 0.012400
vn -0.000000 -0.999900 0.011800
vn 1.000000 -0.000000 0.006400
vn -1.000000 0.000000 -0.005700
vn 1.000000 -0.000000 0.005700
vn 0.012100 -0.017500 -0.999800
vn 0.000000 -0.999900 0.012800
usemtl Model001_Material001
s 1
f 1/1/1 2/2/1 3/3/1
f 4/4/2 5/5/3 6/6/2
f 2/2/1 1/1/1 7/7/1
f 8/8/4 9/9/5 10/10/6
f 11/10/7 12/9/8 13/8/9
f 14/11/10 15/12/11 16/13/12
f 17/14/13 18/15/14 19/16/15
f 20/17/16 13/8/9 12/9/8
f 17/14/13 21/18/17 18/15/14
f 22/19/18 23/11/19 24/12/20
f 5/5/3 4/4/2 25/20/21
f 20/17/16 26/21/16 9/9/5
f 27/12/22 28/19/23 29/22/24
f 18/15/14 30/14/25 31/16/26
f 21/18/17 30/14/25 18/15/14
f 32/4/27 5/5/3 25/20/21
f 4/4/2 33/5/28 34/20/28
f 33/5/28 32/4/27 34/20/28
f 35/11/23 36/23/29 28/19/23
f 33/5/28 37/6/30 32/4/27
f 38/24/31 27/12/22 29/22/24
f 39/25/32 40/26/11 41/27/32
f 14/11/10 16/13/12 42/28/33
f 43/29/34 31/16/35 44/30/36
f 45/11/37 46/13/38 47/28/39
f 22/19/18 24/12/20 48/22/40
f 28/19/23 27/12/22 35/11/23
f 20/17/16 12/9/8 26/21/16
f 39/25/32 49/31/11 40/26/11
f 20/17/16 9/9/5 8/8/4
f 8/8/4 10/10/6 50/32/41
f 11/10/7 13/8/9 51/32/42
f 27/12/22 38/24/31 52/33/31
f 32/4/27 37/6/30 5/5/3
f 36/23/29 35/11/23 53/34/43
f 45/11/37 54/12/44 46/13/38
f 4/4/2 6/6/2 33/5/28
