# Blender v2.74 (sub 0) OBJ File: ''
# www.blender.org
mtllib Darkknight.mtl
o Model001_7_mat0_0_0_0
v -0.003330 -0.033988 1.243920
v -0.031109 0.008787 1.169574
v -0.003330 -0.059912 1.185409
v -0.003330 -0.036280 1.089186
v -0.014672 0.008477 0.945546
v -0.003331 -0.023182 0.945589
v -0.014672 0.007839 0.483332
v -0.003331 -0.027123 0.498704
v -0.014672 0.007769 0.432363
v -0.003331 -0.061156 0.405142
v -0.014097 -0.003016 0.385074
v 0.005381 -0.061156 0.405142
v 0.016147 -0.003016 0.385074
v 0.016147 0.018423 0.385044
v -0.014097 0.018423 0.385044
v 0.005381 0.076618 0.404952
v -0.003331 0.076618 0.404952
v -0.003331 0.042844 0.498607
v -0.003331 0.040137 0.945502
v -0.003330 0.053631 1.089061
v -0.003330 0.077530 1.185219
v -0.003330 0.051767 1.243802
v 0.005381 0.051767 1.243802
v 0.033160 0.008787 1.169574
v 0.005381 0.077530 1.185219
v 0.005381 0.053631 1.089061
v 0.016723 0.008477 0.945546
v 0.005381 0.040137 0.945502
v 0.016723 0.007839 0.483332
v 0.005381 0.042844 0.498607
v 0.016723 0.007769 0.432363
v 0.005381 0.076618 0.404952
v 0.016147 0.018423 0.385044
v 0.016147 -0.003016 0.385074
v 0.005381 -0.061156 0.405142
v 0.005381 -0.027123 0.498704
v 0.005381 -0.023182 0.945589
v 0.005381 -0.036280 1.089186
v 0.005381 -0.059912 1.185409
v 0.005381 -0.033988 1.243920
v 0.005381 -0.024268 1.302454
v 0.006696 0.009026 1.342717
v 0.005381 0.042209 1.302362
v -0.003330 0.042209 1.302362
v -0.004645 0.009026 1.342717
v -0.003330 -0.024268 1.302454
v 0.001025 -0.081921 0.412166
v 0.001025 -0.045981 0.502228
v -0.003331 -0.061156 0.405142
v -0.003331 -0.027123 0.498704
v 0.001025 -0.045203 0.945620
v -0.003331 -0.023182 0.945589
v 0.001025 -0.060208 1.091884
v -0.003330 -0.036280 1.089186
v -0.003330 -0.059912 1.185409
v 0.005381 -0.059912 1.185409
v 0.005381 -0.036280 1.089186
v 0.005381 -0.023182 0.945589
v 0.005381 -0.027123 0.498704
v 0.005381 -0.061156 0.405142
v 0.001025 0.097402 0.411919
v 0.001025 0.061712 0.502079
v 0.005381 0.076618 0.404952
v 0.005381 0.042844 0.498607
v 0.001025 0.062158 0.945471
v 0.005381 0.040137 0.945502
v 0.001025 0.077567 1.091693
v 0.005381 0.053631 1.089061
v -0.003331 0.040137 0.945502
v -0.003331 0.042844 0.498607
v -0.003331 0.076618 0.404952
v 0.006696 0.009026 1.342717
v 0.005381 0.042209 1.302362
v 0.001025 0.062684 1.326069
v 0.001025 0.075387 1.258260
v 0.005381 0.051767 1.243802
v 0.005381 0.077530 1.185219
v -0.004645 0.009026 1.342717
v -0.003330 -0.024268 1.302454
v 0.001025 -0.044677 1.326218
v 0.001025 -0.057568 1.258444
v -0.003330 -0.033988 1.243920
v -0.003330 0.077530 1.185219
v 0.001025 0.108698 1.190506
v -0.003330 0.051767 1.243802
v -0.003330 0.042209 1.302362
v 0.001025 0.009106 1.400597
v 0.005381 -0.024268 1.302454
v 0.005381 -0.033988 1.243920
v 0.001025 -0.091066 1.190782
v 0.005381 0.076618 0.404952
v 0.005381 -0.061156 0.405142
v -0.003330 0.053631 1.089061
v -0.014097 0.018340 0.324915
v -0.014097 -0.003099 0.324945
v -0.014097 -0.003016 0.385074
v 0.001025 -0.021206 0.391345
v 0.001025 -0.013154 0.324958
v 0.016147 -0.003099 0.324945
v 0.016147 0.018340 0.324915
v 0.016147 -0.003016 0.385074
v -0.014097 0.018340 0.324915
v 0.001025 0.036630 0.391265
v 0.001025 0.028395 0.324901
v 0.016147 0.018340 0.324915
v -0.014097 0.018340 0.324915
v -0.014097 0.018423 0.385044
v 0.016147 0.018340 0.324915
v 0.016147 0.018423 0.385044
v 0.008915 -0.051436 0.223324
v 0.008915 -0.055641 0.246815
v -0.006865 -0.051436 0.223324
v -0.006865 -0.055641 0.246815
v 0.018284 -0.027963 0.312154
v -0.016234 -0.027963 0.312154
v -0.016234 -0.013154 0.324958
v -0.018781 -0.012540 0.228184
v -0.018781 0.027513 0.228129
v -0.010809 0.019129 -0.006132
v -0.010645 0.022083 -0.033369
v -0.010809 -0.004803 -0.006099
v -0.010645 -0.007832 -0.033328
v 0.001025 0.018994 -0.043692
v 0.001025 -0.004771 -0.043659
v 0.012696 -0.007832 -0.033328
v 0.012860 -0.004803 -0.006099
v -0.010809 -0.004508 0.207352
v -0.010809 -0.004803 -0.006099
v -0.010809 0.019129 -0.006132
v -0.010809 0.019424 0.207319
v 0.012860 0.019129 -0.006132
v 0.012860 0.019424 0.207319
v 0.008915 -0.055641 0.246815
v 0.020832 -0.012540 0.228184
v 0.018284 -0.027963 0.312154
v 0.018284 -0.013154 0.324958
v 0.020832 0.027513 0.228129
v 0.018284 0.028395 0.324901
v 0.018284 0.043168 0.312055
v -0.016234 0.028395 0.324901
v 0.018284 0.043168 0.312055
v -0.016234 0.043168 0.312055
v -0.006865 0.070666 0.246641
v 0.008915 0.070666 0.246641
v -0.006865 0.066396 0.223161
v 0.008915 0.066396 0.223161
v -0.010809 0.019424 0.207319
v -0.010809 -0.004508 0.207352
v -0.018781 0.027513 0.228129
v -0.018781 -0.012540 0.228184
v 0.012860 -0.004508 0.207352
v 0.020832 -0.012540 0.228184
v 0.012696 0.022083 -0.033369
v 0.012860 -0.004803 -0.006099
v 0.012860 0.019129 -0.006132
v 0.001025 0.018994 -0.043692
v -0.010645 0.022083 -0.033369
v 0.012696 0.022083 -0.033369
v 0.012860 0.019129 -0.006132
v -0.010809 0.019129 -0.006132
v 0.012860 -0.004803 -0.006099
v 0.012696 -0.007832 -0.033328
v 0.001025 -0.004771 -0.043659
v 0.008915 -0.051436 0.223324
v -0.006865 0.066396 0.223161
v -0.006865 0.070666 0.246641
v -0.016234 0.043168 0.312055
v -0.016234 0.028395 0.324901
v 0.008915 0.070666 0.246641
v 0.008915 0.066396 0.223161
v 0.008915 0.066396 0.223161
v -0.018781 0.027513 0.228129
v 0.020832 0.027513 0.228129
v 0.012860 0.019424 0.207319
v 0.020832 0.027513 0.228129
v 0.012860 -0.004508 0.207352
v 0.020832 -0.012540 0.228184
v 0.012860 -0.004803 -0.006099
v 0.012860 0.019129 -0.006132
v 0.012860 -0.004508 0.207352
v 0.012860 0.019424 0.207319
v -0.010809 0.019424 0.207319
v -0.018781 0.027513 0.228129
v 0.012860 0.019424 0.207319
v 0.020832 0.027513 0.228129
v 0.018284 0.028395 0.324901
v -0.016234 0.028395 0.324901
v 0.018284 -0.013154 0.324958
v -0.016234 -0.013154 0.324958
v 0.008915 -0.051436 0.223324
v 0.020832 -0.012540 0.228184
v 0.012860 -0.004508 0.207352
v 0.018284 0.028395 0.324901
v 0.018284 -0.013154 0.324958
v 0.001025 -0.055840 0.403885
v 0.001025 -0.066868 0.360927
v 0.001025 -0.029178 0.394688
v 0.001025 -0.028214 0.310821
v 0.001025 0.071298 0.403710
v 0.001025 0.082208 0.360721
v 0.001025 0.044612 0.394586
v 0.001025 0.043416 0.310722
v 0.001025 0.083206 0.301506
v 0.001025 0.056749 0.278224
v 0.001025 -0.068030 0.301715
v 0.001025 0.030212 -0.043708
v 0.001025 -0.016054 -0.090115
v 0.001025 0.030148 -0.090179
v 0.001025 -0.015989 -0.043644
v 0.001025 -0.041637 0.278360
v -0.015247 0.028395 0.324901
v -0.015247 -0.012983 0.448465
v -0.015247 0.028565 0.448408
v -0.015247 -0.013154 0.324958
v 0.017298 0.028565 0.448408
v 0.017298 0.028395 0.324901
v 0.017298 -0.012983 0.448465
v 0.017298 -0.013154 0.324958
vt 0.893066 0.183594
vt 0.851074 0.296875
vt 0.851074 0.112305
vt 0.787842 0.160156
vt 0.692139 0.296875
vt 0.692139 0.196289
vt 0.382813 0.296875
vt 0.393066 0.196289
vt 0.348877 0.296875
vt 0.330322 0.119141
vt 0.316895 0.266602
vt 0.324951 0.119141
vt 0.300781 0.266602
vt 0.300781 0.322266
vt 0.316895 0.322266
vt 0.324951 0.473633
vt 0.330322 0.473633
vt 0.393066 0.397461
vt 0.692139 0.397461
vt 0.787842 0.432617
vt 0.851074 0.475586
vt 0.893066 0.414063
vt 0.931641 0.213867
vt 0.958252 0.296875
vt 0.931641 0.376953
vt 0.335449 0.039063
vt 0.395752 0.101563
vt 0.331787 0.102539
vt 0.393066 0.178711
vt 0.692139 0.101563
vt 0.692139 0.178711
vt 0.789063 0.057617
vt 0.787598 0.129883
vt 0.851563 0.086914
vt 0.335449 0.552734
vt 0.395752 0.492188
vt 0.331787 0.492188
vt 0.393066 0.413086
vt 0.692139 0.492188
vt 0.692139 0.413086
vt 0.789063 0.530273
vt 0.787598 0.458008
vt 0.966064 0.295898
vt 0.933594 0.400391
vt 0.949219 0.455078
vt 0.903809 0.499023
vt 0.894531 0.435547
vt 0.851563 0.501953
vt 0.933594 0.194336
vt 0.949219 0.139648
vt 0.903809 0.101563
vt 0.894531 0.164063
vt 0.851563 0.584961
vt 0.997070 0.295898
vt 0.851563 0.004883
vt 0.324951 0.492188
vt 0.324951 0.102539
vt 0.947754 0.643555
vt 0.947754 0.576172
vt 0.997070 0.576172
vt 0.997070 0.507813
vt 0.947510 0.507813
vt 0.947754 0.642578
vt 0.997070 0.707031
vt 0.947754 0.707031
vt 0.947998 0.642578
vt 0.997070 0.641602
vt 0.030762 0.262695
vt 0.064941 0.279297
vt 0.026611 0.375000
vt 0.056396 0.359375
vt 0.141113 0.288086
vt 0.140137 0.494141
vt 0.161377 0.570313
vt 0.032471 0.570313
vt 0.032471 0.789063
vt 0.288330 0.475586
vt 0.227783 0.495117
vt 0.288330 0.227539
vt 0.227783 0.205078
vt 0.187988 0.449219
vt 0.187988 0.244141
vt 0.410889 0.590820
vt 0.726318 0.730469
vt 0.410889 0.718750
vt 0.410889 0.847656
vt 0.726318 0.859375
vt 0.410889 0.988281
vt 0.726318 0.988281
vt 0.161377 0.789063
vt 0.140137 0.866211
vt 0.018799 0.007813
vt 0.068848 0.007813
vt 0.002930 0.221680
vt 0.083008 0.221680
vt 0.145752 0.007813
vt 0.166504 0.221680
vt 0.201904 0.115234
vt 0.227783 0.026367
vt 0.288330 0.008789
vt 0.008057 0.375000
vt 0.026611 0.973633
vt 0.056396 0.995117
vt 0.002197 0.570313
vt 0.192627 0.992188
vt 0.192627 0.833984
vt 0.240967 0.992188
vt 0.240967 0.833984
vt 0.726318 0.590820
vt 0.169189 0.322266
vt 0.739990 0.552734
vt 0.824463 0.585938
vt 0.739990 0.775391
vt 0.890137 0.991211
vt 0.933105 0.728516
vt 0.958252 0.984375
vt 0.341797 0.975586
vt 0.399902 0.740234
vt 0.399902 0.975586
vt 0.341797 0.740234
vt 0.329590 0.570313
vt 0.329590 0.789063
vn -0.955800 -0.282700 0.081200
vn -0.998900 0.000100 0.046400
vn -0.973300 -0.229000 0.015900
vn -0.947900 -0.314200 -0.052200
vn -0.999300 -0.000100 -0.036200
vn -0.964300 -0.264600 -0.010100
vn -1.000000 0.000000 0.001200
vn -0.969300 -0.244400 0.026100
vn -0.999600 0.000000 0.027600
vn -0.872700 -0.316800 -0.371600
vn -0.547300 -0.230800 -0.804500
vn 0.778500 -0.348100 -0.522300
vn 0.549900 -0.141000 -0.823200
vn 0.700400 0.177100 -0.691400
vn -0.443300 0.184700 -0.877200
vn 0.778900 0.346700 -0.522600
vn -0.873000 0.315800 -0.371800
vn -0.969300 0.244500 0.024600
vn -0.964300 0.264500 -0.011600
vn -0.947900 0.314100 -0.053600
vn -0.973300 0.229000 0.014500
vn -0.955700 0.282900 0.081200
vn 0.955700 0.282900 0.081200
vn 0.998900 0.000100 0.046400
vn 0.973300 0.229000 0.014500
vn 0.947900 0.314100 -0.053600
vn 0.999300 -0.000100 -0.036200
vn 0.964300 0.264500 -0.011600
vn 1.000000 0.000000 0.001400
vn 0.969300 0.244500 0.024600
vn 0.999600 0.000000 0.027600
vn 0.778900 0.346600 -0.522700
vn 0.700400 0.177200 -0.691400
vn 0.969300 -0.244400 0.026100
vn 0.964300 -0.264600 -0.010100
vn 0.947900 -0.314200 -0.052200
vn 0.973300 -0.229000 0.015900
vn 0.955800 -0.282700 0.081200
vn 0.969800 -0.232500 0.073900
vn 0.993900 0.000200 0.110200
vn 0.969800 0.232700 0.072500
vn -0.969800 0.232700 0.072500
vn -0.993900 0.000200 0.110200
vn -0.969800 -0.232500 0.073900
vn 0.000000 -0.649400 -0.760400
vn 0.000000 -0.971600 0.236700
vn -0.000000 -0.999600 -0.028700
vn -0.964300 -0.264500 -0.010100
vn 0.000000 -0.984100 -0.177900
vn 0.964300 -0.264500 -0.010100
vn 0.778500 -0.348000 -0.522400
vn 0.000000 0.647500 -0.762000
vn 0.000000 0.972300 0.233800
vn 0.969300 0.244500 0.024700
vn -0.000000 0.999500 -0.031500
vn 0.000000 0.983500 -0.180700
vn -0.969300 0.244500 0.024700
vn -0.873000 0.315800 -0.371700
vn 0.969900 0.232700 0.072500
vn 0.000000 0.906700 0.421700
vn -0.000000 0.956200 0.292600
vn 0.955700 0.282900 0.081100
vn 0.000000 -0.905500 0.424500
vn -0.000000 -0.955400 0.295400
vn -0.000000 0.998100 0.061700
vn -0.969900 0.232700 0.072500
vn 0.000000 0.001400 1.000000
vn -0.000000 -0.997900 0.064600
vn -0.911500 0.410200 -0.028900
vn -0.839900 -0.541500 -0.036100
vn -0.973400 -0.229000 0.000000
vn -0.000000 -0.997700 -0.067500
vn -0.000000 -0.992700 -0.120400
vn 0.839900 -0.541500 -0.036100
vn 0.911500 0.410200 -0.028900
vn 0.973400 -0.229000 0.000000
vn 0.000000 0.997500 -0.070300
vn -0.000000 0.992400 -0.123100
vn 0.911500 0.410200 -0.029000
vn -0.911500 0.410300 -0.029000
vn -0.938400 0.345700 0.000000
vn 0.938400 0.345700 0.000000
vn 0.360800 -0.391700 -0.846400
vn 0.480700 -0.876800 -0.008600
vn -0.347200 -0.784300 -0.514100
vn -0.483300 -0.865000 0.135200
vn 0.423300 -0.752800 0.504100
vn -0.660900 -0.639100 0.393500
vn -0.713000 -0.319200 0.624300
vn -0.783700 -0.361100 -0.505400
vn -0.854200 0.280200 -0.437900
vn -0.829700 0.557500 0.027500
vn -0.651500 0.729700 -0.207500
vn -0.829700 -0.557500 0.027500
vn -0.564800 -0.727300 -0.390000
vn 0.000000 0.277100 -0.960800
vn 0.000000 -0.471700 -0.881800
vn 0.663100 -0.566000 -0.489900
vn 0.596300 -0.801600 0.043200
vn -0.774000 -0.594000 -0.219400
vn -0.534600 0.820100 -0.204300
vn 0.596300 0.801700 0.041800
vn 0.529100 0.792900 -0.302200
vn 0.480700 -0.876800 -0.008700
vn 0.906600 -0.264700 -0.328600
vn 0.712300 -0.161600 0.683100
vn 0.937000 0.194900 -0.289800
vn 0.714900 0.245700 0.654700
vn 0.423500 0.754500 0.501400
vn -0.460200 0.311200 0.831500
vn -0.660800 0.640100 0.392000
vn -0.483200 0.865200 0.133700
vn 0.480700 0.876800 -0.011500
vn -0.347100 0.782600 -0.516800
vn 0.360600 0.389300 -0.847600
vn -0.534600 0.820000 -0.204400
vn -0.773900 -0.594000 -0.219500
vn 0.765700 -0.574100 -0.290100
vn 0.906600 -0.264800 -0.328600
vn 0.771500 0.572600 -0.277300
vn 0.596300 -0.801600 0.043300
vn 0.596300 0.801700 0.041700
vn 0.000100 0.277100 -0.960800
vn -0.347100 0.782600 -0.516900
vn -0.460200 0.311100 0.831500
vn 0.360700 0.389300 -0.847600
vn -0.854200 0.280300 -0.437900
vn 0.937000 0.195000 -0.289700
vn 0.937000 0.195000 -0.289800
vn -0.854200 0.280200 -0.438000
vn 0.714900 0.245800 0.654700
vn -0.460300 0.311200 0.831500
vn 0.712300 -0.161700 0.683100
vn 0.360800 -0.391800 -0.846400
vn 0.714900 0.245800 0.654600
vn 0.712200 -0.161600 0.683100
vn 1.000000 0.000000 -0.000000
vn -1.000000 -0.000000 -0.000000
vn 0.000000 0.448600 0.893700
vn 0.000000 0.448500 0.893800
vn -0.000000 0.116900 -0.993100
vn -0.000000 -0.097000 -0.995300
vn -0.000000 -0.097100 -0.995300
vn -0.092300 0.119000 0.988600
vn -0.054400 -0.068000 0.996200
vn -0.092300 0.118900 0.988600
vn -0.054300 -0.068100 0.996200
usemtl Model001_Material001
s 1
f 1/1/1 2/2/2 3/3/3
f 3/3/3 2/2/2 4/4/4
f 2/2/2 5/5/5 4/4/4
f 4/4/4 5/5/5 6/6/6
f 5/5/5 7/7/7 6/6/6
f 6/6/6 7/7/7 8/8/8
f 7/7/7 9/9/9 8/8/8
f 8/8/8 9/9/9 10/10/10
f 9/9/9 11/11/11 10/10/10
f 10/10/10 11/11/11 12/12/12
f 11/11/11 13/13/13 12/12/12
f 14/14/14 15/15/15 16/16/16
f 16/16/16 15/15/15 17/17/17
f 15/15/15 9/9/9 17/17/17
f 17/17/17 9/9/9 18/18/18
f 9/9/9 7/7/7 18/18/18
f 18/18/18 7/7/7 19/19/19
f 7/7/7 5/5/5 19/19/19
f 19/19/19 5/5/5 20/20/20
f 5/5/5 2/2/2 20/20/20
f 20/20/20 2/2/2 21/21/21
f 2/2/2 22/22/22 21/21/21
f 23/22/23 24/2/24 25/21/25
f 25/21/25 24/2/24 26/20/26
f 24/2/24 27/5/27 26/20/26
f 26/20/26 27/5/27 28/19/28
f 27/5/27 29/7/29 28/19/28
f 28/19/28 29/7/29 30/18/30
f 29/7/29 31/9/31 30/18/30
f 30/18/30 31/9/31 32/17/32
f 31/9/31 33/15/33 32/17/32
f 34/11/13 31/9/31 35/10/12
f 35/10/12 31/9/31 36/8/34
f 31/9/31 29/7/29 36/8/34
f 36/8/34 29/7/29 37/6/35
f 29/7/29 27/5/27 37/6/35
f 37/6/35 27/5/27 38/4/36
f 27/5/27 24/2/24 38/4/36
f 38/4/36 24/2/24 39/3/37
f 24/2/24 40/1/38 39/3/37
f 9/9/9 15/15/15 11/11/11
f 11/11/11 15/15/15 13/13/13
f 15/15/15 14/14/14 13/13/13
f 40/1/38 24/2/24 41/23/39
f 41/23/39 24/2/24 42/24/40
f 24/2/24 43/25/41 42/24/40
f 44/25/42 2/2/2 45/24/43
f 45/24/43 2/2/2 46/23/44
f 2/2/2 1/1/1 46/23/44
f 33/15/33 31/9/31 34/11/13
f 44/25/42 22/22/22 2/2/2
f 23/22/23 43/25/41 24/2/24
f 47/26/45 48/27/46 49/28/10
f 49/28/10 48/27/46 50/29/8
f 48/27/46 51/30/47 50/29/8
f 50/29/8 51/30/47 52/31/48
f 51/30/47 53/32/49 52/31/48
f 52/31/48 53/32/49 54/33/4
f 53/32/49 55/34/3 54/33/4
f 56/34/37 53/32/49 57/33/36
f 57/33/36 53/32/49 58/31/50
f 53/32/49 51/30/47 58/31/50
f 58/31/50 51/30/47 59/29/34
f 51/30/47 48/27/46 59/29/34
f 59/29/34 48/27/46 60/28/51
f 48/27/46 47/26/45 60/28/51
f 61/35/52 62/36/53 63/37/16
f 63/37/16 62/36/53 64/38/54
f 62/36/53 65/39/55 64/38/54
f 64/38/54 65/39/55 66/40/28
f 65/39/55 67/41/56 66/40/28
f 66/40/28 67/41/56 68/42/26
f 67/41/56 65/39/55 69/40/19
f 69/40/19 65/39/55 70/38/57
f 65/39/55 62/36/53 70/38/57
f 70/38/57 62/36/53 71/37/58
f 62/36/53 61/35/52 71/37/58
f 72/43/40 73/44/59 74/45/60
f 74/45/60 73/44/59 75/46/61
f 73/44/59 76/47/62 75/46/61
f 75/46/61 76/47/62 77/48/25
f 78/43/43 79/49/44 80/50/63
f 80/50/63 79/49/44 81/51/64
f 79/49/44 82/52/1 81/51/64
f 81/51/64 82/52/1 55/34/3
f 67/41/56 83/48/21 84/53/65
f 84/53/65 83/48/21 75/46/61
f 83/48/21 85/47/22 75/46/61
f 75/46/61 85/47/22 86/44/66
f 86/44/66 78/43/43 74/45/60
f 74/45/60 78/43/43 87/54/67
f 78/43/43 80/50/63 87/54/67
f 74/45/60 87/54/67 72/43/40
f 72/43/40 87/54/67 80/50/63
f 80/50/63 81/51/64 88/49/39
f 88/49/39 81/51/64 89/52/38
f 81/51/64 56/34/37 89/52/38
f 84/53/65 77/48/25 67/41/56
f 67/41/56 77/48/25 68/42/26
f 53/32/49 56/34/37 90/55/68
f 91/56/16 71/37/58 61/35/52
f 49/28/10 92/57/12 47/26/45
f 81/51/64 55/34/3 90/55/68
f 75/46/61 77/48/25 84/53/65
f 88/49/39 72/43/40 80/50/63
f 75/46/61 86/44/66 74/45/60
f 55/34/3 53/32/49 90/55/68
f 56/34/37 81/51/64 90/55/68
f 67/41/56 69/40/19 93/42/20
f 83/48/21 67/41/56 93/42/20
f 94/58/69 95/59/70 96/60/71
f 96/60/71 95/59/70 97/61/72
f 95/59/70 98/62/73 97/61/72
f 97/61/72 98/62/73 99/59/74
f 100/58/75 101/60/76 99/59/74
f 99/59/74 101/60/76 97/61/72
f 102/63/69 103/64/77 104/65/78
f 104/65/78 103/64/77 105/63/79
f 106/66/80 96/60/71 107/67/81
f 108/66/75 103/64/77 109/67/82
f 101/60/76 108/66/75 109/67/82
f 103/64/77 106/66/80 107/67/81
f 110/68/83 111/69/84 112/70/85
f 112/70/85 111/69/84 113/71/86
f 111/69/84 114/72/87 113/71/86
f 113/71/86 114/72/87 115/73/88
f 114/72/87 116/74/89 115/73/88
f 115/73/88 116/74/89 117/75/90
f 116/74/89 118/76/91 117/75/90
f 119/77/92 120/78/93 121/79/94
f 121/79/94 120/78/93 122/80/95
f 120/78/93 123/81/96 122/80/95
f 122/80/95 123/81/96 124/82/97
f 123/81/96 125/80/98 124/82/97
f 126/83/99 127/84/100 128/85/94
f 128/85/94 127/84/100 129/86/92
f 127/84/100 130/87/101 129/86/92
f 129/86/92 130/87/101 131/88/102
f 130/87/101 132/89/103 131/88/102
f 133/71/104 134/75/105 135/73/87
f 135/73/87 134/75/105 136/74/106
f 134/75/105 137/76/107 136/74/106
f 136/74/106 137/76/107 138/90/108
f 137/76/107 139/91/109 138/90/108
f 140/74/110 141/72/109 142/73/111
f 142/73/111 141/72/109 143/71/112
f 141/72/109 144/69/113 143/71/112
f 143/71/112 144/69/113 145/70/114
f 144/69/113 146/68/115 145/70/114
f 147/92/116 148/93/117 149/94/91
f 149/94/91 148/93/117 150/95/90
f 148/93/117 151/96/118 150/95/90
f 150/95/90 151/96/118 152/97/119
f 123/81/96 153/78/120 125/80/98
f 125/80/98 153/78/120 154/79/121
f 153/78/120 155/77/122 154/79/121
f 156/98/123 157/80/93 158/99/120
f 158/99/120 157/80/93 159/100/102
f 157/80/93 160/79/92 159/100/102
f 121/79/94 122/80/95 161/100/99
f 161/100/99 122/80/95 162/99/98
f 122/80/95 163/98/97 162/99/98
f 115/73/88 117/75/90 113/71/86
f 113/71/86 117/75/90 112/70/85
f 117/75/90 164/101/83 112/70/85
f 165/102/124 118/76/91 166/103/112
f 166/103/112 118/76/91 167/91/111
f 118/76/91 168/90/125 167/91/111
f 139/91/109 137/76/107 169/103/113
f 169/103/113 137/76/107 170/102/126
f 145/70/114 171/101/126 172/75/127
f 172/75/127 171/101/126 173/104/128
f 174/92/103 175/94/129 176/93/118
f 176/93/118 175/94/129 177/95/105
f 178/85/121 179/86/122 180/84/118
f 180/84/118 179/86/122 181/87/103
f 182/93/101 183/95/130 184/96/103
f 184/96/103 183/95/130 185/97/129
f 186/105/131 187/106/132 188/107/133
f 188/107/133 187/106/132 189/108/89
f 134/75/105 133/71/104 190/70/134
f 118/76/91 116/74/89 168/90/125
f 164/101/83 117/75/90 191/104/119
f 127/84/100 126/83/99 192/109/118
f 141/72/109 140/74/110 193/110/135
f 116/74/89 114/72/87 194/110/136
f 195/111/137 196/112/137 197/113/137
f 197/113/137 196/112/137 198/114/138
f 199/111/138 200/112/138 201/113/138
f 201/113/138 200/112/138 202/114/138
f 202/114/138 203/115/139 204/116/138
f 203/115/140 200/112/138 202/114/138
f 205/115/138 196/112/137 198/114/138
f 206/117/141 207/118/142 208/119/137
f 209/120/138 206/117/141 207/118/143
f 210/116/138 205/115/138 198/114/138
f 211/90/144 212/121/145 213/122/138
f 214/74/137 211/90/146 212/121/147
f 215/122/138 216/90/138 217/121/138
f 218/74/138 217/121/138 216/90/138
