# Blender v2.74 (sub 0) OBJ File: ''
# www.blender.org
mtllib deucesflute.mtl
o Model001_7_0_01
v -0.283567 0.054191 0.016266
v -0.283567 0.036074 0.000000
v 0.282459 0.036074 0.000000
v 0.282459 0.054191 -0.016266
v -0.283567 0.054191 -0.016266
v 0.282459 0.072308 0.000000
v -0.283567 0.072308 0.000000
v 0.282459 0.054191 0.016266
v -0.283567 0.072308 0.000000
v -0.283567 0.036074 0.000000
v -0.283567 0.054191 0.016266
v 0.282459 0.054191 -0.016266
v 0.282459 0.072308 0.000000
v 0.282459 0.036074 0.000000
v -0.283567 0.054191 -0.016266
v 0.282459 0.054191 0.016266
vt 0.993988 -0.505539
vt 0.993988 -0.960662
vt 0.151585 -0.960662
vt 0.151585 -0.672628
vt 0.993988 -0.672628
vt 0.151585 -0.348491
vt 0.993988 -0.348491
vt 0.151585 -0.505539
vt 0.007202 -0.562883
vt 0.007202 -0.917081
vt 0.044008 -0.740776
vt 0.069063 -0.320719
vt 0.116398 -0.053255
vt 0.116398 -0.585009
vn -0.537200 -0.000000 0.843400
vn -0.707100 -0.707100 0.000000
vn 0.707100 -0.707100 -0.000000
vn 0.707100 0.000000 -0.707100
vn -0.537200 -0.000000 -0.843400
vn 0.707100 0.707100 -0.000000
vn -0.707100 0.707100 -0.000000
vn 0.707100 0.000100 0.707100
vn -0.707100 0.707100 -0.000100
vn -0.707100 -0.707100 0.000100
vn -0.537200 0.000100 0.843400
vn 0.707100 0.000100 -0.707100
vn 0.707100 0.707100 0.000100
vn 0.707100 -0.707100 -0.000100
vn -0.537200 -0.000100 -0.843400
vn 0.707100 -0.000100 0.707100
usemtl Model001_Material001
s 1
f 1/1/1 2/2/2 3/3/3
f 4/4/4 5/5/5 6/6/6
f 4/4/4 3/3/3 5/5/5
f 3/3/3 2/2/2 5/5/5
f 7/7/7 1/1/1 6/6/6
f 6/6/6 1/1/1 8/8/8
f 9/9/9 10/10/10 11/11/11
f 6/6/6 5/5/5 7/7/7
f 12/12/12 13/13/13 14/14/14
f 10/10/10 9/9/9 15/11/15
f 14/14/14 13/13/13 16/12/16
f 1/1/1 3/3/3 8/8/8
