# Blender v2.74 (sub 0) OBJ File: ''
# www.blender.org
mtllib hyperion.mtl
o hyperion
v -0.019262 0.077089 -0.001128
v -0.019347 0.074864 -0.014014
v -0.019454 0.071888 -0.000259
v -0.008884 0.071515 -0.000281
v -0.008776 0.074491 -0.014036
v -0.008692 0.076712 -0.001149
v -0.017482 0.098151 0.011931
v -0.012666 0.113351 -0.000670
v -0.008914 0.097849 0.011913
v -0.008914 0.097849 0.011913
v -0.012666 0.113351 -0.000670
v -0.008519 0.108539 0.018587
v -0.008519 0.108539 0.018587
v -0.012666 0.113351 -0.000670
v -0.017088 0.108841 0.018605
v -0.017088 0.108841 0.018605
v -0.012666 0.113351 -0.000670
v -0.017482 0.098151 0.011931
v -0.020532 0.120054 0.206467
v -0.011860 0.134417 0.217787
v -0.004208 0.119477 0.206433
v -0.022872 0.056141 0.310657
v -0.017562 -0.020118 0.160575
v -0.015148 0.044754 0.325602
v -0.006548 0.055564 0.310624
v -0.011739 0.135204 0.885971
v -0.012324 0.118992 0.977291
v -0.008085 0.130698 0.886944
v -0.009087 0.103507 0.888624
v -0.013099 0.098287 0.890523
v -0.016569 0.106098 0.888610
v -0.015753 0.128274 0.887088
v -0.016569 0.106098 0.888610
v -0.015753 0.128274 0.887088
v -0.022290 0.072720 0.102691
v -0.022427 0.068942 0.120614
v -0.020639 0.117428 0.123410
v -0.023003 0.053073 0.182936
v -0.020532 0.120054 0.206467
v -0.022371 0.070330 0.163930
v -0.023003 0.053073 0.182936
v -0.020532 0.120054 0.206467
v -0.006679 0.052496 0.182902
v -0.006679 0.052496 0.182902
v -0.006548 0.055564 0.310624
v -0.006679 0.052496 0.182902
v -0.006548 0.055564 0.310624
v -0.006679 0.052496 0.182902
v -0.006047 0.069753 0.163897
v -0.004208 0.119477 0.206433
v -0.004316 0.116851 0.123376
v -0.006103 0.068365 0.120581
v -0.005966 0.072144 0.102656
v -0.008692 0.076712 -0.001149
v -0.008776 0.074491 -0.014036
v -0.019262 0.077089 -0.001128
v -0.008776 0.074491 -0.014036
v -0.019347 0.074864 -0.014014
v -0.019262 0.077089 -0.001128
v -0.008776 0.074491 -0.014036
v -0.008884 0.071515 -0.000281
v -0.019347 0.074864 -0.014014
v -0.008884 0.071515 -0.000281
v -0.019347 0.074864 -0.014014
v -0.020639 0.117428 0.123410
v -0.020532 0.120054 0.206467
v -0.004316 0.116851 0.123376
v -0.020532 0.120054 0.206467
v -0.004208 0.119477 0.206433
v -0.004316 0.116851 0.123376
v -0.025971 -0.026729 -0.021673
v -0.025034 -0.001302 -0.021364
v -0.009647 -0.027306 -0.021707
v -0.008711 -0.001876 -0.021397
v -0.009647 -0.027306 -0.021707
v -0.022935 0.055583 0.002427
v -0.022935 0.055583 0.002427
v -0.006611 0.055006 0.002394
v -0.022935 0.055583 0.002427
v -0.022140 0.077189 -0.001121
v -0.006611 0.055006 0.002394
v -0.022140 0.077189 -0.001121
v -0.005816 0.076612 -0.001155
v -0.006611 0.055006 0.002394
v -0.022140 0.077189 -0.001121
v -0.020768 0.114324 0.021949
v -0.005816 0.076612 -0.001155
v -0.004444 0.113747 0.021917
v -0.005816 0.076612 -0.001155
v -0.020768 0.114324 0.021949
v -0.020639 0.117428 0.123410
v -0.004444 0.113747 0.021917
v -0.020639 0.117428 0.123410
v -0.004316 0.116851 0.123376
v -0.004444 0.113747 0.021917
v -0.020532 0.120054 0.206467
v -0.012152 0.125511 0.479686
v -0.020532 0.120054 0.206467
v -0.019000 0.116442 0.479126
v -0.005822 0.118867 0.479015
v -0.005822 0.118867 0.479015
v -0.015753 0.128274 0.887088
v -0.005822 0.118867 0.479015
v -0.005822 0.118867 0.479015
v -0.016569 0.106098 0.888610
v -0.015753 0.128274 0.887088
v -0.020148 0.085274 0.479296
v -0.015753 0.128274 0.887088
v -0.014129 0.071852 0.478067
v -0.016569 0.106098 0.888610
v -0.020532 0.120054 0.206467
v -0.006548 0.055564 0.310624
v -0.007228 0.080676 0.479406
v -0.007228 0.080676 0.479406
v -0.006548 0.055564 0.310624
v -0.007228 0.080676 0.479406
v -0.005822 0.118867 0.479015
v -0.007228 0.080676 0.479406
v -0.007228 0.080676 0.479406
v -0.007228 0.080676 0.479406
v -0.005822 0.118867 0.479015
v -0.005822 0.118867 0.479015
v -0.025034 -0.001302 -0.021364
v -0.025971 -0.026729 -0.021673
v -0.025407 -0.011555 0.021853
v -0.025971 -0.026729 -0.021673
v -0.026151 -0.031765 0.022877
v -0.022360 0.071015 0.048701
v -0.025034 -0.001302 -0.021364
v -0.022935 0.055583 0.002427
v -0.025034 -0.001302 -0.021364
v -0.022360 0.071015 0.048701
v -0.020768 0.114324 0.021949
v -0.022935 0.055583 0.002427
v -0.020768 0.114324 0.021949
v -0.022140 0.077189 -0.001121
v -0.022935 0.055583 0.002427
v -0.022360 0.071015 0.048701
v -0.020768 0.114324 0.021949
v -0.020768 0.114324 0.021949
v -0.022290 0.072720 0.102691
v -0.022360 0.071015 0.048701
v -0.005966 0.072144 0.102656
v -0.022360 0.071015 0.048701
v -0.006036 0.070438 0.048667
v -0.005966 0.072144 0.102656
v -0.004444 0.113747 0.021917
v -0.004316 0.116851 0.123376
v -0.006036 0.070438 0.048667
v -0.004316 0.116851 0.123376
v -0.005966 0.072144 0.102656
v -0.006036 0.070438 0.048667
v -0.006611 0.055006 0.002394
v -0.005816 0.076612 -0.001155
v -0.006036 0.070438 0.048667
v -0.005816 0.076612 -0.001155
v -0.004444 0.113747 0.021917
v -0.006036 0.070438 0.048667
v -0.022360 0.071015 0.048701
v -0.025407 -0.011555 0.021853
v -0.006036 0.070438 0.048667
v -0.025407 -0.011555 0.021853
v -0.009083 -0.012132 0.021820
v -0.006036 0.070438 0.048667
v -0.008711 -0.001876 -0.021397
v -0.006611 0.055006 0.002394
v -0.009083 -0.012132 0.021820
v -0.006611 0.055006 0.002394
v -0.006036 0.070438 0.048667
v -0.009083 -0.012132 0.021820
v -0.025407 -0.011555 0.021853
v -0.026151 -0.031765 0.022877
v -0.009083 -0.012132 0.021820
v -0.026151 -0.031765 0.022877
v -0.009827 -0.032342 0.022844
v -0.009083 -0.012132 0.021820
v -0.009083 -0.012132 0.021820
v -0.009827 -0.032342 0.022844
v -0.008711 -0.001876 -0.021397
v -0.009827 -0.032342 0.022844
v -0.009647 -0.027306 -0.021707
v -0.008711 -0.001876 -0.021397
v -0.026151 -0.031765 0.022877
v -0.025971 -0.026729 -0.021673
v -0.009827 -0.032342 0.022844
v -0.025971 -0.026729 -0.021673
v -0.009647 -0.027306 -0.021707
v -0.009827 -0.032342 0.022844
v -0.020532 0.120054 0.206467
v -0.023003 0.053073 0.182936
v -0.022371 0.070330 0.163930
v -0.006679 0.052496 0.182902
v -0.022371 0.070330 0.163930
v -0.006047 0.069753 0.163897
v -0.006679 0.052496 0.182902
v -0.022427 0.068942 0.120614
v -0.022290 0.072720 0.102691
v -0.006103 0.068365 0.120581
v -0.022290 0.072720 0.102691
v -0.005966 0.072144 0.102656
v -0.006103 0.068365 0.120581
v -0.022371 0.070330 0.163930
v -0.022427 0.068942 0.120614
v -0.006047 0.069753 0.163897
v -0.022427 0.068942 0.120614
v -0.006103 0.068365 0.120581
v -0.006047 0.069753 0.163897
v -0.006047 0.069753 0.163897
v -0.006103 0.068365 0.120581
v -0.004208 0.119477 0.206433
v -0.006103 0.068365 0.120581
v -0.004316 0.116851 0.123376
v -0.004208 0.119477 0.206433
v -0.017459 0.050952 0.076692
v -0.017659 0.045680 0.039473
v -0.017652 0.045716 0.078508
v -0.017659 0.045680 0.039473
v -0.017870 0.039946 0.037369
v -0.017652 0.045716 0.078508
v -0.017652 0.045716 0.078508
v -0.017246 0.056680 0.092083
v -0.017459 0.050952 0.076692
v -0.017246 0.056680 0.092083
v -0.017147 0.059413 0.087040
v -0.017459 0.050952 0.076692
v -0.017246 0.056680 0.092083
v -0.016675 0.072187 0.092510
v -0.017147 0.059413 0.087040
v -0.016675 0.072187 0.092510
v -0.016682 0.072028 0.087488
v -0.017147 0.059413 0.087040
v -0.016675 0.072187 0.092510
v -0.017246 0.056680 0.092083
v -0.011609 0.072011 0.092500
v -0.017246 0.056680 0.092083
v -0.012180 0.056504 0.092073
v -0.011609 0.072011 0.092500
v -0.017246 0.056680 0.092083
v -0.017652 0.045716 0.078508
v -0.012180 0.056504 0.092073
v -0.017652 0.045716 0.078508
v -0.012586 0.045540 0.078497
v -0.012180 0.056504 0.092073
v -0.017652 0.045716 0.078508
v -0.017870 0.039946 0.037369
v -0.012586 0.045540 0.078497
v -0.017870 0.039946 0.037369
v -0.012805 0.039770 0.037359
v -0.012586 0.045540 0.078497
v -0.017659 0.045680 0.039473
v -0.017459 0.050952 0.076692
v -0.012593 0.045500 0.039463
v -0.017459 0.050952 0.076692
v -0.012393 0.050776 0.076683
v -0.012593 0.045500 0.039463
v -0.012586 0.045540 0.078497
v -0.012805 0.039770 0.037359
v -0.012393 0.050776 0.076683
v -0.012805 0.039770 0.037359
v -0.012593 0.045500 0.039463
v -0.012393 0.050776 0.076683
v -0.012393 0.050776 0.076683
v -0.012080 0.059233 0.087030
v -0.012586 0.045540 0.078497
v -0.012080 0.059233 0.087030
v -0.012180 0.056504 0.092073
v -0.012586 0.045540 0.078497
v -0.017459 0.050952 0.076692
v -0.017147 0.059413 0.087040
v -0.012393 0.050776 0.076683
v -0.017147 0.059413 0.087040
v -0.012080 0.059233 0.087030
v -0.012393 0.050776 0.076683
v -0.012080 0.059233 0.087030
v -0.011615 0.071852 0.087477
v -0.012180 0.056504 0.092073
v -0.011615 0.071852 0.087477
v -0.011609 0.072011 0.092500
v -0.012180 0.056504 0.092073
v -0.017147 0.059413 0.087040
v -0.016682 0.072028 0.087488
v -0.012080 0.059233 0.087030
v -0.016682 0.072028 0.087488
v -0.011615 0.071852 0.087477
v -0.012080 0.059233 0.087030
vt 0.007813 -0.992190
vt 0.164063 -0.953130
vt 0.007813 -0.914060
vt 0.585938 -0.789060
vt 0.570313 -0.750000
vt 0.453125 -0.898440
vt 0.656250 -0.992190
vt 0.437500 -0.929690
vt 0.125000 -0.781250
vt 0.007813 -0.851560
vt 0.125000 -0.804690
vt 0.125000 -0.867190
vt 0.125000 -0.890630
vt 0.828125 -0.843750
vt 0.804688 -0.851560
vt 0.796875 -0.750000
vt 0.617188 -0.898440
vt 0.671875 -0.750000
vt 0.734375 -0.851560
vt 0.687500 -0.851560
vt 0.171875 -0.992190
vt 0.171875 -0.914060
vt 0.273438 -0.929690
vt 0.187500 -0.929690
vt 0.273438 -0.992190
vt 0.187500 -0.984380
vt 0.117188 -0.914060
vt 0.117188 -0.984380
vt 0.007813 -0.984380
vt 0.742188 -0.898440
vt 0.710938 -0.898440
vt 0.742188 -0.960940
vt 0.710938 -0.960940
vt 0.367188 -0.929690
vt 0.367188 -0.984380
vt 0.343750 -0.781250
vt 0.343750 -0.796880
vt 0.343750 -0.875000
vt 0.351563 -0.906250
vt 0.945313 -0.882810
vt 0.992188 -0.882810
vt 0.929688 -0.984380
vt 0.984375 -0.984380
vt 0.765625 -0.984380
vt 0.820313 -0.875000
vt 0.914063 -0.843750
vt 0.953125 -0.750000
vt 0.984375 -0.859380
vt 0.992188 -0.820310
vt 0.820313 -0.882810
vt 0.929688 -0.992190
vn -0.999400 0.035300 0.002000
vn -0.632100 -0.756500 -0.167800
vn 0.999400 -0.035300 -0.002100
vn 0.730200 0.672300 -0.121800
vn -0.651500 -0.351600 -0.672200
vn 0.018000 0.531200 -0.847100
vn -0.023500 -0.633200 -0.773700
vn 0.977800 0.084000 -0.192200
vn 0.017900 0.531300 -0.847000
vn 0.668000 0.743100 0.040700
vn 0.668000 0.743100 0.040600
vn 0.018000 0.531300 -0.847000
vn 0.035600 0.971200 0.235800
vn -0.970800 0.151500 -0.185900
vn -0.651400 -0.351700 -0.672300
vn -0.866600 0.409700 -0.284800
vn 0.030000 0.972600 -0.230600
vn 0.892300 0.346200 -0.289700
vn -0.981100 -0.179800 0.071700
vn -0.029300 -0.784900 -0.619000
vn -0.040500 -0.972800 0.228000
vn 0.966200 -0.248900 0.067800
vn -0.073300 0.995100 0.065900
vn -0.000300 0.026100 0.999700
vn 0.940300 0.337400 0.043800
vn 0.940600 -0.335400 0.052100
vn -0.109700 -0.981800 0.154800
vn -0.980900 -0.188900 0.045900
vn -0.000300 0.026200 0.999700
vn -0.956800 0.288400 0.036700
vn -0.999400 0.035300 0.002100
vn -0.999400 0.035400 0.002100
vn -0.907000 0.096200 -0.410000
vn -0.999400 0.035500 0.002000
vn -0.866600 0.409700 -0.284700
vn 0.910200 0.031200 -0.412900
vn -0.029400 -0.784900 -0.618900
vn 0.966200 -0.248900 0.067700
vn 0.892400 0.346100 -0.289700
vn 0.999400 -0.035400 -0.002100
vn 0.999400 -0.035300 -0.002000
vn 0.999400 -0.035400 -0.002000
vn 0.000700 0.021200 -0.999800
vn 0.036400 0.984800 -0.169900
vn 0.000600 0.021200 -0.999800
vn 0.000200 0.021100 -0.999800
vn 0.036200 0.984800 -0.169900
vn 0.000900 0.021200 -0.999800
vn -0.036000 -0.976500 -0.212300
vn -0.035800 -0.976600 -0.212300
vn -0.632100 -0.756500 -0.167900
vn 0.000500 0.021200 -0.999800
vn 0.036700 0.998900 -0.030700
vn 0.036600 0.998800 -0.031200
vn 0.000300 0.011700 -0.999900
vn 0.007300 0.201800 -0.979400
vn 0.004100 0.115700 -0.993300
vn 0.014000 0.384600 -0.923000
vn 0.007300 0.201900 -0.979400
vn -0.006100 -0.162000 -0.986800
vn -0.006300 -0.162000 -0.986800
vn 0.019300 0.526300 -0.850100
vn 0.036500 0.998900 -0.030200
vn 0.036500 0.998900 -0.030700
vn 0.036900 0.998900 -0.030200
vn -0.058800 0.998300 0.001900
vn -0.943600 0.331100 0.006100
vn -0.058900 0.998300 0.002000
vn 0.937000 0.349300 0.004000
vn -0.073200 0.995100 0.065900
vn 0.937000 0.349300 0.004100
vn 0.937000 0.349200 0.004000
vn -0.981900 -0.186300 0.033100
vn -0.943600 0.331100 0.006200
vn -0.124200 -0.983700 0.130300
vn -0.980900 -0.189000 0.045900
vn 0.941300 -0.335700 0.035900
vn -0.040600 -0.972800 0.228000
vn 0.892300 0.346100 -0.289700
vn 0.941300 -0.335600 0.035900
vn 0.940700 -0.335300 0.052100
vn 0.937000 0.349200 0.004100
vn -0.999400 0.035400 0.002000
vn -0.999400 0.035300 0.001900
vn -0.999400 0.035400 0.001900
vn -0.999400 0.035200 0.002000
vn -0.999400 0.035200 0.002100
vn -0.036700 -0.995400 -0.088500
vn -0.029300 -0.798800 0.600800
vn -0.036700 -0.995400 -0.088600
vn 0.999400 -0.035200 -0.001900
vn 0.999400 -0.035200 -0.002000
vn -0.004700 -0.130800 0.991400
vn -0.029300 -0.798800 0.600900
vn 0.999400 -0.035300 -0.002200
vn 0.999400 -0.035200 -0.002100
vn -0.026800 -0.728000 0.685000
vn -0.026700 -0.728000 0.685000
vn -0.026400 -0.728000 0.685000
vn -0.026800 -0.728000 0.685100
vn -0.036500 -0.992900 -0.112900
vn -0.026700 -0.728000 0.685100
vn -0.036600 -0.992900 -0.112900
vn -0.027300 -0.738900 -0.673300
vn -0.034600 -0.937600 -0.346100
vn -0.034700 -0.937500 -0.346200
vn -0.027300 -0.739000 -0.673100
vn -0.036700 -0.995400 -0.088300
vn -0.034500 -0.937600 -0.346100
vn 0.999400 -0.035400 -0.001800
vn 0.999400 -0.035400 -0.001900
vn -0.999400 0.035200 0.001900
vn -0.374200 -0.399700 0.836800
vn -0.692400 0.004900 0.721500
vn -0.692300 0.004900 0.721600
vn -0.000800 -0.027000 0.999600
vn -0.016200 -0.442400 0.896700
vn -0.000900 -0.027000 0.999600
vn -0.374200 -0.399800 0.836700
vn -0.033700 -0.916500 0.398600
vn -0.016200 -0.442300 0.896700
vn -0.033700 -0.916600 0.398400
vn -0.036400 -0.989700 0.138800
vn 0.036400 0.989500 -0.140200
vn 0.033600 0.915100 -0.401900
vn 0.816200 0.571200 -0.086500
vn 0.033600 0.915100 -0.401800
vn 0.792800 0.553000 -0.256400
vn 0.816200 0.571300 -0.086500
vn 0.792800 0.552900 -0.256400
vn 0.576600 0.345800 -0.740200
vn 0.576600 0.345600 -0.740300
vn 0.033600 0.915100 -0.401700
vn 0.016300 0.443300 -0.896200
vn 0.792800 0.553000 -0.256300
vn 0.576600 0.345700 -0.740300
vn 0.016100 0.443400 -0.896200
vn 0.001200 0.034900 -0.999400
vn 0.001100 0.034900 -0.999400
usemtl Model001_Material001.002
s 1
f 1/1/1 2/2/1 3/3/2
f 4/3/3 5/2/3 6/1/4
f 7/3/5 8/2/6 9/1/7
f 10/3/8 11/2/9 12/1/10
f 13/1/11 14/2/12 15/3/13
f 16/1/14 17/2/9 18/3/15
f 19/4/16 20/5/17 21/4/18
f 22/6/19 23/7/20 24/8/21
f 24/8/21 23/7/20 25/6/22
f 26/9/23 27/10/24 28/11/25
f 29/12/26 28/11/25 27/10/24
f 29/12/26 27/10/24 30/13/27
f 27/10/24 31/12/28 30/13/27
f 27/10/29 32/11/30 33/12/28
f 27/10/24 26/9/23 34/11/30
f 35/14/31 36/15/31 37/16/32
f 22/6/19 38/17/33 23/7/20
f 39/18/34 40/19/34 41/20/1
f 22/6/19 42/4/35 38/17/33
f 23/7/20 38/17/33 43/17/36
f 23/7/37 44/17/36 45/6/38
f 46/17/36 21/4/39 47/6/38
f 48/20/40 49/19/41 50/18/40
f 51/16/42 52/15/42 53/14/42
f 54/1/4 55/21/43 56/3/44
f 57/21/45 58/22/46 59/3/47
f 60/21/48 61/1/49 62/22/45
f 63/1/50 3/3/51 64/22/52
f 65/23/53 66/24/54 67/25/53
f 68/24/54 69/26/54 70/25/53
f 71/22/55 72/27/56 73/21/55
f 72/27/56 74/28/56 75/21/55
f 72/27/56 76/3/57 74/28/56
f 77/3/57 78/29/58 74/28/59
f 79/3/57 80/22/60 81/1/60
f 82/22/61 83/21/61 84/1/61
f 85/30/62 86/31/62 87/32/62
f 86/31/62 88/33/62 89/32/62
f 90/34/63 91/23/64 92/35/63
f 93/23/53 94/25/53 95/35/65
f 20/5/17 96/4/16 97/36/66
f 98/4/16 99/37/67 97/36/68
f 21/4/18 20/5/17 100/37/69
f 20/5/17 97/36/66 101/37/69
f 102/11/30 26/9/70 99/37/67
f 26/9/70 97/36/68 99/37/67
f 97/36/68 26/9/70 103/37/71
f 26/9/23 28/11/25 104/37/72
f 105/12/28 106/11/30 107/38/73
f 108/11/30 99/37/74 107/38/73
f 109/39/75 30/13/27 107/38/73
f 30/13/27 110/12/76 107/38/73
f 107/38/73 99/37/74 22/6/19
f 99/37/74 111/4/16 22/6/19
f 24/8/21 109/39/75 22/6/19
f 109/39/75 107/38/73 22/6/19
f 112/6/22 113/38/77 24/8/78
f 114/38/77 109/39/75 24/8/21
f 115/6/38 21/4/79 116/38/77
f 21/4/39 117/37/69 118/38/80
f 119/38/77 29/12/26 109/39/75
f 29/12/26 30/13/27 109/39/75
f 120/38/77 121/37/69 29/12/81
f 122/37/82 28/11/25 29/12/26
f 123/40/83 124/41/83 125/42/31
f 126/41/84 127/43/85 125/42/85
f 125/42/31 128/44/31 129/40/1
f 128/44/83 130/45/83 131/40/1
f 132/46/1 133/47/1 134/48/1
f 135/47/86 136/49/1 137/48/86
f 138/46/86 35/14/31 139/47/87
f 35/14/31 37/16/32 140/47/31
f 141/3/88 142/22/89 143/1/88
f 144/22/89 145/21/89 146/1/90
f 147/47/91 148/16/42 149/46/91
f 150/16/42 151/14/42 152/46/92
f 153/48/41 154/49/41 155/46/41
f 156/49/41 157/47/41 158/46/41
f 159/22/89 160/3/93 161/21/89
f 162/3/93 163/1/93 164/21/94
f 165/40/92 166/50/3 167/51/92
f 168/50/95 169/44/95 170/51/96
f 171/3/93 172/22/97 173/1/93
f 174/22/98 175/21/99 176/1/93
f 177/51/92 178/43/92 179/40/92
f 180/43/41 181/41/41 182/40/41
f 183/22/100 184/3/101 185/21/102
f 186/3/103 187/1/103 188/21/100
f 189/18/31 37/16/32 40/19/1
f 37/16/32 36/15/31 40/19/1
f 190/22/104 191/3/105 192/21/104
f 193/3/105 194/1/106 195/21/107
f 196/22/108 197/3/88 198/21/108
f 199/3/88 200/1/88 201/21/108
f 202/3/105 203/22/108 204/1/109
f 205/22/108 206/21/108 207/1/105
f 208/19/110 209/15/3 210/18/110
f 211/15/111 212/16/111 213/18/111
f 214/21/31 215/1/1 216/22/31
f 217/1/1 218/3/31 219/22/31
f 220/22/31 221/3/1 222/21/31
f 223/3/112 224/1/112 225/21/31
f 226/22/113 227/3/114 228/21/1
f 229/3/114 230/1/85 231/21/85
f 232/3/115 233/22/113 234/1/116
f 235/22/113 236/21/117 237/1/118
f 238/22/119 239/3/120 240/21/121
f 241/3/122 242/1/122 243/21/121
f 244/3/122 245/22/123 246/1/122
f 247/22/123 248/21/123 249/1/122
f 250/3/124 251/22/125 252/1/126
f 253/22/127 254/21/128 255/1/129
f 256/22/41 257/3/41 258/21/130
f 259/3/41 260/1/126 261/21/130
f 262/21/128 263/1/131 264/22/41
f 265/1/132 266/3/41 267/22/3
f 268/22/133 269/3/134 270/21/135
f 271/3/134 272/1/136 273/21/128
f 274/21/42 275/1/41 276/22/42
f 277/1/41 278/3/41 279/22/3
f 280/3/137 281/22/138 282/1/136
f 283/22/139 284/21/139 285/1/136
