# Blender v2.74 (sub 0) OBJ File: ''
# www.blender.org
mtllib jacksgun.mtl
o jacksgun
v -0.014272 0.108293 0.191186
v -0.019062 0.108293 0.090903
v 0.016475 0.108293 0.191186
v -0.021294 0.122558 -0.066569
v -0.019062 0.094355 -0.023122
v -0.021294 0.141991 0.001714
v -0.019062 -0.062073 0.030438
v -0.019062 -0.039560 0.039417
v -0.019062 -0.066406 -0.025798
v -0.019062 -0.039560 0.039417
v -0.019062 -0.062073 0.030438
v -0.014220 -0.047273 0.068299
v -0.021294 0.158787 0.556872
v -0.019062 0.135648 0.303594
v 0.001102 0.138623 0.556872
v 0.021265 -0.052050 -0.059261
v -0.019062 0.067835 -0.010111
v 0.021265 0.067835 -0.010111
v 0.023497 0.158787 0.556872
v 0.021265 0.135648 0.303594
v 0.021265 0.108293 0.090903
v 0.023497 0.211356 0.088776
v -0.021294 0.211356 0.088776
v -0.021294 0.187277 0.001714
v 0.023497 0.158787 0.556872
v -0.021294 0.158787 0.556872
v 0.001102 0.138623 0.556872
v -0.019062 -0.073049 0.025401
v -0.019062 -0.066406 -0.025798
v 0.021265 -0.073049 0.025401
v -0.021294 0.200563 -0.109976
v -0.021294 0.141991 -0.127138
v -0.021294 0.196322 -0.135217
v 0.016475 0.108293 0.191186
v 0.021265 0.135648 0.303594
v -0.014272 0.108293 0.191186
v 0.021265 0.135648 0.303594
v -0.019062 -0.073049 0.025401
v 0.019764 0.211356 0.274856
v -0.017561 0.193685 0.340319
v 0.019764 0.193685 0.340319
v -0.014220 -0.058901 0.063561
v -0.021294 0.200563 -0.109976
v -0.021294 0.230150 -0.114883
v 0.023497 0.200563 -0.109976
v 0.019764 0.193685 0.340319
v 0.019764 0.193020 0.556872
v -0.021294 0.141991 -0.127138
v 0.023497 0.141991 -0.127138
v 0.023497 0.221640 0.088776
v 0.023497 0.221640 -0.042594
v 0.023497 0.141991 -0.127138
v 0.033194 0.168014 -0.137056
v 0.023497 0.141991 0.001714
v 0.021265 0.094355 -0.023122
v -0.019062 0.100750 -0.067548
v 0.021265 0.100750 -0.067548
v -0.017561 0.193020 0.556872
v -0.017561 0.193685 0.340319
v 0.023497 0.221640 0.088776
v -0.021294 0.211356 0.088776
v 0.023497 0.211356 0.088776
v 0.016424 -0.058901 0.063561
v 0.021265 -0.062073 0.030438
v 0.016424 -0.047273 0.068299
v -0.019062 -0.039560 0.039417
v -0.014220 -0.047273 0.068299
v 0.021265 -0.039560 0.039417
v -0.021294 0.221640 -0.042594
v -0.021294 0.221640 0.088776
v 0.021265 -0.073049 0.025401
v 0.021265 -0.062073 0.030438
v -0.019062 -0.073049 0.025401
v -0.021294 0.141991 -0.127138
v -0.021294 0.141991 0.001714
v -0.030990 0.168014 -0.137056
v -0.021294 0.187277 0.001714
v -0.030990 0.168014 -0.137056
v -0.017561 0.211356 0.274856
v -0.021294 0.196322 -0.135217
v -0.021294 0.200563 -0.109976
v 0.023497 0.122558 -0.066569
v 0.023497 0.141991 0.001714
v 0.021265 0.094355 -0.023122
v -0.018266 -0.072710 -0.053009
v -0.019062 -0.052050 -0.059261
v -0.019062 0.108293 0.090903
v -0.021294 0.200563 -0.109976
v -0.021294 0.237106 -0.070445
v -0.021294 0.230150 -0.114883
v 0.019764 0.211356 0.274856
v 0.021265 0.108293 0.090903
v -0.019062 0.108293 0.090903
v -0.014220 -0.058901 0.063561
v 0.021265 -0.066406 -0.025798
v -0.018266 -0.072710 -0.053009
v 0.021265 -0.062073 0.030438
v 0.021265 -0.039560 0.039417
v -0.019062 -0.052050 -0.059261
v -0.021294 0.122571 -0.131523
v 0.023497 0.122571 -0.131523
v 0.023497 0.230150 -0.114883
v -0.021294 0.221640 -0.042594
v -0.021294 0.221640 0.088776
v 0.023497 0.221640 -0.042594
v -0.021294 0.221640 0.088776
v -0.021294 0.211356 0.088776
v -0.017561 0.211356 0.274856
v 0.023497 0.211356 0.088776
v 0.023497 0.200563 -0.109976
v 0.023497 0.196322 -0.135217
v 0.023497 0.200563 -0.109976
v 0.001102 0.222554 0.556989
v 0.001102 0.222554 0.536265
v -0.005215 0.209112 0.556989
v 0.007379 0.209112 0.556989
v 0.001102 0.222554 0.556989
v -0.005215 0.209112 0.556989
v 0.007379 0.209112 0.556989
v 0.001102 0.209268 0.526307
v -0.006559 0.229001 0.101005
v -0.006559 0.210964 0.118219
v -0.006559 0.229001 0.118049
v 0.008762 0.229001 0.101005
v 0.008762 0.220974 0.088698
v -0.006559 0.229001 0.101005
v -0.006559 0.229001 0.118049
v -0.006559 0.210964 0.088319
v 0.008762 0.229001 0.118049
v -0.006559 0.220974 0.088698
v 0.008762 0.220974 0.088698
v 0.008762 0.210964 0.088319
v 0.001102 0.073108 0.093944
v -0.003335 0.062002 0.128607
v 0.001102 0.072952 0.138578
v -0.003335 0.058504 0.073572
v -0.003335 0.108293 0.090903
v 0.005539 0.062002 0.128607
v -0.002892 0.108345 0.102923
v 0.005095 0.108345 0.102923
v 0.001102 0.079725 0.117162
v -0.003335 0.058504 0.073572
v 0.005539 0.058504 0.073572
v 0.001102 0.108398 0.112072
v -0.003335 0.054223 0.163271
v 0.005539 0.095138 0.163949
v -0.003335 0.073643 0.154161
v 0.005539 0.073643 0.154161
v -0.003335 0.062002 0.128607
v -0.003335 0.054223 0.163271
v 0.005539 0.054223 0.163271
v -0.003335 0.108293 0.191186
v -0.003335 0.095138 0.163949
v 0.005539 0.108293 0.191186
v 0.005539 0.095138 0.163949
v 0.001102 0.108293 0.152908
v -0.003335 0.095138 0.163949
v 0.005539 0.108293 0.191186
v -0.010161 0.193020 0.556872
v -0.005215 0.209112 0.556989
v -0.010161 0.193359 0.477640
v 0.001102 0.209438 0.492375
v -0.005215 0.209112 0.556989
v 0.012364 0.193359 0.477640
v -0.010161 0.193020 0.556872
v 0.012364 0.193020 0.556872
v 0.023497 0.187277 0.001714
v 0.023497 0.122571 -0.131523
v 0.023497 0.141991 -0.127138
v -0.017561 0.193020 0.556872
v 0.019764 0.193020 0.556872
v 0.020469 -0.072710 -0.053009
v 0.023497 0.196322 -0.135217
v 0.023497 0.141991 -0.127138
v 0.021265 0.100750 -0.067548
v 0.021265 0.067835 -0.010111
v -0.019062 0.094355 -0.023122
v -0.019062 0.067835 -0.010111
v 0.023497 0.122558 -0.066569
v -0.021294 0.122558 -0.066569
v -0.021294 0.141991 -0.127138
v -0.021294 0.230150 -0.114883
v -0.021294 0.237106 -0.070445
v 0.023497 0.230150 -0.114883
v 0.019764 0.193020 0.556872
v -0.017561 0.193020 0.556872
v 0.016424 -0.058901 0.063561
v 0.023497 0.221640 0.088776
v 0.023497 0.237106 -0.070445
v 0.016475 0.108293 0.191186
v 0.023497 0.187277 0.001714
v -0.021294 0.122571 -0.131523
v 0.020469 -0.072710 -0.053009
v -0.019062 -0.052050 -0.059261
v 0.021265 -0.052050 -0.059261
v -0.021294 0.122571 -0.131523
v 0.033194 0.168014 -0.137056
v -0.019062 -0.062073 0.030438
v -0.019062 0.100750 -0.067548
v -0.014272 0.108293 0.191186
v -0.019062 0.135648 0.303594
v 0.021265 0.108293 0.090903
v -0.018266 -0.072710 -0.053009
v -0.019062 0.067835 -0.010111
v 0.023497 0.122571 -0.131523
v 0.008762 0.210964 0.118219
v -0.006559 0.210964 0.118219
v -0.006559 0.229001 0.118049
v -0.006559 0.220974 0.088698
v -0.003335 0.054223 0.163271
v -0.003335 0.108293 0.191186
v 0.005539 0.108293 0.090903
v -0.003335 0.073643 0.154161
v -0.003335 0.095138 0.163949
v 0.001102 0.108293 0.096867
v -0.010161 0.193359 0.477640
vt -0.459426 -0.345531
vt -0.384045 -0.345531
vt -0.459426 -0.296640
vt -0.097354 -0.264321
vt -0.156163 -0.305856
vt -0.194098 -0.230903
vt -0.323618 -0.589160
vt -0.323618 -0.533280
vt -0.236183 -0.608386
vt -0.363414 -0.695578
vt -0.321512 -0.695578
vt -0.363414 -0.762383
vt -0.990295 -0.214881
vt -0.617817 -0.237068
vt -0.990295 -0.262703
vt -0.173986 -0.583972
vt -0.109714 -0.359203
vt -0.173986 -0.359203
vt -0.323618 -0.281564
vt -0.323618 -0.125980
vt -0.194098 -0.157781
vt -0.983612 -0.628040
vt -0.809381 -0.628040
vt -0.896512 -0.706229
vt -0.323618 -0.656606
vt -0.236183 -0.656606
vt -0.323618 -0.608386
vt -0.137486 -0.767479
vt -0.137516 -0.939695
vt -0.222480 -0.767479
vt -0.459426 -0.296823
vt -0.617817 -0.296823
vt -0.459426 -0.345653
vt -0.617817 -0.290414
vt -0.580157 -0.080538
vt -0.670003 -0.006989
vt -0.670003 -0.080538
vt -0.321512 -0.762383
vt -0.010163 -0.767479
vt -0.010163 -0.688925
vt -0.670003 -0.146977
vt -0.990295 -0.146977
vt -0.010163 -0.939695
vt -0.323618 -0.107089
vt -0.131260 -0.107089
vt -0.694662 -0.991577
vt -0.673147 -0.927824
vt -0.990295 -0.991577
vt -0.076571 -0.552263
vt -0.009552 -0.492264
vt -0.076571 -0.492264
vt -0.781518 -0.109836
vt -0.839167 -0.128117
vt -0.781518 -0.128117
vt -0.425428 -0.695578
vt -0.425428 -0.762383
vt -0.363414 -0.875362
vt -0.363414 -0.840114
vt -0.425428 -0.875362
vt -0.990295 -0.886258
vt -0.222480 -0.867946
vt -0.580157 -0.125980
vt -0.673147 -0.847377
vt -0.734336 -0.847377
vt -0.173986 -0.608386
vt -0.011017 -0.129124
vt -0.079653 -0.081179
vt -0.011017 -0.081179
vt -0.363414 -0.464309
vt -0.425428 -0.464309
vt -0.425428 -0.792047
vt -0.173986 -0.656606
vt -0.109714 -0.583972
vt -0.010163 -0.991577
vt -0.137486 -0.991577
vt -0.137486 -0.688925
vt -0.126347 -0.006989
vt -0.318674 -0.006989
vt -0.126347 -0.081179
vt -0.839167 -0.109836
vt -0.323923 -0.006989
vt -0.580157 -0.006989
vt -0.323923 -0.080538
vt -0.638447 -0.383770
vt -0.566912 -0.383770
vt -0.638447 -0.446425
vt -0.922788 -0.392865
vt -0.955840 -0.350017
vt -0.990295 -0.392865
vt -0.531266 -0.446425
vt -0.887356 -0.786859
vt -0.932463 -0.832118
vt -0.932463 -0.786859
vt -0.854396 -0.786859
vt -0.887356 -0.748924
vt -0.932463 -0.748924
vt -0.854396 -0.832118
vt -0.854396 -0.748924
vt -0.854396 -0.806116
vt -0.546434 -0.615802
vt -0.623371 -0.654744
vt -0.655232 -0.615802
vt -0.496017 -0.654744
vt -0.523972 -0.539750
vt -0.468520 -0.867458
vt -0.508652 -0.949034
vt -0.496017 -0.675588
vt -0.508652 -0.867336
vt -0.708548 -0.654744
vt -0.692282 -0.569231
vt -0.715873 -0.615802
vt -0.692282 -0.615802
vt -0.623371 -0.675588
vt -0.708548 -0.675588
vt -0.598376 -0.936644
vt -0.598376 -0.887448
vt -0.574328 -0.936644
vt -0.574328 -0.887448
vt -0.655232 -0.539750
vt -0.752434 -0.539750
vt -0.922788 -0.442427
vt -0.692740 -0.442427
vt -0.736808 -0.379284
vt -0.922788 -0.368877
vt -0.990295 -0.442427
vt -0.009735 -0.264290
vt -0.009735 -0.230903
vt -0.990295 -0.006989
vt -0.990295 -0.080538
vt -0.097354 -0.296762
vt -0.076571 -0.611621
vt -0.009552 -0.552263
vt -0.076571 -0.452925
vt -0.009552 -0.452925
vt -0.011017 -0.006989
vt -0.079653 -0.006989
vt -0.983612 -0.495254
vt -0.809381 -0.495254
vt -0.363414 -0.792047
vt -0.318674 -0.081179
vt -0.009552 -0.348979
vt -0.800470 -0.794794
vt -0.749443 -0.749535
vt -0.800470 -0.749535
vt -0.425428 -0.840114
vt -0.617817 -0.345653
vt -0.384045 -0.296640
vt -0.749443 -0.794794
vt -0.009552 -0.611621
vt -0.076571 -0.348979
vt -0.978362 -0.832118
vt -0.978362 -0.786859
vt -0.733268 -0.654744
vt -0.715873 -0.569231
vt -0.546434 -0.539750
vt -0.692740 -0.338481
vn -0.270600 -0.951000 0.149600
vn -0.895500 -0.417900 0.153200
vn 0.270600 -0.959300 0.081300
vn -0.869900 -0.232300 -0.435100
vn -0.815200 -0.424200 -0.394300
vn -0.997500 -0.068400 0.015600
vn -0.808700 -0.514600 0.284800
vn -0.907400 0.045300 0.417800
vn -0.799700 -0.600300 -0.010100
vn -0.907400 0.045200 0.417800
vn -0.808700 -0.514700 0.284800
vn -0.658400 0.478400 0.581100
vn -0.650300 -0.146600 0.745400
vn -0.880100 -0.471200 0.058400
vn -0.000000 -0.909500 0.415800
vn 0.723900 0.102500 -0.682300
vn -0.735100 0.078000 -0.673400
vn 0.735100 -0.122900 -0.666700
vn 0.779800 -0.175800 0.600800
vn 0.812600 -0.576100 0.088200
vn 0.900200 -0.318300 0.297200
vn 0.952400 0.270000 0.141500
vn -0.951400 0.133800 0.277300
vn -0.997500 0.065800 0.025400
vn 0.000100 -0.909400 0.415800
vn -0.373000 -0.681100 0.630000
vn 0.373000 -0.895400 0.243000
vn -0.846100 0.170100 -0.505100
vn -0.351500 0.061600 -0.934200
vn 0.534800 0.185400 -0.824400
vn 0.270600 -0.959300 0.081200
vn 0.812700 -0.576000 0.088200
vn 0.812700 -0.576000 0.088100
vn -0.373000 -0.681100 0.630100
vn 0.550700 0.821000 0.150700
vn -0.690200 0.713600 0.119600
vn 0.690000 0.721300 0.060200
vn -0.335400 -0.615600 0.713100
vn -0.846200 0.170200 -0.505000
vn -0.409500 0.270500 -0.871300
vn 0.852800 0.094000 -0.513700
vn 0.398300 0.444100 0.802600
vn 0.352400 0.076900 -0.932700
vn 0.408200 0.408200 0.816500
vn 0.717200 0.687200 0.116000
vn 0.352500 0.077000 -0.932600
vn 0.971900 0.033400 -0.233100
vn 0.997500 -0.068400 0.015600
vn 0.811200 -0.533900 -0.238700
vn -0.380900 -0.779600 -0.497200
vn 0.386100 -0.388700 -0.836600
vn -0.391500 0.830400 0.396500
vn 0.408200 0.408300 0.816500
vn 0.952400 0.270100 0.141500
vn 0.338900 -0.834200 0.435000
vn 0.803000 -0.394100 0.447100
vn 0.633400 0.029100 0.773300
vn -0.658400 0.478400 0.581000
vn 0.912900 0.282600 0.294700
vn -0.717200 0.657100 0.232100
vn -0.408200 0.816500 0.408200
vn -0.373000 -0.681200 0.630000
vn -0.351500 0.061500 -0.934200
vn -0.971900 0.033400 -0.233100
vn -0.997500 0.065800 0.025300
vn -0.971900 0.033400 -0.233200
vn -0.550900 0.830800 0.079000
vn 0.534800 0.185300 -0.824400
vn -0.846200 0.170100 -0.505000
vn 0.863200 -0.456400 -0.215800
vn 0.811200 -0.533700 -0.238900
vn -0.392300 -0.896400 -0.206100
vn -0.722600 -0.058800 -0.688800
vn -0.573700 0.817500 0.050600
vn -0.409500 0.270600 -0.871200
vn 0.550700 0.821000 0.150800
vn -0.335400 -0.615700 0.713100
vn 0.800000 -0.597000 0.060700
vn -0.442000 -0.786500 -0.431300
vn 0.442000 -0.247200 -0.862300
vn 0.409400 0.742100 -0.530600
vn -0.717200 0.657000 0.232300
vn -0.408200 0.816500 0.408300
vn 0.717200 0.687100 0.116100
vn -0.951400 0.133800 0.277200
vn 0.852800 0.094200 -0.513700
vn -0.534800 0.185300 -0.824400
vn 0.000700 0.647000 0.762500
vn 0.001100 0.945100 -0.326900
vn -0.766900 0.525800 0.368000
vn 0.700200 0.478300 0.530000
vn 0.000700 0.646900 0.762600
vn -0.766900 0.525700 0.368000
vn 0.700300 0.478200 0.530000
vn 0.000400 0.599800 -0.800200
vn -0.720200 0.642200 -0.262300
vn -0.707100 0.006600 0.707100
vn -0.407000 0.817800 0.406900
vn 0.720200 0.681300 -0.131200
vn 0.447200 0.749200 -0.488600
vn -0.720200 0.642300 -0.262200
vn -1.000000 -0.000000 0.000000
vn 0.407000 0.414600 0.813900
vn -0.707100 0.592300 -0.386300
vn 1.000000 0.000000 0.000000
vn -0.000000 0.537400 0.843300
vn -0.820300 -0.564300 -0.093600
vn -0.407600 0.721500 -0.559700
vn -0.723400 -0.674800 0.145900
vn -0.893000 -0.074200 0.443900
vn 0.901000 -0.424500 -0.088800
vn -0.826800 -0.338800 -0.449100
vn 0.826800 -0.338800 -0.449100
vn -0.000000 -0.951900 -0.306500
vn -0.723400 -0.674800 0.146000
vn 0.914600 -0.373800 0.154000
vn 0.000100 0.174800 0.984600
vn -0.805600 0.028200 0.591800
vn 0.815200 -0.358500 0.454900
vn -0.652000 -0.138000 0.745600
vn 0.745300 0.301600 0.594700
vn -0.820300 -0.564300 -0.093500
vn 0.530700 -0.810400 0.248100
vn -0.792900 -0.548700 0.265000
vn -0.809900 -0.492800 0.318200
vn 0.485000 -0.787600 0.380100
vn 0.815300 -0.358500 0.454800
vn -0.000000 0.671700 -0.740800
vn 0.485000 -0.787500 0.380300
vn -0.427600 0.124900 0.895300
vn -0.698900 0.637100 -0.325200
vn 0.000100 0.957300 -0.289300
vn -0.766900 0.525700 0.368100
vn 0.698500 0.637600 -0.324900
vn 0.675700 0.204200 0.708300
vn 0.000100 0.957300 -0.289200
vn 0.997500 0.065800 0.025300
vn 0.441900 -0.247200 -0.862300
vn 0.352400 0.077000 -0.932700
vn -0.391500 0.830400 0.396400
vn 0.398300 0.444000 0.802600
vn 0.392800 -0.628300 -0.671500
vn 0.852800 0.094200 -0.513600
vn -0.534800 0.185400 -0.824400
vn 0.352500 0.076900 -0.932600
vn 0.386100 -0.388600 -0.836600
vn -0.815300 -0.424100 -0.394300
vn -0.735100 0.077900 -0.673400
vn -0.409400 0.270600 -0.871300
vn -0.573700 0.817500 0.050500
vn 0.409500 0.742100 -0.530600
vn 0.338800 -0.834200 0.435000
vn 0.573700 0.784900 0.234100
vn 0.997500 0.065800 0.025400
vn -0.442000 -0.786600 -0.431300
vn -0.441900 -0.786600 -0.431200
vn -0.808800 -0.514600 0.284700
vn -0.380900 -0.779500 -0.497200
vn -0.392400 -0.896400 -0.206100
vn 0.442000 -0.247300 -0.862300
vn 0.894400 0.004200 0.447200
vn -0.707100 0.006300 0.707100
vn -0.406900 0.817800 0.406900
vn -0.805600 0.028300 0.591800
vn -0.793000 -0.548600 0.264900
vn 0.893000 -0.074200 0.443900
vn -0.652000 -0.137700 0.745600
vn -0.809800 -0.492900 0.318100
vn 0.000000 -0.082800 0.996600
usemtl Model001_Material001.003
s 1
f 1/1/1 2/2/2 3/3/3
f 4/4/4 5/5/5 6/6/6
f 7/7/7 8/8/8 9/9/9
f 10/10/10 11/11/11 12/12/12
f 13/13/13 14/14/14 15/15/15
f 16/16/16 17/17/17 18/18/18
f 19/13/19 15/15/15 20/14/20
f 21/19/21 22/20/22 20/14/20
f 6/6/6 23/20/23 24/21/24
f 25/22/19 26/23/13 27/24/25
f 28/25/26 29/26/9 30/27/27
f 31/28/28 32/29/29 33/30/30
f 34/31/31 35/32/32 36/33/1
f 37/34/33 15/15/15 14/14/14
f 7/7/7 9/9/9 38/27/34
f 39/35/35 40/36/36 41/37/37
f 42/38/38 12/12/12 11/11/11
f 43/39/39 44/40/40 45/28/41
f 19/13/19 46/41/37 47/42/42
f 48/43/29 43/39/39 49/29/43
f 50/44/44 22/20/22 51/45/45
f 52/46/46 53/47/47 54/48/48
f 55/49/49 56/50/50 57/51/51
f 58/42/52 59/41/36 13/13/13
f 60/52/53 61/53/23 62/54/54
f 63/38/55 64/11/56 65/12/57
f 66/55/10 67/56/58 68/10/59
f 69/45/60 23/20/23 70/44/61
f 71/57/27 72/58/56 73/59/62
f 74/46/63 75/48/6 76/47/64
f 76/47/64 75/48/6 77/60/65
f 32/29/29 78/61/66 33/30/30
f 79/62/67 23/20/23 14/14/14
f 80/63/68 76/47/64 81/64/69
f 82/4/70 83/6/48 84/5/71
f 85/65/72 9/9/9 86/16/73
f 14/14/14 23/20/23 87/19/2
f 88/66/28 89/67/74 90/68/75
f 20/14/20 46/41/37 19/13/19
f 46/41/37 20/14/20 91/62/76
f 59/41/36 79/62/67 14/14/14
f 14/14/14 13/13/13 59/41/36
f 66/55/10 92/69/21 93/70/2
f 65/12/57 68/10/59 67/56/58
f 67/56/58 94/71/77 65/12/57
f 95/9/78 30/27/27 29/26/9
f 29/26/9 96/72/72 95/9/78
f 97/7/56 95/9/78 98/8/59
f 99/73/73 17/17/17 16/16/16
f 100/74/79 48/43/29 101/75/80
f 102/76/81 45/28/41 44/40/40
f 103/77/82 104/78/83 105/79/84
f 106/80/61 61/53/23 60/52/53
f 107/81/85 108/82/67 109/83/22
f 110/66/86 51/45/45 22/20/22
f 77/60/65 81/64/69 76/47/64
f 111/63/87 112/64/86 53/47/47
f 113/84/88 114/85/89 115/86/90
f 116/87/91 117/88/92 118/89/93
f 114/85/89 119/86/94 120/90/95
f 119/86/94 114/85/89 113/84/88
f 121/91/96 122/92/97 123/93/98
f 124/91/99 125/94/100 126/95/101
f 126/95/101 127/96/98 124/91/99
f 122/92/97 121/91/96 128/97/102
f 129/93/103 124/91/99 127/96/98
f 130/98/104 126/95/101 125/94/100
f 131/99/100 124/91/99 132/97/105
f 133/100/106 134/101/107 135/102/108
f 136/103/109 133/100/106 137/104/110
f 135/102/108 138/101/111 133/100/106
f 139/105/112 140/105/113 141/106/114
f 138/101/111 142/107/115 143/103/116
f 141/106/114 144/108/117 139/105/112
f 135/102/108 134/101/107 145/109/118
f 146/110/119 147/111/120 148/112/121
f 136/103/109 134/101/107 133/100/106
f 149/113/122 142/107/115 138/101/111
f 146/110/119 148/112/121 135/102/108
f 150/114/118 149/113/122 151/109/123
f 152/115/124 153/116/125 154/117/126
f 155/118/127 154/117/126 153/116/125
f 138/101/111 151/109/123 149/113/122
f 156/119/128 135/102/108 157/110/125
f 156/119/128 158/120/129 146/110/119
f 146/110/119 135/102/108 156/119/128
f 159/121/130 160/87/93 161/122/131
f 162/123/132 163/124/133 116/87/91
f 162/123/132 116/87/91 164/122/134
f 116/87/91 165/125/130 166/121/135
f 162/123/136 161/122/131 160/87/93
f 92/69/21 66/55/10 68/10/59
f 167/60/137 53/47/47 112/64/86
f 168/126/138 169/127/139 82/4/70
f 41/37/37 170/128/140 171/129/141
f 16/16/16 98/8/59 95/9/78
f 172/65/142 95/9/78 96/72/72
f 54/48/48 53/47/47 167/60/137
f 45/28/143 173/30/144 174/29/145
f 83/6/48 21/19/21 84/5/71
f 18/18/18 21/19/21 98/8/59
f 84/5/71 175/130/146 82/4/70
f 16/16/16 95/9/78 172/65/142
f 55/49/49 176/131/18 177/132/147
f 87/19/2 5/5/5 178/18/148
f 109/83/22 108/82/67 39/35/35
f 179/133/70 57/51/51 180/134/4
f 6/6/6 181/127/63 4/4/4
f 182/135/149 183/136/150 184/68/151
f 26/23/13 185/137/141 186/138/140
f 187/139/152 65/12/57 94/71/77
f 105/79/84 104/78/83 188/140/44
f 68/10/59 65/12/57 64/11/56
f 183/136/150 103/77/82 189/67/153
f 190/31/3 21/19/21 20/14/20
f 84/5/71 21/19/21 18/18/18
f 191/21/154 22/20/22 83/6/48
f 180/134/4 192/141/155 179/133/70
f 191/21/154 110/66/86 22/20/22
f 110/66/86 189/67/153 51/45/45
f 23/20/23 88/66/28 24/21/24
f 87/19/2 6/6/6 5/5/5
f 178/18/148 86/16/73 8/8/8
f 193/142/142 194/143/73 195/144/16
f 49/29/43 101/75/80 48/43/29
f 196/126/156 4/4/4 181/127/63
f 82/4/70 169/127/139 83/6/48
f 173/30/144 197/61/47 174/29/145
f 187/139/152 198/145/157 72/58/56
f 30/27/27 95/9/78 97/7/56
f 8/8/8 86/16/73 9/9/9
f 18/18/18 98/8/59 16/16/16
f 87/19/2 178/18/148 8/8/8
f 4/4/4 199/130/158 5/5/5
f 14/14/14 87/19/2 200/31/1
f 91/62/76 20/14/20 22/20/22
f 25/22/19 185/137/141 26/23/13
f 201/146/14 36/33/1 35/32/32
f 202/147/21 3/3/3 2/2/2
f 94/71/77 198/145/157 187/139/152
f 198/145/157 73/59/62 72/58/56
f 203/148/159 194/143/73 193/142/142
f 204/149/148 177/132/147 176/131/18
f 177/132/147 56/50/50 55/49/49
f 56/50/50 180/134/4 57/51/51
f 205/150/160 179/133/70 192/141/155
f 45/28/41 49/29/43 43/39/39
f 189/67/153 184/68/151 183/136/150
f 105/79/84 189/67/153 103/77/82
f 108/82/67 40/36/36 39/35/35
f 40/36/36 170/128/140 41/37/37
f 21/19/21 83/6/48 22/20/22
f 87/19/2 23/20/23 6/6/6
f 184/68/151 189/67/153 110/66/86
f 69/45/60 89/67/74 88/66/28
f 88/66/28 23/20/23 69/45/60
f 120/90/95 115/86/90 114/85/89
f 129/93/103 206/92/161 124/91/99
f 207/151/162 129/93/103 208/152/163
f 132/97/105 124/91/99 206/92/161
f 206/92/161 129/93/103 207/151/162
f 209/99/104 128/97/102 121/91/96
f 135/102/108 148/112/121 138/101/111
f 147/111/120 210/153/164 148/112/121
f 141/106/114 140/105/113 144/108/117
f 157/110/125 211/120/165 156/119/128
f 143/103/116 133/100/106 138/101/111
f 212/104/166 133/100/106 143/103/116
f 135/102/108 213/112/167 157/110/125
f 214/154/168 147/111/120 146/110/119
f 135/102/108 145/109/118 213/112/167
f 151/109/123 148/112/121 210/153/164
f 215/155/169 137/104/110 133/100/106
f 151/109/123 138/101/111 148/112/121
f 133/100/106 212/104/166 215/155/169
f 216/156/131 162/123/132 164/122/134
f 166/121/135 164/122/134 116/87/91
f 118/89/93 165/125/130 116/87/91
