# Blender v2.74 (sub 0) OBJ File: ''
# www.blender.org
mtllib kurasumesword.mtl
o Model001_7_0_01
v 0.054868 0.117843 0.084947
v 0.079960 0.117843 0.132753
v 0.027899 0.090874 0.084947
v -0.022071 -0.020315 0.058987
v 0.015497 -0.079013 0.087759
v -0.007651 -0.068699 -0.017448
v 0.027899 0.117843 1.612116
v 0.041601 0.130753 1.426583
v 0.014197 0.130753 1.426583
v 0.018165 -0.009427 -0.124528
v 0.027034 -0.026878 -0.136642
v 0.042104 0.034052 -0.220647
v 0.047874 -0.110234 -0.025956
v -0.045001 0.093109 0.146022
v -0.005272 -0.051394 0.024375
v -0.065770 0.116186 0.044421
v 0.088180 -0.049084 0.096843
v 0.072246 -0.073460 -0.041964
v 0.048450 -0.099417 0.015867
v 0.009151 0.117843 -0.328592
v -0.004693 0.117843 -0.066121
v 0.027899 0.138682 -0.318713
v 0.027899 0.098806 -0.249633
v 0.027899 0.193267 0.132753
v -0.024162 0.117843 0.132753
v 0.027899 0.170697 0.170105
v 0.096979 0.003339 0.212361
v 0.145652 0.015018 0.147895
v 0.059411 -0.096173 0.126409
v 0.127697 0.158874 0.308263
v 0.144064 0.120730 0.096917
v 0.113563 0.029802 0.154962
v 0.119260 0.128154 0.202626
v 0.027899 0.064990 0.170105
v 0.041601 0.104937 1.426583
v 0.027899 0.064990 1.481890
v 0.041601 0.104937 1.426583
v 0.014197 0.104937 1.426583
v 0.027899 0.085971 1.744074
v 0.045060 -0.061417 -0.153443
v 0.029052 0.034487 -0.250139
v 0.058112 -0.048795 -0.143420
v 0.014197 0.130753 1.426583
v 0.027899 0.170697 1.481890
v 0.027899 0.170697 0.170105
v 0.041601 0.130753 1.426583
v 0.041601 0.117843 0.170105
v 0.027899 0.149716 1.744074
v 0.027899 0.170697 1.481890
v 0.060491 0.117843 -0.066121
v 0.027899 0.144814 0.084947
v 0.026673 -0.083051 -0.056169
v 0.047442 -0.095453 -0.069941
v 0.048450 -0.099417 0.015867
v 0.014197 0.104937 1.426583
v 0.027899 0.064990 1.481890
v 0.027899 0.085971 1.744074
v 0.031217 -0.049303 -0.138300
v 0.072246 -0.073460 -0.041964
v 0.058112 -0.048795 -0.143420
v 0.029629 -0.080669 -0.091501
v 0.009727 -0.079157 -0.084075
v 0.027034 -0.026878 -0.136642
v 0.042104 0.034052 -0.220647
v 0.025879 0.087559 -0.321237
v -0.024162 0.117843 0.132753
v 0.027899 0.193267 0.132753
v 0.031217 -0.049303 -0.138300
v 0.027899 0.149716 1.744074
v 0.110822 -0.013680 -0.007208
v 0.000931 0.117843 0.084947
v 0.012107 -0.062280 -0.069797
v 0.029629 -0.080669 -0.091501
v 0.027899 0.042419 0.132753
v 0.123515 0.063332 0.079250
v 0.088180 -0.049084 0.096843
v 0.072246 -0.073460 -0.041964
v 0.065755 0.119213 -0.337894
v 0.029558 0.070755 -0.371424
v 0.022852 0.132841 -0.441298
v 0.026096 0.026988 -0.219709
v 0.006845 -0.018221 -0.133757
v 0.011674 0.042563 -0.214157
v 0.026096 0.026988 -0.219709
v 0.056309 0.119863 -0.330180
v 0.035399 0.164569 -0.305158
v 0.044916 0.117843 -0.237808
v 0.088180 -0.049084 0.096843
v 0.022852 0.132841 -0.441298
v 0.003887 0.088280 -0.360969
v -0.029499 0.138323 -0.372289
v 0.079960 0.117843 0.132753
v 0.072246 -0.073460 -0.041964
v 0.009151 0.117843 -0.328592
v 0.005401 0.078687 -0.306526
v 0.025879 0.087559 -0.321237
v 0.029558 0.070755 -0.371424
v 0.042466 0.072990 -0.300182
v 0.042466 0.072990 -0.300182
v -0.000655 0.130753 -0.374815
v -0.011833 0.126136 -0.328953
v 0.034966 0.157431 -0.357940
v 0.005401 0.078687 -0.306526
v 0.027899 0.085251 -0.066121
v -0.007651 -0.068699 -0.017448
v -0.000655 0.130753 -0.374815
v 0.034966 0.157431 -0.357940
v -0.029499 0.138323 -0.372289
v 0.042104 0.034052 -0.220647
v 0.027899 0.042419 0.132753
v 0.027899 0.064990 0.170105
v 0.014198 0.117843 0.170105
v 0.014197 0.104937 1.426583
v 0.014197 0.130753 1.426583
v 0.026673 -0.083051 -0.056169
v 0.039869 0.175168 -0.336741
v 0.035975 0.177835 -0.375894
v 0.048450 -0.099417 0.015867
v 0.056309 0.119863 -0.330180
v 0.039869 0.175168 -0.336741
v 0.026096 0.026988 -0.219709
v 0.027899 0.117843 1.612116
v 0.041601 0.104937 1.426583
v 0.041601 0.130753 1.426583
v 0.034966 0.157431 -0.357940
v 0.042466 0.072990 -0.300182
v 0.039869 0.175168 -0.336741
v 0.035975 0.177835 -0.375894
v 0.072246 -0.073460 -0.041964
v 0.110822 -0.013680 -0.007208
v 0.088180 -0.049084 0.096843
v 0.029558 0.070755 -0.371424
v 0.005474 -0.043099 0.124750
v 0.048450 -0.099417 0.015867
v 0.027899 0.149716 1.744074
v 0.027899 0.098806 -0.249633
v 0.025879 0.087559 -0.321237
v 0.009727 -0.079157 -0.084075
v 0.003887 0.088280 -0.360969
v 0.050612 -0.071872 0.173061
v 0.174782 0.175388 0.244303
v 0.029052 0.034487 -0.250139
v 0.029629 -0.080669 -0.091501
v 0.027899 0.150437 -0.066121
v 0.029052 0.034487 -0.250139
v 0.035399 0.164569 -0.305158
v -0.011833 0.126136 -0.328953
v 0.027899 0.138682 -0.318713
v 0.026673 -0.083051 -0.056169
v 0.048450 -0.099417 0.015867
v -0.005272 -0.051394 0.024375
v 0.035399 0.164569 -0.305158
v -0.118046 0.330417 0.130879
v 0.027899 0.085971 1.744074
v 0.072246 -0.073460 -0.041964
v 0.005401 0.078687 -0.306526
v 0.026096 0.026988 -0.219709
v 0.044916 0.117843 -0.237808
v -0.094539 0.294073 0.234712
v 0.065755 0.119213 -0.337894
v 0.042466 0.072990 -0.300182
v 0.048450 -0.099417 0.015867
v 0.056309 0.119863 -0.330180
v 0.026673 -0.083051 -0.056169
v 0.101882 -0.100136 0.032019
v 0.044916 0.117843 -0.237808
v 0.065755 0.119213 -0.337894
v 0.009727 -0.079157 -0.084075
v 0.047874 -0.110234 -0.025956
v 0.059411 -0.096173 0.126409
v 0.015497 -0.079013 0.087759
v 0.029629 -0.080669 -0.091501
v 0.096979 0.003339 0.212361
v 0.145652 0.015018 0.147895
v 0.127697 0.158874 0.308263
v 0.174782 0.175388 0.244303
v 0.101882 -0.100136 0.032019
v 0.119260 0.128154 0.202626
v 0.113563 0.029802 0.154962
v 0.144064 0.120730 0.096917
v 0.005474 -0.043099 0.124750
v 0.050612 -0.071872 0.173061
v 0.078951 -0.010292 0.254399
v -0.065770 0.116186 0.044421
v -0.045001 0.093109 0.146022
v -0.094539 0.294073 0.234712
v -0.118046 0.330417 0.130879
v 0.099573 0.165436 0.348571
v 0.119260 0.128154 0.202626
v 0.167715 0.454155 0.338837
v 0.130580 0.403677 0.457742
v 0.050612 -0.071872 0.173061
v 0.091209 0.132267 0.297304
v 0.140747 0.349383 0.230604
v 0.151348 0.503333 0.351456
v 0.082195 0.413775 0.494013
v 0.099573 0.165436 0.348571
v 0.119260 0.128154 0.202626
v 0.078951 -0.010292 0.254399
v 0.050612 -0.071872 0.173061
v 0.091209 0.132267 0.297304
v 0.082195 0.413775 0.494013
v 0.140747 0.349383 0.230604
v 0.151348 0.503333 0.351456
v 0.123515 0.063332 0.079250
v 0.167715 0.454155 0.338837
v 0.130580 0.403677 0.457742
v -0.022071 -0.020315 0.058987
vt 0.494797 -0.332377
vt 0.440107 -0.332377
vt 0.494797 -0.377270
vt 0.437513 -0.889615
vt 0.437513 -0.837336
vt 0.514969 -0.889615
vt 0.121067 -0.102176
vt 0.009705 -0.090823
vt 0.009705 -0.113529
vt 0.875759 -0.945250
vt 0.868068 -0.936430
vt 0.792505 -0.936430
vt 0.533158 -0.840968
vt 0.672384 -0.741783
vt 0.559435 -0.906491
vt 0.559435 -0.724052
vt 0.161657 -0.887845
vt 0.286782 -0.951323
vt 0.219947 -0.967101
vt 0.992584 -0.332377
vt 0.667714 -0.332377
vt 0.956664 -0.285806
vt 0.877682 -0.377270
vt 0.992706 -0.007294
vt 0.992706 -0.124149
vt 0.947813 -0.007904
vt 0.437513 -0.632191
vt 0.533158 -0.622181
vt 0.437513 -0.747734
vt 0.437513 -0.457778
vt 0.408246 -0.727805
vt 0.307230 -0.774010
vt 0.307230 -0.666829
vt 0.947813 -0.223853
vt 0.252571 -0.152593
vt 0.219550 -0.223853
vt 0.119266 -0.102390
vt 0.663594 -0.428449
vt 0.822840 -0.402997
vt 0.657704 -0.454756
vt 0.252571 -0.095706
vt 0.219550 -0.007904
vt 0.947813 -0.124149
vt 0.015625 -0.053987
vt 0.494797 -0.285806
vt 0.577288 -0.402997
vt 0.584063 -0.428449
vt 0.547472 -0.428449
vt 0.015625 -0.182653
vt 0.062319 -0.959990
vt 0.103519 -0.988647
vt 0.061037 -0.988647
vt 0.916166 -0.993408
vt 0.916715 -0.969237
vt 0.872860 -0.993408
vt 0.010559 -0.988647
vt 0.964568 -0.377270
vt 0.440107 -0.246071
vt 0.654988 -0.402997
vt 0.408246 -0.912046
vt 0.924741 -0.947111
vt 0.913663 -0.936430
vt 0.440107 -0.418683
vt 0.236244 -0.780786
vt 0.727256 -0.619251
vt 0.767846 -0.712363
vt 0.888424 -0.602435
vt 0.792505 -0.993408
vt 0.868892 -0.957854
vt 0.792505 -0.957854
vt 0.792505 -0.984466
vt 0.992584 -0.535539
vt 0.925718 -0.455031
vt 0.834071 -0.535539
vt 0.307230 -0.899319
vt 0.770440 -0.772454
vt 0.913388 -0.842036
vt 0.903684 -0.783258
vt 0.575549 -0.454756
vt 0.936094 -0.646779
vt 0.922788 -0.677572
vt 0.935850 -0.667135
vt 0.906308 -0.429579
vt 0.822840 -0.454756
vt 0.713858 -0.936430
vt 0.921262 -0.788812
vt 0.982025 -0.796472
vt 0.927000 -0.749901
vt 0.713858 -0.957854
vt 0.667714 -0.377270
vt 0.992584 -0.943571
vt 0.782617 -0.839473
vt 0.754204 -0.864193
vt 0.739067 -0.792657
vt 0.746574 -0.454756
vt 0.992706 -0.223853
vt 0.103519 -0.959990
vt 0.712394 -0.539781
vt 0.778283 -0.539781
vt 0.788934 -0.872005
vt 0.732780 -0.887112
vt 0.010559 -0.959990
vt 0.097842 -0.124149
vt 0.992584 -0.476058
vt 0.730644 -0.671560
vt 0.896176 -0.660543
vt 0.854030 -0.694906
vt 0.397473 -0.993408
vt 0.904111 -0.880215
vt 0.672384 -0.896237
vt 0.517991 -0.993408
vt 0.853267 -0.562059
vt 0.948515 -0.585589
vt 0.523881 -0.859249
vt 0.700491 -0.839473
vt 0.690207 -0.993408
vt 0.533158 -0.457778
vt 0.713858 -0.993408
vt 0.528520 -0.850093
vt 0.667714 -0.285806
vt 0.992584 -0.880215
vt 0.952422 -0.612964
vt 0.918546 -0.646779
vt 0.947172 -0.625843
vt 0.461989 -0.942289
vt 0.982025 -0.729759
vt 0.559435 -0.489853
vt 0.992584 -0.842036
vt 0.745262 -0.402997
vt 0.860439 -0.332377
vt 0.672384 -0.489853
vt 0.962798 -0.646107
vt 0.962798 -0.677572
vt 0.137577 -0.971892
vt 0.948576 -0.646107
vt 0.533158 -0.769982
vt 0.992584 -0.638386
vt 0.788934 -0.904569
vt 0.408246 -0.727378
vt 0.008271 -0.780786
vt 0.559435 -0.709311
vt 0.672384 -0.730338
vt 0.008271 -0.551592
vt 0.161016 -0.650685
vt 0.161016 -0.242988
vt 0.008271 -0.242988
vt 0.057649 -0.887845
vt 0.188330 -0.609577
vt 0.408246 -0.456862
vt 0.408246 -0.249489
vt 0.188330 -0.249489
vn 0.973500 -0.000000 -0.228600
vn 0.851600 0.000000 -0.524100
vn 0.000000 -0.955400 -0.295400
vn 0.863900 0.483000 -0.142700
vn 0.655500 0.747600 -0.106700
vn 0.707100 -0.707100 0.000000
vn 0.000100 -0.000000 1.000000
vn -0.000000 -0.004900 1.000000
vn 0.394800 0.707400 0.586300
vn 0.990600 -0.130600 0.041900
vn 0.821600 0.485300 0.299300
vn 0.370000 0.928600 0.028600
vn 0.939500 0.320400 -0.121300
vn 0.815800 0.569000 -0.103500
vn 0.940800 0.316900 -0.120300
vn -0.845300 0.527700 -0.083900
vn -0.874300 0.485200 0.015100
vn -0.723500 0.686600 -0.071700
vn -0.971100 -0.238400 0.010800
vn -0.999800 -0.015900 -0.009300
vn 0.067500 0.995000 -0.073800
vn -0.223900 -0.974100 -0.032600
vn 0.000000 0.855900 0.517200
vn -0.818100 -0.000000 0.575000
vn -0.898600 0.343300 0.273200
vn -0.720100 0.530300 -0.447600
vn -0.734800 0.526400 -0.427800
vn -0.304700 0.910700 -0.278900
vn -0.765100 0.434400 -0.475400
vn -0.964900 0.193200 -0.178000
vn -0.953900 0.272200 -0.126300
vn -0.957200 0.140700 -0.252800
vn 0.898600 -0.343300 0.273100
vn 0.956900 -0.290300 0.007000
vn 0.950800 -0.309700 0.011800
vn -0.000000 0.004900 1.000000
vn 0.000000 0.998200 0.059600
vn -0.205800 -0.835800 -0.508900
vn 0.428100 -0.717100 -0.550000
vn 0.819600 -0.444300 -0.361800
vn -0.956900 0.290300 0.007000
vn -0.950800 0.309700 0.011800
vn -0.000100 -0.000000 1.000000
vn 0.898600 0.343300 0.273100
vn 0.956900 0.290300 0.007000
vn 0.950700 0.000000 0.310000
vn 0.955200 0.295000 0.023600
vn 0.950800 0.309700 0.011800
vn 0.999100 -0.037200 -0.022200
vn 0.000000 0.955400 -0.295400
vn -0.658100 -0.726200 -0.199000
vn 0.292200 -0.927900 -0.231500
vn 0.101300 -0.993700 -0.047100
vn -0.956900 -0.290300 0.007000
vn -0.950800 -0.309700 0.011800
vn -0.955200 -0.295000 0.023600
vn -0.108600 0.850500 0.514600
vn -0.186900 0.936900 0.295400
vn 0.077700 0.866200 0.493600
vn -0.315400 -0.618900 -0.719400
vn -0.743300 -0.518800 -0.422200
vn -0.361900 -0.669200 -0.649000
vn -0.073700 0.705700 0.704600
vn -0.881000 -0.463000 0.097600
vn -0.851600 -0.000000 -0.524100
vn -0.000000 0.702300 -0.711800
vn -0.865200 -0.428600 -0.260400
vn 0.000000 -0.998200 0.059600
vn -0.916400 0.397500 -0.046600
vn -0.973500 -0.000000 -0.228600
vn -0.430400 0.766000 0.477500
vn 0.907700 -0.002800 0.419700
vn 0.000000 -0.702300 -0.711900
vn 0.959600 -0.271600 0.073800
vn 0.845300 -0.527700 0.083900
vn 0.874300 -0.485200 -0.015100
vn 0.963800 -0.063500 -0.259000
vn 0.851600 -0.449500 -0.269700
vn 0.918900 -0.062400 -0.389500
vn -0.661900 -0.663700 -0.348500
vn -0.965600 -0.187500 -0.180000
vn -0.554200 0.749200 0.362800
vn 0.319800 -0.793300 -0.518100
vn 0.997100 0.056800 0.050600
vn 0.911200 0.411200 0.026700
vn 0.915600 -0.386600 0.110600
vn -0.890700 0.452800 -0.039700
vn -0.776500 -0.179900 -0.603900
vn -0.807100 -0.525200 -0.269600
vn -0.785300 0.495600 -0.371000
vn 0.818100 -0.000000 0.575000
vn 0.743400 -0.652700 -0.145900
vn 0.159300 0.211500 0.964300
vn 0.210800 0.598300 0.773000
vn 0.229400 0.484700 0.844100
vn 0.863400 -0.484300 -0.141200
vn 0.785800 -0.573800 -0.230800
vn 0.205700 0.897100 0.390900
vn -0.909200 0.373600 -0.184000
vn -0.935100 0.326600 -0.137300
vn -0.588300 0.804500 -0.081200
vn -0.964000 -0.261100 -0.049500
vn 0.000000 -0.999800 -0.018300
vn -0.155200 -0.718900 0.677600
vn 0.063500 -0.089700 0.993900
vn -0.335600 -0.580200 0.742100
vn 0.078500 -0.358400 0.930300
vn 0.819300 -0.438900 -0.369000
vn 0.000000 -0.855900 0.517200
vn -0.898600 -0.343300 0.273100
vn -0.950700 0.000000 0.310000
vn -0.999300 -0.000000 0.036800
vn -0.999300 -0.000000 0.036700
vn -0.289800 0.901600 0.321200
vn 0.905400 0.420100 -0.061400
vn 0.919900 0.333500 -0.206400
vn 0.723500 -0.686600 0.071700
vn -0.236300 0.044900 0.970700
vn -0.096700 -0.378900 0.920400
vn -0.267400 0.694600 0.667800
vn 0.000000 -0.000100 1.000000
vn 0.999300 0.000000 0.036800
vn 0.999300 0.000000 0.036700
vn 0.888400 0.454000 -0.068700
vn 0.836300 -0.531400 -0.134900
vn -0.509200 0.853700 0.108800
vn -0.516200 0.840200 -0.165800
vn 0.840600 -0.541600 -0.001400
vn 0.916400 -0.397500 0.046600
vn 0.890700 -0.452800 0.039700
vn -0.621600 -0.694500 -0.362300
vn 0.755700 0.640300 -0.137500
vn 0.650200 0.753000 -0.101400
vn -0.955200 0.295000 0.023600
vn 0.714600 -0.693900 0.088800
vn 0.725500 -0.683300 0.082500
vn 0.416600 0.886700 0.200600
vn 0.166000 0.321600 0.932200
vn 0.635500 0.759000 -0.141700
vn -0.779000 0.420900 -0.464800
vn -0.700900 -0.673700 -0.234100
vn 0.202000 0.912600 0.355400
vn -0.000000 1.000000 -0.004600
vn -0.736100 -0.659400 -0.152900
vn -0.667800 -0.184200 0.721200
vn -0.022500 -0.105900 0.994100
vn -0.483100 -0.246100 0.840200
vn -0.663400 -0.747600 0.030700
vn -0.650200 -0.753000 0.101400
vn -0.815800 -0.569000 0.103500
vn -0.596100 0.796300 -0.102800
vn 0.950700 0.284800 -0.122600
vn 0.955200 -0.295000 0.023600
vn -0.840600 0.541600 0.001400
vn -0.890900 -0.450900 -0.054600
vn -0.963400 -0.223200 -0.148600
vn 0.987400 -0.130600 -0.089600
vn 0.951400 0.285500 -0.115500
vn 0.213900 0.230100 0.949400
vn -0.115000 0.772200 0.624900
vn -0.283500 0.913100 0.293200
vn 0.580200 -0.341900 0.739200
vn 0.663400 0.747600 -0.030700
vn -0.434700 0.870200 -0.232100
vn -0.958700 0.151700 0.240700
vn 0.619900 0.271600 0.736200
vn -0.416600 -0.886700 -0.200700
vn -0.370000 -0.928600 -0.028600
vn 0.304600 -0.910700 0.278900
vn -0.655500 -0.747600 0.106700
vn -0.202000 -0.912600 -0.355400
vn 0.720100 -0.530200 0.447600
vn 0.734800 -0.526400 0.427800
vn 0.765100 -0.434400 0.475400
vn 0.779000 -0.420900 0.464800
vn 0.434700 -0.870100 0.232100
vn 0.957200 -0.140600 0.252800
vn 0.953900 -0.272200 0.126300
vn 0.964900 -0.193200 0.178000
vn -0.755700 -0.640300 0.137500
vn -0.635500 -0.759000 0.141700
vn 0.926600 -0.337300 0.166500
vn -0.940800 -0.316900 0.120300
vn -0.939500 -0.320400 0.121300
vn -0.951400 -0.285500 0.115500
vn -0.950700 -0.284800 0.122600
vn 0.957400 -0.216400 0.191200
vn 0.960400 -0.218200 0.173100
vn 0.956000 -0.219000 0.195300
vn 0.954100 -0.218200 0.205300
vn 0.725200 -0.670300 0.157100
vn 0.954000 -0.135500 0.267400
vn 0.950500 -0.168300 0.261100
vn 0.921300 -0.277400 0.272600
vn 0.942100 -0.210500 0.260900
vn -0.957400 0.216400 -0.191300
vn -0.960400 0.218200 -0.173100
vn -0.926600 0.337300 -0.166400
vn -0.725300 0.670300 -0.157100
vn -0.954000 0.135500 -0.267400
vn -0.942100 0.210500 -0.260900
vn -0.950500 0.168400 -0.261100
vn -0.921300 0.277400 -0.272600
vn -0.959600 0.271600 -0.073800
vn -0.956000 0.219000 -0.195300
vn -0.954100 0.218200 -0.205300
vn -0.863900 -0.483000 0.142700
usemtl Model001_Material001.003
s 1
f 1/1/1 2/2/2 3/3/3
f 4/4/4 5/5/5 6/6/6
f 7/7/7 8/8/8 9/9/8
f 10/10/9 11/11/10 12/12/11
f 5/5/5 13/13/12 6/6/6
f 14/14/13 15/15/14 16/16/15
f 17/17/16 18/18/17 19/19/18
f 20/20/19 21/21/20 22/22/21
f 21/21/20 20/20/19 23/23/22
f 24/24/23 25/25/24 26/26/25
f 27/27/26 28/28/27 29/29/28
f 30/30/29 28/28/27 27/27/26
f 31/31/30 32/32/31 33/33/32
f 34/34/33 35/35/34 36/36/35
f 37/8/36 38/9/36 39/37/37
f 40/38/38 41/39/39 42/40/40
f 26/26/25 43/41/41 44/42/42
f 7/7/43 38/9/36 37/8/36
f 45/26/44 46/41/45 47/43/46
f 48/44/47 46/41/45 49/42/48
f 1/1/1 50/21/49 51/45/50
f 52/46/51 53/47/52 54/48/53
f 55/35/54 56/36/55 57/49/56
f 58/50/57 59/51/58 60/52/59
f 61/53/60 62/54/61 63/55/62
f 64/56/63 58/50/57 60/52/59
f 65/57/64 23/23/22 20/20/19
f 1/1/1 51/45/50 2/2/2
f 51/45/50 66/2/65 67/58/66
f 40/38/38 68/59/67 41/39/39
f 53/47/52 52/46/51 40/38/38
f 8/8/8 69/37/68 9/9/8
f 31/31/30 70/60/69 32/32/31
f 71/1/70 3/3/3 66/2/65
f 72/61/71 73/62/72 10/10/9
f 3/3/3 2/2/2 74/63/73
f 75/64/74 76/17/75 77/18/76
f 78/65/77 79/66/78 80/67/79
f 81/68/80 82/69/81 83/70/82
f 12/12/11 11/11/10 84/71/83
f 85/72/84 86/73/85 87/74/86
f 88/75/87 32/32/31 70/60/69
f 89/76/88 90/77/89 91/78/90
f 92/25/91 45/26/44 47/43/46
f 93/79/92 53/47/52 42/40/40
f 94/80/93 95/81/94 96/82/95
f 97/83/96 98/84/97 41/39/39
f 10/10/9 83/70/82 82/69/81
f 12/12/11 99/85/98 83/70/82
f 24/24/23 45/26/44 92/25/91
f 100/86/99 101/87/100 102/88/101
f 83/70/82 99/85/98 103/89/102
f 47/43/46 34/34/33 92/25/91
f 104/90/103 21/21/20 23/23/22
f 62/54/61 73/62/72 105/91/104
f 10/10/9 82/69/81 72/61/71
f 106/92/105 107/93/106 108/94/107
f 109/95/108 42/40/40 41/39/39
f 110/96/109 111/34/110 25/25/24
f 72/61/71 82/69/81 62/54/61
f 112/43/111 113/41/112 114/35/113
f 115/97/114 59/51/58 58/50/57
f 116/98/115 78/65/77 117/99/116
f 118/19/117 77/18/76 76/17/75
f 107/93/106 119/100/118 120/101/119
f 121/102/120 58/50/57 64/56/63
f 122/103/121 123/41/122 124/35/123
f 85/72/84 125/104/124 86/73/85
f 126/105/125 79/66/78 78/65/77
f 91/78/90 127/106/126 128/107/127
f 129/108/128 130/60/129 131/75/130
f 132/109/131 90/77/89 89/76/88
f 133/110/132 134/111/133 15/15/14
f 112/43/111 26/26/25 25/25/24
f 3/3/3 21/21/20 104/90/103
f 43/41/41 135/44/134 44/42/42
f 136/112/135 137/113/136 87/74/86
f 6/6/6 13/13/12 138/114/137
f 106/92/105 108/94/107 139/115/138
f 140/116/139 134/111/133 133/110/132
f 108/94/107 107/93/106 120/101/119
f 141/117/140 28/28/27 30/30/29
f 101/87/100 100/86/99 90/77/89
f 112/43/111 111/34/110 55/35/54
f 63/55/62 62/54/61 82/69/81
f 142/118/141 81/68/80 103/89/102
f 138/114/137 13/13/12 143/119/142
f 22/22/21 21/21/20 144/120/143
f 49/42/48 46/41/45 45/26/44
f 112/43/111 43/41/41 26/26/25
f 71/1/70 21/21/20 3/3/3
f 10/10/9 73/62/72 11/11/10
f 145/121/144 90/77/89 132/109/131
f 146/122/145 147/123/146 148/124/147
f 104/90/103 50/21/49 3/3/3
f 149/125/148 150/111/149 151/15/150
f 152/126/151 102/88/101 101/87/100
f 147/123/146 95/81/94 94/80/93
f 16/16/15 153/127/152 14/14/13
f 71/1/70 51/45/50 21/21/20
f 36/36/35 35/35/34 154/49/153
f 88/75/87 70/60/69 155/108/154
f 29/29/28 13/13/12 5/5/5
f 15/15/14 14/14/13 133/110/132
f 25/25/24 111/34/110 112/43/111
f 156/128/155 101/87/100 90/77/89
f 157/129/156 41/39/39 68/59/67
f 50/21/49 23/23/22 158/130/157
f 47/43/46 124/35/123 123/41/122
f 91/78/90 128/107/127 89/76/88
f 148/124/147 147/123/146 94/80/93
f 62/54/61 105/91/104 72/61/71
f 14/14/13 153/127/152 159/131/158
f 160/132/159 96/82/95 161/133/160
f 162/134/161 59/51/58 115/97/114
f 10/10/9 12/12/11 83/70/82
f 50/21/49 22/22/21 144/120/143
f 122/103/121 114/35/113 113/41/112
f 163/135/162 96/82/95 160/132/159
f 98/84/97 109/95/108 41/39/39
f 42/40/40 53/47/52 40/38/38
f 87/74/86 137/113/136 85/72/84
f 156/128/155 90/77/89 145/121/144
f 15/15/14 134/111/133 164/125/163
f 165/136/164 29/29/28 28/28/27
f 105/91/104 73/62/72 72/61/71
f 56/36/55 55/35/54 111/34/110
f 40/38/38 52/46/51 68/59/67
f 165/136/164 13/13/12 29/29/28
f 67/58/66 2/2/2 51/45/50
f 47/43/46 35/35/34 34/34/33
f 83/70/82 103/89/102 81/68/80
f 78/65/77 80/67/79 117/99/116
f 1/1/1 3/3/3 50/21/49
f 166/137/165 146/122/145 148/124/147
f 144/120/143 21/21/20 51/45/50
f 71/1/70 66/2/65 51/45/50
f 144/120/143 51/45/50 50/21/49
f 167/138/166 120/101/119 119/100/118
f 81/68/80 63/55/62 82/69/81
f 104/90/103 23/23/22 50/21/49
f 158/130/157 22/22/21 50/21/49
f 74/63/73 66/2/65 3/3/3
f 161/133/160 96/82/95 95/81/94
f 93/79/92 54/48/53 53/47/52
f 110/96/109 92/25/91 34/34/33
f 168/114/167 169/13/168 6/6/6
f 170/29/169 171/5/170 169/13/168
f 172/119/171 169/13/168 168/114/167
f 173/27/172 174/28/173 175/30/174
f 6/6/6 169/13/168 171/5/170
f 175/30/174 174/28/173 176/117/175
f 177/136/176 170/29/169 169/13/168
f 174/28/173 170/29/169 177/136/176
f 173/27/172 170/29/169 174/28/173
f 178/33/177 179/32/178 180/139/179
f 130/60/129 179/32/178 131/75/130
f 180/139/179 179/32/178 130/60/129
f 181/110/180 150/111/149 182/116/181
f 183/140/182 76/17/75 75/64/74
f 151/15/150 150/111/149 181/110/180
f 184/141/183 151/15/150 185/142/184
f 186/131/185 187/127/186 185/142/184
f 188/143/187 183/140/182 189/144/188
f 189/144/188 190/145/189 188/143/187
f 181/110/180 185/142/184 151/15/150
f 191/146/190 188/143/187 190/145/189
f 75/64/74 189/144/188 183/140/182
f 76/17/75 183/140/182 192/147/191
f 192/147/191 118/19/117 76/17/75
f 185/142/184 187/127/186 184/141/183
f 193/148/192 178/33/177 194/149/193
f 195/150/194 196/151/195 194/149/193
f 194/149/193 178/33/177 180/139/179
f 193/148/192 194/149/193 196/151/195
f 197/143/196 198/144/197 199/140/198
f 200/147/199 199/140/198 17/17/16
f 201/148/200 202/151/201 203/149/202
f 31/31/30 33/33/32 203/149/202
f 204/150/203 203/149/202 202/151/201
f 205/64/204 17/17/16 199/140/198
f 203/149/202 33/33/32 201/148/200
f 199/140/198 198/144/197 205/64/204
f 17/17/16 19/19/18 200/147/199
f 205/64/204 18/18/17 17/17/16
f 198/144/197 197/143/196 206/145/205
f 207/146/206 206/145/205 197/143/196
f 6/6/6 171/5/170 208/4/207
