# Blender v2.74 (sub 0) OBJ File: ''
# www.blender.org
mtllib remsdagger.mtl
o remsdagger
v -0.010885 0.074668 0.199219
v 0.007151 0.086173 0.194824
v -0.020041 0.054587 0.149565
v -0.019186 0.051901 0.563030
v 0.007151 -0.009960 0.492044
v 0.007151 0.004292 0.628278
v 0.007151 0.119378 0.246095
v -0.004049 0.115319 0.256258
v 0.007151 0.158685 0.264986
v -0.017050 0.041433 -0.183606
v 0.007151 0.023641 -0.144145
v -0.008597 0.041830 -0.144145
v 0.007151 0.044790 0.765184
v 0.025554 0.087150 0.747270
v 0.007151 0.122246 0.910636
v 0.007151 0.067374 0.149565
v 0.017100 0.144311 0.890921
v 0.007151 0.044790 0.765184
v -0.011252 0.087150 0.747270
v 0.007151 0.103233 0.533793
v 0.033488 0.051901 0.563030
v 0.007151 0.117760 0.321964
v 0.007151 0.158685 0.264986
v -0.004049 0.115319 0.256258
v -0.025077 0.041830 0.345982
v -0.010885 0.074668 0.199219
v 0.007151 0.240414 1.002710
v 0.007151 0.167780 0.878347
v -0.002798 0.144311 0.890921
v 0.007151 -0.033703 0.181609
v -0.010885 0.008992 0.199219
v 0.007151 0.001973 0.176818
v -0.020041 0.029073 0.149565
v 0.007151 0.001973 0.176818
v 0.007151 0.016286 0.149565
v 0.007151 0.085838 -0.200696
v 0.007151 0.030172 -0.218976
v -0.020041 0.054587 0.149565
v 0.007151 0.003346 0.373876
v 0.007151 0.121209 0.736375
v -0.011252 0.087150 0.747270
v 0.007151 0.060019 -0.144145
v 0.007151 0.017202 -0.179424
v 0.007151 0.065848 -0.187115
v 0.007151 0.012654 -0.211133
v -0.008597 0.041830 -0.144145
v 0.007151 0.023641 -0.144145
v -0.020041 0.029073 0.149565
v 0.034343 0.054587 0.149565
v 0.025187 0.074668 0.199219
v 0.018351 0.115319 0.256258
v 0.025554 0.087150 0.747270
v 0.007151 0.240414 1.002710
v 0.031352 0.041433 -0.183606
v 0.025187 0.008992 0.199219
v 0.007151 -0.033703 0.181609
v 0.034343 0.029073 0.149565
v 0.039379 0.041830 0.345982
v 0.007151 -0.004619 0.286166
v 0.034343 0.054587 0.149565
v 0.007151 -0.033703 0.181609
v 0.007151 -0.162491 0.057308
v 0.007151 -0.075056 0.057308
v 0.007151 -0.004619 0.286166
v 0.007151 -0.033703 0.181609
v 0.007151 -0.162491 0.057308
v 0.007151 -0.133438 -0.075356
v 0.007151 -0.059522 -0.040718
v 0.007151 0.012654 -0.211133
v 0.007151 -0.133438 -0.075356
v 0.007151 -0.059522 -0.040718
v 0.007151 -0.075056 0.057308
v 0.007151 -0.001201 -0.104715
v 0.007151 0.001973 0.176818
v 0.007151 0.016286 0.149565
v 0.007151 0.121209 0.736375
v 0.007151 0.067374 0.149565
v 0.007151 0.060019 -0.144145
v -0.020041 0.054587 0.149565
v 0.034343 0.054587 0.149565
v 0.022899 0.041830 -0.144145
v 0.007151 0.001973 0.176818
v 0.034343 0.029073 0.149565
v 0.022899 0.041830 -0.144145
v 0.018351 0.115319 0.256258
v 0.025187 0.074668 0.199219
v 0.007151 0.017202 -0.179424
v 0.007151 -0.001201 -0.104715
vt 0.250801 -0.064974
vt 0.250801 -0.008698
vt 0.361095 -0.064974
vt 0.295206 -0.239601
vt 0.404096 -0.376537
vt 0.172704 -0.376537
vt 0.116947 -0.008698
vt 0.101840 -0.064974
vt 0.007172 -0.008698
vt 0.111240 -0.908139
vt 0.009980 -0.991607
vt 0.009980 -0.908444
vt 0.536699 -0.692892
vt 0.536699 -0.555956
vt 0.234931 -0.692892
vt 0.361095 -0.008698
vt 0.234931 -0.555956
vt 0.006897 -0.376537
vt 0.006897 -0.239601
vt 0.348704 -0.087741
vt 0.658101 -0.087741
vt 0.802210 -0.007050
vt 0.808924 -0.090976
vt 0.628010 -0.239601
vt 0.910764 -0.164525
vt 0.001312 -0.555956
vt 0.234931 -0.404065
vt 0.919614 -0.446272
vt 0.896664 -0.316477
vt 0.957213 -0.366405
vt 0.990539 -0.279611
vt 0.990539 -0.367351
vt 0.173711 -0.788415
vt 0.228401 -0.930876
vt 0.990539 -0.217689
vt 0.584338 -0.376537
vt 0.536699 -0.404065
vt 0.009980 -0.839869
vt 0.088107 -0.991607
vt 0.111240 -0.839869
vt 0.196020 -0.991607
vt 0.989715 -0.560320
vt 0.989715 -0.632649
vt 0.563891 -0.583850
vt 0.733055 -0.376537
vt 0.337107 -0.786187
vt 0.543260 -0.989959
vt 0.543260 -0.844966
vt 0.163671 -0.747795
vt 0.763390 -0.941771
vt 0.705893 -0.819178
vt 0.993866 -0.703452
vt 0.812067 -0.722434
vt 0.345012 -0.727012
vt 0.563891 -0.632649
vt 0.006897 -0.087741
vt 0.563891 -0.487289
vt 0.989715 -0.487289
vt 0.563891 -0.536790
vt 0.943876 -0.682669
vn -0.581400 0.728700 -0.362000
vn -0.000000 0.916500 -0.400100
vn -0.483000 0.827200 -0.287100
vn -0.999300 0.012400 0.035700
vn 0.000000 -1.000000 0.009400
vn -0.000000 -0.975500 0.220000
vn -0.000000 0.745500 -0.666500
vn -0.673300 0.504600 -0.540400
vn 0.000000 0.433200 -0.901300
vn -0.998000 -0.033800 0.053100
vn 0.000000 -0.976900 0.213700
vn -0.977800 0.000900 0.209400
vn 0.000000 -0.882700 0.470000
vn 0.998400 0.048100 0.030900
vn 0.000000 -0.803700 0.595000
vn -0.000000 0.923500 -0.383600
vn 0.998000 0.046700 0.042500
vn 0.000000 -0.958900 0.283700
vn -0.998100 0.049400 0.035500
vn 0.000000 0.999200 -0.039000
vn 0.999300 0.012400 0.035700
vn -0.000100 0.963600 0.267400
vn -0.000000 0.917200 0.398500
vn -0.970400 0.239500 -0.031300
vn -0.993900 -0.104300 0.034800
vn -0.947800 0.318300 -0.020400
vn -0.997600 0.054900 0.041500
vn -0.000000 0.937500 -0.348100
vn -0.998000 0.046700 0.042500
vn -0.922100 -0.278800 -0.268400
vn -0.853000 -0.503500 -0.137600
vn 0.073400 -0.687400 -0.722500
vn -0.803900 -0.564800 -0.186400
vn -0.108600 -0.923000 -0.369200
vn -0.000000 -0.885300 -0.464900
vn 0.073400 -0.687500 -0.722500
vn 0.000000 0.975500 0.219900
vn -0.000000 -0.026100 -0.999700
vn -0.977900 0.208800 -0.011500
vn 0.000000 -0.999900 -0.015200
vn 0.000000 0.950200 -0.311700
vn -0.998400 0.048100 0.030900
vn 0.000000 0.983400 0.181200
vn 0.000000 -0.987000 0.160900
vn 0.000000 0.820300 0.572000
vn 0.000000 -0.916500 -0.400100
vn -0.998100 0.000000 -0.061500
vn -0.000000 -0.998700 -0.051500
vn -0.812700 -0.581000 -0.044500
vn 0.483000 0.827200 -0.287100
vn 0.581400 0.728700 -0.362000
vn 0.673200 0.504900 -0.540200
vn 0.998100 0.049400 0.035500
vn 0.997600 0.054900 0.041600
vn 0.998000 -0.033800 0.053100
vn 0.853000 -0.503500 -0.137600
vn 0.922100 -0.278800 -0.268400
vn 0.803900 -0.564800 -0.186400
vn 0.993900 -0.104400 0.034800
vn -0.000000 -0.989900 0.141900
vn 0.977900 0.208800 -0.011500
vn 1.000000 0.000000 0.000000
vn 0.000000 -0.161600 0.986900
vn -1.000000 -0.000000 0.000000
vn 0.741800 -0.418500 -0.524000
vn 0.000000 -0.223100 0.974800
vn 0.000000 -0.999700 -0.025000
vn 0.000000 0.996100 -0.088400
vn 0.000000 0.999700 -0.025000
vn -0.000000 0.998700 -0.051500
vn -0.812700 0.581000 -0.044500
vn 0.812700 0.581000 -0.044500
vn 0.998100 0.000000 -0.061500
vn -0.000000 -0.803300 -0.595500
vn -0.803900 -0.564800 -0.186500
vn 0.000000 -0.885300 -0.465000
vn 0.812700 -0.581000 -0.044500
vn 0.977800 0.000900 0.209400
vn 0.970400 0.239500 -0.031300
vn 0.947800 0.318300 -0.020400
vn 0.803900 -0.564800 -0.186500
vn 0.000000 0.830700 0.556800
usemtl Model001_Material001.016
s 1
f 1/1/1 2/2/2 3/3/3
f 4/4/4 5/5/5 6/6/6
f 7/7/7 8/8/8 9/9/9
f 7/7/7 1/1/1 8/8/8
f 10/10/10 11/11/11 12/12/12
f 13/13/13 14/14/14 15/15/15
f 3/3/3 2/2/2 16/16/16
f 17/17/17 15/15/15 14/14/14
f 18/18/18 19/19/19 6/6/6
f 20/20/20 21/4/21 22/21/22
f 23/22/23 24/23/24 25/24/25
f 25/24/25 24/23/24 26/25/26
f 19/19/19 20/20/20 4/4/4
f 27/26/27 28/27/28 29/17/29
f 30/28/30 31/29/31 32/30/32
f 33/31/33 34/30/34 31/29/31
f 31/29/31 25/24/25 33/31/33
f 4/4/4 25/24/25 5/5/5
f 35/32/35 32/30/36 33/31/33
f 36/33/37 37/34/38 10/10/10
f 26/25/26 38/35/39 25/24/25
f 39/36/40 5/5/5 25/24/25
f 40/37/41 41/14/42 28/27/28
f 12/12/12 42/38/43 10/10/10
f 2/2/2 1/1/1 7/7/7
f 43/39/44 11/11/11 10/10/10
f 44/40/45 36/33/37 10/10/10
f 10/10/10 45/41/46 43/39/44
f 45/41/46 10/10/10 37/34/38
f 46/42/47 47/43/48 48/44/49
f 49/3/50 2/2/2 50/1/51
f 6/6/6 5/5/5 21/4/21
f 9/9/9 51/8/52 7/7/7
f 51/8/52 50/1/51 7/7/7
f 16/16/16 2/2/2 49/3/50
f 6/6/6 52/19/53 18/18/18
f 15/15/15 17/17/17 53/26/54
f 42/38/43 54/10/55 44/40/45
f 37/34/38 54/10/55 45/41/46
f 32/30/36 55/29/56 56/28/57
f 55/29/56 32/30/36 57/31/58
f 57/31/58 58/24/59 55/29/56
f 20/20/20 22/21/22 4/4/4
f 57/31/58 34/30/34 35/32/35
f 58/24/59 59/45/60 55/29/56
f 60/35/61 58/24/59 57/31/58
f 28/27/28 14/14/14 40/37/41
f 56/28/57 55/29/56 59/45/60
f 7/7/7 50/1/51 2/2/2
f 54/10/55 36/33/37 44/40/45
f 43/39/44 45/41/46 54/10/55
f 61/46/62 62/47/62 63/48/62
f 64/49/63 65/46/64 66/47/64
f 67/50/64 68/51/64 69/52/65
f 63/48/62 70/50/62 71/51/62
f 68/51/64 67/50/64 72/48/64
f 62/47/62 70/50/62 63/48/62
f 73/53/62 71/51/62 69/52/65
f 74/54/66 72/48/64 65/46/64
f 66/47/64 72/48/64 67/50/64
f 75/55/67 48/44/49 47/43/48
f 76/56/68 20/20/20 19/19/19
f 77/57/69 78/58/70 79/59/71
f 4/4/4 6/6/6 19/19/19
f 78/58/70 80/59/72 81/42/73
f 27/26/27 29/17/29 15/15/15
f 44/40/45 10/10/10 42/38/43
f 25/24/25 4/4/4 22/21/22
f 41/14/42 29/17/29 28/27/28
f 30/28/30 31/29/31 82/30/74
f 33/31/75 82/30/74 31/29/31
f 41/14/42 15/15/15 29/17/29
f 35/32/76 82/30/74 33/31/75
f 39/36/40 25/24/25 59/45/60
f 31/29/31 59/45/60 25/24/25
f 33/31/33 25/24/25 38/35/39
f 23/22/23 25/24/25 22/21/22
f 59/45/60 31/29/31 30/28/30
f 79/59/71 46/42/47 48/44/49
f 46/42/47 79/59/71 78/58/70
f 47/43/48 83/44/77 75/55/67
f 84/12/78 11/11/11 54/10/55
f 58/24/59 22/21/22 21/4/21
f 52/19/53 20/20/20 76/56/68
f 77/57/69 80/59/72 78/58/70
f 52/19/53 6/6/6 21/4/21
f 13/13/13 15/15/15 41/14/42
f 83/44/77 47/43/48 81/42/73
f 58/24/59 85/23/79 23/22/23
f 86/25/80 85/23/79 58/24/59
f 21/4/21 20/20/20 52/19/53
f 17/17/17 28/27/28 53/26/54
f 83/44/77 81/42/73 80/59/72
f 28/27/28 17/17/17 14/14/14
f 82/30/74 55/29/56 56/28/57
f 55/29/56 82/30/74 57/31/81
f 5/5/5 58/24/59 21/4/21
f 57/31/81 82/30/74 35/32/76
f 59/45/60 58/24/59 39/36/40
f 54/10/55 37/34/38 36/33/37
f 58/24/59 60/35/61 86/25/80
f 58/24/59 5/5/5 39/36/40
f 22/21/22 58/24/59 23/22/23
f 54/10/55 42/38/43 84/12/78
f 54/10/55 11/11/11 43/39/44
f 62/47/62 61/46/62 64/49/63
f 74/54/66 61/46/62 63/48/62
f 69/52/65 71/51/62 70/50/62
f 87/60/82 69/52/65 88/53/64
f 69/52/65 68/51/64 88/53/64
f 73/53/62 69/52/65 87/60/82
f 72/48/64 66/47/64 65/46/64
