# Blender v2.74 (sub 0) OBJ File: ''
# www.blender.org
mtllib samuraiblade.mtl
o Samuraiblade
v 0.023605 0.009565 -0.125102
v 0.018261 -0.001130 -0.123605
v 0.019883 -0.002761 -0.125070
v -0.009532 -0.002761 -0.124820
v -0.007885 -0.001130 -0.123384
v -0.013254 0.009565 -0.124789
v -0.007885 0.020259 -0.123384
v -0.009532 0.021890 -0.124820
v 0.018261 0.020259 -0.123605
v 0.019883 0.021890 -0.125070
v -0.010554 0.009565 0.182929
v -0.005289 0.020259 0.182884
v -0.006832 0.023794 0.182896
v 0.022401 0.023794 0.182649
v 0.020858 0.020259 0.182662
v 0.026123 0.009565 0.182618
v 0.020858 -0.001130 0.182662
v 0.022401 -0.004664 0.182649
v -0.005289 -0.001130 0.182884
v -0.006832 -0.004664 0.182896
v 0.023605 0.009565 -0.125102
v 0.019620 0.021890 -0.156078
v 0.019883 0.021890 -0.125070
v -0.009532 0.021890 -0.124820
v -0.009794 0.021890 -0.155828
v -0.013254 0.009565 -0.124789
v -0.013517 0.009565 -0.155796
v -0.009794 -0.002761 -0.155828
v 0.023517 -0.003486 0.196422
v -0.007714 -0.003486 0.196687
v 0.020858 -0.001130 0.182662
v -0.005289 -0.001130 0.182884
v -0.011708 0.009565 0.196720
v -0.005289 0.020259 0.182884
v -0.007714 0.022615 0.196687
v 0.022401 -0.004664 0.182649
v -0.006832 -0.004664 0.182896
v 0.020779 -0.001130 0.173324
v -0.005368 -0.001130 0.173545
v -0.010554 0.009565 0.182929
v -0.005368 0.020259 0.173545
v -0.006832 0.023794 0.182896
v 0.023343 0.009565 -0.156109
v 0.019620 -0.002761 -0.156078
v 0.019883 -0.002761 -0.125070
v -0.009532 -0.002761 -0.124820
v 0.018261 -0.001130 -0.123605
v 0.018261 0.020259 -0.123605
v 0.020779 -0.001130 0.173324
v 0.020779 0.020259 0.173324
v -0.005368 0.020259 0.173545
v 0.020779 -0.001130 0.173324
v -0.005368 -0.001130 0.173545
v 0.018261 -0.001130 -0.123605
v -0.007885 -0.001130 -0.123384
v -0.007885 0.020259 -0.123384
v 0.023517 -0.003486 0.196422
v 0.027511 0.009565 0.196388
v -0.007714 -0.003486 0.196687
v -0.011708 0.009565 0.196720
v -0.007714 0.022615 0.196687
v 0.019620 0.021890 -0.156078
v 0.023343 0.009565 -0.156109
v -0.009794 0.021890 -0.155828
v -0.013517 0.009565 -0.155796
v -0.009794 -0.002761 -0.155828
v 0.026123 0.009565 0.182618
v 0.020779 0.020259 0.173324
v 0.022401 0.023794 0.182649
v -0.006832 0.023794 0.182896
v -0.005368 0.020259 0.173545
v 0.027511 0.009565 0.196388
v 0.020858 0.020259 0.182662
v 0.023517 0.022615 0.196422
v -0.007714 0.022615 0.196687
v -0.005289 0.020259 0.182884
v 0.023517 -0.003486 0.196422
v 0.020858 -0.001130 0.182662
v 0.022401 -0.004664 0.182649
v 0.020779 -0.001130 0.173324
v -0.005368 0.020259 0.173545
v 0.019620 -0.002761 -0.156078
v -0.007885 0.020259 -0.123384
v 0.023517 0.022615 0.196422
v -0.083066 0.009565 1.418221
v -0.058083 0.020168 1.291522
v -0.058083 -0.001130 1.291522
v -0.041840 -0.001130 1.161905
v -0.041840 0.020168 1.161905
v -0.028150 -0.001130 1.020432
v -0.028150 0.020168 1.020432
v -0.019467 -0.001130 0.834390
v -0.019467 0.020168 0.834390
v -0.024795 -0.001130 0.645022
v -0.024795 0.020168 0.645022
v -0.046740 -0.001130 0.519718
v -0.046740 0.020168 0.519718
v -0.035803 0.004218 1.306474
v -0.007882 -0.001130 1.183559
v 0.011007 -0.001130 1.034153
v 0.023316 -0.001130 0.729663
v 0.020149 -0.001130 0.538102
v -0.026173 -0.001130 0.461061
v -0.035803 0.014821 1.306474
v -0.007882 0.020168 1.183559
v -0.041840 0.020168 1.161905
v -0.028150 0.020168 1.020432
v 0.011007 0.020168 1.034153
v -0.019467 0.020168 0.834390
v 0.023316 0.020168 0.729663
v -0.024795 0.020168 0.645022
v 0.020149 0.020168 0.538102
v -0.046740 0.020168 0.519718
v -0.026173 0.020168 0.461061
v -0.080972 -0.001130 0.230222
v -0.080495 -0.001130 0.265035
v -0.080972 0.020168 0.230222
v -0.080495 0.020168 0.265035
v -0.058909 -0.001130 0.294502
v -0.058909 0.020168 0.294502
v -0.030583 -0.001130 0.369248
v -0.030583 0.020168 0.369248
v -0.026173 0.020168 0.461061
v 0.115614 0.009565 0.243244
v 0.115614 0.020259 0.243244
v 0.057753 0.014821 0.261505
v 0.057753 0.020259 0.261505
v 0.077037 0.020168 0.222898
v -0.080972 0.020168 0.230222
v -0.053742 0.020259 0.197077
v 0.045033 -0.001130 0.196239
v 0.077037 -0.001130 0.222898
v -0.053742 -0.001130 0.197077
v -0.080972 -0.001130 0.230222
v 0.057753 -0.001130 0.261505
v 0.042060 -0.001130 0.284670
v 0.057753 0.004217 0.261505
v 0.044145 -0.001130 0.487756
v -0.030583 -0.001130 0.369248
v -0.058909 -0.001130 0.294502
v 0.045033 0.020259 0.196239
v 0.077037 0.020168 0.222898
v 0.045033 -0.001130 0.196239
v 0.077037 -0.001130 0.222898
v 0.115614 0.009565 0.243244
v 0.115614 -0.001130 0.243244
v -0.026173 -0.001130 0.461061
v -0.046740 0.020168 0.519718
v -0.046740 -0.001130 0.519718
v -0.058909 0.020168 0.294502
v 0.042060 0.020168 0.284670
v -0.080495 0.020168 0.265035
v -0.030583 0.020168 0.369248
v 0.044145 0.020168 0.487756
v -0.080495 -0.001130 0.265035
v 0.045033 -0.001130 0.196239
v -0.053742 -0.001130 0.197077
v 0.045033 0.020259 0.196239
v -0.053742 0.020259 0.197077
v -0.053742 -0.001130 0.197077
v -0.053742 0.020259 0.197077
v 0.115614 0.020259 0.243244
v -0.058083 0.020168 1.291522
v 0.045033 0.020259 0.196239
v 0.115614 -0.001130 0.243244
v 0.067407 0.009565 1.057612
v 0.023316 -0.001130 0.729663
v 0.078600 0.009565 0.728652
v 0.020149 -0.001130 0.538102
v 0.023316 0.020168 0.729663
v 0.020149 0.020168 0.538102
v 0.045265 0.009565 1.219650
v 0.011007 0.020168 1.034153
v 0.011007 -0.001130 1.034153
v 0.090159 0.009565 0.292876
v 0.044145 0.020168 0.487756
v 0.081415 0.009565 0.514461
v 0.090159 0.009565 0.292876
v 0.042060 0.020168 0.284670
v -0.007882 0.020168 1.183559
v 0.044145 -0.001130 0.487756
v -0.002737 0.009565 1.329951
v -0.007882 -0.001130 1.183559
v 0.042060 -0.001130 0.284670
v -0.035803 0.014821 1.306474
v -0.083066 0.009565 1.418221
v -0.035803 0.004218 1.306474
v 0.057753 0.014821 0.261505
v 0.057753 0.004217 0.261505
v 0.115614 0.009565 0.243244
vt 0.770752 0.133789
vt 0.782227 0.222656
vt 0.778076 0.241211
vt 0.844238 0.245117
vt 0.838135 0.227539
vt 0.854492 0.139648
vt 0.838135 0.063477
vt 0.843506 0.046875
vt 0.782227 0.063477
vt 0.778564 0.046875
vt 0.901611 0.027344
vt 0.865967 0.086914
vt 0.901611 0.086914
vt 0.901611 0.221680
vt 0.865967 0.221680
vt 0.901611 0.280273
vt 0.865967 0.280273
vt 0.977295 0.021484
vt 0.977295 0.200195
vt 0.951416 0.021484
vt 0.951416 0.200195
vt 0.977295 0.259766
vt 0.951416 0.318359
vt 0.977295 0.318359
vt 0.948975 0.021484
vt 0.948975 0.200195
vt 0.930908 0.021484
vt 0.930908 0.200195
vt 0.948975 0.259766
vt 0.930908 0.318359
vt 0.948975 0.318359
vt 0.865967 0.027344
vt 0.550293 0.006836
vt 0.550293 0.078125
vt 0.154297 0.006836
vt 0.154297 0.078125
vt 0.154297 0.235352
vt 0.550293 0.235352
vt 0.778320 0.239258
vt 0.770752 0.139648
vt 0.844238 0.243164
vt 0.854492 0.141602
vt 0.843750 0.044922
vt 0.778564 0.044922
vt 0.996826 0.791016
vt 0.893799 0.821289
vt 0.893799 0.758789
vt 0.790527 0.757813
vt 0.790527 0.821289
vt 0.677490 0.757813
vt 0.677490 0.821289
vt 0.524902 0.757813
vt 0.524902 0.821289
vt 0.377441 0.757813
vt 0.376709 0.821289
vt 0.282959 0.757813
vt 0.282959 0.820313
vt 0.897705 0.572266
vt 0.790527 0.572266
vt 0.681396 0.572266
vt 0.433105 0.572266
vt 0.290527 0.572266
vt 0.227783 0.741211
vt 0.256836 0.851563
vt 0.324463 0.851563
vt 0.256836 0.992188
vt 0.324463 0.992188
vt 0.370605 0.851563
vt 0.370605 0.992188
vt 0.462891 0.851563
vt 0.462891 0.992188
vt 0.570801 0.992188
vt 0.094482 0.347656
vt 0.086670 0.333984
vt 0.077637 0.465820
vt 0.073730 0.459961
vt 0.040527 0.408203
vt 0.044922 0.913086
vt 0.013672 0.821289
vt 0.013672 0.508789
vt 0.089111 0.509766
vt 0.249512 0.509766
vt 0.155518 0.751953
vt 0.096191 0.839844
vt 0.004395 0.025391
vt 0.060059 0.025391
vt 0.004395 0.101563
vt 0.060059 0.101563
vt 0.138916 0.060547
vt 0.570801 0.851563
vt 0.658447 0.992188
vt 0.658447 0.851563
vt 0.072510 0.913086
vt 0.571045 0.008789
vt 0.748779 0.008789
vt 0.571045 0.101563
vt 0.748779 0.101563
vt 0.175293 0.851563
vt 0.175293 0.992188
vt 0.138916 0.025391
vt 0.138916 0.101563
vt 0.706299 0.276367
vt 0.463379 0.516602
vt 0.461426 0.276367
vt 0.323486 0.548828
vt 0.829346 0.276367
vt 0.690186 0.516602
vt 0.136963 0.276367
vt 0.282715 0.454102
vt 0.302002 0.276367
vt 0.136719 0.276367
vt 0.131592 0.454102
vt 0.801758 0.516602
vt 0.916260 0.389648
vt 0.897705 0.536133
vt 0.992920 0.704102
vt 0.114014 0.406250
vt 0.099365 0.174805
vn 0.899200 -0.000000 0.437500
vn 0.360600 -0.682000 0.636300
vn 0.503100 -0.697700 0.510000
vn -0.319300 -0.807700 0.495700
vn -0.498100 -0.506900 0.703500
vn -0.891500 -0.000000 0.453100
vn -0.665700 0.435400 0.606000
vn -0.319300 0.807700 0.495700
vn 0.512500 0.628600 0.584900
vn 0.503100 0.697700 0.510000
vn -0.801700 -0.000000 0.597700
vn -0.465700 0.326600 0.822500
vn -0.366400 0.833100 0.414300
vn 0.338500 0.416300 0.843900
vn 0.524200 0.637000 0.565200
vn 0.811400 -0.000000 0.584400
vn 0.524200 -0.637100 0.565100
vn 0.338500 -0.416300 0.843900
vn -0.465700 -0.326500 0.822500
vn -0.366400 -0.833100 0.414300
vn 0.567500 0.765900 -0.302300
vn 0.503000 0.697800 0.510000
vn -0.319400 0.807600 0.495800
vn -0.607000 0.494700 -0.622000
vn -0.891400 0.000000 0.453100
vn -0.698100 -0.000000 -0.716000
vn -0.607100 -0.494600 -0.621900
vn 0.555500 -0.751300 0.356300
vn -0.325100 -0.795400 0.511500
vn 0.524300 -0.637000 0.565100
vn -0.923000 -0.000000 0.384900
vn -0.465700 0.326500 0.822500
vn -0.325000 0.795400 0.511500
vn 0.740900 -0.606800 -0.287800
vn -0.752100 -0.625100 -0.208900
vn -0.643900 0.725400 -0.243200
vn -0.366400 0.833200 0.414300
vn 0.424500 -0.000000 -0.905400
vn 0.567500 -0.765900 -0.302300
vn 0.360600 -0.682000 0.636200
vn 0.512500 0.628700 0.584900
vn 0.631000 0.701500 -0.331200
vn -0.644000 0.725400 -0.243300
vn -0.752000 -0.625100 -0.208900
vn -0.498000 -0.507100 0.703500
vn -0.665800 0.435400 0.606000
vn 0.669600 -0.000000 0.742700
vn -0.325000 -0.795500 0.511400
vn -0.923000 0.000100 0.384900
vn -0.325000 0.795500 0.511400
vn 0.567400 0.765900 -0.302300
vn -0.607000 0.494700 -0.621900
vn -0.698000 -0.000000 -0.716100
vn -0.607000 -0.494700 -0.621900
vn 0.630900 0.701600 -0.331200
vn -0.366300 0.833200 0.414300
vn -0.644000 0.725400 -0.243200
vn 0.524300 0.637000 0.565100
vn 0.555500 0.751300 0.356300
vn -0.325100 0.795500 0.511400
vn 0.555500 -0.751400 0.356200
vn 0.567400 -0.765900 -0.302300
vn -0.665800 0.435400 0.605900
vn -0.912800 0.000600 0.408500
vn -0.795100 0.599500 -0.092000
vn -0.631600 -0.772200 -0.069700
vn -0.682800 -0.727400 -0.068300
vn -0.683500 0.727400 -0.061700
vn -0.705300 -0.706700 -0.056500
vn -0.706200 0.706600 -0.044600
vn -0.707300 -0.706700 -0.015800
vn -0.707500 0.706700 0.002600
vn -0.704800 -0.707400 0.053900
vn -0.701400 0.707300 0.087600
vn -0.824900 -0.565200 0.003900
vn -0.813300 0.565300 -0.137900
vn 0.112700 -0.991400 0.067100
vn 0.071000 -0.996900 0.032900
vn 0.091000 -0.995800 0.009200
vn 0.094600 -0.995500 0.001300
vn 0.082200 -0.996500 0.014500
vn -0.581400 -0.804200 -0.123600
vn 0.112000 0.991400 0.067100
vn 0.070100 0.997000 0.032900
vn -0.683500 0.727400 -0.061800
vn -0.706200 0.706600 -0.044700
vn 0.090300 0.995900 0.009200
vn 0.093800 0.995600 0.001300
vn -0.701400 0.707300 0.088000
vn 0.081500 0.996600 0.014500
vn -0.813300 0.565300 -0.138000
vn -0.592500 0.804200 -0.047300
vn -0.401600 -0.904900 -0.140700
vn -0.802300 -0.570400 0.175800
vn -0.646900 0.728300 -0.226000
vn -0.747300 0.570700 0.340200
vn -0.711400 -0.557100 0.428500
vn -0.747600 0.557300 0.361300
vn -0.873900 -0.450900 0.181500
vn -0.688600 0.710900 0.143000
vn -0.592400 0.804200 -0.048100
vn 0.961600 -0.000100 -0.274400
vn 0.599600 0.560200 0.571600
vn 0.490700 0.544800 0.680000
vn 0.318700 0.846700 0.426100
vn 0.393300 0.709000 -0.585400
vn -0.290300 0.741700 -0.604700
vn 0.423500 -0.332300 -0.842700
vn 0.315800 -0.800900 -0.508700
vn -0.378100 -0.483000 -0.789800
vn -0.401700 -0.904900 -0.140700
vn 0.319100 -0.845900 0.427400
vn 0.158300 -0.985500 0.060500
vn 0.491200 -0.544500 0.679900
vn 0.140400 -0.989900 0.021100
vn -0.874000 -0.450900 0.181300
vn -0.711500 -0.557100 0.428300
vn 0.207700 0.332500 -0.920000
vn 0.423600 -0.332300 -0.842700
vn 0.315400 -0.800900 -0.508900
vn 0.961600 0.000000 -0.274400
vn 0.599200 -0.559300 0.572800
vn 0.961600 -0.000000 -0.274500
vn -0.824900 -0.565300 0.003900
vn -0.747500 0.557300 0.361500
vn 0.157800 0.985600 0.060500
vn -0.747300 0.570700 0.340400
vn -0.688500 0.710900 0.143200
vn 0.139300 0.990000 0.021100
vn -0.802200 -0.570600 0.176100
vn -0.378000 -0.483000 -0.789800
vn -0.290400 0.741700 -0.604600
vn 0.599600 0.560100 0.571700
vn -0.912800 0.000600 0.408400
vn 0.997700 0.000700 0.068300
vn 0.999900 0.000800 0.011100
vn 0.082300 -0.996500 0.014500
vn 0.976200 0.000700 0.216700
vn 1.000000 0.001000 -0.007900
vn 0.985600 0.001000 0.169400
vn 0.139300 0.990000 0.021000
vn 0.157700 0.985600 0.060500
vn 0.140400 -0.989900 0.021000
vn 0.850900 0.001000 0.525300
vn 0.112100 0.991400 0.067100
vn -0.912700 0.000700 0.408500
vn 0.490700 0.544900 0.680000
vn 0.961600 0.000100 -0.274400
usemtl Model001_Material001.019
s 1
f 1/1/1 2/2/2 3/3/3
f 3/3/3 2/2/2 4/4/4
f 2/2/2 5/5/5 4/4/4
f 4/4/4 5/5/5 6/6/6
f 5/5/5 7/7/7 6/6/6
f 6/6/6 7/7/7 8/8/8
f 7/7/7 9/9/9 8/8/8
f 8/8/8 9/9/9 10/10/10
f 9/9/9 1/1/1 10/10/10
f 11/6/11 12/7/12 13/8/13
f 13/8/13 12/7/12 14/10/14
f 12/7/12 15/9/15 14/10/14
f 14/10/14 15/9/15 16/1/16
f 15/9/15 17/2/17 16/1/16
f 16/1/16 17/2/17 18/3/18
f 17/2/17 19/5/19 18/3/18
f 18/3/18 19/5/19 20/4/20
f 19/5/19 11/6/11 20/4/20
f 21/11/1 22/12/21 23/13/22
f 23/13/22 22/12/21 24/14/23
f 22/12/21 25/15/24 24/14/23
f 24/14/23 25/15/24 26/16/25
f 25/15/24 27/17/26 26/16/25
f 26/16/25 27/17/26 28/15/27
f 29/18/28 30/19/29 31/20/30
f 31/20/30 30/19/29 32/21/19
f 30/19/29 33/22/31 32/21/19
f 32/21/19 33/22/31 34/23/32
f 33/22/31 35/24/33 34/23/32
f 36/25/18 37/26/20 38/27/34
f 38/27/34 37/26/20 39/28/35
f 37/26/20 40/29/11 39/28/35
f 39/28/35 40/29/11 41/30/36
f 40/29/11 42/31/37 41/30/36
f 22/12/21 21/11/1 43/32/38
f 43/32/38 21/11/1 44/12/39
f 21/11/1 45/13/3 44/12/39
f 44/12/39 45/13/3 46/14/4
f 47/33/40 48/34/41 49/35/34
f 49/35/34 48/34/41 50/36/42
f 48/34/41 51/37/43 50/36/42
f 52/37/34 53/36/44 54/38/2
f 54/38/2 53/36/44 55/34/45
f 53/36/44 56/33/46 55/34/45
f 57/3/28 58/1/47 59/4/48
f 59/4/48 58/1/47 60/6/49
f 58/1/47 61/8/50 60/6/49
f 62/39/51 63/40/38 64/41/52
f 64/41/52 63/40/38 65/42/53
f 63/40/38 66/43/54 65/42/53
f 67/29/16 68/28/55 69/26/14
f 69/26/14 68/28/55 70/25/56
f 68/28/55 71/27/57 70/25/56
f 72/22/47 73/21/58 74/19/59
f 74/19/59 73/21/58 75/18/60
f 73/21/58 76/20/32 75/18/60
f 77/24/61 78/23/30 72/22/47
f 72/22/47 78/23/30 73/21/58
f 26/16/25 28/15/27 46/14/4
f 46/14/4 28/15/27 44/12/39
f 79/31/18 80/30/34 67/29/16
f 67/29/16 80/30/34 68/28/55
f 56/33/46 53/36/44 81/35/57
f 66/43/54 63/40/38 82/44/62
f 51/37/43 48/34/41 83/38/63
f 61/8/50 58/1/47 84/10/59
f 12/7/12 11/6/11 19/5/19
f 1/1/1 9/9/9 2/2/2
f 85/45/64 86/46/65 87/47/66
f 87/47/66 86/46/65 88/48/67
f 86/46/65 89/49/68 88/48/67
f 88/48/67 89/49/68 90/50/69
f 89/49/68 91/51/70 90/50/69
f 90/50/69 91/51/70 92/52/71
f 91/51/70 93/53/72 92/52/71
f 92/52/71 93/53/72 94/54/73
f 93/53/72 95/55/74 94/54/73
f 94/54/73 95/55/74 96/56/75
f 95/55/74 97/57/76 96/56/75
f 87/47/66 88/48/67 98/58/77
f 98/58/77 88/48/67 99/59/78
f 88/48/67 90/50/69 99/59/78
f 99/59/78 90/50/69 100/60/79
f 90/50/69 92/52/71 100/60/79
f 100/60/79 92/52/71 101/61/80
f 92/52/71 94/54/73 101/61/80
f 101/61/80 94/54/73 102/62/81
f 94/54/73 96/56/75 102/62/81
f 102/62/81 96/56/75 103/63/82
f 104/58/83 105/59/84 106/48/85
f 106/48/85 105/59/84 107/50/86
f 105/59/84 108/60/87 107/50/86
f 107/50/86 108/60/87 109/52/72
f 108/60/87 110/61/88 109/52/72
f 109/52/72 110/61/88 111/54/89
f 110/61/88 112/62/90 111/54/89
f 111/54/89 112/62/90 113/56/91
f 112/62/90 114/63/92 113/56/91
f 115/64/93 116/65/94 117/66/95
f 117/66/95 116/65/94 118/67/96
f 116/65/94 119/68/97 118/67/96
f 118/67/96 119/68/97 120/69/98
f 119/68/97 121/70/99 120/69/98
f 120/69/98 121/70/99 122/71/100
f 121/70/99 123/72/101 122/71/100
f 124/73/102 125/74/103 126/75/104
f 126/75/104 125/74/103 127/76/105
f 125/74/103 128/77/106 127/76/105
f 127/76/105 128/77/106 129/78/95
f 128/77/106 130/79/107 129/78/95
f 131/80/108 132/77/109 133/79/110
f 133/79/110 132/77/109 134/78/111
f 132/77/109 135/76/112 134/78/111
f 134/78/111 135/76/112 136/81/113
f 135/76/112 137/75/114 136/81/113
f 102/62/81 103/63/82 138/82/115
f 138/82/115 103/63/82 136/81/113
f 103/63/82 139/83/116 136/81/113
f 136/81/113 139/83/116 140/84/117
f 141/85/118 142/86/106 143/87/119
f 143/87/119 142/86/106 144/88/120
f 142/86/106 145/89/121 144/88/120
f 132/77/109 146/74/122 135/76/112
f 135/76/112 146/74/122 137/75/114
f 146/74/122 124/73/123 137/75/114
f 121/70/99 147/90/82 123/72/101
f 123/72/101 147/90/82 148/91/76
f 147/90/82 149/92/124 148/91/76
f 150/84/125 151/81/126 152/93/127
f 152/93/127 151/81/126 129/78/95
f 151/81/126 127/76/105 129/78/95
f 153/83/128 114/63/92 151/81/126
f 151/81/126 114/63/92 154/82/129
f 114/63/92 112/62/90 154/82/129
f 140/84/117 155/93/130 136/81/113
f 136/81/113 155/93/130 134/78/111
f 156/94/108 157/95/131 158/96/118
f 158/96/118 157/95/131 159/97/132
f 115/64/93 117/66/95 160/98/131
f 160/98/131 117/66/95 161/99/107
f 145/89/121 142/86/106 162/100/133
f 87/47/66 98/58/77 85/45/64
f 104/58/83 163/47/65 85/45/134
f 130/79/107 128/77/106 164/80/118
f 144/88/120 145/89/121 165/101/122
f 126/75/104 127/76/105 151/81/126
f 104/58/83 106/48/85 163/47/65
f 151/81/126 150/84/125 153/83/128
f 166/102/135 167/103/80 168/104/136
f 168/104/136 167/103/80 169/105/137
f 166/102/135 168/104/136 170/103/88
f 170/103/88 168/104/136 171/105/90
f 172/106/138 166/102/135 173/107/87
f 173/107/87 166/102/135 170/103/88
f 172/106/138 174/107/79 166/102/135
f 166/102/135 174/107/79 167/103/80
f 175/108/139 176/109/129 177/110/140
f 176/109/141 178/111/139 179/112/142
f 172/106/138 173/107/87 180/113/84
f 181/109/143 175/108/139 177/110/140
f 182/114/144 183/113/78 172/106/138
f 178/111/139 181/109/143 184/112/113
f 181/109/143 177/110/140 169/105/137
f 171/105/90 177/110/140 176/109/129
f 182/114/144 185/115/145 186/116/146
f 168/104/136 169/105/137 177/110/140
f 174/107/79 172/106/138 183/113/78
f 171/105/90 168/104/136 177/110/140
f 187/115/77 182/114/144 186/116/146
f 180/113/84 182/114/144 172/106/138
f 178/111/139 188/117/147 179/112/142
f 178/111/139 189/117/114 190/118/148
f 189/117/114 178/111/139 184/112/113
f 188/117/147 178/111/139 190/118/148
f 182/114/144 180/113/84 185/115/145
f 183/113/78 182/114/144 187/115/77
