# Blender v2.74 (sub 0) OBJ File: ''
# www.blender.org
mtllib sicesscythe.mtl
o sicesscythe
v 0.044855 0.005232 1.092010
v 0.044855 -0.020938 1.131813
v 0.046332 -0.040005 1.101210
v 0.044759 0.131029 1.171426
v 0.033557 0.108673 1.204841
v 0.033557 0.048992 1.232250
v 0.045140 0.028399 1.271482
v 0.021974 0.028399 -0.532393
v 0.021974 0.028399 1.271482
v 0.045140 0.005232 1.271482
v 0.045141 0.005232 -0.532393
v 0.045140 0.028399 1.271482
v 0.033557 0.005232 1.068985
v 0.045141 0.028399 -0.532393
v 0.021974 0.005232 -0.532393
v 0.033557 0.016720 -0.679688
v 0.021974 0.028399 -0.532393
v 0.045141 0.028399 -0.532393
v 0.021974 0.005232 1.271482
v 0.021974 0.005232 -0.532393
v 0.021974 0.028399 -0.532393
v 0.045141 0.028399 -0.532393
v 0.045141 0.005232 -0.532393
v 0.033557 0.002229 1.326969
v 0.033557 0.005232 1.271482
v 0.043997 0.010857 1.271482
v 0.045141 0.028399 -0.532393
v 0.021974 0.005232 -0.532393
v 0.021974 0.005232 1.271482
v 0.021974 0.028399 1.271482
v 0.021974 0.005232 -0.532393
v 0.033557 -0.342653 1.014452
v 0.046142 -0.370206 1.040289
v 0.033557 -0.429601 0.988760
v 0.044950 -0.055020 1.024558
v 0.033557 -0.011260 1.027228
v 0.033557 -0.047251 1.029135
v 0.045522 -0.058500 1.139582
v 0.049241 -0.072658 1.085289
v 0.047238 -0.241929 1.066889
v 0.049241 -0.138869 1.063646
v 0.046571 -0.121519 1.120134
v 0.033557 -0.406815 1.074563
v 0.043758 -0.454150 1.008066
v 0.046142 -0.370206 1.040289
v 0.033557 -0.060789 1.223146
v 0.040945 -0.035953 1.197834
v 0.033557 -0.035953 1.274200
v 0.033557 -0.047298 1.148115
v 0.033557 -0.238641 1.031757
v 0.049241 -0.138869 1.063646
v 0.047238 -0.241929 1.066889
v 0.033557 -0.040005 1.080617
v 0.033557 -0.303707 1.110410
v 0.022164 -0.055020 1.024558
v 0.033557 -0.057547 1.049776
v 0.033557 -0.179818 1.141252
v 0.033557 -0.157603 1.015835
v 0.033557 -0.067177 0.929221
v 0.033557 -0.043104 0.989761
v 0.044950 -0.055020 1.024558
v 0.033557 0.005232 1.151786
v 0.033557 -0.020938 1.136722
v 0.040708 0.065772 1.195451
v 0.033557 0.210780 1.159843
v 0.041040 0.218978 1.182199
v 0.033557 0.123641 1.129239
v 0.033557 0.345730 1.160700
v 0.037562 0.340010 1.153549
v 0.033557 0.411130 1.106978
v 0.027789 0.281233 1.176049
v 0.033557 0.274607 1.162798
v 0.033557 0.028399 1.067461
v 0.021974 0.028399 1.125903
v 0.033557 0.047658 1.072418
v 0.029552 0.340010 1.153549
v 0.033557 0.286811 1.190446
v 0.033557 -0.048109 1.165228
v 0.023785 -0.061123 1.170330
v 0.033557 -0.035953 1.177861
v 0.033557 -0.105693 1.171807
v 0.043329 -0.061123 1.170330
v 0.033557 0.223602 1.200885
v 0.041040 0.218978 1.182199
v 0.033557 -0.545768 0.984755
v 0.041375 -0.523461 0.971122
v 0.033557 -0.482084 1.031614
v 0.044759 0.131029 1.171426
v 0.033557 -0.623326 0.907390
v 0.033557 -0.099734 0.980227
v 0.033557 -0.055784 1.070082
v 0.033557 -0.505108 0.960015
v 0.041375 -0.523461 0.971122
v 0.033557 -0.623326 0.907390
v 0.041899 0.012239 1.494618
v 0.043710 0.010857 1.382217
v 0.033557 0.025444 1.481129
v 0.033557 0.050135 1.613599
v 0.038515 0.029019 1.565645
v 0.033557 0.034024 1.553967
v 0.039325 0.281233 1.176049
v 0.033557 0.028399 1.326969
v 0.033557 0.027828 1.271482
v 0.033557 0.015577 1.574797
v 0.033557 -0.007018 1.501579
v 0.033557 -0.018174 1.391703
v 0.033557 0.411130 1.106978
v 0.037562 0.340010 1.153549
v 0.033557 0.332906 1.147592
v 0.045140 0.028399 1.125903
v 0.033557 -0.035953 1.177861
v 0.049241 -0.075662 1.049776
v 0.022355 0.131029 1.171426
v 0.044855 0.005232 1.141966
v 0.033557 -0.055784 1.070082
v 0.049241 -0.075662 1.049776
v 0.033557 0.035120 1.396802
v 0.049241 -0.072658 1.085289
v 0.033557 -0.011260 1.027228
v 0.022164 -0.055020 1.024558
v 0.049241 -0.075662 1.049776
v 0.045140 0.005232 1.271482
v 0.021974 0.028399 1.271482
v 0.021974 0.005232 1.271482
v 0.020782 -0.040005 1.101210
v 0.022259 -0.020938 1.131813
v 0.022259 0.005232 1.092010
v 0.022355 0.131029 1.171426
v 0.023117 0.010857 1.271482
v 0.023356 -0.454150 1.008066
v 0.017873 -0.072658 1.085289
v 0.021592 -0.058500 1.139582
v 0.020543 -0.121519 1.120134
v 0.017873 -0.138869 1.063646
v 0.019876 -0.241929 1.066889
v 0.023356 -0.454150 1.008066
v 0.026169 -0.035953 1.197834
v 0.017873 -0.138869 1.063646
v 0.019876 -0.241929 1.066889
v 0.020972 -0.370206 1.040289
v 0.026406 0.065772 1.195451
v 0.026074 0.218978 1.182199
v 0.017873 -0.075662 1.049776
v 0.043949 0.066916 1.170950
v 0.026074 0.218978 1.182199
v 0.020972 -0.370206 1.040289
v 0.025739 -0.523461 0.971122
v 0.025739 -0.523461 0.971122
v 0.023404 0.010857 1.382217
v 0.025215 0.012239 1.494618
v 0.028599 0.029019 1.565645
v 0.043758 -0.454150 1.008066
v 0.033557 0.048992 1.232250
v 0.026406 0.065772 1.195451
v 0.040708 0.065772 1.195451
v 0.043949 0.066916 1.170950
v 0.017873 -0.075662 1.049776
v 0.029552 0.340010 1.153549
v 0.022259 0.005232 1.141966
v 0.045140 0.051137 1.155552
v 0.021974 0.051137 1.155552
v 0.045140 0.028399 1.155647
v 0.017873 -0.075662 1.049776
v 0.017873 -0.072658 1.085289
v 0.027789 0.281233 1.176049
v 0.039325 0.281233 1.176049
v 0.045140 0.028399 1.271482
v 0.023165 0.066916 1.170950
v 0.021974 0.028399 -0.532393
v 0.021974 0.051137 1.155552
v 0.023165 0.066916 1.170950
v 0.021974 0.028399 1.125903
v 0.021974 0.028399 1.155647
v 0.045140 0.051137 1.155552
v 0.045140 0.028399 1.125903
v 0.021974 0.028399 1.155647
v 0.045140 0.028399 1.155647
v 0.033557 0.060910 1.303992
v 0.033557 -0.041864 1.315671
vt 0.994812 -0.846461
vt 0.974883 -0.738670
vt 0.960448 -0.846461
vt 0.363292 -0.985290
vt 0.371288 -0.802026
vt 0.426405 -0.626820
vt 0.006104 -0.174566
vt 0.995117 -0.293191
vt 0.006104 -0.293191
vt 0.995117 -0.174566
vt 0.006104 -0.021790
vt 0.994812 -0.960814
vt 0.630879 -0.742332
vt 0.554582 -0.832057
vt 0.554582 -0.740745
vt 0.554582 -0.655202
vt 0.656178 -0.487930
vt 0.601886 -0.487930
vt 0.601886 -0.520524
vt 0.995117 -0.021790
vt 0.258309 -0.530595
vt 0.234565 -0.354198
vt 0.177740 -0.530595
vt 0.320261 -0.597430
vt 0.292367 -0.597430
vt 0.332377 -0.709830
vt 0.946440 -0.717338
vt 0.935820 -0.895993
vt 0.809381 -0.980560
vt 0.885556 -0.980560
vt 0.898679 -0.770684
vt 0.690756 -0.799646
vt 0.648854 -0.980560
vt 0.711325 -0.980560
vt 0.944578 -0.488571
vt 0.964904 -0.557848
vt 0.964904 -0.348766
vt 0.955992 -0.692984
vt 0.352855 -0.530595
vt 0.442183 -0.354198
vt 0.351421 -0.354198
vt 0.966063 -0.960814
vt 0.763024 -0.762780
vt 0.351024 -0.709830
vt 0.854518 -0.712760
vt 0.425275 -0.530595
vt 0.517136 -0.886532
vt 0.540056 -0.616810
vt 0.517136 -0.440504
vt 0.994812 -0.670949
vt 0.975341 -0.692984
vt 0.426405 -0.787622
vt 0.142796 -0.748558
vt 0.156316 -0.594897
vt 0.087985 -0.748558
vt 0.146733 -0.802026
vt 0.151280 -0.985290
vt 0.080569 -0.985290
vt 0.203589 -0.594897
vt 0.199530 -0.748558
vt 0.005188 -0.832759
vt 0.005188 -0.594897
vt 0.018464 -0.832759
vt 0.199011 -0.802026
vt 0.955992 -0.647114
vt 0.944578 -0.633198
vt 0.964904 -0.613147
vt 0.910672 -0.611011
vt 0.265786 -0.802026
vt 0.269478 -0.985290
vt 0.581988 -0.863186
vt 0.591052 -0.980560
vt 0.635182 -0.820734
vt 0.092013 -0.594897
vt 0.509720 -0.980560
vt 0.477523 -0.632954
vt 0.948607 -0.980255
vt 0.104801 -0.530595
vt 0.091220 -0.354198
vt 0.003143 -0.530595
vt 0.810144 -0.519913
vt 0.712119 -0.519913
vt 0.801050 -0.607776
vt 0.913877 -0.519913
vt 0.872066 -0.519913
vt 0.867214 -0.607776
vt 0.656178 -0.570116
vt 0.601886 -0.570116
vt 0.878048 -0.433821
vt 0.815516 -0.433821
vt 0.720420 -0.433821
vt 0.315043 -0.748558
vt 0.257820 -0.594897
vt 0.252846 -0.748558
vt 0.976775 -0.613147
vt 0.499252 -0.354198
vt 0.994812 -0.715262
vt 0.367779 -0.709830
vt 0.357524 -0.597430
vt 0.724845 -0.607776
vt 0.396069 -0.597430
vt 0.576952 -0.440504
vt 0.935820 -0.980560
vt 0.445631 -0.807398
vt 0.470260 -0.701163
vt 0.445631 -0.701163
vt 0.160131 -0.354198
vt 0.431440 -0.887753
vt 0.077395 -0.940123
vt 0.059633 -0.893490
vt 0.059633 -0.983032
vt 0.041383 -0.983032
vt 0.019257 -0.983032
vt 0.019257 -0.893490
vt 0.004608 -0.983032
vt 0.205329 -0.985290
vt 0.470260 -0.807398
vt 0.041383 -0.893490
vt 0.451338 -0.925291
vt 0.479232 -0.985290
vt 0.479232 -0.925047
vt 0.004608 -0.893490
vt 0.638234 -0.708365
vt 0.644978 -0.346080
vn 0.989800 -0.007700 -0.141900
vn 0.845100 -0.026100 0.533900
vn 0.970500 0.043300 -0.237000
vn 0.994800 0.058200 0.083100
vn 0.000000 0.265900 0.964000
vn 0.000100 -0.512100 0.858900
vn 0.666700 0.666700 0.333300
vn -0.554000 0.831400 -0.043600
vn -0.666600 0.333300 0.666700
vn 0.333100 -0.666800 0.666700
vn 0.831400 -0.554000 -0.043300
vn -0.000000 -0.198100 -0.980200
vn 0.706000 0.706000 -0.055600
vn -0.706600 -0.706600 -0.036800
vn 0.000100 -0.000300 -1.000000
vn -0.554000 0.831400 -0.043700
vn 0.706000 0.706000 -0.055700
vn -0.577400 -0.577400 0.577300
vn 0.000000 -0.000400 -1.000000
vn 0.000000 -0.000300 -1.000000
vn 0.706000 0.706000 -0.055500
vn -0.444900 -0.892800 -0.071100
vn -0.493800 -0.868300 -0.047000
vn 0.977000 -0.212500 -0.016900
vn -0.577400 -0.577300 0.577400
vn -0.666700 0.333300 0.666700
vn -0.000000 0.210000 -0.977700
vn 0.998000 0.003500 -0.062900
vn 0.000000 0.311400 -0.950300
vn 0.937300 0.307900 0.163100
vn -0.000000 0.403600 0.914900
vn -0.000000 0.510300 0.860000
vn 0.954200 0.246100 0.170100
vn 0.970300 0.202900 -0.131600
vn 0.998600 -0.021500 -0.047900
vn 0.988200 -0.046700 -0.146200
vn 0.985300 -0.067500 0.156700
vn 0.000000 -0.426300 0.904600
vn 0.998100 -0.002100 -0.060900
vn 0.998000 0.003500 -0.062800
vn 0.000000 -0.742700 0.669600
vn 0.928100 0.372000 -0.012700
vn -0.000300 0.993200 0.116400
vn 0.000000 0.612100 0.790800
vn 0.000000 -0.026900 -0.999600
vn -0.000000 0.317300 -0.948300
vn 0.000000 -0.272400 0.962200
vn -0.937300 0.307900 0.163100
vn 0.000000 0.946300 0.323400
vn -0.000000 -0.345500 0.938400
vn 0.000000 -0.364200 -0.931300
vn -0.000000 0.691800 -0.722100
vn 0.000000 0.866800 -0.498600
vn -0.000000 -0.437900 0.899000
vn -0.000000 -0.059000 0.998300
vn 0.717200 -0.695100 -0.049200
vn 0.000000 0.127600 -0.991800
vn 0.998200 0.054300 0.025400
vn 0.000100 0.412600 -0.910900
vn 0.000000 0.545200 0.838300
vn 0.998900 0.030500 -0.034500
vn -0.000100 0.664700 -0.747100
vn -0.995900 0.025000 -0.086700
vn 0.000000 -0.167600 -0.985900
vn 0.000000 0.249300 -0.968400
vn -0.994800 0.035100 -0.095600
vn 0.000100 0.465300 -0.885100
vn -0.998900 0.030500 -0.034500
vn 0.000000 0.309700 0.950800
vn -0.000000 0.988100 -0.153500
vn -0.988200 0.152400 0.016100
vn -0.000000 0.930300 -0.366700
vn -0.000000 -0.565100 0.825000
vn 0.988200 0.152400 0.016100
vn 0.000000 0.060400 0.998200
vn 0.000000 -0.650000 0.760000
vn 0.998900 -0.045800 -0.011400
vn 0.000000 -0.551100 0.834400
vn 0.000100 -0.254300 -0.967100
vn 0.000000 -0.466100 -0.884800
vn -0.000000 0.939300 -0.343000
vn 0.000000 0.392000 -0.920000
vn -0.000100 -0.254200 -0.967200
vn 0.994800 0.101200 0.007100
vn 0.998100 0.059800 -0.013300
vn 0.000000 1.000000 -0.006500
vn 0.000600 0.982100 0.188300
vn 0.998000 0.050100 0.039200
vn -0.000000 0.983100 -0.182800
vn 0.995900 0.025000 -0.086700
vn -0.571400 0.820300 -0.024000
vn -0.690300 0.723500 -0.007500
vn 0.000000 -0.872800 0.488000
vn -0.000000 -0.970400 0.241700
vn -0.422700 -0.905100 -0.046800
vn 0.000100 0.664800 -0.747100
vn -0.000000 -0.353600 -0.935400
vn 0.994800 0.035100 -0.095600
vn 0.942800 0.332300 -0.026300
vn -0.994800 0.058200 0.083100
vn 0.902700 -0.155700 0.401200
vn -0.000000 0.939400 -0.342900
vn -0.544700 0.838600 0.003000
vn 0.000100 0.403600 0.914900
vn 0.333300 -0.666700 0.666700
vn -0.577300 -0.577400 0.577300
vn -0.970500 0.043300 -0.237000
vn -0.845100 -0.026100 0.533900
vn -0.989800 -0.007700 -0.141900
vn -0.977000 -0.212500 -0.016900
vn -0.493700 -0.868400 -0.047000
vn -0.444900 -0.892800 -0.071000
vn -0.998100 -0.002100 -0.060900
vn -0.970300 0.202900 -0.131600
vn -0.954200 0.246100 0.170100
vn -0.985300 -0.067500 0.156700
vn -0.988200 -0.046700 -0.146200
vn -0.998600 -0.021500 -0.047900
vn -0.928100 0.372000 -0.012700
vn -0.998000 0.003500 -0.062800
vn -0.560200 -0.826700 -0.051700
vn -0.998200 0.054300 0.025400
vn -0.942800 0.332300 -0.026300
vn 0.571800 -0.783600 0.242800
vn -0.998000 0.003500 -0.062900
vn -0.998900 -0.045800 -0.011400
vn -0.998100 0.059800 -0.013300
vn -0.994800 0.101200 0.007100
vn -0.998000 0.050100 0.039200
vn -0.000100 -0.512100 0.858900
vn -0.690400 0.723400 -0.007500
vn -0.571400 0.820300 -0.024100
vn -0.902700 -0.155700 0.401200
vn 0.720800 -0.336900 0.605800
vn -0.720000 -0.167700 0.673400
vn 0.447200 0.003700 0.894400
vn 0.666600 0.666700 0.333300
vn -0.564400 -0.688100 0.456100
vn -0.707100 0.002900 0.707100
vn -0.707100 0.003400 0.707100
vn -1.000000 0.000000 0.000000
vn -0.690400 0.723400 -0.007400
vn -0.544700 0.838600 0.002900
vn -0.493700 -0.868300 -0.047000
vn -0.422700 -0.905100 -0.046900
usemtl Model001_Material001.023
s 1
f 1/1/1 2/2/2 3/3/3
f 4/4/4 5/5/5 6/6/6
f 7/7/7 8/8/8 9/9/9
f 10/7/10 11/10/11 12/11/7
f 13/12/12 1/1/1 3/3/3
f 14/10/13 8/8/8 7/7/7
f 11/10/11 10/7/10 15/8/14
f 16/13/15 17/14/16 18/15/17
f 15/8/14 10/7/10 19/9/18
f 16/13/19 20/15/14 21/16/16
f 16/13/20 22/16/21 23/15/11
f 24/17/22 25/18/23 26/19/24
f 12/11/7 11/10/11 27/20/13
f 28/10/14 29/7/25 30/11/26
f 16/13/20 23/15/11 31/14/14
f 32/21/27 33/22/28 34/23/29
f 35/24/30 36/25/31 37/26/32
f 3/3/3 38/27/33 39/28/34
f 40/29/35 41/30/36 42/31/37
f 43/32/38 44/33/39 45/34/40
f 46/35/41 47/36/42 48/37/43
f 49/38/44 38/27/33 2/2/2
f 50/39/45 51/40/36 52/41/35
f 3/3/3 39/28/34 53/42/46
f 52/41/35 32/21/27 50/39/45
f 40/29/35 54/43/47 45/34/40
f 55/24/48 56/44/49 37/26/32
f 40/29/35 42/31/37 57/45/50
f 58/46/51 51/40/36 50/39/45
f 39/28/34 42/31/37 41/30/36
f 59/47/52 60/48/53 61/49/30
f 62/50/54 63/51/55 2/2/2
f 6/6/6 64/52/56 4/4/4
f 2/2/2 38/27/33 3/3/3
f 65/53/57 66/54/58 67/55/59
f 68/56/60 69/57/61 70/58/62
f 65/53/57 71/59/63 72/60/64
f 73/61/65 74/62/66 75/63/67
f 76/57/68 77/64/69 68/56/60
f 78/65/70 79/66/71 80/67/72
f 81/68/73 42/31/37 82/66/74
f 39/28/34 38/27/33 42/31/37
f 4/4/4 83/69/75 5/5/5
f 84/70/58 83/69/75 4/4/4
f 85/71/76 86/72/77 87/73/78
f 57/45/50 42/31/37 81/68/73
f 88/74/4 67/55/59 66/54/58
f 89/75/79 86/72/77 85/71/76
f 59/47/52 61/49/30 90/76/80
f 43/32/38 45/34/40 54/43/47
f 49/38/44 2/2/2 63/51/55
f 53/42/46 39/28/34 91/77/81
f 92/78/82 93/79/77 94/80/83
f 95/81/84 96/82/85 97/83/86
f 96/82/85 24/17/22 26/19/24
f 98/84/87 99/85/88 100/86/89
f 65/53/57 101/59/90 66/54/58
f 47/36/42 82/66/74 80/67/72
f 78/65/70 38/27/33 49/38/44
f 102/87/91 26/19/24 103/88/92
f 98/84/87 104/89/93 99/85/88
f 46/35/41 81/68/73 82/66/74
f 80/67/72 82/66/74 78/65/70
f 95/81/84 97/83/86 100/86/89
f 105/90/94 106/91/95 95/81/84
f 95/81/84 106/91/95 96/82/85
f 90/76/80 51/40/36 58/46/51
f 68/56/60 77/64/69 69/57/61
f 82/66/74 47/36/42 46/35/41
f 84/70/58 77/64/69 83/69/75
f 107/92/96 108/93/61 109/94/97
f 105/90/94 99/85/88 104/89/93
f 95/81/84 100/86/89 99/85/88
f 95/81/84 99/85/88 105/90/94
f 26/19/24 102/87/91 96/82/85
f 73/61/65 75/63/67 110/62/98
f 48/37/43 47/36/42 111/95/72
f 57/45/50 54/43/47 40/29/35
f 112/96/99 90/76/80 61/49/30
f 74/62/66 113/74/100 75/63/67
f 62/50/54 2/2/2 114/97/101
f 115/98/102 116/99/99 56/44/49
f 13/12/12 3/3/3 53/42/46
f 2/2/2 1/1/1 114/97/101
f 82/66/74 42/31/37 38/27/33
f 82/66/74 38/27/33 78/65/70
f 117/100/103 97/83/86 96/82/85
f 106/91/95 24/17/22 96/82/85
f 101/59/90 72/60/64 108/93/61
f 117/100/103 96/82/85 102/87/91
f 118/101/34 116/99/99 115/98/102
f 119/102/104 60/48/53 120/49/48
f 41/30/36 121/103/99 39/28/34
f 122/104/105 123/105/26 124/106/106
f 125/3/107 126/2/108 127/1/109
f 6/6/6 5/5/5 128/4/100
f 127/1/109 13/12/12 125/3/107
f 129/19/110 25/18/111 24/17/112
f 43/32/38 130/33/113 87/73/78
f 37/26/32 36/25/31 55/24/48
f 131/28/114 132/27/115 125/3/107
f 133/31/116 134/30/117 135/29/118
f 92/78/82 136/107/113 34/23/29
f 48/37/43 137/36/119 46/35/41
f 126/2/108 132/27/115 49/38/44
f 138/40/117 58/46/51 50/39/45
f 53/42/46 131/28/114 125/3/107
f 50/39/45 32/21/27 139/41/118
f 140/34/120 54/43/47 135/29/118
f 37/26/32 56/44/49 35/24/30
f 57/45/50 133/31/116 135/29/118
f 139/41/118 138/40/117 50/39/45
f 134/30/117 133/31/116 131/28/114
f 120/49/48 60/48/53 59/47/52
f 126/2/108 63/51/55 62/50/54
f 128/4/100 141/52/121 6/6/6
f 125/3/107 132/27/115 126/2/108
f 67/55/59 142/54/122 65/53/57
f 70/58/62 76/57/68 68/56/60
f 110/62/98 75/63/67 88/74/4
f 131/28/114 143/103/123 134/30/117
f 75/63/67 113/74/100 67/55/59
f 64/52/56 144/108/124 4/4/4
f 79/66/71 133/31/116 81/68/73
f 133/31/116 132/27/115 131/28/114
f 5/5/5 83/69/75 128/4/100
f 128/4/100 83/69/75 145/70/122
f 146/22/125 139/41/118 32/21/27
f 81/68/73 133/31/116 57/45/50
f 142/54/122 67/55/59 113/74/100
f 85/71/76 147/72/126 89/75/79
f 90/76/80 120/49/48 59/47/52
f 54/43/47 140/34/120 43/32/38
f 63/51/55 126/2/108 49/38/44
f 91/77/81 131/28/114 53/42/46
f 94/80/83 148/79/126 92/78/82
f 97/83/86 149/82/127 150/81/128
f 129/19/110 24/17/112 149/82/127
f 100/86/89 151/85/129 98/84/87
f 34/23/29 152/107/39 92/78/82
f 153/109/130 154/110/121 155/111/56
f 49/38/44 132/27/115 78/65/70
f 103/88/131 129/19/110 102/87/132
f 151/85/129 104/89/93 98/84/87
f 79/66/71 81/68/73 46/35/41
f 155/111/56 154/110/121 156/112/124
f 100/86/89 97/83/86 150/81/128
f 150/81/128 106/91/95 105/90/94
f 149/82/127 106/91/95 150/81/128
f 58/46/51 138/40/117 90/76/80
f 83/69/75 77/64/69 145/70/122
f 46/35/41 137/36/119 79/66/71
f 120/49/48 90/76/80 157/96/123
f 109/94/97 158/93/68 107/92/96
f 104/89/93 151/85/129 105/90/94
f 151/85/129 100/86/89 150/81/128
f 105/90/94 151/85/129 150/81/128
f 149/82/127 102/87/132 129/19/110
f 157/96/123 90/76/80 138/40/117
f 111/95/72 137/36/119 48/37/43
f 135/29/118 54/43/47 57/45/50
f 51/40/36 90/76/80 112/96/99
f 159/97/133 126/2/108 62/50/54
f 160/113/134 161/114/135 162/115/136
f 53/42/46 125/3/107 13/12/12
f 127/1/109 126/2/108 159/97/133
f 132/27/115 133/31/116 79/66/71
f 78/65/70 132/27/115 79/66/71
f 149/82/127 97/83/86 117/100/103
f 149/82/127 24/17/112 106/91/95
f 109/94/97 72/60/64 158/93/68
f 102/87/132 149/82/127 117/100/103
f 115/98/102 163/99/123 164/101/114
f 158/93/68 72/60/64 71/59/63
f 145/70/122 77/64/69 165/116/63
f 115/98/102 56/44/49 163/99/123
f 69/57/61 77/64/69 166/116/90
f 142/54/122 71/59/63 65/53/57
f 165/116/63 77/64/69 76/57/68
f 72/60/64 101/59/90 65/53/57
f 166/116/90 77/64/69 84/70/58
f 167/117/137 123/105/26 122/104/105
f 93/79/77 92/78/82 152/107/39
f 44/33/39 87/73/78 86/72/77
f 147/72/126 87/73/78 130/33/113
f 146/22/125 34/23/29 136/107/113
f 33/22/28 32/21/27 52/41/35
f 32/21/27 34/23/29 146/22/125
f 140/34/120 130/33/113 43/32/38
f 148/79/126 136/107/113 92/78/82
f 152/107/39 34/23/29 33/22/28
f 87/73/78 44/33/39 43/32/38
f 85/71/76 87/73/78 147/72/126
f 67/55/59 88/74/4 75/63/67
f 156/112/124 168/118/138 160/113/134
f 109/94/97 108/93/61 72/60/64
f 119/102/104 61/49/30 60/48/53
f 28/10/14 30/11/26 169/20/8
f 170/119/135 171/108/138 128/4/100
f 172/120/66 173/121/139 170/119/135
f 137/36/119 80/67/72 79/66/71
f 161/114/135 160/113/134 168/118/138
f 174/119/134 4/4/4 144/108/124
f 175/120/98 4/4/4 174/119/134
f 172/120/66 170/119/135 128/4/100
f 141/52/121 128/4/100 171/108/138
f 162/115/136 161/114/135 176/122/140
f 175/120/98 174/119/134 177/121/136
f 168/118/138 156/112/124 154/110/121
f 163/99/123 56/44/49 55/24/48
f 116/99/99 35/24/30 56/44/49
f 102/87/91 178/123/141 103/88/142
f 117/100/143 178/123/141 102/87/91
f 25/18/144 179/124/141 24/17/112
f 24/17/112 179/124/141 106/91/145
