# Blender v2.74 (sub 0) OBJ File: ''
# www.blender.org
mtllib squallgunblade.mtl
o squallgunblade
v 0.057670 0.199983 0.459474
v 0.055485 0.205922 0.263600
v 0.001125 0.206345 0.264220
v 0.003309 0.200410 0.460092
v 0.013149 0.198981 0.633378
v 0.051759 0.198681 0.632938
v 0.049775 0.197492 0.459496
v 0.011164 0.197793 0.459936
v 0.001682 0.047858 0.421894
v 0.003309 0.200410 0.460092
v 0.001125 0.206345 0.264220
v 0.001125 0.206345 0.264220
v -0.000522 0.053890 0.224310
v 0.011062 -0.028165 0.242931
v 0.012422 -0.008607 0.348891
v 0.027424 0.001727 0.336063
v 0.026371 -0.012921 0.253670
v 0.030034 0.099768 1.552636
v 0.054264 0.099577 1.552362
v 0.057435 0.134902 1.503542
v 0.026305 0.135142 1.503898
v 0.041966 0.190535 0.250566
v 0.035998 0.211284 0.202547
v 0.019299 0.211417 0.202737
v 0.014075 0.190728 0.250882
v 0.046032 0.122644 0.198429
v 0.025991 0.050524 0.167467
v 0.022869 -0.059669 -0.031072
v 0.046665 0.017027 -0.071359
v 0.043077 0.049509 0.356895
v 0.042552 -0.008843 0.348548
v 0.027759 0.037270 0.341018
v 0.054108 0.127209 0.196633
v -0.000253 0.127637 0.197251
v 0.056043 0.047430 0.421275
v 0.001682 0.047858 0.421894
v -0.000522 0.053890 0.224310
v -0.000522 0.053890 0.224310
v 0.053839 0.053462 0.223691
v 0.026649 0.040306 0.241500
v 0.011489 0.053794 0.224174
v -0.035624 0.131594 0.287598
v -0.034355 0.128128 0.401450
v 0.002499 0.180419 0.402598
v 0.001229 0.183885 0.288782
v 0.055590 0.183457 0.288164
v 0.056858 0.179996 0.401978
v 0.092855 0.127132 0.400002
v 0.092855 0.127132 0.400002
v 0.091585 0.130597 0.286149
v 0.055590 0.183457 0.288164
v 0.041619 0.053557 0.223831
v 0.041619 0.053557 0.223831
v 0.041191 -0.028401 0.242588
v 0.011062 -0.028165 0.242931
v 0.011489 0.053794 0.224174
v 0.011489 0.053794 0.224174
v 0.041619 0.053557 0.223831
v 0.012422 -0.008607 0.348891
v 0.042552 -0.008843 0.348548
v 0.043077 0.049509 0.356895
v 0.043077 0.049509 0.356895
v 0.012999 0.049747 0.357236
v 0.012422 -0.008607 0.348891
v 0.030017 0.007688 0.550429
v 0.051759 0.198681 0.632938
v 0.057435 0.134902 1.503542
v 0.057435 0.134902 1.503542
v 0.040449 0.020863 1.457359
v 0.026305 0.135142 1.503898
v 0.026305 0.135142 1.503898
v 0.013149 0.198981 0.633378
v 0.012999 0.049747 0.357236
v 0.012999 0.049747 0.357236
v 0.057670 0.199983 0.459474
v 0.056043 0.047430 0.421275
v 0.053839 0.053462 0.223691
v 0.053839 0.053462 0.223691
v 0.055485 0.205922 0.263600
v 0.057670 0.199983 0.459474
v -0.000522 0.053890 0.224310
v -0.000253 0.127637 0.197251
v -0.000253 0.127637 0.197251
v 0.054108 0.127209 0.196633
v 0.046665 0.017027 -0.071359
v -0.000637 0.017398 -0.070822
v 0.007790 0.122943 0.198865
v 0.007790 0.122943 0.198865
v 0.046032 0.122644 0.198429
v 0.046665 0.017027 -0.071359
v 0.054731 0.078307 0.284964
v 0.091585 0.130597 0.286149
v 0.092855 0.127132 0.400002
v 0.092855 0.127132 0.400002
v 0.056001 0.074841 0.398817
v -0.000637 0.017398 -0.070822
v 0.007790 0.122943 0.198865
v -0.000637 0.017398 -0.070822
v 0.041619 0.053557 0.223831
v 0.041191 -0.028401 0.242588
v 0.041619 0.053557 0.223831
v 0.042552 -0.008843 0.348548
v 0.041191 -0.028401 0.242588
v 0.042552 -0.008843 0.348548
v 0.002441 0.093996 0.456860
v 0.056802 0.093568 0.456242
v 0.012999 0.049747 0.357236
v 0.042552 -0.008843 0.348548
v 0.012422 -0.008607 0.348891
v 0.011062 -0.028165 0.242931
v 0.011062 -0.028165 0.242931
v 0.042552 -0.008843 0.348548
v 0.001641 0.075269 0.399435
v 0.000370 0.078735 0.285583
v 0.001641 0.075269 0.399435
v 0.001682 0.047858 0.421894
v 0.001682 0.047858 0.421894
v 0.053839 0.053462 0.223691
v 0.054108 0.127209 0.196633
v 0.055485 0.205922 0.263600
v 0.011164 0.197793 0.459936
v 0.013149 0.198981 0.633378
v 0.092855 0.127132 0.400002
v 0.056858 0.179996 0.401978
v 0.056001 0.074841 0.398817
v 0.030034 0.099768 1.552636
v 0.043746 0.070270 1.712958
v 0.043746 0.070270 1.712958
v 0.054264 0.099577 1.552362
v 0.022869 -0.059669 -0.031072
v -0.000637 0.017398 -0.070822
v 0.046665 0.017027 -0.071359
v 0.049775 0.197492 0.459496
v 0.029767 0.111578 0.457091
v 0.057435 0.134902 1.503542
v 0.054264 0.099577 1.552362
v -0.035624 0.131594 0.287598
v 0.001229 0.183885 0.288782
v 0.000553 0.131970 0.264956
v 0.001125 0.206345 0.264220
v -0.000253 0.127637 0.197251
v -0.034355 0.128128 0.401450
v 0.001641 0.075269 0.399435
v 0.002499 0.180419 0.402598
v 0.049775 0.197492 0.459496
v 0.051759 0.198681 0.632938
v 0.091585 0.130597 0.286149
v 0.054913 0.131546 0.264337
v 0.055590 0.183457 0.288164
v 0.041619 0.053557 0.223831
v 0.000370 0.078735 0.285583
v -0.035624 0.131594 0.287598
v 0.003309 0.200410 0.460092
v 0.002441 0.093996 0.456860
v 0.011489 0.053794 0.224174
v 0.026537 0.030244 0.229349
v 0.011164 0.197793 0.459936
v 0.030034 0.099768 1.552636
v 0.026305 0.135142 1.503898
v 0.019299 0.211417 0.202737
v 0.027714 0.172373 0.235155
v 0.014075 0.190728 0.250882
v 0.011489 0.053794 0.224174
v 0.007790 0.122943 0.198865
v 0.054913 0.131546 0.264337
v 0.091585 0.130597 0.286149
v 0.054731 0.078307 0.284964
v 0.035998 0.211284 0.202547
v 0.041966 0.190535 0.250566
v 0.041619 0.053557 0.223831
v 0.035998 0.211284 0.202547
v 0.019299 0.211417 0.202737
v 0.056043 0.047430 0.421275
v 0.057670 0.199983 0.459474
v 0.056802 0.093568 0.456242
v 0.039128 -0.350474 -0.059907
v 0.001412 -0.350175 -0.059479
v 0.004076 -0.022001 -0.050888
v 0.041765 -0.022323 -0.051320
v 0.066620 -0.445296 -0.062710
v -0.027615 -0.444559 -0.061635
v -0.026846 -0.349933 -0.059159
v 0.067388 -0.350668 -0.060229
v 0.019717 -0.349801 -0.078532
v 0.020139 -0.350791 -0.040849
v 0.022802 -0.022667 -0.032262
v 0.022380 -0.021675 -0.069940
vt 2.167860 0.010630
vt 2.081990 0.010630
vt 2.081990 0.134358
vt 2.167860 0.134358
vt 2.882880 0.992193
vt 2.882880 0.898443
vt 2.998090 0.898443
vt 2.998090 0.992193
vt 2.032220 0.169796
vt 2.002950 0.692951
vt 2.167560 0.692951
vt 2.198840 0.169796
vt 2.626980 0.203115
vt 2.724620 0.203115
vt 2.707060 0.273427
vt 2.642590 0.273427
vt 2.259770 0.968755
vt 2.259770 0.906251
vt 2.294960 0.898443
vt 2.294960 0.992193
vt 2.255320 0.323763
vt 2.295940 0.321964
vt 2.295940 0.381693
vt 2.255320 0.381693
vt 2.998090 0.171855
vt 2.947290 0.445311
vt 2.730540 0.445311
vt 2.730540 0.171855
vt 2.724620 0.445311
vt 2.707060 0.382806
vt 2.000690 0.010630
vt 2.000690 0.134358
vt 2.250070 0.010630
vt 2.250070 0.134358
vt 2.330390 0.134358
vt 2.330390 0.010630
vt 2.642590 0.382806
vt 2.626980 0.445311
vt 2.147060 0.449032
vt 2.051920 0.449032
vt 2.051920 0.622166
vt 2.146390 0.622166
vt 2.444620 0.353773
vt 2.444620 0.448605
vt 2.510740 0.448605
vt 2.510740 0.353773
vt 2.359910 0.448605
vt 2.359910 0.353773
vt 2.313560 0.353773
vt 2.313560 0.448605
vt 2.933630 0.460605
vt 2.882880 0.882813
vt 2.294960 0.882813
vt 2.324230 0.460605
vt 2.393210 0.134358
vt 2.393210 0.010630
vt 2.730540 0.007793
vt 2.998090 0.007793
vt 2.147060 0.256745
vt 2.051920 0.256745
vt 2.214460 0.134358
vt 2.214460 0.010630
vt 2.222140 0.423475
vt 2.998090 0.882813
vt 2.486950 0.198433
vt 2.518180 0.361214
vt 2.518180 0.030438
vt 2.259770 0.734367
vt 2.150420 0.734367
vt 2.150420 0.937495
vt 2.644540 0.109365
vt 2.998090 0.687492
vt 2.442860 0.151574
vt 2.487200 0.053799
vt 2.442860 0.017354
vt 2.998090 0.453118
vt 2.399310 0.053799
vt 2.002950 0.333248
vt 2.998090 0.546868
vt 2.271300 0.458867
vt 2.230680 0.482106
vt 2.230680 0.395188
vt 2.271300 0.511292
vt 2.230680 0.558762
vt 2.001910 0.762318
vt 2.001910 0.880861
vt 2.261230 0.880861
vt 2.261230 0.762318
vt 2.623080 0.054668
vt 2.525430 0.054668
vt 2.525430 0.445311
vt 2.623080 0.445311
vt 2.221350 0.301012
vt 2.221350 0.182468
vt 2.479390 0.182468
vt 2.479390 0.301012
vn 0.736900 0.464500 0.491200
vn 0.590100 0.672300 -0.447000
vn -0.735300 0.657500 -0.164100
vn -0.808500 0.401900 0.429800
vn -0.456900 0.888800 0.035500
vn 0.747300 0.664300 0.015300
vn 0.755100 0.647600 -0.102300
vn -0.934600 0.340600 -0.102800
vn -0.742400 -0.540700 0.395500
vn -0.808500 0.402100 0.429700
vn -0.735400 0.657400 -0.164200
vn -0.735300 0.657500 -0.164300
vn -0.626600 -0.718600 -0.301600
vn -0.742400 -0.540700 0.395600
vn -0.969700 -0.126900 0.208700
vn -0.949100 -0.138100 0.283200
vn 0.004400 0.704500 -0.709700
vn 0.389500 0.778400 0.492400
vn -0.585300 0.693300 0.420500
vn 0.771600 0.563600 0.294800
vn 0.656500 0.702500 0.274800
vn -0.877800 0.435700 0.199200
vn 0.506500 0.812600 0.288400
vn 0.782900 -0.135500 -0.607300
vn -0.723200 0.658300 -0.208800
vn -0.855200 0.503400 0.123500
vn 0.990100 0.068900 -0.122600
vn -0.396200 -0.903800 -0.162000
vn 0.560500 -0.774000 -0.294600
vn 0.448500 0.541000 -0.711500
vn 0.898500 -0.381000 0.217800
vn 0.954300 -0.251400 0.161300
vn -0.023900 -0.661900 -0.749200
vn 0.492500 0.148200 -0.857600
vn -0.287500 0.171100 -0.942400
vn 0.590900 -0.778400 0.212000
vn 0.753200 -0.434800 -0.493500
vn -0.434400 -0.585700 0.684300
vn -0.793700 -0.439100 -0.421000
vn -0.939800 0.018100 -0.341300
vn -0.848500 -0.008800 0.529200
vn -0.726100 0.501000 0.470900
vn -0.735200 0.527800 -0.425400
vn 0.786500 0.546500 -0.287800
vn 0.592200 0.376500 0.712400
vn 0.959900 -0.016400 0.279900
vn 0.959900 -0.016300 0.280000
vn 0.847100 0.009300 -0.531400
vn 0.786400 0.546600 -0.287800
vn 0.898100 -0.439500 -0.015200
vn 0.707300 -0.286600 -0.646200
vn -0.969700 -0.126800 0.208700
vn -0.793700 -0.439000 -0.421000
vn -0.949000 -0.138100 0.283300
vn 0.954300 -0.251500 0.161300
vn 0.898500 -0.381000 0.217900
vn 0.898500 -0.381100 0.217800
vn -0.786800 -0.609600 0.096800
vn -0.011700 -0.920600 -0.390400
vn 0.747400 0.664200 0.015300
vn -0.007300 -0.999200 0.040200
vn -0.011600 -0.920600 -0.390400
vn -0.877800 0.435700 0.199100
vn -0.456900 0.888800 0.035600
vn -0.786800 -0.609600 0.096700
vn 0.736900 0.464500 0.491100
vn 0.753300 -0.434800 -0.493500
vn 0.753300 -0.434900 -0.493400
vn 0.590100 0.672400 -0.446800
vn 0.448500 0.541000 -0.711400
vn -0.892900 -0.025000 -0.449500
vn -0.756100 0.567100 -0.326600
vn -0.756100 0.567100 -0.326700
vn 0.990100 0.068900 -0.122700
vn 0.777600 -0.540800 -0.320700
vn 0.847100 0.009200 -0.531400
vn 0.585700 -0.428300 0.688100
vn -0.396200 -0.903700 -0.162100
vn 0.707300 -0.286500 -0.646200
vn -0.319900 -0.215900 0.922500
vn 0.335100 -0.409600 0.848500
vn 0.707300 -0.286600 -0.646300
vn 0.954300 -0.251500 0.161400
vn -0.734400 -0.516800 0.440000
vn -0.743400 -0.489100 -0.456200
vn -0.742400 -0.540800 0.395500
vn 0.492500 0.148300 -0.857600
vn 0.590000 0.672300 -0.447000
vn -0.011700 -0.920500 -0.390500
vn 0.959900 -0.016300 0.279900
vn 0.585600 -0.428400 0.688100
vn -0.585200 0.693300 0.420600
vn -0.007300 -0.999200 0.040300
vn 0.011700 0.917400 0.397900
vn 0.011700 0.917400 0.397800
vn -0.892900 -0.025000 -0.449600
vn 0.448600 0.541000 -0.711400
vn -0.013700 -0.668300 -0.743800
vn -0.007400 -0.999200 0.040300
vn -0.939800 0.018100 -0.341200
vn -0.530500 0.030000 -0.847100
vn -0.735400 0.657500 -0.164200
vn -0.848500 -0.008900 0.529200
vn -0.726000 0.501200 0.470900
vn 0.511500 0.021800 -0.859000
vn -0.743600 -0.488900 -0.456200
vn -0.319800 -0.216000 0.922500
vn -0.396200 -0.903700 -0.162000
vn -0.007700 -0.950300 -0.311400
vn -0.723200 0.658300 -0.208700
vn -0.013100 -0.743600 -0.668500
vn 0.847100 0.009300 -0.531300
vn 0.782900 -0.135500 -0.607200
vn 0.782900 -0.135600 -0.607200
vn -0.723200 0.658300 -0.208900
vn 0.005000 0.045500 -0.999000
vn 0.069000 -0.017700 0.997500
vn 0.182300 0.048000 -0.982100
vn 0.046000 -0.010300 0.998900
vn -0.013100 0.027700 -0.999500
vn 0.012600 -0.024800 0.999600
vn 0.000000 0.000000 0.000000
vn 0.234000 0.189900 0.953500
vn -0.782500 0.481600 -0.394800
vn -0.373700 0.727000 -0.576000
vn -0.438600 -0.072600 0.895800
vn -0.966200 -0.257700 -0.012000
usemtl Model001_Material001.025
s 1
f 1/1/1 2/2/2 3/3/3
f 3/3/3 4/4/4 1/1/1
f 5/5/5 6/6/6 7/7/7
f 7/7/7 8/8/8 5/5/5
f 9/9/9 10/10/10 11/11/11
f 12/11/12 13/12/13 9/9/14
f 14/13/15 15/14/16 16/15/17
f 16/15/17 17/16/18 14/13/15
f 18/17/19 19/18/20 20/19/21
f 20/19/21 21/20/22 18/17/19
f 22/21/23 23/22/24 24/23/25
f 24/23/25 25/24/26 22/21/23
f 26/25/27 27/26/28 28/27/29
f 28/27/29 29/28/30 26/25/27
f 30/29/31 31/14/32 16/15/17
f 16/15/17 32/30/33 30/29/31
f 2/2/2 33/31/34 34/32/35
f 34/32/35 3/3/3 2/2/2
f 35/33/36 36/34/9 37/35/13
f 38/35/13 39/36/37 35/33/36
f 14/13/15 17/16/18 40/37/38
f 40/37/38 41/38/39 14/13/15
f 42/39/40 43/40/41 44/41/42
f 44/41/42 45/42/43 42/39/40
f 46/42/44 47/41/45 48/40/46
f 49/40/47 50/39/48 51/42/49
f 5/5/5 21/20/22 20/19/21
f 20/19/21 6/6/6 5/5/5
f 52/38/50 30/29/31 32/30/33
f 32/30/33 40/37/38 53/38/50
f 54/43/51 55/44/52 56/45/53
f 57/45/53 58/46/50 54/43/51
f 59/47/54 60/48/55 61/49/56
f 62/49/57 63/50/58 64/47/16
f 65/51/59 66/52/60 67/53/21
f 68/53/21 69/54/61 65/51/62
f 65/51/62 69/54/61 70/53/63
f 71/53/63 72/52/64 65/51/59
f 73/29/65 41/38/39 40/37/38
f 40/37/38 32/30/33 74/29/58
f 75/10/66 76/9/36 77/12/67
f 78/12/68 79/11/69 80/10/1
f 39/36/68 81/35/13 82/55/35
f 83/55/35 84/56/34 39/36/68
f 85/57/70 86/28/71 87/25/72
f 88/25/73 89/58/74 90/57/30
f 91/59/75 92/39/76 93/40/47
f 94/40/47 95/60/77 91/59/75
f 96/28/71 28/27/29 27/26/28
f 27/26/78 97/25/73 98/28/71
f 99/38/50 40/37/38 17/16/18
f 17/16/18 100/13/79 101/38/50
f 102/14/55 103/13/51 17/16/18
f 17/16/18 16/15/17 104/14/55
f 105/61/80 106/62/81 1/1/1
f 1/1/1 4/4/4 105/61/80
f 15/14/16 107/29/58 32/30/33
f 32/30/33 16/15/17 15/14/16
f 108/48/55 109/47/16 110/44/15
f 111/44/15 54/43/82 112/48/83
f 113/60/84 43/40/41 42/39/40
f 42/39/40 114/59/85 115/60/84
f 106/62/81 105/61/80 116/34/9
f 117/34/86 35/33/36 106/62/81
f 118/12/67 119/63/87 120/11/88
f 121/64/8 65/51/89 122/52/5
f 123/65/90 124/66/45 125/67/91
f 126/68/92 69/54/93 127/69/94
f 19/18/20 18/17/19 128/70/95
f 69/54/93 129/68/20 127/69/94
f 130/71/29 131/28/96 132/57/97
f 133/64/7 65/51/89 134/72/98
f 69/54/99 135/53/21 136/68/20
f 137/73/100 138/74/43 139/75/101
f 13/12/13 140/11/102 141/63/35
f 142/65/103 143/67/84 144/66/104
f 65/51/89 145/64/7 146/52/60
f 147/73/76 148/75/105 149/74/49
f 27/26/28 26/25/27 150/76/50
f 139/75/101 151/77/106 152/73/100
f 153/10/10 9/9/9 154/78/107
f 155/76/39 27/26/108 156/79/109
f 157/64/8 134/72/98 65/51/89
f 69/54/93 158/68/19 159/53/22
f 160/80/110 161/81/111 162/82/26
f 27/26/78 163/76/53 164/25/73
f 165/75/105 166/73/112 167/77/75
f 168/83/113 169/84/23 161/81/111
f 27/26/108 170/76/50 156/79/109
f 171/83/114 161/81/111 172/80/115
f 173/9/36 174/10/66 175/78/81
f 176/85/116 177/86/117 178/87/118
f 178/87/118 179/88/119 176/85/116
f 180/89/120 181/90/121 182/91/122
f 182/91/122 183/92/123 180/89/120
f 184/93/124 185/94/125 186/95/126
f 186/95/126 187/96/127 184/93/124
f 179/88/119 178/87/118 177/86/117
f 177/86/117 176/85/116 179/88/119
f 183/92/123 182/91/122 181/90/121
f 181/90/121 180/89/120 183/92/123
f 187/96/127 186/95/126 185/94/125
f 185/94/125 184/93/124 187/96/127
