# Blender v2.74 (sub 0) OBJ File: ''
# www.blender.org
mtllib staff.mtl
o Model001_7_0_00
v 0.040219 -0.005494 1.038665
v -0.020112 0.029374 1.038665
v 0.020112 0.029374 1.038665
v -0.040219 -0.005494 1.038665
v -0.020112 -0.040363 1.038665
v -0.020112 -0.040363 1.038665
v -0.030075 -0.005494 1.064308
v -0.040219 -0.005494 1.038665
v -0.014944 -0.031507 1.064308
v 0.014944 -0.031507 1.064308
v 0.008669 -0.020625 1.260051
v 0.017525 -0.005494 1.260051
v 0.020112 -0.040363 1.038665
v 0.014944 -0.031507 1.064308
v -0.020112 -0.040363 1.038665
v 0.030075 -0.005494 1.064308
v 0.040219 -0.005494 1.038665
v 0.020112 0.029374 1.038665
v 0.030075 -0.005494 1.064308
v 0.017525 -0.005494 1.260051
v 0.014944 -0.031507 1.064308
v 0.014944 0.020518 1.064308
v 0.020112 0.029374 1.038665
v -0.020112 0.029374 1.038665
v 0.014944 0.020518 1.064308
v 0.008669 0.009637 1.260051
v 0.017525 -0.005494 1.260051
v -0.014944 0.020518 1.064308
v -0.020112 0.029374 1.038665
v -0.030075 -0.005494 1.064308
v -0.040219 -0.005494 1.038665
v -0.017525 -0.005494 1.260051
v -0.014944 0.020518 1.064308
v -0.030075 -0.005494 1.064308
v -0.008669 0.009637 1.260051
v -0.008669 0.009637 1.260051
v 0.008669 0.009637 1.260051
v -0.014944 0.020518 1.064308
v 0.017525 -0.005494 1.260051
v -0.017525 -0.005494 1.260051
v -0.008669 -0.020625 1.260051
v -0.008669 -0.020625 1.260051
v 0.008669 -0.020625 1.260051
v -0.014944 -0.031507 1.064308
v -0.017525 -0.005494 1.260051
v -0.030075 -0.005494 1.064308
v -0.030812 -0.005494 -0.535405
v 0.015312 0.021256 -0.535405
v -0.015312 0.021256 -0.535405
v 0.030812 -0.005494 -0.535405
v 0.015312 -0.032244 -0.535405
v -0.015312 -0.032244 -0.535405
v 0.015312 -0.032244 -0.535405
v 0.015312 -0.032244 -0.544630
v -0.015312 -0.032244 -0.544630
v -0.030812 -0.005494 -0.544630
v 0.030812 -0.005494 -0.544630
v 0.015312 -0.032244 -0.544630
v 0.015312 0.021256 -0.544630
v -0.015312 0.021256 -0.544630
v -0.015312 0.021256 -0.535405
v -0.030812 -0.005494 -0.544630
v -0.030812 -0.005494 -0.535405
v -0.015312 -0.032244 -0.535405
v 0.015312 0.021256 -0.535405
v 0.015312 0.021256 -0.544630
v -0.015312 0.021256 -0.535405
v 0.030812 -0.005494 -0.544630
v 0.030812 -0.005494 -0.535405
v 0.015312 -0.032244 -0.535405
v -0.038375 -0.005494 1.011358
v 0.019187 0.028081 1.011358
v 0.038375 -0.005494 1.011358
v -0.019187 0.028081 1.011358
v 0.019187 -0.039069 1.011358
v -0.019187 -0.039069 1.011358
v -0.019187 -0.039069 1.026121
v -0.038375 -0.005494 1.011358
v -0.038375 -0.005494 1.026121
v -0.019187 0.028081 1.026121
v -0.019187 0.028081 1.026121
v -0.019187 0.028081 1.011358
v -0.038375 -0.005494 1.011358
v 0.019187 0.028081 1.011358
v 0.019187 0.028081 1.026121
v 0.038375 -0.005494 1.011358
v 0.038375 -0.005494 1.026121
v 0.019187 -0.039069 1.026121
v 0.019187 -0.039069 1.026121
v 0.019187 -0.039069 1.011358
v 0.038375 -0.005494 1.011358
v -0.019187 -0.039069 1.026121
v -0.038375 -0.005494 1.026121
v 0.038375 -0.005494 1.026121
v 0.019187 -0.039069 1.026121
v 0.019187 0.028081 1.026121
v -0.019187 0.028081 1.026121
v 0.030812 -0.005494 -0.544630
v 0.015312 -0.032244 -0.544630
v -0.030812 -0.005494 -0.544630
v -0.015312 -0.032244 -0.544630
v 0.020112 -0.040363 1.038665
v 0.018450 -0.005494 -0.544630
v -0.018262 -0.005494 -0.570455
v 0.018450 -0.005494 -0.570455
v -0.018262 -0.005494 -0.544630
v 0.000000 0.016462 -0.549424
v 0.000000 -0.027632 -0.593517
v 0.000000 0.016462 -0.593517
v 0.000000 -0.027632 -0.549424
v -0.018262 -0.005494 -0.681523
v 0.018450 -0.005494 -0.572674
v -0.018262 -0.005494 -0.572674
v 0.018450 -0.005494 -0.681523
v -0.018262 -0.005494 -0.792217
v 0.018450 -0.005494 -0.792217
v -0.018262 -0.005494 -0.570455
v 0.018450 -0.005494 -0.544630
v 0.018450 -0.005494 -0.570455
v -0.018262 -0.005494 -0.544630
v 0.000000 -0.027632 -0.593517
v 0.000000 0.016462 -0.549424
v 0.000000 0.016462 -0.593517
v 0.000000 -0.027632 -0.549424
v 0.018450 -0.005494 -0.572674
v -0.018262 -0.005494 -0.681523
v -0.018262 -0.005494 -0.572674
v 0.018450 -0.005494 -0.681523
v -0.018262 -0.005494 -0.792217
v 0.018450 -0.005494 -0.792217
v -0.020850 -0.005494 -0.792217
v 0.000000 -0.037594 -0.815273
v 0.000000 -0.026344 -0.792217
v -0.032100 -0.005494 -0.815273
v 0.000000 0.015356 -0.792217
v 0.000000 0.026606 -0.815273
v 0.020850 -0.005494 -0.792217
v 0.032100 -0.005494 -0.815273
v 0.000000 -0.026344 -0.792217
v 0.000000 -0.037594 -0.815273
v 0.020850 -0.005494 -0.792217
v -0.020850 -0.005494 -0.792217
v 0.000000 -0.026344 -0.792217
v 0.000000 0.015356 -0.792217
v 0.000000 -0.037594 -0.815273
v 0.020850 -0.005494 -0.838335
v 0.032100 -0.005494 -0.815273
v 0.000000 -0.026344 -0.838335
v -0.032100 -0.005494 -0.815273
v -0.020850 -0.005494 -0.838335
v 0.000000 0.026606 -0.815273
v 0.000000 0.015356 -0.838335
v 0.032100 -0.005494 -0.815273
v 0.020850 -0.005494 -0.838335
v 0.020850 -0.005494 -0.838335
v -0.020850 -0.005494 -0.838335
v 0.000000 0.015356 -0.838335
v 0.000000 -0.026344 -0.838335
v -0.000000 0.210174 1.512251
v -0.000000 0.243380 1.387538
v -0.000000 0.283973 1.521844
v -0.000000 0.210174 1.263007
v -0.000000 0.118849 1.171864
v -0.000000 0.119037 1.603388
v -0.000000 0.041181 1.624238
v -0.000000 -0.005494 1.138658
v -0.000000 -0.005494 1.690281
v -0.000000 -0.052169 1.624238
v -0.000000 -0.130025 1.171864
v -0.000000 -0.129838 1.603388
v -0.000000 -0.221162 1.512251
v -0.000000 -0.221162 1.263007
v -0.000000 -0.254556 1.387538
v -0.000000 -0.294962 1.521844
v -0.000000 0.243380 1.387538
v -0.000000 0.210174 1.512251
v -0.000000 0.283973 1.521844
v -0.000000 0.210174 1.263007
v -0.000000 0.118849 1.171864
v -0.000000 0.119037 1.603388
v -0.000000 0.041181 1.624238
v -0.000000 -0.005494 1.138658
v -0.000000 -0.005494 1.690281
v -0.000000 -0.052169 1.624238
v -0.000000 -0.130025 1.171864
v -0.000000 -0.129838 1.603388
v -0.000000 -0.221162 1.512251
v -0.000000 -0.221162 1.263007
v -0.000000 -0.254556 1.387538
v 0.012544 -0.027263 -0.056651
v 0.025094 -0.005494 -0.535405
v 0.025094 -0.005494 -0.056651
v 0.012544 -0.027263 -0.535405
v -0.012544 -0.027263 -0.535405
v -0.012544 -0.027263 -0.056651
v -0.012544 -0.027263 -0.535405
v 0.012544 -0.027263 -0.056651
v -0.025094 -0.005494 -0.535405
v -0.025094 -0.005494 -0.056651
v -0.012544 0.016274 -0.056651
v -0.012544 0.016274 -0.056651
v -0.012544 0.016274 -0.535405
v -0.025094 -0.005494 -0.535405
v 0.012544 0.016274 -0.056651
v 0.012544 0.016274 -0.056651
v 0.012544 0.016274 -0.535405
v -0.012544 0.016274 -0.535405
v 0.025094 -0.005494 -0.535405
v 0.025094 -0.005494 -0.056651
v -0.012544 0.016274 -0.056651
v 0.012544 0.016274 1.038665
v 0.012544 0.016274 -0.056651
v -0.012544 0.016274 1.038665
v -0.025094 -0.005494 -0.056651
v -0.025094 -0.005494 1.038665
v -0.012544 -0.027263 1.038665
v -0.012544 -0.027263 -0.056651
v -0.012544 -0.027263 1.038665
v -0.025094 -0.005494 -0.056651
v 0.012544 -0.027263 1.038665
v 0.012544 -0.027263 -0.056651
v 0.025094 -0.005494 -0.056651
v 0.025094 -0.005494 -0.056651
v 0.025094 -0.005494 1.038665
v 0.012544 -0.027263 1.038665
v 0.012544 0.016274 1.038665
v 0.012544 0.016274 -0.056651
v -0.000000 -0.294962 1.521844
vt 0.928223 -0.690430
vt 0.950928 -0.848633
vt 0.950928 -0.743164
vt 0.928223 -0.900391
vt 0.471191 -0.594727
vt 0.492188 -0.528320
vt 0.471191 -0.520508
vt 0.492188 -0.608398
vt 0.492188 -0.688477
vt 0.626953 -0.672852
vt 0.626953 -0.705078
vt 0.471191 -0.702148
vt 0.492188 -0.769531
vt 0.471191 -0.779297
vt 0.626953 -0.592773
vt 0.626953 -0.626953
vt 0.634521 -0.694336
vt 0.634521 -0.602539
vt 0.582031 -0.461914
vt 0.560547 -0.297852
vt 0.560547 -0.407227
vt 0.582031 -0.243164
vt 0.544678 -0.297852
vt 0.544678 -0.407227
vt 0.526123 -0.461914
vt 0.526123 -0.243164
vt 0.544678 -0.517578
vt 0.560547 -0.517578
vt 0.544678 -0.187500
vt 0.560547 -0.187500
vt 0.927734 -0.926758
vt 0.951416 -0.728516
vt 0.927734 -0.662109
vt 0.951416 -0.860352
vt 0.974609 -0.860352
vt 0.951416 -0.993164
vt 0.974609 -0.993164
vt 0.974609 -0.728516
vt 0.951416 -0.595703
vt 0.974609 -0.595703
vt 0.997803 -0.926758
vt 0.997803 -0.662109
vt 0.446045 -0.778320
vt 0.386475 -0.437500
vt 0.386475 -0.778320
vt 0.446045 -0.437500
vt 0.513184 -0.405273
vt 0.415283 -0.012695
vt 0.415283 -0.405273
vt 0.513184 -0.012695
vt 0.205078 -0.009766
vt 0.404541 -0.280273
vt 0.404541 -0.009766
vt 0.205078 -0.280273
vt 0.002197 -0.009766
vt 0.002197 -0.280273
vt 0.375977 -0.402344
vt 0.337891 -0.532227
vt 0.371826 -0.532227
vt 0.337891 -0.326172
vt 0.375977 -0.671875
vt 0.337891 -0.738281
vt 0.302979 -0.671875
vt 0.306885 -0.532227
vt 0.302979 -0.402344
vt 0.681885 -0.738281
vt 0.787354 -0.850586
vt 0.673828 -0.988281
vt 0.892822 -0.738281
vt 0.969971 -0.429688
vt 0.604736 -0.429688
vt 0.587158 -0.166016
vt 0.998047 -0.007813
vt 0.531250 -0.007813
vt 0.290771 -0.656250
vt 0.002441 -0.595703
vt 0.290771 -0.595703
vt 0.002441 -0.656250
vt 0.002441 -0.716797
vt 0.290771 -0.716797
vt 0.002441 -0.778320
vt 0.290771 -0.778320
vt 0.002197 -0.872070
vt 0.662354 -0.932617
vt 0.002197 -0.932617
vt 0.662354 -0.872070
vt 0.002197 -0.810547
vt 0.662354 -0.810547
vt 0.002197 -0.986328
vt 0.662354 -0.986328
vn -0.000000 0.000000 -1.000000
vn -0.577300 -0.577300 0.577400
vn -0.577300 -0.577400 0.577400
vn -0.577400 -0.577400 0.577300
vn -0.577300 -0.577400 0.577300
vn 0.577400 -0.577400 0.577300
vn 0.644200 -0.644100 0.412500
vn 0.658000 -0.658000 0.366100
vn 0.577300 -0.577300 0.577400
vn 0.577300 -0.577400 0.577300
vn 0.000000 -0.707100 0.707100
vn 0.707100 -0.000000 0.707100
vn 0.577400 0.577300 0.577300
vn 0.577400 0.577400 0.577200
vn 0.842400 -0.000000 0.538900
vn 0.658500 -0.658500 0.364400
vn 0.577300 0.577400 0.577300
vn 0.577300 0.577300 0.577400
vn 0.000000 0.707100 0.707100
vn 0.577400 0.577400 0.577300
vn 0.644200 0.644100 0.412500
vn 0.658000 0.658000 0.366100
vn -0.577300 0.577400 0.577300
vn -0.577300 0.577300 0.577400
vn -0.577300 0.577400 0.577400
vn -0.577400 0.577400 0.577300
vn -0.658300 0.658200 0.365200
vn -0.658500 0.658500 0.364400
vn -0.658000 0.658000 0.366100
vn 0.000000 0.874400 0.485200
vn 0.000000 0.000000 1.000000
vn -0.646200 -0.646200 0.405900
vn -0.658300 -0.658200 0.365200
vn -0.658500 -0.658500 0.364400
vn 0.000000 -0.707100 -0.707100
vn 0.000000 0.707100 -0.707100
vn -0.577300 0.577300 -0.577400
vn -0.707100 0.707100 -0.000000
vn -1.000000 -0.000000 -0.000000
vn -0.707100 -0.707100 0.000000
vn 0.707100 0.707100 0.000000
vn -0.000000 1.000000 0.000000
vn 1.000000 0.000000 0.000000
vn 0.707100 -0.707100 0.000000
vn -0.577300 -0.577400 -0.577400
vn -0.707100 0.707100 -0.000200
vn 0.000000 -1.000000 -0.000000
vn -0.577400 -0.577300 0.577300
vn 0.577400 -0.577300 0.577400
vn 0.577300 -0.577400 -0.577300
vn -0.577300 -0.577400 -0.577300
vn -0.577400 -0.577300 -0.577400
vn -0.577400 0.577300 -0.577400
vn -0.577300 0.577400 -0.577300
vn 0.577300 0.577400 -0.577400
vn 0.577300 0.577400 -0.577300
vn -0.707100 0.707100 0.000100
vn 0.707100 0.707100 0.000100
vn -0.707100 0.707100 -0.000100
vn -0.707100 -0.707100 -0.000100
vn -0.707100 -0.707100 0.000100
vn 0.707100 0.707100 -0.000100
usemtl Model001_Material001.007
s 1
f 1/1/1 2/2/1 3/3/1
f 2/2/1 1/1/1 4/4/1
f 4/4/1 1/1/1 5/2/1
f 6/5/2 7/6/3 8/7/4
f 7/6/3 6/5/2 9/8/5
f 10/9/6 9/8/5 6/5/2
f 9/8/5 10/9/6 11/10/7
f 12/11/8 11/10/7 10/9/6
f 13/12/9 14/9/10 15/5/11
f 14/9/10 13/12/9 16/13/10
f 17/14/12 16/13/10 13/12/9
f 16/13/10 17/14/12 18/12/13
f 19/13/14 20/11/15 21/9/16
f 20/11/15 19/13/14 22/9/17
f 23/12/18 22/9/17 19/13/14
f 22/9/17 23/12/18 24/5/19
f 25/9/20 26/10/21 27/11/22
f 26/10/21 25/9/20 28/8/23
f 29/5/24 28/8/23 25/9/20
f 28/8/23 29/5/24 30/6/25
f 31/7/26 30/6/25 29/5/24
f 32/15/27 33/8/27 34/6/28
f 33/8/27 32/15/27 35/16/29
f 36/16/19 37/10/19 38/8/30
f 37/10/19 36/16/19 39/17/31
f 40/18/31 39/17/31 36/16/19
f 39/17/31 40/18/31 41/16/31
f 42/16/4 43/10/11 39/17/31
f 43/10/11 42/16/4 44/8/32
f 45/15/33 44/8/32 42/16/4
f 44/8/32 45/15/33 46/6/34
f 47/19/31 48/20/31 49/21/31
f 48/20/31 47/19/31 50/22/31
f 51/20/31 50/22/31 47/19/31
f 52/21/11 53/20/11 47/19/31
f 53/20/11 52/21/11 54/23/35
f 55/24/35 54/23/35 52/21/11
f 54/23/35 55/24/35 56/25/1
f 56/25/1 57/26/1 58/23/1
f 57/26/1 56/25/1 59/23/36
f 60/24/37 59/23/36 56/25/1
f 59/23/36 60/24/37 61/21/38
f 62/27/38 61/21/38 60/24/37
f 61/21/38 62/27/38 63/28/39
f 64/21/40 63/28/39 62/27/38
f 65/20/41 66/23/41 67/21/42
f 66/23/41 65/20/41 68/29/41
f 69/30/43 68/29/41 65/20/41
f 68/29/41 69/30/43 70/20/44
f 71/31/1 72/32/1 73/33/1
f 72/32/1 71/31/1 74/34/1
f 75/32/35 71/31/1 73/33/1
f 71/31/1 75/32/35 76/34/45
f 77/35/40 76/34/45 75/32/35
f 76/34/45 77/35/40 78/36/40
f 79/37/39 78/36/40 77/35/40
f 78/36/40 79/37/39 80/35/38
f 81/35/46 82/34/38 83/36/38
f 82/34/38 81/35/46 84/32/41
f 85/38/41 84/32/41 81/35/46
f 84/32/41 85/38/41 86/39/41
f 87/40/43 86/39/41 85/38/41
f 86/39/41 87/40/43 88/38/44
f 89/38/9 90/32/44 91/39/44
f 90/32/44 89/38/9 92/35/11
f 93/41/31 92/35/11 89/38/9
f 94/42/31 93/41/31 95/38/31
f 93/41/31 94/42/31 96/38/31
f 93/41/31 96/38/31 97/35/31
f 98/29/44 70/20/44 99/23/44
f 64/21/40 100/27/40 101/24/40
f 5/2/1 1/1/1 102/3/1
f 103/43/47 104/44/47 105/45/47
f 104/44/47 103/43/47 106/46/47
f 107/47/43 108/48/43 109/49/43
f 108/48/43 107/47/43 110/50/43
f 111/51/47 112/52/47 113/53/47
f 112/52/47 111/51/47 114/54/47
f 115/55/47 114/54/47 111/51/47
f 114/54/47 115/55/47 116/56/47
f 117/44/42 118/43/42 119/45/42
f 118/43/42 117/44/42 120/46/42
f 121/48/39 122/47/39 123/49/39
f 122/47/39 121/48/39 124/50/39
f 125/52/42 126/51/42 127/53/42
f 126/51/42 125/52/42 128/54/42
f 128/54/42 129/55/42 126/51/42
f 129/55/42 128/54/42 130/56/42
f 131/57/5 132/58/4 133/59/48
f 132/58/4 131/57/5 134/60/23
f 135/59/26 134/60/23 131/57/5
f 134/60/23 135/59/26 136/58/13
f 137/61/17 136/58/13 135/59/26
f 136/58/13 137/61/17 138/62/10
f 139/59/49 138/62/10 137/61/17
f 138/62/10 139/59/49 140/58/6
f 141/61/31 142/57/31 143/59/31
f 142/57/31 141/61/31 144/59/31
f 145/58/50 146/63/50 147/62/50
f 146/63/50 145/58/50 148/64/51
f 149/60/52 148/64/51 145/58/50
f 148/64/51 149/60/52 150/65/53
f 151/58/54 150/65/53 149/60/52
f 150/65/53 151/58/54 152/64/55
f 153/62/56 152/64/55 151/58/54
f 152/64/55 153/62/56 154/63/56
f 155/63/1 156/65/1 157/64/1
f 156/65/1 155/63/1 158/64/1
f 159/66/43 160/67/43 161/68/43
f 160/67/43 159/66/43 162/69/43
f 163/70/43 162/69/43 159/66/43
f 164/71/43 163/70/43 159/66/43
f 163/70/43 164/71/43 165/72/43
f 165/72/43 166/73/43 163/70/43
f 166/73/43 165/72/43 167/74/43
f 168/72/43 166/73/43 167/74/43
f 166/73/43 168/72/43 169/70/43
f 170/71/43 169/70/43 168/72/43
f 169/70/43 170/71/43 171/66/43
f 171/66/43 172/69/43 169/70/43
f 172/69/43 171/66/43 173/67/43
f 174/68/43 173/67/43 171/66/43
f 175/67/39 176/66/39 177/68/39
f 176/66/39 175/67/39 178/69/39
f 179/70/39 176/66/39 178/69/39
f 176/66/39 179/70/39 180/71/39
f 181/72/39 180/71/39 179/70/39
f 182/73/39 181/72/39 179/70/39
f 181/72/39 182/73/39 183/74/39
f 184/72/39 183/74/39 182/73/39
f 185/70/39 184/72/39 182/73/39
f 184/72/39 185/70/39 186/71/39
f 187/66/39 186/71/39 185/70/39
f 188/69/39 187/66/39 185/70/39
f 187/66/39 188/69/39 189/67/39
f 190/75/44 191/76/44 192/77/44
f 191/76/44 190/75/44 193/78/44
f 194/79/47 193/78/44 190/75/44
f 195/80/40 196/79/40 197/75/47
f 196/79/40 195/80/40 198/81/40
f 199/82/39 198/81/40 195/80/40
f 198/81/40 199/82/39 200/80/38
f 201/80/38 202/79/57 203/81/38
f 202/79/57 201/80/38 204/75/42
f 205/75/41 206/78/58 207/79/42
f 206/78/58 205/75/41 208/76/41
f 209/77/41 208/76/41 205/75/41
f 210/83/38 211/84/42 212/85/42
f 211/84/42 210/83/38 213/86/59
f 214/87/38 213/86/59 210/83/38
f 213/86/59 214/87/38 215/88/39
f 216/86/60 215/88/39 214/87/38
f 217/83/61 218/86/40 219/87/40
f 218/86/40 217/83/61 220/84/44
f 221/85/44 220/84/44 217/83/61
f 220/84/44 221/85/44 222/89/44
f 223/89/41 224/90/43 225/84/44
f 224/90/43 223/89/41 226/84/62
f 227/85/41 226/84/62 223/89/41
f 228/68/39 187/66/39 189/67/39
