# Blender v2.74 (sub 0) OBJ File: ''
# www.blender.org
mtllib Tisword2.mtl
o tisword2
v -0.004259 -0.000588 -0.146962
v 0.024546 -0.006828 -0.167182
v -0.004259 -0.013070 -0.146962
v 0.015691 -0.013132 -0.142684
v 0.007994 -0.014644 -0.101388
v -0.016394 -0.014644 -0.101356
v -0.024198 -0.013132 -0.142632
v -0.033117 -0.006828 -0.167105
v 0.006750 -0.013509 0.129944
v 0.014281 0.001871 0.119793
v 0.006750 -0.000147 0.129944
v -0.014537 -0.000147 0.129972
v -0.022095 0.001871 0.119840
v -0.014537 -0.013509 0.129972
v -0.022095 -0.015527 0.119840
v 0.014281 -0.015527 0.119793
v 0.007096 -0.013889 -0.077515
v 0.012453 0.003132 -0.090431
v 0.007096 0.000233 -0.077515
v -0.015432 0.000233 -0.077486
v -0.020822 0.003132 -0.090387
v -0.015432 -0.013889 -0.077486
v -0.020822 -0.016788 -0.090387
v 0.012453 -0.016788 -0.090431
v 0.007096 -0.013889 -0.077515
v 0.007096 0.000233 -0.077515
v 0.011063 -0.014392 0.109141
v 0.011063 0.000736 0.109141
v -0.018905 0.000736 0.109182
v 0.011063 -0.014392 0.109141
v -0.018905 -0.014392 0.109182
v 0.007096 -0.013889 -0.077515
v -0.015432 -0.013889 -0.077486
v -0.015432 0.000233 -0.077486
v -0.004259 -0.000588 -0.146962
v 0.015691 -0.000524 -0.142684
v 0.007994 0.000988 -0.101388
v -0.016394 0.000988 -0.101356
v 0.014281 0.001871 0.119793
v 0.014281 -0.015527 0.119793
v 0.011063 0.000736 0.109141
v 0.011063 -0.014392 0.109141
v 0.014281 0.001871 0.119793
v 0.011063 0.000736 0.109141
v -0.022095 0.001871 0.119840
v -0.018905 0.000736 0.109182
v 0.014281 -0.015527 0.119793
v -0.022095 -0.015527 0.119840
v 0.011063 -0.014392 0.109141
v -0.018905 -0.014392 0.109182
v -0.018905 -0.014392 0.109182
v -0.022095 -0.015527 0.119840
v -0.018905 0.000736 0.109182
v -0.022095 0.001871 0.119840
v -0.024198 -0.000524 -0.142632
v -0.024198 -0.000524 -0.142632
v -0.016394 0.000988 -0.101356
v 0.007994 -0.014644 -0.101388
v 0.007994 0.000988 -0.101388
v 0.012453 -0.016788 -0.090431
v 0.012453 0.003132 -0.090431
v -0.016394 0.000988 -0.101356
v -0.020822 0.003132 -0.090387
v 0.007994 0.000988 -0.101388
v 0.012453 0.003132 -0.090431
v -0.016394 -0.014644 -0.101356
v -0.020822 -0.016788 -0.090387
v -0.016394 0.000988 -0.101356
v -0.020822 0.003132 -0.090387
v -0.016394 -0.014644 -0.101356
v 0.007994 -0.014644 -0.101388
v -0.020822 -0.016788 -0.090387
v 0.012453 -0.016788 -0.090431
v 0.015691 -0.000524 -0.142684
v 0.007994 0.000988 -0.101388
v -0.015432 0.000233 -0.077486
v -0.018905 0.000736 0.109182
v 0.047014 -0.013509 0.413368
v 0.079125 -0.013509 0.392631
v 0.047014 -0.000147 0.413368
v 0.079125 -0.000147 0.392631
v 0.154550 -0.013509 0.147064
v 0.154550 -0.000147 0.147064
v 0.144341 -0.013509 0.084891
v 0.144341 -0.000147 0.084891
v 0.110127 -0.013509 0.078686
v 0.110127 -0.000147 0.078686
v 0.060891 -0.013509 0.122292
v 0.060891 -0.000147 0.122292
v -0.003878 -0.013509 0.142048
v -0.003878 -0.000147 0.142048
v -0.073024 -0.013509 0.134045
v -0.073024 -0.000147 0.134045
v -0.066584 -0.013509 0.158625
v -0.066584 -0.000147 0.158625
v -0.091386 -0.013509 0.158658
v -0.091386 -0.000147 0.158658
v -0.091386 -0.013509 0.158658
v -0.048298 -0.013509 0.311557
v -0.091386 -0.000147 0.158658
v -0.048298 -0.000147 0.311557
v -0.037640 -0.013509 0.557012
v -0.037640 -0.000147 0.557012
v -0.075176 -0.013509 0.852422
v -0.075176 -0.000147 0.852422
v -0.061508 -0.013509 0.872178
v -0.061508 -0.000147 0.872178
v -0.037430 -0.013509 0.871634
v -0.037430 -0.000147 0.871634
v -0.073024 -0.013509 0.134045
v -0.003878 -0.013509 0.142048
v -0.066584 -0.013509 0.158625
v 0.068841 -0.013509 0.194919
v 0.060891 -0.013509 0.122292
v 0.103562 -0.013509 0.115883
v 0.110127 -0.013509 0.078686
v 0.125476 -0.013509 0.119850
v 0.144341 -0.013509 0.084891
v 0.129448 -0.013509 0.153961
v 0.154550 -0.013509 0.147064
v 0.079125 -0.013509 0.392631
v 0.154550 -0.000147 0.147064
v 0.144341 -0.000147 0.084891
v 0.129448 -0.000147 0.153961
v 0.125476 -0.000147 0.119850
v 0.110127 -0.000147 0.078686
v 0.103562 -0.000147 0.115883
v 0.060891 -0.000147 0.122292
v 0.068841 -0.000147 0.194919
v -0.003878 -0.000147 0.142048
v -0.066584 -0.000147 0.158625
v -0.073024 -0.000147 0.134045
v -0.135437 -0.013509 1.233818
v -0.065446 -0.013509 1.334024
v -0.135437 -0.000147 1.233818
v -0.065446 -0.000147 1.334024
v -0.028278 -0.006828 1.386531
v 0.068841 -0.013509 0.194919
v 0.068970 -0.000147 0.293065
v 0.068970 -0.013509 0.293065
v 0.129448 -0.013509 0.153961
v 0.129448 -0.000147 0.153961
v 0.125476 -0.013509 0.119850
v 0.125476 -0.000147 0.119850
v 0.103562 -0.013509 0.115883
v 0.103562 -0.000147 0.115883
v 0.068841 -0.000147 0.194919
v -0.065446 -0.000147 1.334024
v 0.006158 -0.000147 1.089690
v -0.135437 -0.000147 1.233818
v -0.071285 -0.000147 1.059571
v 0.036229 -0.000147 0.853915
v -0.037430 -0.000147 0.871634
v -0.037640 -0.000147 0.557012
v -0.061508 -0.000147 0.872178
v -0.075176 -0.000147 0.852422
v -0.075176 -0.013509 0.852422
v -0.037640 -0.013509 0.557012
v -0.061508 -0.013509 0.872178
v -0.037430 -0.013509 0.871634
v 0.036229 -0.013509 0.853915
v -0.071285 -0.013509 1.059571
v 0.006158 -0.013509 1.089690
v -0.135437 -0.013509 1.233818
v -0.065446 -0.013509 1.334024
v 0.047014 -0.000147 0.413368
v -0.048298 -0.000147 0.311557
v 0.068970 -0.000147 0.293065
v 0.079125 -0.000147 0.392631
v -0.037430 -0.013509 0.871634
v -0.071285 -0.013509 1.059571
v -0.037430 -0.000147 0.871634
v -0.071285 -0.000147 1.059571
v -0.135437 -0.013509 1.233818
v -0.135437 -0.000147 1.233818
v -0.091386 -0.000147 0.158658
v 0.068970 -0.013509 0.293065
v -0.048298 -0.013509 0.311557
v -0.091386 -0.013509 0.158658
v 0.047014 -0.013509 0.413368
v 0.068841 -0.013509 0.194919
v 0.068841 -0.000147 0.194919
v -0.019396 -0.000147 0.129979
v -0.019396 -0.013509 0.129979
v -0.019333 -0.000147 0.177003
v -0.019333 -0.013509 0.177003
v -0.003894 -0.017355 0.129959
v -0.003832 -0.017355 0.176983
v 0.011669 -0.013509 0.176963
v 0.011669 -0.013509 0.176963
v 0.021709 -0.013509 0.189448
v -0.003832 -0.017355 0.176983
v -0.003800 -0.020822 0.200853
v 0.021740 -0.013509 0.212090
v -0.003768 -0.013509 0.225339
v 0.011669 -0.000147 0.176963
v -0.003832 0.003699 0.176983
v 0.021709 -0.000147 0.189448
v -0.003800 0.007166 0.200853
v -0.029340 -0.000147 0.189515
v -0.029310 -0.000147 0.212157
v -0.003894 -0.017355 0.129959
v -0.019396 -0.013509 0.129979
v 0.011607 -0.013509 0.129939
v 0.011607 -0.000147 0.129939
v -0.019396 -0.000147 0.129979
v -0.003894 0.003699 0.129959
v 0.011607 -0.000147 0.129939
v -0.003894 0.003699 0.129959
v 0.011669 -0.000147 0.176963
v -0.003832 0.003699 0.176983
v -0.019333 -0.000147 0.177003
v 0.011607 -0.013509 0.129939
v 0.011669 -0.000147 0.176963
v 0.011607 -0.000147 0.129939
v 0.021740 -0.000147 0.212090
v -0.003768 -0.000147 0.225339
v -0.029310 -0.013509 0.212157
v -0.029340 -0.013509 0.189515
v -0.019333 -0.013509 0.177003
v -0.019396 -0.000147 0.129979
v -0.019333 -0.000147 0.177003
v -0.065446 -0.000147 1.334024
v -0.028278 -0.006828 1.386531
v 0.006158 -0.000147 1.089690
v 0.048339 -0.006828 1.104490
v 0.006158 -0.013509 1.089690
v 0.036229 -0.013509 0.853915
v 0.074525 -0.006828 0.822515
v 0.047014 -0.000147 0.413368
v 0.036229 -0.000147 0.853915
v 0.047014 -0.013509 0.413368
v 0.079125 -0.006828 0.392631
v -0.065446 -0.013509 1.334024
vt 0.674072 0.225586
vt 0.664551 0.334961
vt 0.648682 0.225586
vt 0.645264 0.300781
vt 0.614502 0.277344
vt 0.614502 0.168945
vt 0.645752 0.153320
vt 0.664551 0.120117
vt 0.733398 0.135742
vt 0.788818 0.228516
vt 0.782471 0.135742
vt 0.726563 0.228516
vt 0.688721 0.135742
vt 0.685791 0.228516
vt 0.202881 0.973633
vt 0.202393 0.877930
vt 0.010498 0.995117
vt 0.009766 0.895508
vt 0.009766 0.773438
vt 0.202393 0.785156
vt 0.202637 0.689453
vt 0.759033 0.240234
vt 0.830566 0.240234
vt 0.767578 0.322266
vt 0.822021 0.322266
vt 0.754395 0.240234
vt 0.747070 0.322266
vt 0.685547 0.240234
vt 0.693359 0.322266
vt 0.755859 0.240234
vt 0.684570 0.240234
vt 0.747314 0.322266
vt 0.692871 0.322266
vt 0.821533 0.322266
vt 0.829102 0.240234
vt 0.768066 0.322266
vt 0.760254 0.240234
vt 0.645264 0.109375
vt 0.614502 0.109375
vt 0.820801 0.322266
vt 0.766113 0.322266
vt 0.757813 0.240234
vt 0.644775 0.344727
vt 0.614502 0.344727
vt 0.010254 0.673828
vt 0.863281 0.984375
vt 0.833496 0.984375
vt 0.863281 0.906250
vt 0.833496 0.906250
vt 0.608643 0.984375
vt 0.608643 0.906250
vt 0.556152 0.984375
vt 0.556152 0.906250
vt 0.527588 0.984375
vt 0.527588 0.906250
vt 0.471924 0.984375
vt 0.471924 0.906250
vt 0.412354 0.984375
vt 0.412354 0.906250
vt 0.351563 0.984375
vt 0.351563 0.906250
vt 0.329102 0.984375
vt 0.329102 0.906250
vt 0.307373 0.984375
vt 0.307373 0.906250
vt 0.994385 0.086914
vt 0.858887 0.086914
vt 0.994385 0.022461
vt 0.858887 0.022461
vt 0.643311 0.086914
vt 0.643311 0.022461
vt 0.388672 0.086914
vt 0.388672 0.022461
vt 0.370117 0.086914
vt 0.370117 0.022461
vt 0.349854 0.086914
vt 0.349854 0.022461
vt 0.955078 0.288086
vt 0.948975 0.497070
vt 0.936279 0.307617
vt 0.908691 0.715820
vt 0.963867 0.692383
vt 0.968750 0.820313
vt 0.997070 0.840820
vt 0.965576 0.886719
vt 0.992188 0.944336
vt 0.939697 0.898438
vt 0.944824 0.974609
vt 0.758545 0.740234
vt 0.337891 0.092773
vt 0.222656 0.092773
vt 0.337891 0.015625
vt 0.222656 0.015625
vt 0.162109 0.051758
vt 0.390625 0.858398
vt 0.483398 0.781250
vt 0.483398 0.858398
vt 0.626709 0.858398
vt 0.626709 0.781250
vt 0.659180 0.858398
vt 0.659180 0.781250
vt 0.679932 0.858398
vt 0.679932 0.781250
vt 0.761475 0.781250
vt 0.042969 0.304688
vt 0.228760 0.517578
vt 0.119141 0.095703
vt 0.251465 0.290039
vt 0.408203 0.604492
vt 0.394287 0.392578
vt 0.633545 0.392578
vt 0.394043 0.320313
vt 0.408936 0.278320
vt 0.742920 0.640625
vt 0.820068 0.362305
vt 0.833984 0.715820
vt 0.568604 0.209961
vt 0.400879 0.209961
vt 0.568604 0.149414
vt 0.400879 0.149414
vt 0.238281 0.209961
vt 0.238281 0.149414
vt 0.936279 0.232422
vt 0.761475 0.858398
vt 0.390625 0.781250
vt 0.211182 0.983398
vt 0.211182 0.909180
vt 0.255127 0.983398
vt 0.255127 0.909180
vt 0.211182 0.847656
vt 0.255127 0.847656
vt 0.255127 0.782227
vt 0.255371 0.774414
vt 0.269531 0.732422
vt 0.255371 0.839844
vt 0.280518 0.839844
vt 0.291748 0.732422
vt 0.306641 0.839844
vt 0.269043 0.946289
vt 0.291016 0.946289
vt 0.324463 0.793945
vt 0.328613 0.741211
vt 0.328613 0.847656
vt 0.347168 0.847656
vt 0.347168 0.741211
vt 0.352539 0.794922
vt 0.211182 0.782227
vt 0.255127 0.702148
vt 0.211182 0.702148
vt 0.255371 0.901367
vt 0.002930 0.418945
vt 0.217773 0.643555
vt 0.432129 0.719727
vn -0.000800 0.762500 -0.647000
vn 0.916700 0.000000 -0.399500
vn -0.000900 -0.762500 -0.647000
vn 0.552900 -0.818100 -0.158300
vn 0.714600 -0.675800 -0.180400
vn -0.799500 -0.589600 -0.114600
vn -0.553200 -0.817900 -0.158200
vn -0.917600 0.000000 -0.397500
vn 0.712200 -0.256500 0.653500
vn 0.758400 0.520000 0.392900
vn 0.603300 0.434500 0.668800
vn -0.433500 0.626400 0.647900
vn -0.791700 0.549700 0.266600
vn -0.602200 -0.434900 0.669400
vn -0.836500 -0.547900 -0.002400
vn 0.831300 -0.538100 0.139400
vn 0.807000 -0.507700 0.301700
vn 0.827200 0.514400 0.226000
vn 0.836900 0.513000 0.190900
vn -0.821500 0.493600 0.285500
vn -0.847300 0.529600 0.040000
vn -0.784000 -0.483600 0.389200
vn -0.833700 -0.520400 -0.184700
vn 0.849400 -0.527700 0.004700
vn 0.836900 0.513000 0.190800
vn 0.837300 -0.513100 -0.188500
vn 0.819500 0.509400 -0.262500
vn -0.828500 0.517100 -0.214900
vn 0.837400 -0.513100 -0.188500
vn -0.842900 -0.518800 -0.142500
vn 0.806900 -0.507700 0.301800
vn -0.821500 0.493600 0.285400
vn 0.552900 0.818100 -0.158300
vn 0.793400 0.563400 -0.230400
vn -0.861000 0.476600 -0.177700
vn 0.831300 -0.538100 0.139500
vn 0.758400 0.520000 0.393000
vn -0.828500 0.517100 -0.214800
vn -0.836500 -0.547900 -0.002200
vn 0.837300 -0.513100 -0.188600
vn -0.842900 -0.518800 -0.142600
vn -0.842900 -0.518800 -0.142400
vn -0.828500 0.517100 -0.214700
vn -0.553100 0.818000 -0.158200
vn -0.917700 -0.000000 -0.397400
vn -0.553100 0.817900 -0.158300
vn 0.714600 -0.675800 -0.180500
vn 0.793400 0.563400 -0.230500
vn 0.849400 -0.527800 0.004700
vn 0.827200 0.514400 0.226100
vn 0.827200 0.514400 0.225900
vn -0.847300 0.529700 0.040000
vn -0.799500 -0.589700 -0.114300
vn 0.714600 -0.675900 -0.180500
vn 0.849400 -0.527700 0.004600
vn 0.207200 -0.926100 0.315200
vn 0.608000 -0.543100 0.579100
vn 0.346700 0.775100 0.528200
vn 0.729000 0.542600 0.417400
vn 0.913700 -0.384300 0.132200
vn 0.923200 0.384300 -0.008500
vn 0.692600 -0.588400 -0.417200
vn 0.434600 0.590300 -0.680200
vn -0.093900 -0.560500 -0.822800
vn -0.352500 0.559900 -0.749900
vn -0.472000 -0.531200 -0.703600
vn -0.364100 0.531300 -0.765000
vn -0.137000 -0.531100 -0.836100
vn -0.018000 0.531800 -0.846700
vn -0.374200 -0.310100 -0.873900
vn -0.918900 0.308200 -0.246300
vn -0.614300 -0.773500 -0.156200
vn -0.308300 0.775600 -0.550900
vn -0.468600 -0.296000 -0.832400
vn -0.930100 0.294300 -0.219900
vn -0.685900 -0.715100 0.135000
vn -0.694300 0.715000 0.081700
vn -0.700100 -0.714000 -0.008000
vn -0.698500 0.714000 -0.047400
vn -0.971500 -0.211000 0.108300
vn -0.914300 0.211200 0.345700
vn -0.554800 -0.416300 0.720300
vn -0.266200 0.416600 0.869200
vn -0.342700 -0.668200 0.660400
vn -0.708400 0.666200 0.233200
vn -0.374200 -0.310100 -0.874000
vn -0.137000 -0.531100 -0.836200
vn -0.614100 -0.773500 -0.156500
vn 0.688100 -0.719600 0.092800
vn -0.472200 -0.531200 -0.703500
vn 0.408600 -0.507000 0.759000
vn -0.093800 -0.560500 -0.822800
vn -0.703600 -0.594400 0.389400
vn 0.692700 -0.588400 -0.417100
vn -0.745500 -0.642700 -0.176600
vn 0.913700 -0.384400 0.132100
vn 0.607900 -0.543100 0.579200
vn 0.923200 0.384300 -0.008700
vn 0.434500 0.590300 -0.680300
vn -0.765100 0.642500 -0.042900
vn -0.440100 0.595300 0.672200
vn -0.352500 0.559900 -0.749800
vn 0.307000 0.761900 0.570300
vn -0.364200 0.531300 -0.764900
vn 0.668800 0.719900 0.185600
vn -0.308500 0.775700 -0.550600
vn -0.919000 0.308000 -0.246200
vn -0.910600 -0.411300 -0.039500
vn -0.807000 -0.199800 0.555800
vn -0.871700 0.411600 0.265900
vn -0.786500 0.292400 0.543900
vn -0.820900 0.000000 0.571000
vn 0.063500 0.949400 -0.307500
vn 0.032500 -0.986500 -0.160700
vn -0.745500 -0.642700 -0.176700
vn -0.703500 -0.594400 0.389600
vn -0.440000 0.595300 0.672300
vn 0.408600 -0.507000 0.758900
vn 0.306800 0.761900 0.570400
vn 0.668800 0.719900 0.185700
vn -0.786500 0.292400 0.544000
vn -0.000000 1.000000 0.000000
vn -0.871700 0.411600 0.265800
vn -0.817200 0.522400 -0.243500
vn -0.708400 0.666200 0.233100
vn -0.698500 0.714000 -0.047500
vn -0.266300 0.416600 0.869200
vn -0.914300 0.211100 0.345700
vn -0.971500 -0.211000 0.108400
vn -0.700100 -0.714000 -0.007900
vn -0.554800 -0.416200 0.720400
vn -0.000000 -1.000000 -0.000000
vn -0.829900 -0.522200 -0.196600
vn 0.346800 0.775100 0.528200
vn -0.694300 0.715000 0.081900
vn 0.063400 0.949400 -0.307500
vn 0.729000 0.542500 0.417400
vn -0.829900 -0.522200 -0.196400
vn -0.817200 0.522300 -0.243800
vn -0.930100 0.294300 -0.220000
vn 0.033100 -0.986500 -0.160600
vn -0.685900 -0.715100 0.134800
vn -0.468500 -0.296000 -0.832400
vn -0.556000 0.227800 -0.799400
vn -0.618000 -0.146900 -0.772300
vn -0.878300 0.471400 -0.079500
vn -0.780200 -0.616700 -0.104200
vn -0.000500 -0.916200 -0.400700
vn -0.000400 -0.957800 -0.287500
vn 0.779900 -0.616700 -0.106700
vn 0.543600 -0.803200 -0.243500
vn 0.000200 -0.992000 0.126300
vn 0.485800 -0.815000 0.316000
vn 0.000900 -0.784500 0.620100
vn 0.878200 0.471300 -0.081700
vn -0.000400 0.957800 -0.287500
vn 0.543600 0.803200 -0.243500
vn 0.000200 0.992000 0.126300
vn -0.544500 0.803500 -0.240800
vn -0.485100 0.815300 0.316100
vn -0.000600 -0.916200 -0.400800
vn -0.618200 -0.146700 -0.772200
vn 0.754900 -0.179700 -0.630700
vn 0.412900 0.170000 -0.894800
vn -0.000600 0.916200 -0.400800
vn -0.000500 0.916200 -0.400700
vn -0.878400 0.471400 -0.079400
vn 0.755000 -0.179600 -0.630700
vn 0.412900 0.169900 -0.894800
vn 0.485800 0.815000 0.316000
vn 0.000900 0.784500 0.620100
vn -0.485100 -0.815300 0.316100
vn -0.544500 -0.803500 -0.240800
vn -0.556000 0.227800 -0.799300
vn -0.878400 0.471300 -0.079500
vn 0.322000 0.942300 0.091800
vn 0.963600 0.000000 0.267400
vn 0.353300 0.932200 0.079100
vn 0.988200 -0.000000 0.153000
vn 0.353300 -0.932200 0.079100
vn 0.420800 -0.906600 0.032900
vn 0.999200 0.000000 0.040700
vn 0.461700 0.887000 0.008900
vn 0.420800 0.906600 0.032900
vn 0.461700 -0.887000 0.008900
vn 1.000000 -0.000000 0.009800
vn 0.322000 -0.942300 0.091800
usemtl Model001_Material001.029
s 1
f 1/1/1 2/2/2 3/3/3
f 3/3/3 2/2/2 4/4/4
f 2/2/2 5/5/5 4/4/4
f 4/4/4 5/5/5 3/3/3
f 5/5/5 6/6/6 3/3/3
f 3/3/3 6/6/6 7/7/7
f 6/6/6 8/8/8 7/7/7
f 7/7/7 8/8/8 3/3/3
f 8/8/8 1/1/1 3/3/3
f 9/9/9 10/10/10 11/11/11
f 11/11/11 10/10/10 12/9/12
f 10/10/10 13/12/13 12/9/12
f 12/9/12 13/12/13 14/13/14
f 13/12/13 15/14/15 14/13/14
f 14/13/14 15/14/15 16/12/16
f 17/9/17 18/10/18 19/11/19
f 19/11/19 18/10/18 20/9/20
f 18/10/18 21/12/21 20/9/20
f 20/9/20 21/12/21 22/13/22
f 21/12/21 23/14/23 22/13/22
f 22/13/22 23/14/23 24/12/24
f 25/15/17 26/16/25 27/17/26
f 27/17/26 26/16/25 28/18/27
f 26/16/25 29/19/28 28/18/27
f 30/18/29 31/19/30 32/16/31
f 32/16/31 31/19/30 33/20/22
f 31/19/30 34/21/32 33/20/22
f 2/2/2 35/3/1 36/4/33
f 36/4/33 35/3/1 37/5/34
f 35/3/1 38/6/35 37/5/34
f 14/13/14 16/12/16 9/9/9
f 9/9/9 16/12/16 10/10/10
f 39/22/10 40/23/36 41/24/27
f 41/24/27 40/23/36 42/25/29
f 43/26/37 44/27/27 45/28/13
f 45/28/13 44/27/27 46/29/38
f 47/30/16 48/31/39 49/32/40
f 49/32/40 48/31/39 50/33/41
f 51/34/42 52/35/15 53/36/43
f 53/36/43 52/35/15 54/37/13
f 22/13/22 24/12/24 17/9/17
f 17/9/17 24/12/24 18/10/18
f 55/7/44 35/3/1 8/8/45
f 35/3/1 55/7/44 38/6/35
f 56/38/46 8/8/8 57/39/35
f 57/39/35 8/8/8 6/6/6
f 58/40/47 59/41/48 60/35/49
f 60/35/49 59/41/48 61/42/50
f 62/29/35 63/28/21 64/27/34
f 64/27/34 63/28/21 65/26/51
f 66/34/6 67/35/23 68/36/35
f 68/36/35 67/35/23 69/37/52
f 70/33/53 71/32/54 72/31/23
f 72/31/23 71/32/54 73/30/55
f 74/43/33 75/44/34 2/2/2
f 2/2/2 75/44/34 5/5/5
f 29/19/28 26/16/25 76/20/32
f 34/21/32 31/19/30 77/45/43
f 78/46/56 79/47/57 80/48/58
f 80/48/58 79/47/57 81/49/59
f 79/47/57 82/50/60 81/49/59
f 81/49/59 82/50/60 83/51/61
f 82/50/60 84/52/62 83/51/61
f 83/51/61 84/52/62 85/53/63
f 84/52/62 86/54/64 85/53/63
f 85/53/63 86/54/64 87/55/65
f 86/54/64 88/56/66 87/55/65
f 87/55/65 88/56/66 89/57/67
f 88/56/66 90/58/68 89/57/67
f 89/57/67 90/58/68 91/59/69
f 90/58/68 92/60/70 91/59/69
f 91/59/69 92/60/70 93/61/71
f 92/60/70 94/62/72 93/61/71
f 93/61/71 94/62/72 95/63/73
f 94/62/72 96/64/74 95/63/73
f 95/63/73 96/64/74 97/65/75
f 98/66/74 99/67/76 100/68/75
f 100/68/75 99/67/76 101/69/77
f 99/67/76 102/70/78 101/69/77
f 101/69/77 102/70/78 103/71/79
f 102/70/78 104/72/80 103/71/79
f 103/71/79 104/72/80 105/73/81
f 104/72/80 106/74/82 105/73/81
f 105/73/81 106/74/82 107/75/83
f 106/74/82 108/76/84 107/75/83
f 107/75/83 108/76/84 109/77/85
f 110/78/86 111/79/87 112/80/88
f 112/80/88 111/79/87 113/81/89
f 111/79/87 114/82/90 113/81/89
f 113/81/89 114/82/90 115/83/91
f 114/82/90 116/84/92 115/83/91
f 115/83/91 116/84/92 117/85/93
f 116/84/92 118/86/94 117/85/93
f 117/85/93 118/86/94 119/87/95
f 118/86/94 120/88/96 119/87/95
f 119/87/95 120/88/96 121/89/97
f 122/88/98 123/86/99 124/87/100
f 124/87/100 123/86/99 125/85/101
f 123/86/99 126/84/102 125/85/101
f 125/85/101 126/84/102 127/83/103
f 126/84/102 128/82/104 127/83/103
f 127/83/103 128/82/104 129/81/105
f 128/82/104 130/79/69 129/81/105
f 129/81/105 130/79/69 131/80/106
f 130/79/69 132/78/107 131/80/106
f 133/90/108 134/91/109 135/92/110
f 135/92/110 134/91/109 136/93/111
f 134/91/109 137/94/112 136/93/111
f 138/95/89 139/96/113 140/97/114
f 140/97/114 139/96/113 141/98/115
f 139/96/113 142/99/100 141/98/115
f 141/98/115 142/99/100 143/100/116
f 142/99/100 144/101/117 143/100/116
f 143/100/116 144/101/117 145/102/118
f 144/101/117 146/103/119 145/102/118
f 145/102/118 146/103/119 147/104/120
f 148/105/121 149/106/122 150/107/123
f 150/107/123 149/106/122 151/108/124
f 149/106/122 152/109/122 151/108/124
f 151/108/124 152/109/122 153/110/125
f 152/109/122 154/111/126 153/110/125
f 153/110/125 154/111/126 155/112/127
f 154/111/126 156/113/128 155/112/127
f 157/113/129 158/111/130 159/112/131
f 159/112/131 158/111/130 160/110/84
f 158/111/130 161/109/132 160/110/84
f 160/110/84 161/109/132 162/108/133
f 161/109/132 163/106/132 162/108/133
f 162/108/133 163/106/132 164/107/108
f 163/106/132 165/105/109 164/107/108
f 154/111/126 166/114/134 167/115/135
f 167/115/135 166/114/134 168/116/136
f 166/114/134 169/89/137 168/116/136
f 168/116/136 169/89/137 124/87/100
f 169/89/137 122/88/98 124/87/100
f 170/117/84 171/118/138 172/119/125
f 172/119/125 171/118/138 173/120/139
f 171/118/138 174/121/108 173/120/139
f 173/120/139 174/121/108 175/122/123
f 176/123/140 167/115/135 131/80/106
f 131/80/106 167/115/135 129/81/105
f 167/115/135 168/116/136 129/81/105
f 177/116/141 178/115/142 113/81/89
f 113/81/89 178/115/142 112/80/88
f 178/115/142 179/123/143 112/80/88
f 121/89/97 180/114/56 177/116/141
f 177/116/141 180/114/56 178/115/142
f 180/114/56 158/111/130 178/115/142
f 145/102/118 147/104/120 181/124/89
f 139/96/113 138/95/89 182/125/120
f 161/109/132 158/111/130 180/114/56
f 154/111/126 152/109/122 166/114/134
f 119/87/95 121/89/97 177/116/141
f 183/126/144 184/127/145 185/128/146
f 185/128/146 184/127/145 186/129/147
f 184/127/145 187/130/148 186/129/147
f 186/129/147 187/130/148 188/131/149
f 187/130/148 189/132/150 188/131/149
f 190/133/150 191/134/151 192/135/149
f 192/135/149 191/134/151 193/136/152
f 191/134/151 194/137/153 193/136/152
f 193/136/152 194/137/153 195/138/154
f 196/133/155 197/135/156 198/134/157
f 198/134/157 197/135/156 199/136/158
f 197/135/156 200/139/159 199/136/158
f 199/136/158 200/139/159 201/140/160
f 202/141/161 203/142/162 204/143/163
f 204/143/163 203/142/162 205/144/164
f 203/142/162 206/145/144 205/144/164
f 205/144/164 206/145/144 207/146/165
f 208/147/164 209/130/166 210/132/155
f 210/132/155 209/130/166 211/131/156
f 209/130/166 212/129/167 211/131/156
f 187/130/148 213/147/168 189/132/150
f 189/132/150 213/147/168 214/148/155
f 213/147/168 215/149/169 214/148/155
f 198/134/157 199/136/158 216/137/170
f 216/137/170 199/136/158 217/138/171
f 199/136/158 201/140/160 217/138/171
f 218/140/172 219/139/173 193/136/152
f 193/136/152 219/139/173 192/135/149
f 219/139/173 220/150/147 192/135/149
f 212/129/167 209/130/166 221/127/174
f 193/136/152 195/138/154 218/140/172
f 200/139/159 197/135/156 222/150/175
f 223/105/176 224/151/177 225/106/178
f 225/106/178 224/151/177 226/152/179
f 227/106/180 228/109/181 226/152/179
f 226/152/179 228/109/181 229/153/182
f 229/153/182 230/114/183 231/109/184
f 232/114/185 229/153/182 228/109/181
f 231/109/184 225/106/178 226/152/179
f 231/109/184 226/152/179 229/153/182
f 230/114/183 229/153/182 233/89/186
f 234/105/187 227/106/180 224/151/177
f 224/151/177 227/106/180 226/152/179
f 229/153/182 232/114/185 233/89/186
