# Blender v2.74 (sub 0) OBJ File: ''
# www.blender.org
mtllib treysarrow.mtl
o Model001_7_0_00
v -0.046541 0.131432 -0.006104
v 0.930540 0.131432 -0.006104
v 0.930540 0.125359 0.000000
v 0.947539 0.131432 0.000000
v 0.930540 0.137505 0.000000
v -0.046541 0.137536 0.000000
v 0.930540 0.131432 0.006104
v -0.046541 0.131432 0.006104
v -0.046541 0.131432 -0.006104
v -0.046541 0.125328 0.000000
v -0.046541 0.137536 0.000000
v -0.046541 0.125328 0.000000
v -0.046541 0.131432 0.006104
v 0.160009 0.099388 0.000000
v -0.003174 0.131432 0.000000
v 0.029054 0.091636 0.000000
v 0.160009 0.163476 0.000000
v 0.029054 0.171228 0.000000
v 1.000000 0.131432 0.000000
v 0.933988 0.131432 0.000000
v 0.950896 0.150415 0.000000
v 0.933988 0.131432 0.000000
v 0.920042 0.110252 0.000000
v 0.950896 0.112449 0.000000
v -0.045442 0.131432 -0.029725
v 0.029054 0.131432 -0.039857
v -0.003174 0.131432 0.000000
v 0.160009 0.131432 0.032075
v 0.029054 0.131432 0.039857
v 0.160009 0.131432 -0.032075
v 0.029054 0.131432 -0.039857
v -0.003174 0.131432 0.000000
v -0.045442 0.131432 0.029725
v 0.029054 0.131432 0.039857
v 0.920042 0.152612 0.000000
v 0.160009 0.099388 0.000000
v 0.029054 0.091636 0.000000
v -0.003174 0.131432 0.000000
v 0.160009 0.163476 0.000000
v 0.029054 0.171228 0.000000
v 0.950896 0.112449 0.000000
v 0.920042 0.110252 0.000000
v 0.198798 0.131432 0.000000
v -0.045442 0.101737 0.000000
v 1.000000 0.131432 0.000000
v 0.198798 0.131432 0.000000
v 0.198798 0.131432 0.000000
v -0.045442 0.161127 0.000000
v 0.950896 0.150415 0.000000
v 0.920042 0.152612 0.000000
v -0.045442 0.131432 0.029725
v -0.045442 0.161127 0.000000
v 0.198798 0.131432 0.000000
v -0.045442 0.131432 -0.029725
v 0.160009 0.131432 0.032075
v -0.045442 0.101737 0.000000
v 0.160009 0.131432 -0.032075
vt 0.984313 -0.946928
vt 0.041383 -0.946928
vt 0.041383 -0.987762
vt 0.011597 -0.946928
vt 0.041383 -0.906156
vt 0.984313 -0.906095
vt 0.898099 -0.740593
vt 0.981506 -0.823725
vt 0.981506 -0.657491
vt 0.984313 -0.987762
vt 0.249367 -0.010590
vt 0.790582 -0.129765
vt 0.683645 -0.010590
vt 0.027375 -0.824885
vt 0.800165 -0.824885
vt 0.602252 -0.589496
vt 0.963500 -0.589496
vt 0.930754 -0.010590
vt 0.120762 -0.129765
vn 0.000000 0.000000 -1.000000
vn 0.174100 -0.000000 -0.984700
vn 0.115900 -0.993300 -0.000000
vn 1.000000 0.000000 0.000000
vn 0.115900 0.993300 0.000000
vn 0.000000 1.000000 0.000000
vn 0.174100 0.000000 0.984700
vn 0.000000 -0.000000 1.000000
vn -1.000000 0.000000 0.000000
vn 0.000000 -1.000000 -0.000000
usemtl Model001_Material001
s 1
f 1/1/1 2/2/2 3/3/3
f 4/4/4 2/2/2 5/5/5
f 5/5/5 1/1/1 6/6/6
f 4/4/4 5/5/5 7/2/7
f 8/1/8 5/5/5 6/6/6
f 8/1/8 3/3/3 7/2/7
f 9/7/9 10/8/9 11/9/9
f 8/1/8 7/2/7 5/5/5
f 4/4/4 3/3/3 2/2/2
f 12/10/10 3/3/3 8/1/8
f 11/9/9 10/8/9 13/7/9
f 4/4/4 7/2/7 3/3/3
f 1/1/1 5/5/5 2/2/2
f 12/10/10 1/1/1 3/3/3
f 14/11/8 15/12/8 16/13/8
f 17/11/8 18/13/8 15/12/8
f 19/14/1 20/15/1 21/16/1
f 22/15/8 23/17/8 24/16/8
f 25/18/10 26/13/10 27/12/10
f 28/11/10 29/13/10 27/12/10
f 30/11/6 31/13/6 32/12/6
f 33/18/6 34/13/6 32/12/6
f 20/15/1 35/17/1 21/16/1
f 36/11/1 37/13/1 38/12/1
f 39/11/1 38/12/1 40/13/1
f 41/16/1 42/17/1 20/15/1
f 43/19/6 30/11/6 32/12/6
f 44/18/8 16/13/8 15/12/8
f 45/14/8 22/15/8 24/16/8
f 46/19/8 15/12/8 14/11/8
f 47/19/1 38/12/1 39/11/1
f 15/12/8 18/13/8 48/18/8
f 17/11/8 15/12/8 46/19/8
f 49/16/8 50/17/8 22/15/8
f 41/16/1 20/15/1 19/14/1
f 51/18/10 27/12/10 29/13/10
f 52/18/1 40/13/1 38/12/1
f 53/19/10 28/11/10 27/12/10
f 54/18/6 32/12/6 31/13/6
f 49/16/8 22/15/8 45/14/8
f 32/12/6 55/11/6 43/19/6
f 55/11/6 32/12/6 34/13/6
f 36/11/1 38/12/1 47/19/1
f 38/12/1 37/13/1 56/18/1
f 27/12/10 57/11/10 53/19/10
f 57/11/10 27/12/10 26/13/10
