# Blender v2.74 (sub 0) OBJ File: ''
# www.blender.org
mtllib yuna.mtl
o yuna
v 0.000000 0.228365 0.000000
v -0.030520 0.139245 0.000000
v -0.030520 0.091635 0.115050
v -0.030520 0.091635 -0.115050
v 0.000000 0.154505 -0.177920
v 0.000000 -0.023415 -0.251780
v 0.000000 -0.023415 -0.251780
v -0.030520 -0.023415 -0.162660
v -0.030520 0.091635 -0.115050
v -0.030520 -0.138465 -0.115050
v 0.000000 -0.201335 -0.177920
v 0.000000 -0.275195 -0.000000
v 0.000000 -0.275195 -0.000000
v -0.030520 -0.186075 -0.000000
v -0.030520 -0.138465 -0.115050
v -0.030520 -0.138465 0.115050
v 0.000000 -0.201335 0.177920
v 0.000000 -0.023415 0.245060
v 0.000000 -0.023415 0.245060
v -0.030520 -0.023415 0.162660
v -0.030520 -0.138465 0.115050
v -0.030520 0.091635 0.115050
v 0.000000 0.154505 0.177920
v 0.000000 0.228365 0.000000
v 0.030520 -0.138465 0.115050
v 0.000000 -0.201335 0.177920
v 0.000000 -0.275195 -0.000000
v 0.000000 -0.023415 0.245060
v 0.030520 -0.023415 0.162660
v 0.030520 0.091635 0.115050
v 0.030520 0.091635 0.115050
v 0.000000 0.154505 0.177920
v 0.000000 -0.023415 0.245060
v 0.000000 0.228365 0.000000
v 0.030520 0.139245 0.000000
v 0.030520 0.091635 -0.115050
v 0.030520 0.091635 -0.115050
v 0.000000 0.154505 -0.177920
v 0.000000 0.228365 0.000000
v 0.000000 -0.023415 -0.251780
v 0.030520 -0.023415 -0.162660
v 0.030520 -0.138465 -0.115050
v 0.030520 -0.138465 -0.115050
v 0.000000 -0.201335 -0.177920
v 0.000000 -0.023415 -0.251780
v 0.000000 -0.275195 -0.000000
v 0.030520 -0.186075 -0.000000
v 0.030520 -0.138465 0.115050
v -0.030520 0.139245 0.000000
v 0.030520 0.139245 0.000000
v 0.030520 0.091635 0.115050
v 0.030520 0.091635 -0.115050
v -0.030520 0.091635 -0.115050
v -0.030520 -0.023415 -0.162660
v -0.030520 -0.023415 -0.162660
v 0.030520 -0.023415 -0.162660
v 0.030520 0.091635 -0.115050
v 0.030520 -0.138465 -0.115050
v -0.030520 -0.138465 -0.115050
v -0.030520 -0.186075 -0.000000
v -0.030520 -0.186075 -0.000000
v 0.030520 -0.186075 -0.000000
v 0.030520 -0.138465 -0.115050
v 0.030520 -0.138465 0.115050
v -0.030520 -0.138465 0.115050
v -0.030520 -0.023415 0.162660
v -0.030520 -0.023415 0.162660
v 0.030520 -0.023415 0.162660
v 0.030520 -0.138465 0.115050
v 0.030520 0.091635 0.115050
v -0.030520 0.091635 0.115050
v -0.030520 0.139245 0.000000
v 0.000000 -0.055155 -0.149540
v 0.000000 -0.055155 0.149540
v -0.030520 -0.023415 0.162660
v 0.030520 -0.023415 0.162660
v 0.030520 -0.023415 -0.162660
v 0.000000 0.008325 -0.149540
v 0.000000 0.008325 -0.149540
v 0.000000 0.008325 0.149540
v 0.030520 -0.023415 0.162660
v -0.030520 -0.023415 0.162660
v -0.030520 -0.023415 -0.162660
v 0.000000 -0.055155 -0.149540
v -0.029600 -0.023415 0.325630
v 0.000000 0.068445 0.296030
v 0.000000 -0.023415 0.245060
v 0.000000 0.091025 0.319830
v -0.028380 -0.023415 0.487690
v 0.000000 0.062955 0.487690
v -0.021060 -0.023415 0.907620
v 0.000000 0.032435 0.907620
v -0.014650 -0.001135 1.111480
v 0.000000 0.040365 1.112400
v 0.000000 0.071804 1.315350
v 0.029600 -0.023415 0.325630
v 0.000000 -0.115275 0.296030
v 0.000000 -0.023415 0.245060
v 0.000000 -0.137855 0.319830
v 0.028380 -0.023415 0.487690
v 0.000000 -0.109785 0.487690
v 0.021060 -0.023415 0.907620
v 0.000000 -0.079265 0.907620
v 0.014650 -0.001135 1.111480
v 0.000000 -0.034405 1.130410
v 0.000000 0.071804 1.315350
v 0.014650 -0.001135 1.111480
v 0.000000 0.040365 1.112400
v 0.000000 0.071804 1.315350
v 0.000000 0.032435 0.907620
v 0.021060 -0.023415 0.907620
v 0.000000 0.062955 0.487690
v 0.028380 -0.023415 0.487690
v 0.000000 0.091025 0.319830
v 0.029600 -0.023415 0.325630
v 0.000000 0.068445 0.296030
v 0.000000 -0.023415 0.245060
v 0.000000 0.260405 0.086980
v 0.000000 0.311065 0.000000
v 0.000000 0.289095 0.102540
v 0.000000 0.228365 0.000000
v 0.000000 0.234465 0.106810
v 0.000000 0.154505 0.177920
v 0.000000 0.238735 0.139160
v 0.000000 0.213105 0.236520
v 0.000000 0.270175 0.148320
v 0.000000 0.238735 -0.139160
v 0.000000 0.213105 -0.236520
v 0.000000 0.270175 -0.148320
v 0.000000 0.154505 -0.177920
v 0.000000 0.234465 -0.106810
v 0.000000 0.260405 -0.086980
v 0.000000 0.289095 -0.102540
v 0.000000 -0.162575 -0.262150
v 0.000000 -0.259935 -0.236520
v 0.000000 -0.171735 -0.293590
v 0.000000 -0.201335 -0.177920
v 0.000000 -0.130225 -0.257880
v 0.000000 -0.023415 -0.251780
v 0.000000 -0.110395 -0.283820
v 0.000000 -0.023415 -0.334480
v 0.000000 -0.125955 -0.312510
v 0.000000 -0.307235 -0.086980
v 0.000000 -0.357895 -0.000000
v 0.000000 -0.335925 -0.102540
v 0.000000 -0.275195 -0.000000
v 0.000000 -0.281295 -0.106810
v 0.000000 -0.285565 -0.139160
v 0.000000 -0.317005 -0.148320
v 0.000000 -0.285565 0.139160
v 0.000000 -0.259935 0.236520
v 0.000000 -0.317005 0.148320
v 0.000000 -0.201335 0.177920
v 0.000000 -0.281295 0.106810
v 0.000000 -0.307235 0.086980
v 0.000000 -0.335925 0.102540
v 0.000000 0.063565 -0.283820
v 0.000000 0.079125 -0.312510
v 0.000000 0.083395 -0.257880
v 0.000000 0.115745 -0.262150
v 0.000000 0.124905 -0.293590
v 0.000000 0.260405 -0.086980
v 0.000000 0.311065 0.000000
v 0.000000 0.289095 -0.102540
v 0.000000 0.228365 0.000000
v 0.000000 0.234465 -0.106810
v 0.000000 0.154505 -0.177920
v 0.000000 0.238735 -0.139160
v 0.000000 0.213105 -0.236520
v 0.000000 0.270175 -0.148320
v 0.000000 0.238735 0.139160
v 0.000000 0.213105 0.236520
v 0.000000 0.270175 0.148320
v 0.000000 0.154505 0.177920
v 0.000000 0.234465 0.106810
v 0.000000 0.260405 0.086980
v 0.000000 0.289095 0.102540
v 0.000000 0.115745 -0.262150
v 0.000000 0.124905 -0.293590
v 0.000000 0.083395 -0.257880
v 0.000000 -0.023415 -0.251780
v 0.000000 0.063565 -0.283820
v 0.000000 -0.023415 -0.334480
v 0.000000 0.079125 -0.312510
v 0.000000 -0.034405 1.130410
v -0.014650 -0.001135 1.111480
v 0.000000 -0.079265 0.907620
v 0.000000 0.071804 1.315350
v 0.000000 -0.285565 -0.139160
v 0.000000 -0.259935 -0.236520
v 0.000000 -0.317005 -0.148320
v 0.000000 -0.201335 -0.177920
v 0.000000 -0.281295 -0.106810
v 0.000000 -0.275195 -0.000000
v 0.000000 -0.307235 -0.086980
v 0.000000 -0.357895 -0.000000
v 0.000000 -0.335925 -0.102540
v 0.000000 -0.307235 0.086980
v 0.000000 -0.335925 0.102540
v 0.000000 -0.281295 0.106810
v 0.000000 -0.201335 0.177920
v 0.000000 -0.285565 0.139160
v 0.000000 -0.259935 0.236520
v 0.000000 -0.317005 0.148320
v 0.000000 -0.110395 -0.283820
v 0.000000 -0.125955 -0.312510
v 0.000000 -0.130225 -0.257880
v 0.000000 -0.162575 -0.262150
v 0.000000 -0.171735 -0.293590
v 0.000000 -0.127785 0.266120
v 0.000000 -0.023415 0.245060
v 0.000000 -0.115275 0.296030
v 0.000000 -0.160135 0.262150
v 0.000000 -0.177225 0.290230
v 0.000000 0.113305 0.262150
v 0.000000 0.130395 0.290230
v 0.000000 0.080955 0.266120
v 0.000000 0.068445 0.296030
v 0.000000 0.080955 0.266120
v 0.000000 -0.023415 0.245060
v 0.000000 0.068445 0.296030
v 0.000000 0.113305 0.262150
v 0.000000 0.130395 0.290230
v 0.000000 -0.160135 0.262150
v 0.000000 -0.177225 0.290230
v 0.000000 -0.127785 0.266120
v 0.000000 -0.115275 0.296030
v 0.000000 -0.137855 0.319830
v -0.029600 -0.023415 0.325630
v 0.000000 -0.115275 0.296030
v -0.028380 -0.023415 0.487690
v 0.000000 -0.109785 0.487690
v -0.021060 -0.023415 0.907620
v 0.000000 -0.079265 0.907620
v -0.029600 -0.023415 0.325630
v 0.000000 -0.023415 0.245060
v 0.000000 -0.115275 0.296030
v -0.014650 -0.001135 1.111480
v -0.021060 -0.023415 0.907620
v 0.000000 -0.079265 0.907620
vt 0.112305 -0.126465
vt 0.238770 -0.239258
vt 0.165527 -0.405273
vt 0.402832 -0.159180
vt 0.399414 -0.020996
vt 0.651367 -0.112793
vt 0.568848 -0.228516
vt 0.028809 -0.403809
vt 0.134766 -0.645020
vt 0.217773 -0.559082
vt 0.659668 -0.631836
vt 0.707031 -0.665527
vt 0.639160 -0.761230
vt 0.774902 -0.570313
vt 0.727539 -0.536621
vt 0.795410 -0.440918
vt 0.842773 -0.474609
vt 0.591797 -0.727539
vt 0.523926 -0.822754
vt 0.571289 -0.856445
vt 0.391602 -0.766113
vt 0.702637 -0.329590
vt 0.762695 -0.343262
vt 0.424316 -0.818848
vt 0.484375 -0.832520
vt 0.795410 -0.395508
vt 0.123535 -0.891602
vt 0.188965 -0.991211
vt 0.061523 -0.968750
vt 0.229004 -0.985840
vt 0.249023 -0.736328
vt 0.332031 -0.803711
vt 0.573730 -0.334473
vt 0.627441 -0.377441
vt 0.752930 -0.156250
vt 0.793457 -0.187500
vt 0.980469 -0.017578
vt 0.012695 -0.849121
vt 0.009766 -0.808594
vt 0.166016 -0.669434
vt 0.520020 -0.291016
vt 0.735352 -0.112305
vt 0.786621 -0.868652
vt 0.909180 -0.814941
vt 0.805176 -0.908203
vt 0.820313 -0.750488
vt 0.743652 -0.869629
vt 0.602051 -0.883789
vt 0.723145 -0.907715
vt 0.619141 -0.992188
vt 0.749512 -0.942383
vt 0.940430 -0.609375
vt 0.988770 -0.484375
vt 0.981445 -0.624023
vt 0.880371 -0.501465
vt 0.910645 -0.640625
vt 0.922852 -0.682129
vt 0.965820 -0.687500
vt 0.904297 -0.380859
vt 0.938965 -0.354492
vt 0.866211 -0.360352
vt 0.747070 -0.283691
vt 0.865234 -0.316895
vt 0.811523 -0.194824
vt 0.904785 -0.298340
vt 0.454590 -0.920898
vt 0.358887 -0.816895
vt 0.417480 -0.943359
vt 0.492676 -0.941895
vt 0.488770 -0.984863
vt 0.749512 -0.159180
vt 0.570313 -0.336914
vt 0.517090 -0.293945
vn -0.674000 0.674100 -0.302200
vn -0.707100 0.707100 0.000000
vn -0.577300 0.577500 0.577300
vn -0.577300 0.577400 -0.577300
vn -0.577400 0.577400 -0.577200
vn -0.577400 0.577300 -0.577300
vn -0.674000 -0.302200 -0.674100
vn -0.707100 0.000000 -0.707100
vn -0.577300 0.577300 -0.577500
vn -0.577300 -0.577300 -0.577400
vn -0.577400 -0.577400 -0.577200
vn -0.577400 -0.577300 -0.577300
vn -0.674000 -0.674100 0.302200
vn -0.707100 -0.707100 -0.000000
vn -0.577300 -0.577500 -0.577300
vn -0.577300 -0.577300 0.577400
vn -0.577400 -0.577400 0.577300
vn -0.678000 0.283700 0.678100
vn -0.707100 -0.000000 0.707100
vn -0.577300 -0.577400 0.577300
vn -0.577300 0.577400 0.577300
vn -0.577400 0.577400 0.577300
vn -0.577400 0.577300 0.577300
vn 0.577300 -0.577400 0.577300
vn 0.577400 -0.577400 0.577300
vn 0.577400 -0.577300 0.577300
vn 0.678000 -0.283700 0.678100
vn 0.707100 0.000000 0.707100
vn 0.577300 0.577400 0.577300
vn 0.577300 0.577300 0.577400
vn 0.577400 0.577400 0.577300
vn 0.674000 0.674100 0.302200
vn 0.707100 0.707100 -0.000000
vn 0.577300 0.577500 -0.577300
vn 0.577300 0.577300 -0.577400
vn 0.577400 0.577400 -0.577200
vn 0.577400 0.577300 -0.577300
vn 0.674000 0.302200 -0.674100
vn 0.707100 -0.000000 -0.707100
vn 0.577300 -0.577300 -0.577500
vn 0.577300 -0.577400 -0.577300
vn 0.577400 -0.577400 -0.577200
vn 0.577400 -0.577300 -0.577300
vn 0.674000 -0.674100 -0.302200
vn 0.707100 -0.707100 0.000000
vn 0.577300 -0.577500 0.577300
vn 0.000400 -0.707100 0.707100
vn 0.000000 -1.000000 -0.000000
vn -0.000000 -0.707100 -0.707100
vn 0.000000 -0.707100 0.707100
vn 0.000400 0.707100 0.707100
vn 0.000000 -0.000000 1.000000
vn 0.000000 0.707100 0.707100
vn -0.000000 0.707100 -0.707100
vn 0.000000 1.000000 0.000000
vn 0.000000 0.000000 -1.000000
vn 1.000000 0.000000 -0.000000
vn -1.000000 0.000000 -0.000000
vn -0.577300 0.577300 -0.577400
vn -0.659800 0.659800 -0.359600
vn -0.696000 0.696000 0.176300
vn -0.690200 0.690300 0.217000
vn -0.705000 0.705000 0.077700
vn -0.707100 0.707100 0.008400
vn -0.696700 0.696600 -0.171200
vn -0.689400 0.689400 -0.222400
vn -0.664200 0.664200 -0.343000
vn 0.577300 -0.577300 -0.577400
vn 0.659800 -0.659800 -0.359600
vn 0.696000 -0.696000 0.176300
vn 0.690200 -0.690300 0.217000
vn 0.684400 -0.684500 0.251100
vn 0.657800 -0.657800 0.366800
vn 0.577400 -0.577300 0.577400
vn 0.696700 0.696600 -0.171200
vn 0.689400 0.689400 -0.222400
vn 0.664200 0.664200 -0.343000
vn 0.707100 0.707100 0.008400
vn 0.705000 0.705000 0.077700
vn 0.690200 0.690300 0.217000
vn 0.696000 0.696000 0.176300
vn 0.659800 0.659800 -0.359600
vn 0.577300 0.577400 -0.577300
vn -0.577400 -0.577300 0.577400
vn -0.627000 -0.626900 0.462500
vn -0.659800 -0.659800 -0.359600
vn -0.577400 -0.577300 -0.577400
vn -0.696000 -0.696000 0.176300
vn -0.690200 -0.690300 0.217000
vn -0.699400 -0.699400 0.147500
vn -0.695800 -0.695800 0.178100
vn -0.577300 -0.577400 -0.577300
vn -0.637600 -0.637600 0.432300
vn -0.637600 -0.637600 0.432400
usemtl Model001_Material001.034
s 1
f 1/1/1 2/2/2 3/3/3
f 2/2/2 1/1/1 4/4/4
f 4/4/4 1/1/1 5/5/5
f 4/4/4 5/5/5 6/6/6
f 7/6/7 8/7/8 9/4/9
f 8/7/8 7/6/7 10/4/10
f 11/5/11 10/4/10 7/6/7
f 10/4/10 11/5/11 12/1/12
f 13/1/13 14/2/14 15/4/15
f 14/2/14 13/1/13 16/3/16
f 17/8/17 16/3/16 13/1/13
f 16/3/16 17/8/17 18/9/17
f 19/9/18 20/10/19 21/3/20
f 20/10/19 19/9/18 22/3/21
f 23/8/22 22/3/21 19/9/18
f 22/3/21 23/8/22 24/1/23
f 25/3/24 26/8/25 27/1/26
f 26/8/25 25/3/24 28/9/27
f 29/10/28 28/9/27 25/3/24
f 28/9/27 29/10/28 30/3/29
f 31/3/30 32/8/31 33/9/31
f 32/8/31 31/3/30 34/1/32
f 35/2/33 34/1/32 31/3/30
f 34/1/32 35/2/33 36/4/34
f 37/4/35 38/5/36 39/1/37
f 38/5/36 37/4/35 40/6/38
f 41/7/39 40/6/38 37/4/35
f 40/6/38 41/7/39 42/4/40
f 43/4/41 44/5/42 45/6/43
f 44/5/42 43/4/41 46/1/44
f 47/2/45 46/1/44 43/4/41
f 46/1/44 47/2/45 48/3/46
f 49/11/47 50/12/48 51/13/49
f 50/12/48 49/11/47 52/14/50
f 53/15/50 52/14/50 49/11/47
f 52/14/50 53/15/50 54/16/50
f 55/16/51 56/17/52 57/14/50
f 56/17/52 55/16/51 58/14/53
f 59/15/53 58/14/53 55/16/51
f 58/14/53 59/15/53 60/11/53
f 61/11/54 62/12/55 63/14/53
f 62/12/55 61/11/54 64/13/54
f 65/18/54 64/13/54 61/11/54
f 64/13/54 65/18/54 66/19/54
f 67/19/49 68/20/56 69/13/54
f 68/20/56 67/19/49 70/13/49
f 71/18/49 70/13/49 67/19/49
f 70/13/49 71/18/49 72/11/49
f 73/21/45 74/22/48 75/23/14
f 74/22/48 73/21/45 76/23/45
f 77/24/57 76/23/45 73/21/45
f 76/23/45 77/24/57 78/25/33
f 79/25/2 80/26/55 81/23/33
f 80/26/55 79/25/2 82/23/2
f 83/24/58 82/23/2 79/25/2
f 82/23/2 83/24/58 84/21/14
f 85/27/4 86/28/59 87/29/4
f 86/28/59 85/27/4 88/30/60
f 89/31/61 88/30/60 85/27/4
f 88/30/60 89/31/61 90/32/62
f 91/33/63 90/32/62 89/31/61
f 90/32/62 91/33/63 92/34/64
f 93/35/65 92/34/64 91/33/63
f 92/34/64 93/35/65 94/36/66
f 95/37/67 94/36/66 93/35/65
f 96/27/41 97/38/68 98/29/41
f 97/38/68 96/27/41 99/39/69
f 100/31/70 99/39/69 96/27/41
f 99/39/69 100/31/70 101/40/71
f 102/33/72 101/40/71 100/31/70
f 101/40/71 102/33/72 103/41/73
f 104/35/26 103/41/73 102/33/72
f 103/41/73 104/35/26 105/42/74
f 106/37/24 105/42/74 104/35/26
f 107/35/75 108/36/76 109/37/77
f 108/36/76 107/35/75 110/34/78
f 111/33/79 110/34/78 107/35/75
f 110/34/78 111/33/79 112/32/80
f 113/31/81 112/32/80 111/33/79
f 112/32/80 113/31/81 114/30/82
f 115/27/83 114/30/82 113/31/81
f 114/30/82 115/27/83 116/28/35
f 117/29/83 116/28/35 115/27/83
f 118/43/57 119/44/57 120/45/57
f 119/44/57 118/43/57 121/46/57
f 122/47/57 121/46/57 118/43/57
f 121/46/57 122/47/57 123/48/57
f 124/49/57 123/48/57 122/47/57
f 123/48/57 124/49/57 125/50/57
f 126/51/57 125/50/57 124/49/57
f 127/52/57 128/53/57 129/54/57
f 128/53/57 127/52/57 130/55/57
f 131/56/57 130/55/57 127/52/57
f 130/55/57 131/56/57 121/46/57
f 132/57/57 121/46/57 131/56/57
f 121/46/57 132/57/57 119/44/57
f 133/58/57 119/44/57 132/57/57
f 134/59/57 135/53/57 136/60/57
f 135/53/57 134/59/57 137/55/57
f 138/61/57 137/55/57 134/59/57
f 137/55/57 138/61/57 139/62/57
f 140/63/57 139/62/57 138/61/57
f 139/62/57 140/63/57 141/64/57
f 142/65/57 141/64/57 140/63/57
f 143/57/57 144/44/57 145/58/57
f 144/44/57 143/57/57 146/46/57
f 147/56/57 146/46/57 143/57/57
f 146/46/57 147/56/57 137/55/57
f 148/52/57 137/55/57 147/56/57
f 137/55/57 148/52/57 135/53/57
f 149/54/57 135/53/57 148/52/57
f 150/49/57 151/50/57 152/51/57
f 151/50/57 150/49/57 153/48/57
f 154/47/57 153/48/57 150/49/57
f 153/48/57 154/47/57 146/46/57
f 155/43/57 146/46/57 154/47/57
f 146/46/57 155/43/57 144/44/57
f 156/45/57 144/44/57 155/43/57
f 157/63/57 141/64/57 158/65/57
f 141/64/57 157/63/57 139/62/57
f 159/61/57 139/62/57 157/63/57
f 139/62/57 159/61/57 130/55/57
f 160/59/57 130/55/57 159/61/57
f 130/55/57 160/59/57 128/53/57
f 161/60/57 128/53/57 160/59/57
f 162/57/58 163/44/58 164/58/58
f 163/44/58 162/57/58 165/46/58
f 166/56/58 165/46/58 162/57/58
f 165/46/58 166/56/58 167/55/58
f 168/52/58 167/55/58 166/56/58
f 167/55/58 168/52/58 169/53/58
f 170/54/58 169/53/58 168/52/58
f 171/49/58 172/50/58 173/51/58
f 172/50/58 171/49/58 174/48/58
f 175/47/58 174/48/58 171/49/58
f 174/48/58 175/47/58 165/46/58
f 176/43/58 165/46/58 175/47/58
f 165/46/58 176/43/58 163/44/58
f 177/45/58 163/44/58 176/43/58
f 178/59/58 169/53/58 179/60/58
f 169/53/58 178/59/58 167/55/58
f 180/61/58 167/55/58 178/59/58
f 167/55/58 180/61/58 181/62/58
f 182/63/58 181/62/58 180/61/58
f 181/62/58 182/63/58 183/64/58
f 184/65/58 183/64/58 182/63/58
f 185/42/84 186/35/17 187/41/85
f 186/35/17 185/42/84 188/37/20
f 189/52/58 190/53/58 191/54/58
f 190/53/58 189/52/58 192/55/58
f 193/56/58 192/55/58 189/52/58
f 192/55/58 193/56/58 194/46/58
f 195/57/58 194/46/58 193/56/58
f 194/46/58 195/57/58 196/44/58
f 197/58/58 196/44/58 195/57/58
f 198/43/58 196/44/58 199/45/58
f 196/44/58 198/43/58 194/46/58
f 200/47/58 194/46/58 198/43/58
f 194/46/58 200/47/58 201/48/58
f 202/49/58 201/48/58 200/47/58
f 201/48/58 202/49/58 203/50/58
f 204/51/58 203/50/58 202/49/58
f 205/63/58 183/64/58 206/65/58
f 183/64/58 205/63/58 181/62/58
f 207/61/58 181/62/58 205/63/58
f 181/62/58 207/61/58 192/55/58
f 208/59/58 192/55/58 207/61/58
f 192/55/58 208/59/58 190/53/58
f 209/60/58 190/53/58 208/59/58
f 210/66/57 211/67/57 212/68/57
f 211/67/57 210/66/57 153/48/57
f 213/69/57 153/48/57 210/66/57
f 153/48/57 213/69/57 151/50/57
f 214/70/57 151/50/57 213/69/57
f 215/69/57 125/50/57 216/70/57
f 125/50/57 215/69/57 123/48/57
f 217/66/57 123/48/57 215/69/57
f 123/48/57 217/66/57 211/67/57
f 218/68/57 211/67/57 217/66/57
f 219/66/58 220/67/58 221/68/58
f 220/67/58 219/66/58 174/48/58
f 222/69/58 174/48/58 219/66/58
f 174/48/58 222/69/58 172/50/58
f 223/70/58 172/50/58 222/69/58
f 224/69/58 203/50/58 225/70/58
f 203/50/58 224/69/58 201/48/58
f 226/66/58 201/48/58 224/69/58
f 201/48/58 226/66/58 220/67/58
f 227/68/58 220/67/58 226/66/58
f 228/39/86 229/27/10 230/38/87
f 229/27/10 228/39/86 231/31/88
f 232/40/89 231/31/88 228/39/86
f 231/31/88 232/40/89 233/33/90
f 234/41/91 233/33/90 232/40/89
f 235/27/92 236/29/92 237/38/92
f 238/71/93 239/72/94 240/73/93
