# Blender v2.74 (sub 0) OBJ File: ''
# www.blender.org
mtllib zacksword.mtl
o zackssword
v -0.035720 -0.039593 0.248572
v 0.036512 -0.033810 0.232739
v -0.035720 -0.039593 0.329771
v -0.002772 -0.008292 0.191801
v -0.035720 -0.036103 -0.195653
v -0.004517 -0.008292 -0.195750
v -0.089231 -0.008292 1.835946
v -0.104922 -0.008292 0.315482
v -0.035720 -0.024999 1.835946
v 0.069185 -0.033810 0.308434
v -0.035720 -0.039593 0.329771
v 0.036512 -0.033810 0.232739
v -0.035720 -0.024999 1.835946
v 0.017786 -0.008292 1.835946
v -0.035720 -0.008292 1.986084
v -0.035720 -0.008292 1.986084
v -0.089231 -0.008292 1.835946
v -0.035720 -0.024999 1.835946
v 0.036512 -0.033810 0.232739
v 0.092679 -0.029130 0.197691
v 0.069185 -0.033810 0.308434
v -0.202030 -0.029130 0.262861
v -0.140629 -0.033810 0.308434
v -0.202030 0.012541 0.262861
v -0.002772 -0.008292 0.191801
v -0.035720 0.020157 0.191801
v 0.010626 -0.008292 0.217097
v -0.035720 -0.039593 0.329771
v 0.069185 0.017221 0.308434
v -0.035720 0.023004 0.329771
v 0.069185 0.017221 0.308434
v 0.036512 0.017221 0.232739
v -0.035720 0.023004 0.329771
v -0.056925 -0.008292 -0.240936
v -0.035720 0.010429 -0.240936
v -0.035720 -0.027018 -0.240936
v -0.140629 0.017221 0.308434
v -0.035720 0.023004 0.329771
v -0.107951 0.017221 0.232739
v 0.036512 0.017221 0.232739
v 0.069185 0.017221 0.308434
v 0.092679 0.012541 0.197691
v -0.202030 0.012541 0.262861
v -0.140629 -0.033810 0.308434
v -0.140629 0.017221 0.308434
v -0.202030 0.012541 0.262861
v -0.140629 0.017221 0.308434
v -0.164123 0.012541 0.197691
v -0.035720 0.023004 0.329771
v -0.140629 0.017221 0.308434
v -0.035720 -0.039593 0.329771
v -0.164123 0.012541 0.197691
v -0.107951 -0.033810 0.232739
v -0.164123 -0.029130 0.197691
v 0.069185 -0.033810 0.308434
v 0.092679 -0.029130 0.197691
v 0.130586 -0.029130 0.262861
v 0.092679 0.012541 0.197691
v 0.036512 -0.033810 0.232739
v 0.036512 0.017221 0.232739
v -0.035720 0.028880 0.217193
v -0.082071 -0.008292 0.217097
v -0.035720 0.014653 0.248572
v -0.035720 0.019515 -0.195653
v -0.004517 -0.008292 -0.195750
v -0.035720 0.010429 -0.240936
v 0.000438 -0.008292 0.240848
v -0.035720 -0.031237 0.248572
v 0.010626 -0.008292 0.217097
v -0.002772 -0.008292 0.191801
v 0.010626 -0.008292 0.217097
v -0.035720 -0.036746 0.191801
v -0.035720 -0.045464 0.217193
v -0.082071 -0.008292 0.217097
v -0.035720 -0.036746 0.191801
v -0.035720 -0.045464 0.217193
v -0.035720 -0.031237 0.248572
v -0.082071 -0.008292 0.217097
v -0.068672 -0.008292 0.191801
v -0.082071 -0.008292 0.217097
v -0.035720 0.020157 0.191801
v -0.107951 -0.033810 0.232739
v -0.140629 -0.033810 0.308434
v -0.164123 -0.029130 0.197691
v -0.035720 -0.036746 0.191801
v 0.010626 -0.008292 0.217097
v -0.035720 -0.045464 0.217193
v -0.035720 -0.039593 0.248572
v -0.035720 -0.039593 0.329771
v -0.107951 -0.033810 0.232739
v -0.035720 -0.039593 0.248572
v -0.107951 0.017221 0.232739
v -0.035720 0.023004 0.248572
v -0.035720 -0.036746 0.191801
v -0.035720 -0.036103 -0.195653
v -0.002772 -0.008292 0.191801
v -0.004517 -0.008292 -0.195750
v -0.035720 0.019515 -0.195653
v -0.002772 -0.008292 0.191801
v -0.035720 -0.045464 0.217193
v 0.010626 -0.008292 0.217097
v -0.035720 -0.031237 0.248572
v 0.069185 -0.033810 0.308434
v 0.069185 0.017221 0.308434
v -0.035720 -0.039593 0.329771
v -0.164123 -0.029130 0.197691
v -0.202030 -0.029130 0.262861
v -0.164123 0.012541 0.197691
v -0.082071 -0.008292 0.217097
v -0.035720 -0.031237 0.248572
v -0.071882 -0.008292 0.240848
v -0.035720 0.020157 0.191801
v -0.035720 0.019515 -0.195653
v -0.068672 -0.008292 0.191801
v -0.035720 -0.039593 0.329771
v -0.140629 0.017221 0.308434
v -0.140629 -0.033810 0.308434
v 0.010626 -0.008292 0.217097
v -0.035720 0.014653 0.248572
v 0.000438 -0.008292 0.240848
v -0.202030 -0.029130 0.262861
v -0.164123 -0.029130 0.197691
v -0.140629 -0.033810 0.308434
v -0.140629 -0.033810 0.308434
v -0.107951 -0.033810 0.232739
v -0.035720 -0.039593 0.329771
v -0.066927 -0.008292 -0.195750
v -0.035720 -0.036103 -0.195653
v -0.068672 -0.008292 0.191801
v -0.068672 -0.008292 0.191801
v -0.035720 0.019515 -0.195653
v -0.066927 -0.008292 -0.195750
v -0.035720 0.020157 0.191801
v -0.002772 -0.008292 0.191801
v -0.035720 0.019515 -0.195653
v -0.056925 -0.008292 -0.240936
v -0.066927 -0.008292 -0.195750
v -0.035720 0.010429 -0.240936
v -0.014519 -0.008292 -0.240936
v -0.004517 -0.008292 -0.195750
v -0.035720 -0.027018 -0.240936
v 0.092679 0.012541 0.197691
v 0.130586 -0.029130 0.262861
v 0.092679 -0.029130 0.197691
v 0.092679 -0.029130 0.197691
v 0.036512 -0.033810 0.232739
v 0.092679 0.012541 0.197691
v -0.035720 0.028880 0.217193
v -0.035720 0.014653 0.248572
v 0.010626 -0.008292 0.217097
v -0.071882 -0.008292 0.240848
v -0.035720 0.014653 0.248572
v -0.082071 -0.008292 0.217097
v -0.035720 0.028880 0.217193
v 0.010626 -0.008292 0.217097
v -0.035720 0.020157 0.191801
v -0.035720 -0.036746 0.191801
v -0.068672 -0.008292 0.191801
v -0.035720 -0.036103 -0.195653
v -0.035720 0.023004 0.248572
v 0.036512 0.017221 0.232739
v -0.035720 -0.039593 0.248572
v -0.035720 0.023004 0.248572
v -0.035720 0.023004 0.329771
v 0.036512 0.017221 0.232739
v -0.035720 -0.036103 -0.195653
v -0.066927 -0.008292 -0.195750
v -0.035720 -0.027018 -0.240936
v -0.164123 0.012541 0.197691
v -0.140629 0.017221 0.308434
v -0.107951 0.017221 0.232739
v -0.035720 -0.039593 0.248572
v 0.036512 0.017221 0.232739
v 0.036512 -0.033810 0.232739
v -0.068672 -0.008292 0.191801
v -0.035720 -0.036746 0.191801
v -0.082071 -0.008292 0.217097
v -0.164123 0.012541 0.197691
v -0.202030 -0.029130 0.262861
v -0.202030 0.012541 0.262861
v -0.107951 -0.033810 0.232739
v -0.107951 0.017221 0.232739
v -0.035720 -0.039593 0.248572
v 0.092679 0.012541 0.197691
v 0.069185 0.017221 0.308434
v 0.130586 0.012541 0.262861
v -0.035720 -0.027018 -0.240936
v -0.035720 0.010429 -0.240936
v -0.014519 -0.008292 -0.240936
v -0.035720 -0.027018 -0.240936
v -0.004517 -0.008292 -0.195750
v -0.035720 -0.036103 -0.195653
v -0.035720 -0.027018 -0.240936
v -0.066927 -0.008292 -0.195750
v -0.056925 -0.008292 -0.240936
v -0.014519 -0.008292 -0.240936
v -0.035720 0.010429 -0.240936
v -0.004517 -0.008292 -0.195750
v -0.035720 0.010429 -0.240936
v -0.066927 -0.008292 -0.195750
v -0.035720 0.019515 -0.195653
v -0.035720 0.023004 0.248572
v -0.107951 0.017221 0.232739
v -0.035720 0.023004 0.329771
v 0.130586 0.012541 0.262861
v 0.069185 -0.033810 0.308434
v 0.130586 -0.029130 0.262861
v -0.107951 0.017221 0.232739
v -0.107951 -0.033810 0.232739
v -0.164123 0.012541 0.197691
v 0.130586 0.012541 0.262861
v 0.130586 -0.029130 0.262861
v 0.092679 0.012541 0.197691
v -0.035720 -0.024999 1.835946
v 0.033483 -0.008292 0.315482
v 0.017786 -0.008292 1.835946
v 0.017786 -0.008292 1.835946
v 0.033483 -0.008292 0.315482
v -0.035720 0.008409 1.835946
v 0.069185 0.017221 0.308434
v 0.069185 -0.033810 0.308434
v 0.130586 0.012541 0.262861
v -0.035720 0.008409 1.835946
v -0.104922 -0.008292 0.315482
v -0.089231 -0.008292 1.835946
v -0.035720 0.020157 0.191801
v -0.082071 -0.008292 0.217097
v -0.035720 0.028880 0.217193
v -0.035720 -0.008292 1.986084
v -0.035720 0.008409 1.835946
v -0.089231 -0.008292 1.835946
v -0.035720 -0.008292 1.986084
v 0.017786 -0.008292 1.835946
v -0.035720 0.008409 1.835946
v -0.035720 0.016579 0.329771
v -0.104922 -0.008292 0.315482
v -0.035720 0.008409 1.835946
v -0.035720 0.016579 0.329771
v -0.035720 0.008409 1.835946
v 0.033483 -0.008292 0.315482
v -0.035720 -0.033168 0.329771
v 0.033483 -0.008292 0.315482
v -0.035720 -0.024999 1.835946
v -0.035720 -0.033168 0.329771
v -0.035720 -0.024999 1.835946
v -0.104922 -0.008292 0.315482
vt 0.003660 0.491466
vt 0.140030 0.491466
vt 0.003660 0.211197
vt 0.356489 0.006239
vt 0.914933 0.149508
vt 0.914933 0.006239
vt 0.110382 0.992822
vt 0.995818 0.992822
vt 0.110382 0.741733
vt 0.197225 0.211197
vt 0.110382 0.508255
vt 0.009346 0.741733
vt 0.308368 0.491466
vt 0.887075 0.476650
vt 0.814039 0.476650
vt 0.887075 0.304368
vt 0.130688 0.010510
vt 0.206450 0.010510
vt 0.112828 0.099144
vt 0.708792 0.476650
vt 0.814039 0.304368
vt 0.708792 0.304368
vt 0.475444 0.379684
vt 0.518314 0.455728
vt 0.518314 0.310189
vt 0.308368 0.211197
vt 0.694284 0.476650
vt 0.611215 0.304368
vt 0.694284 0.304368
vt 0.611215 0.476650
vt 0.215382 0.099144
vt 0.200223 0.195902
vt 0.982989 0.149508
vt 0.100301 0.195902
vt 0.024576 0.195902
vt 0.096123 0.010510
vt 0.018532 0.010510
vt 0.008586 0.099144
vt 0.008334 0.099144
vt 0.534019 0.304368
vt 0.534019 0.476650
vt 0.356489 0.149508
vt 0.996662 0.476650
vt 0.996662 0.304368
vt 0.356489 0.290729
vt 0.126014 0.195902
vt 0.914933 0.290729
vt 0.982989 0.259763
vt 0.215164 0.099145
vt 0.982989 0.037132
vt 0.995818 0.508255
vt 0.995818 0.741733
vn 0.079800 -0.996800 -0.000000
vn 0.665400 -0.746500 -0.003000
vn -0.298000 -0.954600 0.003100
vn 0.050600 -0.998500 -0.021800
vn 0.296400 -0.949200 0.105600
vn -0.296400 -0.949200 0.105600
vn 0.065500 -0.997500 -0.028300
vn -0.596000 0.000000 0.803000
vn 0.617600 0.715300 -0.327100
vn 0.199300 0.000000 0.979900
vn 0.050600 0.998500 -0.021800
vn -0.000000 0.000000 -1.000000
vn -0.050600 0.998500 -0.021800
vn 0.065500 0.997500 -0.028300
vn -0.053100 0.998100 -0.030900
vn -0.199300 0.000000 0.979900
vn 0.529400 0.000000 -0.848400
vn 0.053100 -0.998100 -0.030900
vn -0.529400 0.000000 -0.848400
vn -0.590300 0.735200 0.333300
vn 0.657700 0.738600 -0.148200
vn 0.556200 -0.796100 0.238600
vn 0.617600 -0.715200 -0.327100
vn -0.604000 -0.753800 -0.258800
vn -0.590300 -0.735200 0.333300
vn -0.617500 0.715300 -0.327100
vn -0.065500 -0.997500 -0.028300
vn 0.604000 -0.753800 -0.258800
vn -0.079800 -0.996800 -0.000000
vn 0.214100 0.000000 -0.976800
vn 0.653600 -0.756800 -0.001300
vn 0.665300 0.746600 -0.003000
vn 0.590300 -0.735100 0.333300
vn -0.864400 0.000000 -0.502800
vn -0.556100 -0.796100 0.238600
vn -0.653500 0.756900 -0.001300
vn 0.556200 0.796100 0.238600
vn -0.053100 -0.998100 -0.030900
vn -0.050600 -0.998500 -0.021800
vn -0.665300 -0.746600 -0.003000
vn -0.665300 0.746600 -0.003000
vn 0.653500 0.756900 -0.001300
vn -0.654800 0.741700 -0.145000
vn 0.655000 -0.741600 -0.145000
vn 0.864400 0.000000 -0.502800
vn 0.590300 0.735100 0.333300
vn -0.556100 0.796100 0.238600
vn 0.604000 0.753700 -0.258900
vn -0.653600 -0.756900 -0.001300
vn -0.214100 0.000000 -0.976800
vn 0.079800 0.996800 0.000000
vn -0.657700 -0.738500 -0.148200
vn -0.065500 0.997500 -0.028300
vn -0.617600 -0.715200 -0.327100
vn 0.053100 0.998100 -0.030900
vn 0.657800 -0.738500 -0.148200
vn -0.654900 -0.741600 -0.145000
vn 0.654900 0.741700 -0.145000
vn -0.657700 0.738600 -0.148200
vn -0.079800 0.996800 0.000000
vn 0.596000 0.000000 0.803000
vn 0.298100 -0.954500 0.003100
vn 0.298000 0.954600 0.003100
vn -0.297900 0.954600 0.003100
vn -0.604000 0.753800 -0.258900
vn -0.296300 0.949300 0.105600
vn 0.296300 0.949200 0.105600
vn -0.339100 0.940700 0.005100
vn 0.339100 0.940700 0.005100
vn 0.339200 -0.940700 0.005100
vn -0.339200 -0.940700 0.005100
usemtl Model001_Material001.035
s 1
f 1/1/1 2/2/1 3/3/1
f 4/4/2 5/5/2 6/6/2
f 7/7/3 8/8/3 9/9/3
f 10/10/4 11/3/4 12/2/4
f 13/9/5 14/11/5 15/12/5
f 16/12/6 17/7/6 18/9/6
f 19/2/7 20/13/7 21/10/7
f 22/14/8 23/15/8 24/16/8
f 25/17/9 26/18/9 27/19/9
f 28/20/10 29/21/10 30/22/10
f 31/10/11 32/2/11 33/3/11
f 34/23/12 35/24/12 36/25/12
f 37/10/13 38/3/13 39/2/13
f 40/2/14 41/10/14 42/13/14
f 43/16/8 44/15/8 45/21/8
f 46/26/15 47/10/15 48/13/15
f 49/22/16 50/21/16 51/20/16
f 52/27/17 53/28/17 54/29/17
f 55/10/18 56/13/18 57/26/18
f 58/27/19 59/28/19 60/30/19
f 61/31/20 62/19/20 63/32/20
f 64/5/21 65/6/21 66/33/21
f 67/34/22 68/35/22 69/19/22
f 70/36/23 71/19/23 72/37/23
f 73/38/24 74/19/24 75/37/24
f 76/39/25 77/35/25 78/19/25
f 79/17/26 80/19/26 81/18/26
f 82/2/27 83/10/27 84/13/27
f 85/37/28 86/19/28 87/38/28
f 88/1/29 89/3/29 90/2/29
f 91/40/30 92/30/30 93/41/30
f 94/42/31 95/5/31 96/4/31
f 97/6/32 98/5/32 99/4/32
f 100/39/33 101/19/33 102/35/33
f 103/15/10 104/21/10 105/20/10
f 106/43/34 107/14/34 108/44/34
f 109/19/35 110/35/35 111/34/35
f 112/42/36 113/5/36 114/45/36
f 115/20/16 116/21/16 117/15/16
f 118/19/37 119/32/37 120/46/37
f 121/26/38 122/13/38 123/10/38
f 124/10/39 125/2/39 126/3/39
f 127/47/40 128/5/40 129/45/40
f 130/45/41 131/5/41 132/47/41
f 133/42/42 134/4/42 135/5/42
f 136/48/43 137/47/43 138/33/43
f 139/48/44 140/47/44 141/33/44
f 142/44/45 143/14/45 144/43/45
f 145/29/19 146/28/19 147/27/19
f 148/31/46 149/32/46 150/19/46
f 151/46/47 152/32/47 153/19/47
f 154/49/48 155/19/48 156/18/48
f 157/42/49 158/45/49 159/5/49
f 160/41/50 161/30/50 162/40/50
f 163/1/51 164/3/51 165/2/51
f 166/5/52 167/6/52 168/33/52
f 169/13/53 170/10/53 171/2/53
f 172/40/50 173/30/50 174/28/50
f 175/36/54 176/37/54 177/19/54
f 178/44/34 179/14/34 180/16/34
f 181/28/30 182/30/30 183/40/30
f 184/13/55 185/10/55 186/26/55
f 187/25/12 188/24/12 189/23/12
f 190/33/56 191/47/56 192/5/56
f 193/33/57 194/6/57 195/50/57
f 196/50/58 197/33/58 198/6/58
f 199/33/59 200/47/59 201/5/59
f 202/1/60 203/2/60 204/3/60
f 205/16/61 206/15/61 207/14/61
f 208/30/17 209/28/17 210/27/17
f 211/16/45 212/14/45 213/44/45
f 214/9/62 215/51/62 216/11/62
f 217/7/63 218/8/63 219/9/63
f 220/21/61 221/15/61 222/16/61
f 223/9/64 224/51/64 225/11/64
f 226/18/65 227/19/65 228/49/65
f 229/12/66 230/9/66 231/11/66
f 232/12/67 233/7/67 234/9/67
f 235/52/68 236/51/68 237/9/68
f 238/52/69 239/9/69 240/8/69
f 241/52/70 242/51/70 243/9/70
f 244/52/71 245/9/71 246/8/71
